M48
; DRILL file {KiCad 5.1.9-73d0e3b20d~88~ubuntu18.04.1} date Sun Nov 28 01:15:12 2021
; FORMAT={-:-/ absolute / inch / decimal}
; #@! TF.CreationDate,2021-11-28T01:15:12+02:00
; #@! TF.GenerationSoftware,Kicad,Pcbnew,5.1.9-73d0e3b20d~88~ubuntu18.04.1
FMAT,2
INCH
T1C0.0157
T2C0.0394
%
G90
G05
T1
X5.5177Y-2.5925
X5.5748Y-3.9685
X5.6004Y-2.5906
X5.6343Y-3.718
X5.6496Y-3.7894
X5.6683Y-3.565
X5.7717Y-3.1929
X5.7717Y-3.3071
X5.7756Y-2.9272
X5.7756Y-3.0571
X5.7776Y-4.0748
X5.7854Y-3.4665
X5.8307Y-3.4665
X5.8543Y-3.372
X5.876Y-3.4665
X5.9193Y-3.4665
X5.9213Y-3.9862
X6.0531Y-3.9882
X6.0965Y-3.4606
X6.1004Y-3.3445
X6.1437Y-3.4606
X6.185Y-3.4587
X6.187Y-3.1929
X6.187Y-3.3799
X6.187Y-3.4193
X6.1909Y-3.3071
X6.1969Y-4.0768
X6.2067Y-2.9252
X6.2187Y-3.0557
X6.2461Y-3.5256
X6.2795Y-3.7874
X6.311Y-3.5315
X6.3287Y-3.7894
X6.378Y-3.7874
X6.3839Y-2.5866
X6.3878Y-2.8957
X6.3996Y-3.9685
X6.4508Y-3.8346
X6.4508Y-3.9685
X6.4587Y-2.5886
T2
X5.5354Y-2.9488
X5.5354Y-3.0488
X5.5354Y-3.1488
X5.5354Y-3.2488
X5.5354Y-3.3488
X5.5354Y-3.4488
X5.5354Y-3.5488
X5.5354Y-3.6488
X5.5354Y-3.7488
X5.7421Y-3.6713
X5.8421Y-3.6713
X5.9421Y-3.6713
X6.0421Y-3.6713
X6.1421Y-3.6713
X6.2421Y-3.6713
X6.4409Y-2.9488
X6.4409Y-3.0488
X6.4409Y-3.1488
X6.4409Y-3.2488
X6.4409Y-3.3488
X6.4409Y-3.4488
X6.4409Y-3.5488
X6.4409Y-3.6488
X6.4409Y-3.7488
T0
M30
