%TF.GenerationSoftware,KiCad,Pcbnew,5.1.12-84ad8e8a86~92~ubuntu20.04.1*%
%TF.CreationDate,2022-01-07T22:28:58+02:00*%
%TF.ProjectId,ESP8266-Breakout-panel,45535038-3236-4362-9d42-7265616b6f75,rev?*%
%TF.SameCoordinates,Original*%
%TF.FileFunction,Legend,Top*%
%TF.FilePolarity,Positive*%
%FSLAX46Y46*%
G04 Gerber Fmt 4.6, Leading zero omitted, Abs format (unit mm)*
G04 Created by KiCad (PCBNEW 5.1.12-84ad8e8a86~92~ubuntu20.04.1) date 2022-01-07 22:28:58*
%MOMM*%
%LPD*%
G01*
G04 APERTURE LIST*
%ADD10C,0.100000*%
%ADD11C,0.130000*%
%ADD12C,0.300000*%
%ADD13C,0.120000*%
%ADD14C,0.150000*%
G04 APERTURE END LIST*
D10*
X187498571Y-102017857D02*
X187041428Y-102017857D01*
X187270000Y-102246428D02*
X187270000Y-101789285D01*
X158898571Y-102017857D02*
X158441428Y-102017857D01*
X158670000Y-102246428D02*
X158670000Y-101789285D01*
X130298571Y-102017857D02*
X129841428Y-102017857D01*
X130070000Y-102246428D02*
X130070000Y-101789285D01*
X187498571Y-59917857D02*
X187041428Y-59917857D01*
X187270000Y-60146428D02*
X187270000Y-59689285D01*
X158898571Y-59917857D02*
X158441428Y-59917857D01*
X158670000Y-60146428D02*
X158670000Y-59689285D01*
D11*
X164398571Y-125132142D02*
X164955714Y-125132142D01*
X164655714Y-125475000D01*
X164784285Y-125475000D01*
X164870000Y-125517857D01*
X164912857Y-125560714D01*
X164955714Y-125646428D01*
X164955714Y-125860714D01*
X164912857Y-125946428D01*
X164870000Y-125989285D01*
X164784285Y-126032142D01*
X164527142Y-126032142D01*
X164441428Y-125989285D01*
X164398571Y-125946428D01*
X165255714Y-125432142D02*
X165470000Y-126032142D01*
X165684285Y-125432142D01*
X165941428Y-125132142D02*
X166498571Y-125132142D01*
X166198571Y-125475000D01*
X166327142Y-125475000D01*
X166412857Y-125517857D01*
X166455714Y-125560714D01*
X166498571Y-125646428D01*
X166498571Y-125860714D01*
X166455714Y-125946428D01*
X166412857Y-125989285D01*
X166327142Y-126032142D01*
X166070000Y-126032142D01*
X165984285Y-125989285D01*
X165941428Y-125946428D01*
X135798571Y-125132142D02*
X136355714Y-125132142D01*
X136055714Y-125475000D01*
X136184285Y-125475000D01*
X136270000Y-125517857D01*
X136312857Y-125560714D01*
X136355714Y-125646428D01*
X136355714Y-125860714D01*
X136312857Y-125946428D01*
X136270000Y-125989285D01*
X136184285Y-126032142D01*
X135927142Y-126032142D01*
X135841428Y-125989285D01*
X135798571Y-125946428D01*
X136655714Y-125432142D02*
X136870000Y-126032142D01*
X137084285Y-125432142D01*
X137341428Y-125132142D02*
X137898571Y-125132142D01*
X137598571Y-125475000D01*
X137727142Y-125475000D01*
X137812857Y-125517857D01*
X137855714Y-125560714D01*
X137898571Y-125646428D01*
X137898571Y-125860714D01*
X137855714Y-125946428D01*
X137812857Y-125989285D01*
X137727142Y-126032142D01*
X137470000Y-126032142D01*
X137384285Y-125989285D01*
X137341428Y-125946428D01*
X107198571Y-125132142D02*
X107755714Y-125132142D01*
X107455714Y-125475000D01*
X107584285Y-125475000D01*
X107670000Y-125517857D01*
X107712857Y-125560714D01*
X107755714Y-125646428D01*
X107755714Y-125860714D01*
X107712857Y-125946428D01*
X107670000Y-125989285D01*
X107584285Y-126032142D01*
X107327142Y-126032142D01*
X107241428Y-125989285D01*
X107198571Y-125946428D01*
X108055714Y-125432142D02*
X108270000Y-126032142D01*
X108484285Y-125432142D01*
X108741428Y-125132142D02*
X109298571Y-125132142D01*
X108998571Y-125475000D01*
X109127142Y-125475000D01*
X109212857Y-125517857D01*
X109255714Y-125560714D01*
X109298571Y-125646428D01*
X109298571Y-125860714D01*
X109255714Y-125946428D01*
X109212857Y-125989285D01*
X109127142Y-126032142D01*
X108870000Y-126032142D01*
X108784285Y-125989285D01*
X108741428Y-125946428D01*
X164398571Y-83032142D02*
X164955714Y-83032142D01*
X164655714Y-83375000D01*
X164784285Y-83375000D01*
X164870000Y-83417857D01*
X164912857Y-83460714D01*
X164955714Y-83546428D01*
X164955714Y-83760714D01*
X164912857Y-83846428D01*
X164870000Y-83889285D01*
X164784285Y-83932142D01*
X164527142Y-83932142D01*
X164441428Y-83889285D01*
X164398571Y-83846428D01*
X165255714Y-83332142D02*
X165470000Y-83932142D01*
X165684285Y-83332142D01*
X165941428Y-83032142D02*
X166498571Y-83032142D01*
X166198571Y-83375000D01*
X166327142Y-83375000D01*
X166412857Y-83417857D01*
X166455714Y-83460714D01*
X166498571Y-83546428D01*
X166498571Y-83760714D01*
X166455714Y-83846428D01*
X166412857Y-83889285D01*
X166327142Y-83932142D01*
X166070000Y-83932142D01*
X165984285Y-83889285D01*
X165941428Y-83846428D01*
X135798571Y-83032142D02*
X136355714Y-83032142D01*
X136055714Y-83375000D01*
X136184285Y-83375000D01*
X136270000Y-83417857D01*
X136312857Y-83460714D01*
X136355714Y-83546428D01*
X136355714Y-83760714D01*
X136312857Y-83846428D01*
X136270000Y-83889285D01*
X136184285Y-83932142D01*
X135927142Y-83932142D01*
X135841428Y-83889285D01*
X135798571Y-83846428D01*
X136655714Y-83332142D02*
X136870000Y-83932142D01*
X137084285Y-83332142D01*
X137341428Y-83032142D02*
X137898571Y-83032142D01*
X137598571Y-83375000D01*
X137727142Y-83375000D01*
X137812857Y-83417857D01*
X137855714Y-83460714D01*
X137898571Y-83546428D01*
X137898571Y-83760714D01*
X137855714Y-83846428D01*
X137812857Y-83889285D01*
X137727142Y-83932142D01*
X137470000Y-83932142D01*
X137384285Y-83889285D01*
X137341428Y-83846428D01*
D10*
X162548571Y-101947857D02*
X162091428Y-101947857D01*
X162320000Y-102176428D02*
X162320000Y-101719285D01*
X133948571Y-101947857D02*
X133491428Y-101947857D01*
X133720000Y-102176428D02*
X133720000Y-101719285D01*
X105348571Y-101947857D02*
X104891428Y-101947857D01*
X105120000Y-102176428D02*
X105120000Y-101719285D01*
X162548571Y-59847857D02*
X162091428Y-59847857D01*
X162320000Y-60076428D02*
X162320000Y-59619285D01*
X133948571Y-59847857D02*
X133491428Y-59847857D01*
X133720000Y-60076428D02*
X133720000Y-59619285D01*
D11*
X178084285Y-123832142D02*
X178598571Y-123832142D01*
X178341428Y-124732142D02*
X178341428Y-123832142D01*
X178812857Y-123832142D02*
X179412857Y-124732142D01*
X179412857Y-123832142D02*
X178812857Y-124732142D01*
X149484285Y-123832142D02*
X149998571Y-123832142D01*
X149741428Y-124732142D02*
X149741428Y-123832142D01*
X150212857Y-123832142D02*
X150812857Y-124732142D01*
X150812857Y-123832142D02*
X150212857Y-124732142D01*
X120884285Y-123832142D02*
X121398571Y-123832142D01*
X121141428Y-124732142D02*
X121141428Y-123832142D01*
X121612857Y-123832142D02*
X122212857Y-124732142D01*
X122212857Y-123832142D02*
X121612857Y-124732142D01*
X178084285Y-81732142D02*
X178598571Y-81732142D01*
X178341428Y-82632142D02*
X178341428Y-81732142D01*
X178812857Y-81732142D02*
X179412857Y-82632142D01*
X179412857Y-81732142D02*
X178812857Y-82632142D01*
X149484285Y-81732142D02*
X149998571Y-81732142D01*
X149741428Y-82632142D02*
X149741428Y-81732142D01*
X150212857Y-81732142D02*
X150812857Y-82632142D01*
X150812857Y-81732142D02*
X150212857Y-82632142D01*
X164970000Y-108232142D02*
X164670000Y-107803571D01*
X164455714Y-108232142D02*
X164455714Y-107332142D01*
X164798571Y-107332142D01*
X164884285Y-107375000D01*
X164927142Y-107417857D01*
X164970000Y-107503571D01*
X164970000Y-107632142D01*
X164927142Y-107717857D01*
X164884285Y-107760714D01*
X164798571Y-107803571D01*
X164455714Y-107803571D01*
X165312857Y-108189285D02*
X165441428Y-108232142D01*
X165655714Y-108232142D01*
X165741428Y-108189285D01*
X165784285Y-108146428D01*
X165827142Y-108060714D01*
X165827142Y-107975000D01*
X165784285Y-107889285D01*
X165741428Y-107846428D01*
X165655714Y-107803571D01*
X165484285Y-107760714D01*
X165398571Y-107717857D01*
X165355714Y-107675000D01*
X165312857Y-107589285D01*
X165312857Y-107503571D01*
X165355714Y-107417857D01*
X165398571Y-107375000D01*
X165484285Y-107332142D01*
X165698571Y-107332142D01*
X165827142Y-107375000D01*
X136370000Y-108232142D02*
X136070000Y-107803571D01*
X135855714Y-108232142D02*
X135855714Y-107332142D01*
X136198571Y-107332142D01*
X136284285Y-107375000D01*
X136327142Y-107417857D01*
X136370000Y-107503571D01*
X136370000Y-107632142D01*
X136327142Y-107717857D01*
X136284285Y-107760714D01*
X136198571Y-107803571D01*
X135855714Y-107803571D01*
X136712857Y-108189285D02*
X136841428Y-108232142D01*
X137055714Y-108232142D01*
X137141428Y-108189285D01*
X137184285Y-108146428D01*
X137227142Y-108060714D01*
X137227142Y-107975000D01*
X137184285Y-107889285D01*
X137141428Y-107846428D01*
X137055714Y-107803571D01*
X136884285Y-107760714D01*
X136798571Y-107717857D01*
X136755714Y-107675000D01*
X136712857Y-107589285D01*
X136712857Y-107503571D01*
X136755714Y-107417857D01*
X136798571Y-107375000D01*
X136884285Y-107332142D01*
X137098571Y-107332142D01*
X137227142Y-107375000D01*
X107770000Y-108232142D02*
X107470000Y-107803571D01*
X107255714Y-108232142D02*
X107255714Y-107332142D01*
X107598571Y-107332142D01*
X107684285Y-107375000D01*
X107727142Y-107417857D01*
X107770000Y-107503571D01*
X107770000Y-107632142D01*
X107727142Y-107717857D01*
X107684285Y-107760714D01*
X107598571Y-107803571D01*
X107255714Y-107803571D01*
X108112857Y-108189285D02*
X108241428Y-108232142D01*
X108455714Y-108232142D01*
X108541428Y-108189285D01*
X108584285Y-108146428D01*
X108627142Y-108060714D01*
X108627142Y-107975000D01*
X108584285Y-107889285D01*
X108541428Y-107846428D01*
X108455714Y-107803571D01*
X108284285Y-107760714D01*
X108198571Y-107717857D01*
X108155714Y-107675000D01*
X108112857Y-107589285D01*
X108112857Y-107503571D01*
X108155714Y-107417857D01*
X108198571Y-107375000D01*
X108284285Y-107332142D01*
X108498571Y-107332142D01*
X108627142Y-107375000D01*
X164970000Y-66132142D02*
X164670000Y-65703571D01*
X164455714Y-66132142D02*
X164455714Y-65232142D01*
X164798571Y-65232142D01*
X164884285Y-65275000D01*
X164927142Y-65317857D01*
X164970000Y-65403571D01*
X164970000Y-65532142D01*
X164927142Y-65617857D01*
X164884285Y-65660714D01*
X164798571Y-65703571D01*
X164455714Y-65703571D01*
X165312857Y-66089285D02*
X165441428Y-66132142D01*
X165655714Y-66132142D01*
X165741428Y-66089285D01*
X165784285Y-66046428D01*
X165827142Y-65960714D01*
X165827142Y-65875000D01*
X165784285Y-65789285D01*
X165741428Y-65746428D01*
X165655714Y-65703571D01*
X165484285Y-65660714D01*
X165398571Y-65617857D01*
X165355714Y-65575000D01*
X165312857Y-65489285D01*
X165312857Y-65403571D01*
X165355714Y-65317857D01*
X165398571Y-65275000D01*
X165484285Y-65232142D01*
X165698571Y-65232142D01*
X165827142Y-65275000D01*
X136370000Y-66132142D02*
X136070000Y-65703571D01*
X135855714Y-66132142D02*
X135855714Y-65232142D01*
X136198571Y-65232142D01*
X136284285Y-65275000D01*
X136327142Y-65317857D01*
X136370000Y-65403571D01*
X136370000Y-65532142D01*
X136327142Y-65617857D01*
X136284285Y-65660714D01*
X136198571Y-65703571D01*
X135855714Y-65703571D01*
X136712857Y-66089285D02*
X136841428Y-66132142D01*
X137055714Y-66132142D01*
X137141428Y-66089285D01*
X137184285Y-66046428D01*
X137227142Y-65960714D01*
X137227142Y-65875000D01*
X137184285Y-65789285D01*
X137141428Y-65746428D01*
X137055714Y-65703571D01*
X136884285Y-65660714D01*
X136798571Y-65617857D01*
X136755714Y-65575000D01*
X136712857Y-65489285D01*
X136712857Y-65403571D01*
X136755714Y-65317857D01*
X136798571Y-65275000D01*
X136884285Y-65232142D01*
X137098571Y-65232142D01*
X137227142Y-65275000D01*
X164405714Y-110525000D02*
X164834285Y-110525000D01*
X164320000Y-110782142D02*
X164620000Y-109882142D01*
X164920000Y-110782142D01*
X165220000Y-110782142D02*
X165220000Y-109882142D01*
X165434285Y-109882142D01*
X165562857Y-109925000D01*
X165648571Y-110010714D01*
X165691428Y-110096428D01*
X165734285Y-110267857D01*
X165734285Y-110396428D01*
X165691428Y-110567857D01*
X165648571Y-110653571D01*
X165562857Y-110739285D01*
X165434285Y-110782142D01*
X165220000Y-110782142D01*
X135805714Y-110525000D02*
X136234285Y-110525000D01*
X135720000Y-110782142D02*
X136020000Y-109882142D01*
X136320000Y-110782142D01*
X136620000Y-110782142D02*
X136620000Y-109882142D01*
X136834285Y-109882142D01*
X136962857Y-109925000D01*
X137048571Y-110010714D01*
X137091428Y-110096428D01*
X137134285Y-110267857D01*
X137134285Y-110396428D01*
X137091428Y-110567857D01*
X137048571Y-110653571D01*
X136962857Y-110739285D01*
X136834285Y-110782142D01*
X136620000Y-110782142D01*
X107205714Y-110525000D02*
X107634285Y-110525000D01*
X107120000Y-110782142D02*
X107420000Y-109882142D01*
X107720000Y-110782142D01*
X108020000Y-110782142D02*
X108020000Y-109882142D01*
X108234285Y-109882142D01*
X108362857Y-109925000D01*
X108448571Y-110010714D01*
X108491428Y-110096428D01*
X108534285Y-110267857D01*
X108534285Y-110396428D01*
X108491428Y-110567857D01*
X108448571Y-110653571D01*
X108362857Y-110739285D01*
X108234285Y-110782142D01*
X108020000Y-110782142D01*
X164405714Y-68425000D02*
X164834285Y-68425000D01*
X164320000Y-68682142D02*
X164620000Y-67782142D01*
X164920000Y-68682142D01*
X165220000Y-68682142D02*
X165220000Y-67782142D01*
X165434285Y-67782142D01*
X165562857Y-67825000D01*
X165648571Y-67910714D01*
X165691428Y-67996428D01*
X165734285Y-68167857D01*
X165734285Y-68296428D01*
X165691428Y-68467857D01*
X165648571Y-68553571D01*
X165562857Y-68639285D01*
X165434285Y-68682142D01*
X165220000Y-68682142D01*
X135805714Y-68425000D02*
X136234285Y-68425000D01*
X135720000Y-68682142D02*
X136020000Y-67782142D01*
X136320000Y-68682142D01*
X136620000Y-68682142D02*
X136620000Y-67782142D01*
X136834285Y-67782142D01*
X136962857Y-67825000D01*
X137048571Y-67910714D01*
X137091428Y-67996428D01*
X137134285Y-68167857D01*
X137134285Y-68296428D01*
X137091428Y-68467857D01*
X137048571Y-68553571D01*
X136962857Y-68639285D01*
X136834285Y-68682142D01*
X136620000Y-68682142D01*
X164405714Y-112910714D02*
X164705714Y-112910714D01*
X164834285Y-113382142D02*
X164405714Y-113382142D01*
X164405714Y-112482142D01*
X164834285Y-112482142D01*
X165220000Y-113382142D02*
X165220000Y-112482142D01*
X165734285Y-113382142D01*
X165734285Y-112482142D01*
X135805714Y-112910714D02*
X136105714Y-112910714D01*
X136234285Y-113382142D02*
X135805714Y-113382142D01*
X135805714Y-112482142D01*
X136234285Y-112482142D01*
X136620000Y-113382142D02*
X136620000Y-112482142D01*
X137134285Y-113382142D01*
X137134285Y-112482142D01*
X107205714Y-112910714D02*
X107505714Y-112910714D01*
X107634285Y-113382142D02*
X107205714Y-113382142D01*
X107205714Y-112482142D01*
X107634285Y-112482142D01*
X108020000Y-113382142D02*
X108020000Y-112482142D01*
X108534285Y-113382142D01*
X108534285Y-112482142D01*
X164405714Y-70810714D02*
X164705714Y-70810714D01*
X164834285Y-71282142D02*
X164405714Y-71282142D01*
X164405714Y-70382142D01*
X164834285Y-70382142D01*
X165220000Y-71282142D02*
X165220000Y-70382142D01*
X165734285Y-71282142D01*
X165734285Y-70382142D01*
X135805714Y-70810714D02*
X136105714Y-70810714D01*
X136234285Y-71282142D02*
X135805714Y-71282142D01*
X135805714Y-70382142D01*
X136234285Y-70382142D01*
X136620000Y-71282142D02*
X136620000Y-70382142D01*
X137134285Y-71282142D01*
X137134285Y-70382142D01*
X164898571Y-115682142D02*
X164384285Y-115682142D01*
X164641428Y-115682142D02*
X164641428Y-114782142D01*
X164555714Y-114910714D01*
X164470000Y-114996428D01*
X164384285Y-115039285D01*
X165670000Y-114782142D02*
X165498571Y-114782142D01*
X165412857Y-114825000D01*
X165370000Y-114867857D01*
X165284285Y-114996428D01*
X165241428Y-115167857D01*
X165241428Y-115510714D01*
X165284285Y-115596428D01*
X165327142Y-115639285D01*
X165412857Y-115682142D01*
X165584285Y-115682142D01*
X165670000Y-115639285D01*
X165712857Y-115596428D01*
X165755714Y-115510714D01*
X165755714Y-115296428D01*
X165712857Y-115210714D01*
X165670000Y-115167857D01*
X165584285Y-115125000D01*
X165412857Y-115125000D01*
X165327142Y-115167857D01*
X165284285Y-115210714D01*
X165241428Y-115296428D01*
X136298571Y-115682142D02*
X135784285Y-115682142D01*
X136041428Y-115682142D02*
X136041428Y-114782142D01*
X135955714Y-114910714D01*
X135870000Y-114996428D01*
X135784285Y-115039285D01*
X137070000Y-114782142D02*
X136898571Y-114782142D01*
X136812857Y-114825000D01*
X136770000Y-114867857D01*
X136684285Y-114996428D01*
X136641428Y-115167857D01*
X136641428Y-115510714D01*
X136684285Y-115596428D01*
X136727142Y-115639285D01*
X136812857Y-115682142D01*
X136984285Y-115682142D01*
X137070000Y-115639285D01*
X137112857Y-115596428D01*
X137155714Y-115510714D01*
X137155714Y-115296428D01*
X137112857Y-115210714D01*
X137070000Y-115167857D01*
X136984285Y-115125000D01*
X136812857Y-115125000D01*
X136727142Y-115167857D01*
X136684285Y-115210714D01*
X136641428Y-115296428D01*
X107698571Y-115682142D02*
X107184285Y-115682142D01*
X107441428Y-115682142D02*
X107441428Y-114782142D01*
X107355714Y-114910714D01*
X107270000Y-114996428D01*
X107184285Y-115039285D01*
X108470000Y-114782142D02*
X108298571Y-114782142D01*
X108212857Y-114825000D01*
X108170000Y-114867857D01*
X108084285Y-114996428D01*
X108041428Y-115167857D01*
X108041428Y-115510714D01*
X108084285Y-115596428D01*
X108127142Y-115639285D01*
X108212857Y-115682142D01*
X108384285Y-115682142D01*
X108470000Y-115639285D01*
X108512857Y-115596428D01*
X108555714Y-115510714D01*
X108555714Y-115296428D01*
X108512857Y-115210714D01*
X108470000Y-115167857D01*
X108384285Y-115125000D01*
X108212857Y-115125000D01*
X108127142Y-115167857D01*
X108084285Y-115210714D01*
X108041428Y-115296428D01*
X164898571Y-73582142D02*
X164384285Y-73582142D01*
X164641428Y-73582142D02*
X164641428Y-72682142D01*
X164555714Y-72810714D01*
X164470000Y-72896428D01*
X164384285Y-72939285D01*
X165670000Y-72682142D02*
X165498571Y-72682142D01*
X165412857Y-72725000D01*
X165370000Y-72767857D01*
X165284285Y-72896428D01*
X165241428Y-73067857D01*
X165241428Y-73410714D01*
X165284285Y-73496428D01*
X165327142Y-73539285D01*
X165412857Y-73582142D01*
X165584285Y-73582142D01*
X165670000Y-73539285D01*
X165712857Y-73496428D01*
X165755714Y-73410714D01*
X165755714Y-73196428D01*
X165712857Y-73110714D01*
X165670000Y-73067857D01*
X165584285Y-73025000D01*
X165412857Y-73025000D01*
X165327142Y-73067857D01*
X165284285Y-73110714D01*
X165241428Y-73196428D01*
X136298571Y-73582142D02*
X135784285Y-73582142D01*
X136041428Y-73582142D02*
X136041428Y-72682142D01*
X135955714Y-72810714D01*
X135870000Y-72896428D01*
X135784285Y-72939285D01*
X137070000Y-72682142D02*
X136898571Y-72682142D01*
X136812857Y-72725000D01*
X136770000Y-72767857D01*
X136684285Y-72896428D01*
X136641428Y-73067857D01*
X136641428Y-73410714D01*
X136684285Y-73496428D01*
X136727142Y-73539285D01*
X136812857Y-73582142D01*
X136984285Y-73582142D01*
X137070000Y-73539285D01*
X137112857Y-73496428D01*
X137155714Y-73410714D01*
X137155714Y-73196428D01*
X137112857Y-73110714D01*
X137070000Y-73067857D01*
X136984285Y-73025000D01*
X136812857Y-73025000D01*
X136727142Y-73067857D01*
X136684285Y-73110714D01*
X136641428Y-73196428D01*
X164848571Y-118282142D02*
X164334285Y-118282142D01*
X164591428Y-118282142D02*
X164591428Y-117382142D01*
X164505714Y-117510714D01*
X164420000Y-117596428D01*
X164334285Y-117639285D01*
X165620000Y-117682142D02*
X165620000Y-118282142D01*
X165405714Y-117339285D02*
X165191428Y-117982142D01*
X165748571Y-117982142D01*
X136248571Y-118282142D02*
X135734285Y-118282142D01*
X135991428Y-118282142D02*
X135991428Y-117382142D01*
X135905714Y-117510714D01*
X135820000Y-117596428D01*
X135734285Y-117639285D01*
X137020000Y-117682142D02*
X137020000Y-118282142D01*
X136805714Y-117339285D02*
X136591428Y-117982142D01*
X137148571Y-117982142D01*
X107648571Y-118282142D02*
X107134285Y-118282142D01*
X107391428Y-118282142D02*
X107391428Y-117382142D01*
X107305714Y-117510714D01*
X107220000Y-117596428D01*
X107134285Y-117639285D01*
X108420000Y-117682142D02*
X108420000Y-118282142D01*
X108205714Y-117339285D02*
X107991428Y-117982142D01*
X108548571Y-117982142D01*
X164848571Y-76182142D02*
X164334285Y-76182142D01*
X164591428Y-76182142D02*
X164591428Y-75282142D01*
X164505714Y-75410714D01*
X164420000Y-75496428D01*
X164334285Y-75539285D01*
X165620000Y-75582142D02*
X165620000Y-76182142D01*
X165405714Y-75239285D02*
X165191428Y-75882142D01*
X165748571Y-75882142D01*
X136248571Y-76182142D02*
X135734285Y-76182142D01*
X135991428Y-76182142D02*
X135991428Y-75282142D01*
X135905714Y-75410714D01*
X135820000Y-75496428D01*
X135734285Y-75539285D01*
X137020000Y-75582142D02*
X137020000Y-76182142D01*
X136805714Y-75239285D02*
X136591428Y-75882142D01*
X137148571Y-75882142D01*
X164948571Y-120932142D02*
X164434285Y-120932142D01*
X164691428Y-120932142D02*
X164691428Y-120032142D01*
X164605714Y-120160714D01*
X164520000Y-120246428D01*
X164434285Y-120289285D01*
X165291428Y-120117857D02*
X165334285Y-120075000D01*
X165420000Y-120032142D01*
X165634285Y-120032142D01*
X165720000Y-120075000D01*
X165762857Y-120117857D01*
X165805714Y-120203571D01*
X165805714Y-120289285D01*
X165762857Y-120417857D01*
X165248571Y-120932142D01*
X165805714Y-120932142D01*
X136348571Y-120932142D02*
X135834285Y-120932142D01*
X136091428Y-120932142D02*
X136091428Y-120032142D01*
X136005714Y-120160714D01*
X135920000Y-120246428D01*
X135834285Y-120289285D01*
X136691428Y-120117857D02*
X136734285Y-120075000D01*
X136820000Y-120032142D01*
X137034285Y-120032142D01*
X137120000Y-120075000D01*
X137162857Y-120117857D01*
X137205714Y-120203571D01*
X137205714Y-120289285D01*
X137162857Y-120417857D01*
X136648571Y-120932142D01*
X137205714Y-120932142D01*
X107748571Y-120932142D02*
X107234285Y-120932142D01*
X107491428Y-120932142D02*
X107491428Y-120032142D01*
X107405714Y-120160714D01*
X107320000Y-120246428D01*
X107234285Y-120289285D01*
X108091428Y-120117857D02*
X108134285Y-120075000D01*
X108220000Y-120032142D01*
X108434285Y-120032142D01*
X108520000Y-120075000D01*
X108562857Y-120117857D01*
X108605714Y-120203571D01*
X108605714Y-120289285D01*
X108562857Y-120417857D01*
X108048571Y-120932142D01*
X108605714Y-120932142D01*
X164948571Y-78832142D02*
X164434285Y-78832142D01*
X164691428Y-78832142D02*
X164691428Y-77932142D01*
X164605714Y-78060714D01*
X164520000Y-78146428D01*
X164434285Y-78189285D01*
X165291428Y-78017857D02*
X165334285Y-77975000D01*
X165420000Y-77932142D01*
X165634285Y-77932142D01*
X165720000Y-77975000D01*
X165762857Y-78017857D01*
X165805714Y-78103571D01*
X165805714Y-78189285D01*
X165762857Y-78317857D01*
X165248571Y-78832142D01*
X165805714Y-78832142D01*
X136348571Y-78832142D02*
X135834285Y-78832142D01*
X136091428Y-78832142D02*
X136091428Y-77932142D01*
X136005714Y-78060714D01*
X135920000Y-78146428D01*
X135834285Y-78189285D01*
X136691428Y-78017857D02*
X136734285Y-77975000D01*
X136820000Y-77932142D01*
X137034285Y-77932142D01*
X137120000Y-77975000D01*
X137162857Y-78017857D01*
X137205714Y-78103571D01*
X137205714Y-78189285D01*
X137162857Y-78317857D01*
X136648571Y-78832142D01*
X137205714Y-78832142D01*
X164998571Y-123482142D02*
X164484285Y-123482142D01*
X164741428Y-123482142D02*
X164741428Y-122582142D01*
X164655714Y-122710714D01*
X164570000Y-122796428D01*
X164484285Y-122839285D01*
X165298571Y-122582142D02*
X165855714Y-122582142D01*
X165555714Y-122925000D01*
X165684285Y-122925000D01*
X165770000Y-122967857D01*
X165812857Y-123010714D01*
X165855714Y-123096428D01*
X165855714Y-123310714D01*
X165812857Y-123396428D01*
X165770000Y-123439285D01*
X165684285Y-123482142D01*
X165427142Y-123482142D01*
X165341428Y-123439285D01*
X165298571Y-123396428D01*
X136398571Y-123482142D02*
X135884285Y-123482142D01*
X136141428Y-123482142D02*
X136141428Y-122582142D01*
X136055714Y-122710714D01*
X135970000Y-122796428D01*
X135884285Y-122839285D01*
X136698571Y-122582142D02*
X137255714Y-122582142D01*
X136955714Y-122925000D01*
X137084285Y-122925000D01*
X137170000Y-122967857D01*
X137212857Y-123010714D01*
X137255714Y-123096428D01*
X137255714Y-123310714D01*
X137212857Y-123396428D01*
X137170000Y-123439285D01*
X137084285Y-123482142D01*
X136827142Y-123482142D01*
X136741428Y-123439285D01*
X136698571Y-123396428D01*
X107798571Y-123482142D02*
X107284285Y-123482142D01*
X107541428Y-123482142D02*
X107541428Y-122582142D01*
X107455714Y-122710714D01*
X107370000Y-122796428D01*
X107284285Y-122839285D01*
X108098571Y-122582142D02*
X108655714Y-122582142D01*
X108355714Y-122925000D01*
X108484285Y-122925000D01*
X108570000Y-122967857D01*
X108612857Y-123010714D01*
X108655714Y-123096428D01*
X108655714Y-123310714D01*
X108612857Y-123396428D01*
X108570000Y-123439285D01*
X108484285Y-123482142D01*
X108227142Y-123482142D01*
X108141428Y-123439285D01*
X108098571Y-123396428D01*
X164998571Y-81382142D02*
X164484285Y-81382142D01*
X164741428Y-81382142D02*
X164741428Y-80482142D01*
X164655714Y-80610714D01*
X164570000Y-80696428D01*
X164484285Y-80739285D01*
X165298571Y-80482142D02*
X165855714Y-80482142D01*
X165555714Y-80825000D01*
X165684285Y-80825000D01*
X165770000Y-80867857D01*
X165812857Y-80910714D01*
X165855714Y-80996428D01*
X165855714Y-81210714D01*
X165812857Y-81296428D01*
X165770000Y-81339285D01*
X165684285Y-81382142D01*
X165427142Y-81382142D01*
X165341428Y-81339285D01*
X165298571Y-81296428D01*
X136398571Y-81382142D02*
X135884285Y-81382142D01*
X136141428Y-81382142D02*
X136141428Y-80482142D01*
X136055714Y-80610714D01*
X135970000Y-80696428D01*
X135884285Y-80739285D01*
X136698571Y-80482142D02*
X137255714Y-80482142D01*
X136955714Y-80825000D01*
X137084285Y-80825000D01*
X137170000Y-80867857D01*
X137212857Y-80910714D01*
X137255714Y-80996428D01*
X137255714Y-81210714D01*
X137212857Y-81296428D01*
X137170000Y-81339285D01*
X137084285Y-81382142D01*
X136827142Y-81382142D01*
X136741428Y-81339285D01*
X136698571Y-81296428D01*
X184420000Y-110782142D02*
X184120000Y-110353571D01*
X183905714Y-110782142D02*
X183905714Y-109882142D01*
X184248571Y-109882142D01*
X184334285Y-109925000D01*
X184377142Y-109967857D01*
X184420000Y-110053571D01*
X184420000Y-110182142D01*
X184377142Y-110267857D01*
X184334285Y-110310714D01*
X184248571Y-110353571D01*
X183905714Y-110353571D01*
X184720000Y-109882142D02*
X185320000Y-110782142D01*
X185320000Y-109882142D02*
X184720000Y-110782142D01*
X155820000Y-110782142D02*
X155520000Y-110353571D01*
X155305714Y-110782142D02*
X155305714Y-109882142D01*
X155648571Y-109882142D01*
X155734285Y-109925000D01*
X155777142Y-109967857D01*
X155820000Y-110053571D01*
X155820000Y-110182142D01*
X155777142Y-110267857D01*
X155734285Y-110310714D01*
X155648571Y-110353571D01*
X155305714Y-110353571D01*
X156120000Y-109882142D02*
X156720000Y-110782142D01*
X156720000Y-109882142D02*
X156120000Y-110782142D01*
X127220000Y-110782142D02*
X126920000Y-110353571D01*
X126705714Y-110782142D02*
X126705714Y-109882142D01*
X127048571Y-109882142D01*
X127134285Y-109925000D01*
X127177142Y-109967857D01*
X127220000Y-110053571D01*
X127220000Y-110182142D01*
X127177142Y-110267857D01*
X127134285Y-110310714D01*
X127048571Y-110353571D01*
X126705714Y-110353571D01*
X127520000Y-109882142D02*
X128120000Y-110782142D01*
X128120000Y-109882142D02*
X127520000Y-110782142D01*
X184420000Y-68682142D02*
X184120000Y-68253571D01*
X183905714Y-68682142D02*
X183905714Y-67782142D01*
X184248571Y-67782142D01*
X184334285Y-67825000D01*
X184377142Y-67867857D01*
X184420000Y-67953571D01*
X184420000Y-68082142D01*
X184377142Y-68167857D01*
X184334285Y-68210714D01*
X184248571Y-68253571D01*
X183905714Y-68253571D01*
X184720000Y-67782142D02*
X185320000Y-68682142D01*
X185320000Y-67782142D02*
X184720000Y-68682142D01*
X155820000Y-68682142D02*
X155520000Y-68253571D01*
X155305714Y-68682142D02*
X155305714Y-67782142D01*
X155648571Y-67782142D01*
X155734285Y-67825000D01*
X155777142Y-67867857D01*
X155820000Y-67953571D01*
X155820000Y-68082142D01*
X155777142Y-68167857D01*
X155734285Y-68210714D01*
X155648571Y-68253571D01*
X155305714Y-68253571D01*
X156120000Y-67782142D02*
X156720000Y-68682142D01*
X156720000Y-67782142D02*
X156120000Y-68682142D01*
X183884285Y-107282142D02*
X184398571Y-107282142D01*
X184141428Y-108182142D02*
X184141428Y-107282142D01*
X184612857Y-107282142D02*
X185212857Y-108182142D01*
X185212857Y-107282142D02*
X184612857Y-108182142D01*
X155284285Y-107282142D02*
X155798571Y-107282142D01*
X155541428Y-108182142D02*
X155541428Y-107282142D01*
X156012857Y-107282142D02*
X156612857Y-108182142D01*
X156612857Y-107282142D02*
X156012857Y-108182142D01*
X126684285Y-107282142D02*
X127198571Y-107282142D01*
X126941428Y-108182142D02*
X126941428Y-107282142D01*
X127412857Y-107282142D02*
X128012857Y-108182142D01*
X128012857Y-107282142D02*
X127412857Y-108182142D01*
X183884285Y-65182142D02*
X184398571Y-65182142D01*
X184141428Y-66082142D02*
X184141428Y-65182142D01*
X184612857Y-65182142D02*
X185212857Y-66082142D01*
X185212857Y-65182142D02*
X184612857Y-66082142D01*
X155284285Y-65182142D02*
X155798571Y-65182142D01*
X155541428Y-66082142D02*
X155541428Y-65182142D01*
X156012857Y-65182142D02*
X156612857Y-66082142D01*
X156612857Y-65182142D02*
X156012857Y-66082142D01*
X184627142Y-117432142D02*
X184712857Y-117432142D01*
X184798571Y-117475000D01*
X184841428Y-117517857D01*
X184884285Y-117603571D01*
X184927142Y-117775000D01*
X184927142Y-117989285D01*
X184884285Y-118160714D01*
X184841428Y-118246428D01*
X184798571Y-118289285D01*
X184712857Y-118332142D01*
X184627142Y-118332142D01*
X184541428Y-118289285D01*
X184498571Y-118246428D01*
X184455714Y-118160714D01*
X184412857Y-117989285D01*
X184412857Y-117775000D01*
X184455714Y-117603571D01*
X184498571Y-117517857D01*
X184541428Y-117475000D01*
X184627142Y-117432142D01*
X156027142Y-117432142D02*
X156112857Y-117432142D01*
X156198571Y-117475000D01*
X156241428Y-117517857D01*
X156284285Y-117603571D01*
X156327142Y-117775000D01*
X156327142Y-117989285D01*
X156284285Y-118160714D01*
X156241428Y-118246428D01*
X156198571Y-118289285D01*
X156112857Y-118332142D01*
X156027142Y-118332142D01*
X155941428Y-118289285D01*
X155898571Y-118246428D01*
X155855714Y-118160714D01*
X155812857Y-117989285D01*
X155812857Y-117775000D01*
X155855714Y-117603571D01*
X155898571Y-117517857D01*
X155941428Y-117475000D01*
X156027142Y-117432142D01*
X127427142Y-117432142D02*
X127512857Y-117432142D01*
X127598571Y-117475000D01*
X127641428Y-117517857D01*
X127684285Y-117603571D01*
X127727142Y-117775000D01*
X127727142Y-117989285D01*
X127684285Y-118160714D01*
X127641428Y-118246428D01*
X127598571Y-118289285D01*
X127512857Y-118332142D01*
X127427142Y-118332142D01*
X127341428Y-118289285D01*
X127298571Y-118246428D01*
X127255714Y-118160714D01*
X127212857Y-117989285D01*
X127212857Y-117775000D01*
X127255714Y-117603571D01*
X127298571Y-117517857D01*
X127341428Y-117475000D01*
X127427142Y-117432142D01*
X184627142Y-75332142D02*
X184712857Y-75332142D01*
X184798571Y-75375000D01*
X184841428Y-75417857D01*
X184884285Y-75503571D01*
X184927142Y-75675000D01*
X184927142Y-75889285D01*
X184884285Y-76060714D01*
X184841428Y-76146428D01*
X184798571Y-76189285D01*
X184712857Y-76232142D01*
X184627142Y-76232142D01*
X184541428Y-76189285D01*
X184498571Y-76146428D01*
X184455714Y-76060714D01*
X184412857Y-75889285D01*
X184412857Y-75675000D01*
X184455714Y-75503571D01*
X184498571Y-75417857D01*
X184541428Y-75375000D01*
X184627142Y-75332142D01*
X156027142Y-75332142D02*
X156112857Y-75332142D01*
X156198571Y-75375000D01*
X156241428Y-75417857D01*
X156284285Y-75503571D01*
X156327142Y-75675000D01*
X156327142Y-75889285D01*
X156284285Y-76060714D01*
X156241428Y-76146428D01*
X156198571Y-76189285D01*
X156112857Y-76232142D01*
X156027142Y-76232142D01*
X155941428Y-76189285D01*
X155898571Y-76146428D01*
X155855714Y-76060714D01*
X155812857Y-75889285D01*
X155812857Y-75675000D01*
X155855714Y-75503571D01*
X155898571Y-75417857D01*
X155941428Y-75375000D01*
X156027142Y-75332142D01*
X184741428Y-115182142D02*
X184741428Y-115782142D01*
X184527142Y-114839285D02*
X184312857Y-115482142D01*
X184870000Y-115482142D01*
X156141428Y-115182142D02*
X156141428Y-115782142D01*
X155927142Y-114839285D02*
X155712857Y-115482142D01*
X156270000Y-115482142D01*
X127541428Y-115182142D02*
X127541428Y-115782142D01*
X127327142Y-114839285D02*
X127112857Y-115482142D01*
X127670000Y-115482142D01*
X184741428Y-73082142D02*
X184741428Y-73682142D01*
X184527142Y-72739285D02*
X184312857Y-73382142D01*
X184870000Y-73382142D01*
X156141428Y-73082142D02*
X156141428Y-73682142D01*
X155927142Y-72739285D02*
X155712857Y-73382142D01*
X156270000Y-73382142D01*
X184834285Y-112382142D02*
X184405714Y-112382142D01*
X184362857Y-112810714D01*
X184405714Y-112767857D01*
X184491428Y-112725000D01*
X184705714Y-112725000D01*
X184791428Y-112767857D01*
X184834285Y-112810714D01*
X184877142Y-112896428D01*
X184877142Y-113110714D01*
X184834285Y-113196428D01*
X184791428Y-113239285D01*
X184705714Y-113282142D01*
X184491428Y-113282142D01*
X184405714Y-113239285D01*
X184362857Y-113196428D01*
X156234285Y-112382142D02*
X155805714Y-112382142D01*
X155762857Y-112810714D01*
X155805714Y-112767857D01*
X155891428Y-112725000D01*
X156105714Y-112725000D01*
X156191428Y-112767857D01*
X156234285Y-112810714D01*
X156277142Y-112896428D01*
X156277142Y-113110714D01*
X156234285Y-113196428D01*
X156191428Y-113239285D01*
X156105714Y-113282142D01*
X155891428Y-113282142D01*
X155805714Y-113239285D01*
X155762857Y-113196428D01*
X127634285Y-112382142D02*
X127205714Y-112382142D01*
X127162857Y-112810714D01*
X127205714Y-112767857D01*
X127291428Y-112725000D01*
X127505714Y-112725000D01*
X127591428Y-112767857D01*
X127634285Y-112810714D01*
X127677142Y-112896428D01*
X127677142Y-113110714D01*
X127634285Y-113196428D01*
X127591428Y-113239285D01*
X127505714Y-113282142D01*
X127291428Y-113282142D01*
X127205714Y-113239285D01*
X127162857Y-113196428D01*
X184834285Y-70282142D02*
X184405714Y-70282142D01*
X184362857Y-70710714D01*
X184405714Y-70667857D01*
X184491428Y-70625000D01*
X184705714Y-70625000D01*
X184791428Y-70667857D01*
X184834285Y-70710714D01*
X184877142Y-70796428D01*
X184877142Y-71010714D01*
X184834285Y-71096428D01*
X184791428Y-71139285D01*
X184705714Y-71182142D01*
X184491428Y-71182142D01*
X184405714Y-71139285D01*
X184362857Y-71096428D01*
X156234285Y-70282142D02*
X155805714Y-70282142D01*
X155762857Y-70710714D01*
X155805714Y-70667857D01*
X155891428Y-70625000D01*
X156105714Y-70625000D01*
X156191428Y-70667857D01*
X156234285Y-70710714D01*
X156277142Y-70796428D01*
X156277142Y-71010714D01*
X156234285Y-71096428D01*
X156191428Y-71139285D01*
X156105714Y-71182142D01*
X155891428Y-71182142D01*
X155805714Y-71139285D01*
X155762857Y-71096428D01*
X184462857Y-120117857D02*
X184505714Y-120075000D01*
X184591428Y-120032142D01*
X184805714Y-120032142D01*
X184891428Y-120075000D01*
X184934285Y-120117857D01*
X184977142Y-120203571D01*
X184977142Y-120289285D01*
X184934285Y-120417857D01*
X184420000Y-120932142D01*
X184977142Y-120932142D01*
X155862857Y-120117857D02*
X155905714Y-120075000D01*
X155991428Y-120032142D01*
X156205714Y-120032142D01*
X156291428Y-120075000D01*
X156334285Y-120117857D01*
X156377142Y-120203571D01*
X156377142Y-120289285D01*
X156334285Y-120417857D01*
X155820000Y-120932142D01*
X156377142Y-120932142D01*
X127262857Y-120117857D02*
X127305714Y-120075000D01*
X127391428Y-120032142D01*
X127605714Y-120032142D01*
X127691428Y-120075000D01*
X127734285Y-120117857D01*
X127777142Y-120203571D01*
X127777142Y-120289285D01*
X127734285Y-120417857D01*
X127220000Y-120932142D01*
X127777142Y-120932142D01*
X184462857Y-78017857D02*
X184505714Y-77975000D01*
X184591428Y-77932142D01*
X184805714Y-77932142D01*
X184891428Y-77975000D01*
X184934285Y-78017857D01*
X184977142Y-78103571D01*
X184977142Y-78189285D01*
X184934285Y-78317857D01*
X184420000Y-78832142D01*
X184977142Y-78832142D01*
X155862857Y-78017857D02*
X155905714Y-77975000D01*
X155991428Y-77932142D01*
X156205714Y-77932142D01*
X156291428Y-77975000D01*
X156334285Y-78017857D01*
X156377142Y-78103571D01*
X156377142Y-78189285D01*
X156334285Y-78317857D01*
X155820000Y-78832142D01*
X156377142Y-78832142D01*
X184298571Y-123432142D02*
X183784285Y-123432142D01*
X184041428Y-123432142D02*
X184041428Y-122532142D01*
X183955714Y-122660714D01*
X183870000Y-122746428D01*
X183784285Y-122789285D01*
X185112857Y-122532142D02*
X184684285Y-122532142D01*
X184641428Y-122960714D01*
X184684285Y-122917857D01*
X184770000Y-122875000D01*
X184984285Y-122875000D01*
X185070000Y-122917857D01*
X185112857Y-122960714D01*
X185155714Y-123046428D01*
X185155714Y-123260714D01*
X185112857Y-123346428D01*
X185070000Y-123389285D01*
X184984285Y-123432142D01*
X184770000Y-123432142D01*
X184684285Y-123389285D01*
X184641428Y-123346428D01*
X155698571Y-123432142D02*
X155184285Y-123432142D01*
X155441428Y-123432142D02*
X155441428Y-122532142D01*
X155355714Y-122660714D01*
X155270000Y-122746428D01*
X155184285Y-122789285D01*
X156512857Y-122532142D02*
X156084285Y-122532142D01*
X156041428Y-122960714D01*
X156084285Y-122917857D01*
X156170000Y-122875000D01*
X156384285Y-122875000D01*
X156470000Y-122917857D01*
X156512857Y-122960714D01*
X156555714Y-123046428D01*
X156555714Y-123260714D01*
X156512857Y-123346428D01*
X156470000Y-123389285D01*
X156384285Y-123432142D01*
X156170000Y-123432142D01*
X156084285Y-123389285D01*
X156041428Y-123346428D01*
X127098571Y-123432142D02*
X126584285Y-123432142D01*
X126841428Y-123432142D02*
X126841428Y-122532142D01*
X126755714Y-122660714D01*
X126670000Y-122746428D01*
X126584285Y-122789285D01*
X127912857Y-122532142D02*
X127484285Y-122532142D01*
X127441428Y-122960714D01*
X127484285Y-122917857D01*
X127570000Y-122875000D01*
X127784285Y-122875000D01*
X127870000Y-122917857D01*
X127912857Y-122960714D01*
X127955714Y-123046428D01*
X127955714Y-123260714D01*
X127912857Y-123346428D01*
X127870000Y-123389285D01*
X127784285Y-123432142D01*
X127570000Y-123432142D01*
X127484285Y-123389285D01*
X127441428Y-123346428D01*
X184298571Y-81332142D02*
X183784285Y-81332142D01*
X184041428Y-81332142D02*
X184041428Y-80432142D01*
X183955714Y-80560714D01*
X183870000Y-80646428D01*
X183784285Y-80689285D01*
X185112857Y-80432142D02*
X184684285Y-80432142D01*
X184641428Y-80860714D01*
X184684285Y-80817857D01*
X184770000Y-80775000D01*
X184984285Y-80775000D01*
X185070000Y-80817857D01*
X185112857Y-80860714D01*
X185155714Y-80946428D01*
X185155714Y-81160714D01*
X185112857Y-81246428D01*
X185070000Y-81289285D01*
X184984285Y-81332142D01*
X184770000Y-81332142D01*
X184684285Y-81289285D01*
X184641428Y-81246428D01*
X155698571Y-81332142D02*
X155184285Y-81332142D01*
X155441428Y-81332142D02*
X155441428Y-80432142D01*
X155355714Y-80560714D01*
X155270000Y-80646428D01*
X155184285Y-80689285D01*
X156512857Y-80432142D02*
X156084285Y-80432142D01*
X156041428Y-80860714D01*
X156084285Y-80817857D01*
X156170000Y-80775000D01*
X156384285Y-80775000D01*
X156470000Y-80817857D01*
X156512857Y-80860714D01*
X156555714Y-80946428D01*
X156555714Y-81160714D01*
X156512857Y-81246428D01*
X156470000Y-81289285D01*
X156384285Y-81332142D01*
X156170000Y-81332142D01*
X156084285Y-81289285D01*
X156041428Y-81246428D01*
X183541428Y-125125000D02*
X183455714Y-125082142D01*
X183327142Y-125082142D01*
X183198571Y-125125000D01*
X183112857Y-125210714D01*
X183070000Y-125296428D01*
X183027142Y-125467857D01*
X183027142Y-125596428D01*
X183070000Y-125767857D01*
X183112857Y-125853571D01*
X183198571Y-125939285D01*
X183327142Y-125982142D01*
X183412857Y-125982142D01*
X183541428Y-125939285D01*
X183584285Y-125896428D01*
X183584285Y-125596428D01*
X183412857Y-125596428D01*
X183970000Y-125382142D02*
X183970000Y-125982142D01*
X183970000Y-125467857D02*
X184012857Y-125425000D01*
X184098571Y-125382142D01*
X184227142Y-125382142D01*
X184312857Y-125425000D01*
X184355714Y-125510714D01*
X184355714Y-125982142D01*
X185170000Y-125982142D02*
X185170000Y-125082142D01*
X185170000Y-125939285D02*
X185084285Y-125982142D01*
X184912857Y-125982142D01*
X184827142Y-125939285D01*
X184784285Y-125896428D01*
X184741428Y-125810714D01*
X184741428Y-125553571D01*
X184784285Y-125467857D01*
X184827142Y-125425000D01*
X184912857Y-125382142D01*
X185084285Y-125382142D01*
X185170000Y-125425000D01*
X154941428Y-125125000D02*
X154855714Y-125082142D01*
X154727142Y-125082142D01*
X154598571Y-125125000D01*
X154512857Y-125210714D01*
X154470000Y-125296428D01*
X154427142Y-125467857D01*
X154427142Y-125596428D01*
X154470000Y-125767857D01*
X154512857Y-125853571D01*
X154598571Y-125939285D01*
X154727142Y-125982142D01*
X154812857Y-125982142D01*
X154941428Y-125939285D01*
X154984285Y-125896428D01*
X154984285Y-125596428D01*
X154812857Y-125596428D01*
X155370000Y-125382142D02*
X155370000Y-125982142D01*
X155370000Y-125467857D02*
X155412857Y-125425000D01*
X155498571Y-125382142D01*
X155627142Y-125382142D01*
X155712857Y-125425000D01*
X155755714Y-125510714D01*
X155755714Y-125982142D01*
X156570000Y-125982142D02*
X156570000Y-125082142D01*
X156570000Y-125939285D02*
X156484285Y-125982142D01*
X156312857Y-125982142D01*
X156227142Y-125939285D01*
X156184285Y-125896428D01*
X156141428Y-125810714D01*
X156141428Y-125553571D01*
X156184285Y-125467857D01*
X156227142Y-125425000D01*
X156312857Y-125382142D01*
X156484285Y-125382142D01*
X156570000Y-125425000D01*
X126341428Y-125125000D02*
X126255714Y-125082142D01*
X126127142Y-125082142D01*
X125998571Y-125125000D01*
X125912857Y-125210714D01*
X125870000Y-125296428D01*
X125827142Y-125467857D01*
X125827142Y-125596428D01*
X125870000Y-125767857D01*
X125912857Y-125853571D01*
X125998571Y-125939285D01*
X126127142Y-125982142D01*
X126212857Y-125982142D01*
X126341428Y-125939285D01*
X126384285Y-125896428D01*
X126384285Y-125596428D01*
X126212857Y-125596428D01*
X126770000Y-125382142D02*
X126770000Y-125982142D01*
X126770000Y-125467857D02*
X126812857Y-125425000D01*
X126898571Y-125382142D01*
X127027142Y-125382142D01*
X127112857Y-125425000D01*
X127155714Y-125510714D01*
X127155714Y-125982142D01*
X127970000Y-125982142D02*
X127970000Y-125082142D01*
X127970000Y-125939285D02*
X127884285Y-125982142D01*
X127712857Y-125982142D01*
X127627142Y-125939285D01*
X127584285Y-125896428D01*
X127541428Y-125810714D01*
X127541428Y-125553571D01*
X127584285Y-125467857D01*
X127627142Y-125425000D01*
X127712857Y-125382142D01*
X127884285Y-125382142D01*
X127970000Y-125425000D01*
X183541428Y-83025000D02*
X183455714Y-82982142D01*
X183327142Y-82982142D01*
X183198571Y-83025000D01*
X183112857Y-83110714D01*
X183070000Y-83196428D01*
X183027142Y-83367857D01*
X183027142Y-83496428D01*
X183070000Y-83667857D01*
X183112857Y-83753571D01*
X183198571Y-83839285D01*
X183327142Y-83882142D01*
X183412857Y-83882142D01*
X183541428Y-83839285D01*
X183584285Y-83796428D01*
X183584285Y-83496428D01*
X183412857Y-83496428D01*
X183970000Y-83282142D02*
X183970000Y-83882142D01*
X183970000Y-83367857D02*
X184012857Y-83325000D01*
X184098571Y-83282142D01*
X184227142Y-83282142D01*
X184312857Y-83325000D01*
X184355714Y-83410714D01*
X184355714Y-83882142D01*
X185170000Y-83882142D02*
X185170000Y-82982142D01*
X185170000Y-83839285D02*
X185084285Y-83882142D01*
X184912857Y-83882142D01*
X184827142Y-83839285D01*
X184784285Y-83796428D01*
X184741428Y-83710714D01*
X184741428Y-83453571D01*
X184784285Y-83367857D01*
X184827142Y-83325000D01*
X184912857Y-83282142D01*
X185084285Y-83282142D01*
X185170000Y-83325000D01*
X154941428Y-83025000D02*
X154855714Y-82982142D01*
X154727142Y-82982142D01*
X154598571Y-83025000D01*
X154512857Y-83110714D01*
X154470000Y-83196428D01*
X154427142Y-83367857D01*
X154427142Y-83496428D01*
X154470000Y-83667857D01*
X154512857Y-83753571D01*
X154598571Y-83839285D01*
X154727142Y-83882142D01*
X154812857Y-83882142D01*
X154941428Y-83839285D01*
X154984285Y-83796428D01*
X154984285Y-83496428D01*
X154812857Y-83496428D01*
X155370000Y-83282142D02*
X155370000Y-83882142D01*
X155370000Y-83367857D02*
X155412857Y-83325000D01*
X155498571Y-83282142D01*
X155627142Y-83282142D01*
X155712857Y-83325000D01*
X155755714Y-83410714D01*
X155755714Y-83882142D01*
X156570000Y-83882142D02*
X156570000Y-82982142D01*
X156570000Y-83839285D02*
X156484285Y-83882142D01*
X156312857Y-83882142D01*
X156227142Y-83839285D01*
X156184285Y-83796428D01*
X156141428Y-83710714D01*
X156141428Y-83453571D01*
X156184285Y-83367857D01*
X156227142Y-83325000D01*
X156312857Y-83282142D01*
X156484285Y-83282142D01*
X156570000Y-83325000D01*
X164898571Y-127632142D02*
X164470000Y-127632142D01*
X164427142Y-128060714D01*
X164470000Y-128017857D01*
X164555714Y-127975000D01*
X164770000Y-127975000D01*
X164855714Y-128017857D01*
X164898571Y-128060714D01*
X164941428Y-128146428D01*
X164941428Y-128360714D01*
X164898571Y-128446428D01*
X164855714Y-128489285D01*
X164770000Y-128532142D01*
X164555714Y-128532142D01*
X164470000Y-128489285D01*
X164427142Y-128446428D01*
X165198571Y-127632142D02*
X165498571Y-128532142D01*
X165798571Y-127632142D01*
X136298571Y-127632142D02*
X135870000Y-127632142D01*
X135827142Y-128060714D01*
X135870000Y-128017857D01*
X135955714Y-127975000D01*
X136170000Y-127975000D01*
X136255714Y-128017857D01*
X136298571Y-128060714D01*
X136341428Y-128146428D01*
X136341428Y-128360714D01*
X136298571Y-128446428D01*
X136255714Y-128489285D01*
X136170000Y-128532142D01*
X135955714Y-128532142D01*
X135870000Y-128489285D01*
X135827142Y-128446428D01*
X136598571Y-127632142D02*
X136898571Y-128532142D01*
X137198571Y-127632142D01*
X107698571Y-127632142D02*
X107270000Y-127632142D01*
X107227142Y-128060714D01*
X107270000Y-128017857D01*
X107355714Y-127975000D01*
X107570000Y-127975000D01*
X107655714Y-128017857D01*
X107698571Y-128060714D01*
X107741428Y-128146428D01*
X107741428Y-128360714D01*
X107698571Y-128446428D01*
X107655714Y-128489285D01*
X107570000Y-128532142D01*
X107355714Y-128532142D01*
X107270000Y-128489285D01*
X107227142Y-128446428D01*
X107998571Y-127632142D02*
X108298571Y-128532142D01*
X108598571Y-127632142D01*
X164898571Y-85532142D02*
X164470000Y-85532142D01*
X164427142Y-85960714D01*
X164470000Y-85917857D01*
X164555714Y-85875000D01*
X164770000Y-85875000D01*
X164855714Y-85917857D01*
X164898571Y-85960714D01*
X164941428Y-86046428D01*
X164941428Y-86260714D01*
X164898571Y-86346428D01*
X164855714Y-86389285D01*
X164770000Y-86432142D01*
X164555714Y-86432142D01*
X164470000Y-86389285D01*
X164427142Y-86346428D01*
X165198571Y-85532142D02*
X165498571Y-86432142D01*
X165798571Y-85532142D01*
X136298571Y-85532142D02*
X135870000Y-85532142D01*
X135827142Y-85960714D01*
X135870000Y-85917857D01*
X135955714Y-85875000D01*
X136170000Y-85875000D01*
X136255714Y-85917857D01*
X136298571Y-85960714D01*
X136341428Y-86046428D01*
X136341428Y-86260714D01*
X136298571Y-86346428D01*
X136255714Y-86389285D01*
X136170000Y-86432142D01*
X135955714Y-86432142D01*
X135870000Y-86389285D01*
X135827142Y-86346428D01*
X136598571Y-85532142D02*
X136898571Y-86432142D01*
X137198571Y-85532142D01*
X184198571Y-128532142D02*
X183684285Y-128532142D01*
X183941428Y-128532142D02*
X183941428Y-127632142D01*
X183855714Y-127760714D01*
X183770000Y-127846428D01*
X183684285Y-127889285D01*
X184755714Y-127632142D02*
X184841428Y-127632142D01*
X184927142Y-127675000D01*
X184970000Y-127717857D01*
X185012857Y-127803571D01*
X185055714Y-127975000D01*
X185055714Y-128189285D01*
X185012857Y-128360714D01*
X184970000Y-128446428D01*
X184927142Y-128489285D01*
X184841428Y-128532142D01*
X184755714Y-128532142D01*
X184670000Y-128489285D01*
X184627142Y-128446428D01*
X184584285Y-128360714D01*
X184541428Y-128189285D01*
X184541428Y-127975000D01*
X184584285Y-127803571D01*
X184627142Y-127717857D01*
X184670000Y-127675000D01*
X184755714Y-127632142D01*
X155598571Y-128532142D02*
X155084285Y-128532142D01*
X155341428Y-128532142D02*
X155341428Y-127632142D01*
X155255714Y-127760714D01*
X155170000Y-127846428D01*
X155084285Y-127889285D01*
X156155714Y-127632142D02*
X156241428Y-127632142D01*
X156327142Y-127675000D01*
X156370000Y-127717857D01*
X156412857Y-127803571D01*
X156455714Y-127975000D01*
X156455714Y-128189285D01*
X156412857Y-128360714D01*
X156370000Y-128446428D01*
X156327142Y-128489285D01*
X156241428Y-128532142D01*
X156155714Y-128532142D01*
X156070000Y-128489285D01*
X156027142Y-128446428D01*
X155984285Y-128360714D01*
X155941428Y-128189285D01*
X155941428Y-127975000D01*
X155984285Y-127803571D01*
X156027142Y-127717857D01*
X156070000Y-127675000D01*
X156155714Y-127632142D01*
X126998571Y-128532142D02*
X126484285Y-128532142D01*
X126741428Y-128532142D02*
X126741428Y-127632142D01*
X126655714Y-127760714D01*
X126570000Y-127846428D01*
X126484285Y-127889285D01*
X127555714Y-127632142D02*
X127641428Y-127632142D01*
X127727142Y-127675000D01*
X127770000Y-127717857D01*
X127812857Y-127803571D01*
X127855714Y-127975000D01*
X127855714Y-128189285D01*
X127812857Y-128360714D01*
X127770000Y-128446428D01*
X127727142Y-128489285D01*
X127641428Y-128532142D01*
X127555714Y-128532142D01*
X127470000Y-128489285D01*
X127427142Y-128446428D01*
X127384285Y-128360714D01*
X127341428Y-128189285D01*
X127341428Y-127975000D01*
X127384285Y-127803571D01*
X127427142Y-127717857D01*
X127470000Y-127675000D01*
X127555714Y-127632142D01*
X184198571Y-86432142D02*
X183684285Y-86432142D01*
X183941428Y-86432142D02*
X183941428Y-85532142D01*
X183855714Y-85660714D01*
X183770000Y-85746428D01*
X183684285Y-85789285D01*
X184755714Y-85532142D02*
X184841428Y-85532142D01*
X184927142Y-85575000D01*
X184970000Y-85617857D01*
X185012857Y-85703571D01*
X185055714Y-85875000D01*
X185055714Y-86089285D01*
X185012857Y-86260714D01*
X184970000Y-86346428D01*
X184927142Y-86389285D01*
X184841428Y-86432142D01*
X184755714Y-86432142D01*
X184670000Y-86389285D01*
X184627142Y-86346428D01*
X184584285Y-86260714D01*
X184541428Y-86089285D01*
X184541428Y-85875000D01*
X184584285Y-85703571D01*
X184627142Y-85617857D01*
X184670000Y-85575000D01*
X184755714Y-85532142D01*
X155598571Y-86432142D02*
X155084285Y-86432142D01*
X155341428Y-86432142D02*
X155341428Y-85532142D01*
X155255714Y-85660714D01*
X155170000Y-85746428D01*
X155084285Y-85789285D01*
X156155714Y-85532142D02*
X156241428Y-85532142D01*
X156327142Y-85575000D01*
X156370000Y-85617857D01*
X156412857Y-85703571D01*
X156455714Y-85875000D01*
X156455714Y-86089285D01*
X156412857Y-86260714D01*
X156370000Y-86346428D01*
X156327142Y-86389285D01*
X156241428Y-86432142D01*
X156155714Y-86432142D01*
X156070000Y-86389285D01*
X156027142Y-86346428D01*
X155984285Y-86260714D01*
X155941428Y-86089285D01*
X155941428Y-85875000D01*
X155984285Y-85703571D01*
X156027142Y-85617857D01*
X156070000Y-85575000D01*
X156155714Y-85532142D01*
X168091428Y-123825000D02*
X168005714Y-123782142D01*
X167877142Y-123782142D01*
X167748571Y-123825000D01*
X167662857Y-123910714D01*
X167620000Y-123996428D01*
X167577142Y-124167857D01*
X167577142Y-124296428D01*
X167620000Y-124467857D01*
X167662857Y-124553571D01*
X167748571Y-124639285D01*
X167877142Y-124682142D01*
X167962857Y-124682142D01*
X168091428Y-124639285D01*
X168134285Y-124596428D01*
X168134285Y-124296428D01*
X167962857Y-124296428D01*
X168520000Y-124082142D02*
X168520000Y-124682142D01*
X168520000Y-124167857D02*
X168562857Y-124125000D01*
X168648571Y-124082142D01*
X168777142Y-124082142D01*
X168862857Y-124125000D01*
X168905714Y-124210714D01*
X168905714Y-124682142D01*
X169720000Y-124682142D02*
X169720000Y-123782142D01*
X169720000Y-124639285D02*
X169634285Y-124682142D01*
X169462857Y-124682142D01*
X169377142Y-124639285D01*
X169334285Y-124596428D01*
X169291428Y-124510714D01*
X169291428Y-124253571D01*
X169334285Y-124167857D01*
X169377142Y-124125000D01*
X169462857Y-124082142D01*
X169634285Y-124082142D01*
X169720000Y-124125000D01*
X139491428Y-123825000D02*
X139405714Y-123782142D01*
X139277142Y-123782142D01*
X139148571Y-123825000D01*
X139062857Y-123910714D01*
X139020000Y-123996428D01*
X138977142Y-124167857D01*
X138977142Y-124296428D01*
X139020000Y-124467857D01*
X139062857Y-124553571D01*
X139148571Y-124639285D01*
X139277142Y-124682142D01*
X139362857Y-124682142D01*
X139491428Y-124639285D01*
X139534285Y-124596428D01*
X139534285Y-124296428D01*
X139362857Y-124296428D01*
X139920000Y-124082142D02*
X139920000Y-124682142D01*
X139920000Y-124167857D02*
X139962857Y-124125000D01*
X140048571Y-124082142D01*
X140177142Y-124082142D01*
X140262857Y-124125000D01*
X140305714Y-124210714D01*
X140305714Y-124682142D01*
X141120000Y-124682142D02*
X141120000Y-123782142D01*
X141120000Y-124639285D02*
X141034285Y-124682142D01*
X140862857Y-124682142D01*
X140777142Y-124639285D01*
X140734285Y-124596428D01*
X140691428Y-124510714D01*
X140691428Y-124253571D01*
X140734285Y-124167857D01*
X140777142Y-124125000D01*
X140862857Y-124082142D01*
X141034285Y-124082142D01*
X141120000Y-124125000D01*
X110891428Y-123825000D02*
X110805714Y-123782142D01*
X110677142Y-123782142D01*
X110548571Y-123825000D01*
X110462857Y-123910714D01*
X110420000Y-123996428D01*
X110377142Y-124167857D01*
X110377142Y-124296428D01*
X110420000Y-124467857D01*
X110462857Y-124553571D01*
X110548571Y-124639285D01*
X110677142Y-124682142D01*
X110762857Y-124682142D01*
X110891428Y-124639285D01*
X110934285Y-124596428D01*
X110934285Y-124296428D01*
X110762857Y-124296428D01*
X111320000Y-124082142D02*
X111320000Y-124682142D01*
X111320000Y-124167857D02*
X111362857Y-124125000D01*
X111448571Y-124082142D01*
X111577142Y-124082142D01*
X111662857Y-124125000D01*
X111705714Y-124210714D01*
X111705714Y-124682142D01*
X112520000Y-124682142D02*
X112520000Y-123782142D01*
X112520000Y-124639285D02*
X112434285Y-124682142D01*
X112262857Y-124682142D01*
X112177142Y-124639285D01*
X112134285Y-124596428D01*
X112091428Y-124510714D01*
X112091428Y-124253571D01*
X112134285Y-124167857D01*
X112177142Y-124125000D01*
X112262857Y-124082142D01*
X112434285Y-124082142D01*
X112520000Y-124125000D01*
X168091428Y-81725000D02*
X168005714Y-81682142D01*
X167877142Y-81682142D01*
X167748571Y-81725000D01*
X167662857Y-81810714D01*
X167620000Y-81896428D01*
X167577142Y-82067857D01*
X167577142Y-82196428D01*
X167620000Y-82367857D01*
X167662857Y-82453571D01*
X167748571Y-82539285D01*
X167877142Y-82582142D01*
X167962857Y-82582142D01*
X168091428Y-82539285D01*
X168134285Y-82496428D01*
X168134285Y-82196428D01*
X167962857Y-82196428D01*
X168520000Y-81982142D02*
X168520000Y-82582142D01*
X168520000Y-82067857D02*
X168562857Y-82025000D01*
X168648571Y-81982142D01*
X168777142Y-81982142D01*
X168862857Y-82025000D01*
X168905714Y-82110714D01*
X168905714Y-82582142D01*
X169720000Y-82582142D02*
X169720000Y-81682142D01*
X169720000Y-82539285D02*
X169634285Y-82582142D01*
X169462857Y-82582142D01*
X169377142Y-82539285D01*
X169334285Y-82496428D01*
X169291428Y-82410714D01*
X169291428Y-82153571D01*
X169334285Y-82067857D01*
X169377142Y-82025000D01*
X169462857Y-81982142D01*
X169634285Y-81982142D01*
X169720000Y-82025000D01*
X139491428Y-81725000D02*
X139405714Y-81682142D01*
X139277142Y-81682142D01*
X139148571Y-81725000D01*
X139062857Y-81810714D01*
X139020000Y-81896428D01*
X138977142Y-82067857D01*
X138977142Y-82196428D01*
X139020000Y-82367857D01*
X139062857Y-82453571D01*
X139148571Y-82539285D01*
X139277142Y-82582142D01*
X139362857Y-82582142D01*
X139491428Y-82539285D01*
X139534285Y-82496428D01*
X139534285Y-82196428D01*
X139362857Y-82196428D01*
X139920000Y-81982142D02*
X139920000Y-82582142D01*
X139920000Y-82067857D02*
X139962857Y-82025000D01*
X140048571Y-81982142D01*
X140177142Y-81982142D01*
X140262857Y-82025000D01*
X140305714Y-82110714D01*
X140305714Y-82582142D01*
X141120000Y-82582142D02*
X141120000Y-81682142D01*
X141120000Y-82539285D02*
X141034285Y-82582142D01*
X140862857Y-82582142D01*
X140777142Y-82539285D01*
X140734285Y-82496428D01*
X140691428Y-82410714D01*
X140691428Y-82153571D01*
X140734285Y-82067857D01*
X140777142Y-82025000D01*
X140862857Y-81982142D01*
X141034285Y-81982142D01*
X141120000Y-82025000D01*
X172548571Y-123832142D02*
X173105714Y-123832142D01*
X172805714Y-124175000D01*
X172934285Y-124175000D01*
X173020000Y-124217857D01*
X173062857Y-124260714D01*
X173105714Y-124346428D01*
X173105714Y-124560714D01*
X173062857Y-124646428D01*
X173020000Y-124689285D01*
X172934285Y-124732142D01*
X172677142Y-124732142D01*
X172591428Y-124689285D01*
X172548571Y-124646428D01*
X173405714Y-124132142D02*
X173620000Y-124732142D01*
X173834285Y-124132142D01*
X174091428Y-123832142D02*
X174648571Y-123832142D01*
X174348571Y-124175000D01*
X174477142Y-124175000D01*
X174562857Y-124217857D01*
X174605714Y-124260714D01*
X174648571Y-124346428D01*
X174648571Y-124560714D01*
X174605714Y-124646428D01*
X174562857Y-124689285D01*
X174477142Y-124732142D01*
X174220000Y-124732142D01*
X174134285Y-124689285D01*
X174091428Y-124646428D01*
X143948571Y-123832142D02*
X144505714Y-123832142D01*
X144205714Y-124175000D01*
X144334285Y-124175000D01*
X144420000Y-124217857D01*
X144462857Y-124260714D01*
X144505714Y-124346428D01*
X144505714Y-124560714D01*
X144462857Y-124646428D01*
X144420000Y-124689285D01*
X144334285Y-124732142D01*
X144077142Y-124732142D01*
X143991428Y-124689285D01*
X143948571Y-124646428D01*
X144805714Y-124132142D02*
X145020000Y-124732142D01*
X145234285Y-124132142D01*
X145491428Y-123832142D02*
X146048571Y-123832142D01*
X145748571Y-124175000D01*
X145877142Y-124175000D01*
X145962857Y-124217857D01*
X146005714Y-124260714D01*
X146048571Y-124346428D01*
X146048571Y-124560714D01*
X146005714Y-124646428D01*
X145962857Y-124689285D01*
X145877142Y-124732142D01*
X145620000Y-124732142D01*
X145534285Y-124689285D01*
X145491428Y-124646428D01*
X115348571Y-123832142D02*
X115905714Y-123832142D01*
X115605714Y-124175000D01*
X115734285Y-124175000D01*
X115820000Y-124217857D01*
X115862857Y-124260714D01*
X115905714Y-124346428D01*
X115905714Y-124560714D01*
X115862857Y-124646428D01*
X115820000Y-124689285D01*
X115734285Y-124732142D01*
X115477142Y-124732142D01*
X115391428Y-124689285D01*
X115348571Y-124646428D01*
X116205714Y-124132142D02*
X116420000Y-124732142D01*
X116634285Y-124132142D01*
X116891428Y-123832142D02*
X117448571Y-123832142D01*
X117148571Y-124175000D01*
X117277142Y-124175000D01*
X117362857Y-124217857D01*
X117405714Y-124260714D01*
X117448571Y-124346428D01*
X117448571Y-124560714D01*
X117405714Y-124646428D01*
X117362857Y-124689285D01*
X117277142Y-124732142D01*
X117020000Y-124732142D01*
X116934285Y-124689285D01*
X116891428Y-124646428D01*
X172548571Y-81732142D02*
X173105714Y-81732142D01*
X172805714Y-82075000D01*
X172934285Y-82075000D01*
X173020000Y-82117857D01*
X173062857Y-82160714D01*
X173105714Y-82246428D01*
X173105714Y-82460714D01*
X173062857Y-82546428D01*
X173020000Y-82589285D01*
X172934285Y-82632142D01*
X172677142Y-82632142D01*
X172591428Y-82589285D01*
X172548571Y-82546428D01*
X173405714Y-82032142D02*
X173620000Y-82632142D01*
X173834285Y-82032142D01*
X174091428Y-81732142D02*
X174648571Y-81732142D01*
X174348571Y-82075000D01*
X174477142Y-82075000D01*
X174562857Y-82117857D01*
X174605714Y-82160714D01*
X174648571Y-82246428D01*
X174648571Y-82460714D01*
X174605714Y-82546428D01*
X174562857Y-82589285D01*
X174477142Y-82632142D01*
X174220000Y-82632142D01*
X174134285Y-82589285D01*
X174091428Y-82546428D01*
X143948571Y-81732142D02*
X144505714Y-81732142D01*
X144205714Y-82075000D01*
X144334285Y-82075000D01*
X144420000Y-82117857D01*
X144462857Y-82160714D01*
X144505714Y-82246428D01*
X144505714Y-82460714D01*
X144462857Y-82546428D01*
X144420000Y-82589285D01*
X144334285Y-82632142D01*
X144077142Y-82632142D01*
X143991428Y-82589285D01*
X143948571Y-82546428D01*
X144805714Y-82032142D02*
X145020000Y-82632142D01*
X145234285Y-82032142D01*
X145491428Y-81732142D02*
X146048571Y-81732142D01*
X145748571Y-82075000D01*
X145877142Y-82075000D01*
X145962857Y-82117857D01*
X146005714Y-82160714D01*
X146048571Y-82246428D01*
X146048571Y-82460714D01*
X146005714Y-82546428D01*
X145962857Y-82589285D01*
X145877142Y-82632142D01*
X145620000Y-82632142D01*
X145534285Y-82589285D01*
X145491428Y-82546428D01*
X176070000Y-124682142D02*
X175770000Y-124253571D01*
X175555714Y-124682142D02*
X175555714Y-123782142D01*
X175898571Y-123782142D01*
X175984285Y-123825000D01*
X176027142Y-123867857D01*
X176070000Y-123953571D01*
X176070000Y-124082142D01*
X176027142Y-124167857D01*
X175984285Y-124210714D01*
X175898571Y-124253571D01*
X175555714Y-124253571D01*
X176370000Y-123782142D02*
X176970000Y-124682142D01*
X176970000Y-123782142D02*
X176370000Y-124682142D01*
X147470000Y-124682142D02*
X147170000Y-124253571D01*
X146955714Y-124682142D02*
X146955714Y-123782142D01*
X147298571Y-123782142D01*
X147384285Y-123825000D01*
X147427142Y-123867857D01*
X147470000Y-123953571D01*
X147470000Y-124082142D01*
X147427142Y-124167857D01*
X147384285Y-124210714D01*
X147298571Y-124253571D01*
X146955714Y-124253571D01*
X147770000Y-123782142D02*
X148370000Y-124682142D01*
X148370000Y-123782142D02*
X147770000Y-124682142D01*
X118870000Y-124682142D02*
X118570000Y-124253571D01*
X118355714Y-124682142D02*
X118355714Y-123782142D01*
X118698571Y-123782142D01*
X118784285Y-123825000D01*
X118827142Y-123867857D01*
X118870000Y-123953571D01*
X118870000Y-124082142D01*
X118827142Y-124167857D01*
X118784285Y-124210714D01*
X118698571Y-124253571D01*
X118355714Y-124253571D01*
X119170000Y-123782142D02*
X119770000Y-124682142D01*
X119770000Y-123782142D02*
X119170000Y-124682142D01*
X176070000Y-82582142D02*
X175770000Y-82153571D01*
X175555714Y-82582142D02*
X175555714Y-81682142D01*
X175898571Y-81682142D01*
X175984285Y-81725000D01*
X176027142Y-81767857D01*
X176070000Y-81853571D01*
X176070000Y-81982142D01*
X176027142Y-82067857D01*
X175984285Y-82110714D01*
X175898571Y-82153571D01*
X175555714Y-82153571D01*
X176370000Y-81682142D02*
X176970000Y-82582142D01*
X176970000Y-81682142D02*
X176370000Y-82582142D01*
X147470000Y-82582142D02*
X147170000Y-82153571D01*
X146955714Y-82582142D02*
X146955714Y-81682142D01*
X147298571Y-81682142D01*
X147384285Y-81725000D01*
X147427142Y-81767857D01*
X147470000Y-81853571D01*
X147470000Y-81982142D01*
X147427142Y-82067857D01*
X147384285Y-82110714D01*
X147298571Y-82153571D01*
X146955714Y-82153571D01*
X147770000Y-81682142D02*
X148370000Y-82582142D01*
X148370000Y-81682142D02*
X147770000Y-82582142D01*
X107770000Y-66132142D02*
X107470000Y-65703571D01*
X107255714Y-66132142D02*
X107255714Y-65232142D01*
X107598571Y-65232142D01*
X107684285Y-65275000D01*
X107727142Y-65317857D01*
X107770000Y-65403571D01*
X107770000Y-65532142D01*
X107727142Y-65617857D01*
X107684285Y-65660714D01*
X107598571Y-65703571D01*
X107255714Y-65703571D01*
X108112857Y-66089285D02*
X108241428Y-66132142D01*
X108455714Y-66132142D01*
X108541428Y-66089285D01*
X108584285Y-66046428D01*
X108627142Y-65960714D01*
X108627142Y-65875000D01*
X108584285Y-65789285D01*
X108541428Y-65746428D01*
X108455714Y-65703571D01*
X108284285Y-65660714D01*
X108198571Y-65617857D01*
X108155714Y-65575000D01*
X108112857Y-65489285D01*
X108112857Y-65403571D01*
X108155714Y-65317857D01*
X108198571Y-65275000D01*
X108284285Y-65232142D01*
X108498571Y-65232142D01*
X108627142Y-65275000D01*
X107205714Y-68425000D02*
X107634285Y-68425000D01*
X107120000Y-68682142D02*
X107420000Y-67782142D01*
X107720000Y-68682142D01*
X108020000Y-68682142D02*
X108020000Y-67782142D01*
X108234285Y-67782142D01*
X108362857Y-67825000D01*
X108448571Y-67910714D01*
X108491428Y-67996428D01*
X108534285Y-68167857D01*
X108534285Y-68296428D01*
X108491428Y-68467857D01*
X108448571Y-68553571D01*
X108362857Y-68639285D01*
X108234285Y-68682142D01*
X108020000Y-68682142D01*
X107205714Y-70810714D02*
X107505714Y-70810714D01*
X107634285Y-71282142D02*
X107205714Y-71282142D01*
X107205714Y-70382142D01*
X107634285Y-70382142D01*
X108020000Y-71282142D02*
X108020000Y-70382142D01*
X108534285Y-71282142D01*
X108534285Y-70382142D01*
X107698571Y-73582142D02*
X107184285Y-73582142D01*
X107441428Y-73582142D02*
X107441428Y-72682142D01*
X107355714Y-72810714D01*
X107270000Y-72896428D01*
X107184285Y-72939285D01*
X108470000Y-72682142D02*
X108298571Y-72682142D01*
X108212857Y-72725000D01*
X108170000Y-72767857D01*
X108084285Y-72896428D01*
X108041428Y-73067857D01*
X108041428Y-73410714D01*
X108084285Y-73496428D01*
X108127142Y-73539285D01*
X108212857Y-73582142D01*
X108384285Y-73582142D01*
X108470000Y-73539285D01*
X108512857Y-73496428D01*
X108555714Y-73410714D01*
X108555714Y-73196428D01*
X108512857Y-73110714D01*
X108470000Y-73067857D01*
X108384285Y-73025000D01*
X108212857Y-73025000D01*
X108127142Y-73067857D01*
X108084285Y-73110714D01*
X108041428Y-73196428D01*
X107648571Y-76182142D02*
X107134285Y-76182142D01*
X107391428Y-76182142D02*
X107391428Y-75282142D01*
X107305714Y-75410714D01*
X107220000Y-75496428D01*
X107134285Y-75539285D01*
X108420000Y-75582142D02*
X108420000Y-76182142D01*
X108205714Y-75239285D02*
X107991428Y-75882142D01*
X108548571Y-75882142D01*
X107748571Y-78832142D02*
X107234285Y-78832142D01*
X107491428Y-78832142D02*
X107491428Y-77932142D01*
X107405714Y-78060714D01*
X107320000Y-78146428D01*
X107234285Y-78189285D01*
X108091428Y-78017857D02*
X108134285Y-77975000D01*
X108220000Y-77932142D01*
X108434285Y-77932142D01*
X108520000Y-77975000D01*
X108562857Y-78017857D01*
X108605714Y-78103571D01*
X108605714Y-78189285D01*
X108562857Y-78317857D01*
X108048571Y-78832142D01*
X108605714Y-78832142D01*
X107798571Y-81382142D02*
X107284285Y-81382142D01*
X107541428Y-81382142D02*
X107541428Y-80482142D01*
X107455714Y-80610714D01*
X107370000Y-80696428D01*
X107284285Y-80739285D01*
X108098571Y-80482142D02*
X108655714Y-80482142D01*
X108355714Y-80825000D01*
X108484285Y-80825000D01*
X108570000Y-80867857D01*
X108612857Y-80910714D01*
X108655714Y-80996428D01*
X108655714Y-81210714D01*
X108612857Y-81296428D01*
X108570000Y-81339285D01*
X108484285Y-81382142D01*
X108227142Y-81382142D01*
X108141428Y-81339285D01*
X108098571Y-81296428D01*
X127220000Y-68682142D02*
X126920000Y-68253571D01*
X126705714Y-68682142D02*
X126705714Y-67782142D01*
X127048571Y-67782142D01*
X127134285Y-67825000D01*
X127177142Y-67867857D01*
X127220000Y-67953571D01*
X127220000Y-68082142D01*
X127177142Y-68167857D01*
X127134285Y-68210714D01*
X127048571Y-68253571D01*
X126705714Y-68253571D01*
X127520000Y-67782142D02*
X128120000Y-68682142D01*
X128120000Y-67782142D02*
X127520000Y-68682142D01*
X126684285Y-65182142D02*
X127198571Y-65182142D01*
X126941428Y-66082142D02*
X126941428Y-65182142D01*
X127412857Y-65182142D02*
X128012857Y-66082142D01*
X128012857Y-65182142D02*
X127412857Y-66082142D01*
X127427142Y-75332142D02*
X127512857Y-75332142D01*
X127598571Y-75375000D01*
X127641428Y-75417857D01*
X127684285Y-75503571D01*
X127727142Y-75675000D01*
X127727142Y-75889285D01*
X127684285Y-76060714D01*
X127641428Y-76146428D01*
X127598571Y-76189285D01*
X127512857Y-76232142D01*
X127427142Y-76232142D01*
X127341428Y-76189285D01*
X127298571Y-76146428D01*
X127255714Y-76060714D01*
X127212857Y-75889285D01*
X127212857Y-75675000D01*
X127255714Y-75503571D01*
X127298571Y-75417857D01*
X127341428Y-75375000D01*
X127427142Y-75332142D01*
X127541428Y-73082142D02*
X127541428Y-73682142D01*
X127327142Y-72739285D02*
X127112857Y-73382142D01*
X127670000Y-73382142D01*
X127634285Y-70282142D02*
X127205714Y-70282142D01*
X127162857Y-70710714D01*
X127205714Y-70667857D01*
X127291428Y-70625000D01*
X127505714Y-70625000D01*
X127591428Y-70667857D01*
X127634285Y-70710714D01*
X127677142Y-70796428D01*
X127677142Y-71010714D01*
X127634285Y-71096428D01*
X127591428Y-71139285D01*
X127505714Y-71182142D01*
X127291428Y-71182142D01*
X127205714Y-71139285D01*
X127162857Y-71096428D01*
X127262857Y-78017857D02*
X127305714Y-77975000D01*
X127391428Y-77932142D01*
X127605714Y-77932142D01*
X127691428Y-77975000D01*
X127734285Y-78017857D01*
X127777142Y-78103571D01*
X127777142Y-78189285D01*
X127734285Y-78317857D01*
X127220000Y-78832142D01*
X127777142Y-78832142D01*
X127098571Y-81332142D02*
X126584285Y-81332142D01*
X126841428Y-81332142D02*
X126841428Y-80432142D01*
X126755714Y-80560714D01*
X126670000Y-80646428D01*
X126584285Y-80689285D01*
X127912857Y-80432142D02*
X127484285Y-80432142D01*
X127441428Y-80860714D01*
X127484285Y-80817857D01*
X127570000Y-80775000D01*
X127784285Y-80775000D01*
X127870000Y-80817857D01*
X127912857Y-80860714D01*
X127955714Y-80946428D01*
X127955714Y-81160714D01*
X127912857Y-81246428D01*
X127870000Y-81289285D01*
X127784285Y-81332142D01*
X127570000Y-81332142D01*
X127484285Y-81289285D01*
X127441428Y-81246428D01*
X126341428Y-83025000D02*
X126255714Y-82982142D01*
X126127142Y-82982142D01*
X125998571Y-83025000D01*
X125912857Y-83110714D01*
X125870000Y-83196428D01*
X125827142Y-83367857D01*
X125827142Y-83496428D01*
X125870000Y-83667857D01*
X125912857Y-83753571D01*
X125998571Y-83839285D01*
X126127142Y-83882142D01*
X126212857Y-83882142D01*
X126341428Y-83839285D01*
X126384285Y-83796428D01*
X126384285Y-83496428D01*
X126212857Y-83496428D01*
X126770000Y-83282142D02*
X126770000Y-83882142D01*
X126770000Y-83367857D02*
X126812857Y-83325000D01*
X126898571Y-83282142D01*
X127027142Y-83282142D01*
X127112857Y-83325000D01*
X127155714Y-83410714D01*
X127155714Y-83882142D01*
X127970000Y-83882142D02*
X127970000Y-82982142D01*
X127970000Y-83839285D02*
X127884285Y-83882142D01*
X127712857Y-83882142D01*
X127627142Y-83839285D01*
X127584285Y-83796428D01*
X127541428Y-83710714D01*
X127541428Y-83453571D01*
X127584285Y-83367857D01*
X127627142Y-83325000D01*
X127712857Y-83282142D01*
X127884285Y-83282142D01*
X127970000Y-83325000D01*
X107698571Y-85532142D02*
X107270000Y-85532142D01*
X107227142Y-85960714D01*
X107270000Y-85917857D01*
X107355714Y-85875000D01*
X107570000Y-85875000D01*
X107655714Y-85917857D01*
X107698571Y-85960714D01*
X107741428Y-86046428D01*
X107741428Y-86260714D01*
X107698571Y-86346428D01*
X107655714Y-86389285D01*
X107570000Y-86432142D01*
X107355714Y-86432142D01*
X107270000Y-86389285D01*
X107227142Y-86346428D01*
X107998571Y-85532142D02*
X108298571Y-86432142D01*
X108598571Y-85532142D01*
X126998571Y-86432142D02*
X126484285Y-86432142D01*
X126741428Y-86432142D02*
X126741428Y-85532142D01*
X126655714Y-85660714D01*
X126570000Y-85746428D01*
X126484285Y-85789285D01*
X127555714Y-85532142D02*
X127641428Y-85532142D01*
X127727142Y-85575000D01*
X127770000Y-85617857D01*
X127812857Y-85703571D01*
X127855714Y-85875000D01*
X127855714Y-86089285D01*
X127812857Y-86260714D01*
X127770000Y-86346428D01*
X127727142Y-86389285D01*
X127641428Y-86432142D01*
X127555714Y-86432142D01*
X127470000Y-86389285D01*
X127427142Y-86346428D01*
X127384285Y-86260714D01*
X127341428Y-86089285D01*
X127341428Y-85875000D01*
X127384285Y-85703571D01*
X127427142Y-85617857D01*
X127470000Y-85575000D01*
X127555714Y-85532142D01*
X110891428Y-81725000D02*
X110805714Y-81682142D01*
X110677142Y-81682142D01*
X110548571Y-81725000D01*
X110462857Y-81810714D01*
X110420000Y-81896428D01*
X110377142Y-82067857D01*
X110377142Y-82196428D01*
X110420000Y-82367857D01*
X110462857Y-82453571D01*
X110548571Y-82539285D01*
X110677142Y-82582142D01*
X110762857Y-82582142D01*
X110891428Y-82539285D01*
X110934285Y-82496428D01*
X110934285Y-82196428D01*
X110762857Y-82196428D01*
X111320000Y-81982142D02*
X111320000Y-82582142D01*
X111320000Y-82067857D02*
X111362857Y-82025000D01*
X111448571Y-81982142D01*
X111577142Y-81982142D01*
X111662857Y-82025000D01*
X111705714Y-82110714D01*
X111705714Y-82582142D01*
X112520000Y-82582142D02*
X112520000Y-81682142D01*
X112520000Y-82539285D02*
X112434285Y-82582142D01*
X112262857Y-82582142D01*
X112177142Y-82539285D01*
X112134285Y-82496428D01*
X112091428Y-82410714D01*
X112091428Y-82153571D01*
X112134285Y-82067857D01*
X112177142Y-82025000D01*
X112262857Y-81982142D01*
X112434285Y-81982142D01*
X112520000Y-82025000D01*
X115348571Y-81732142D02*
X115905714Y-81732142D01*
X115605714Y-82075000D01*
X115734285Y-82075000D01*
X115820000Y-82117857D01*
X115862857Y-82160714D01*
X115905714Y-82246428D01*
X115905714Y-82460714D01*
X115862857Y-82546428D01*
X115820000Y-82589285D01*
X115734285Y-82632142D01*
X115477142Y-82632142D01*
X115391428Y-82589285D01*
X115348571Y-82546428D01*
X116205714Y-82032142D02*
X116420000Y-82632142D01*
X116634285Y-82032142D01*
X116891428Y-81732142D02*
X117448571Y-81732142D01*
X117148571Y-82075000D01*
X117277142Y-82075000D01*
X117362857Y-82117857D01*
X117405714Y-82160714D01*
X117448571Y-82246428D01*
X117448571Y-82460714D01*
X117405714Y-82546428D01*
X117362857Y-82589285D01*
X117277142Y-82632142D01*
X117020000Y-82632142D01*
X116934285Y-82589285D01*
X116891428Y-82546428D01*
X118870000Y-82582142D02*
X118570000Y-82153571D01*
X118355714Y-82582142D02*
X118355714Y-81682142D01*
X118698571Y-81682142D01*
X118784285Y-81725000D01*
X118827142Y-81767857D01*
X118870000Y-81853571D01*
X118870000Y-81982142D01*
X118827142Y-82067857D01*
X118784285Y-82110714D01*
X118698571Y-82153571D01*
X118355714Y-82153571D01*
X119170000Y-81682142D02*
X119770000Y-82582142D01*
X119770000Y-81682142D02*
X119170000Y-82582142D01*
X120884285Y-81732142D02*
X121398571Y-81732142D01*
X121141428Y-82632142D02*
X121141428Y-81732142D01*
X121612857Y-81732142D02*
X122212857Y-82632142D01*
X122212857Y-81732142D02*
X121612857Y-82632142D01*
X107198571Y-83032142D02*
X107755714Y-83032142D01*
X107455714Y-83375000D01*
X107584285Y-83375000D01*
X107670000Y-83417857D01*
X107712857Y-83460714D01*
X107755714Y-83546428D01*
X107755714Y-83760714D01*
X107712857Y-83846428D01*
X107670000Y-83889285D01*
X107584285Y-83932142D01*
X107327142Y-83932142D01*
X107241428Y-83889285D01*
X107198571Y-83846428D01*
X108055714Y-83332142D02*
X108270000Y-83932142D01*
X108484285Y-83332142D01*
X108741428Y-83032142D02*
X109298571Y-83032142D01*
X108998571Y-83375000D01*
X109127142Y-83375000D01*
X109212857Y-83417857D01*
X109255714Y-83460714D01*
X109298571Y-83546428D01*
X109298571Y-83760714D01*
X109255714Y-83846428D01*
X109212857Y-83889285D01*
X109127142Y-83932142D01*
X108870000Y-83932142D01*
X108784285Y-83889285D01*
X108741428Y-83846428D01*
D10*
X130298571Y-59917857D02*
X129841428Y-59917857D01*
X130070000Y-60146428D02*
X130070000Y-59689285D01*
X105348571Y-59847857D02*
X104891428Y-59847857D01*
X105120000Y-60076428D02*
X105120000Y-59619285D01*
D12*
X175591428Y-141648571D02*
X175591428Y-142720000D01*
X175520000Y-142934285D01*
X175377142Y-143077142D01*
X175162857Y-143148571D01*
X175020000Y-143148571D01*
X177020000Y-143148571D02*
X176305714Y-143148571D01*
X176305714Y-141648571D01*
X178377142Y-143005714D02*
X178305714Y-143077142D01*
X178091428Y-143148571D01*
X177948571Y-143148571D01*
X177734285Y-143077142D01*
X177591428Y-142934285D01*
X177520000Y-142791428D01*
X177448571Y-142505714D01*
X177448571Y-142291428D01*
X177520000Y-142005714D01*
X177591428Y-141862857D01*
X177734285Y-141720000D01*
X177948571Y-141648571D01*
X178091428Y-141648571D01*
X178305714Y-141720000D01*
X178377142Y-141791428D01*
X179448571Y-141648571D02*
X179448571Y-142720000D01*
X179377142Y-142934285D01*
X179234285Y-143077142D01*
X179020000Y-143148571D01*
X178877142Y-143148571D01*
X180877142Y-143148571D02*
X180162857Y-143148571D01*
X180162857Y-141648571D01*
X182234285Y-143005714D02*
X182162857Y-143077142D01*
X181948571Y-143148571D01*
X181805714Y-143148571D01*
X181591428Y-143077142D01*
X181448571Y-142934285D01*
X181377142Y-142791428D01*
X181305714Y-142505714D01*
X181305714Y-142291428D01*
X181377142Y-142005714D01*
X181448571Y-141862857D01*
X181591428Y-141720000D01*
X181805714Y-141648571D01*
X181948571Y-141648571D01*
X182162857Y-141720000D01*
X182234285Y-141791428D01*
X183305714Y-141648571D02*
X183305714Y-142720000D01*
X183234285Y-142934285D01*
X183091428Y-143077142D01*
X182877142Y-143148571D01*
X182734285Y-143148571D01*
X184734285Y-143148571D02*
X184020000Y-143148571D01*
X184020000Y-141648571D01*
X186091428Y-143005714D02*
X186020000Y-143077142D01*
X185805714Y-143148571D01*
X185662857Y-143148571D01*
X185448571Y-143077142D01*
X185305714Y-142934285D01*
X185234285Y-142791428D01*
X185162857Y-142505714D01*
X185162857Y-142291428D01*
X185234285Y-142005714D01*
X185305714Y-141862857D01*
X185448571Y-141720000D01*
X185662857Y-141648571D01*
X185805714Y-141648571D01*
X186020000Y-141720000D01*
X186091428Y-141791428D01*
X187162857Y-141648571D02*
X187162857Y-142720000D01*
X187091428Y-142934285D01*
X186948571Y-143077142D01*
X186734285Y-143148571D01*
X186591428Y-143148571D01*
X188591428Y-143148571D02*
X187877142Y-143148571D01*
X187877142Y-141648571D01*
X189948571Y-143005714D02*
X189877142Y-143077142D01*
X189662857Y-143148571D01*
X189520000Y-143148571D01*
X189305714Y-143077142D01*
X189162857Y-142934285D01*
X189091428Y-142791428D01*
X189020000Y-142505714D01*
X189020000Y-142291428D01*
X189091428Y-142005714D01*
X189162857Y-141862857D01*
X189305714Y-141720000D01*
X189520000Y-141648571D01*
X189662857Y-141648571D01*
X189877142Y-141720000D01*
X189948571Y-141791428D01*
D13*
%TO.C,C104*%
X178910000Y-129763748D02*
X178910000Y-131186252D01*
X180730000Y-129763748D02*
X180730000Y-131186252D01*
X150310000Y-129763748D02*
X150310000Y-131186252D01*
X152130000Y-129763748D02*
X152130000Y-131186252D01*
X121710000Y-129763748D02*
X121710000Y-131186252D01*
X123530000Y-129763748D02*
X123530000Y-131186252D01*
X178910000Y-87663748D02*
X178910000Y-89086252D01*
X180730000Y-87663748D02*
X180730000Y-89086252D01*
X150310000Y-87663748D02*
X150310000Y-89086252D01*
X152130000Y-87663748D02*
X152130000Y-89086252D01*
%TO.C,R504*%
X163235000Y-103747936D02*
X163235000Y-104202064D01*
X164705000Y-103747936D02*
X164705000Y-104202064D01*
X134635000Y-103747936D02*
X134635000Y-104202064D01*
X136105000Y-103747936D02*
X136105000Y-104202064D01*
X106035000Y-103747936D02*
X106035000Y-104202064D01*
X107505000Y-103747936D02*
X107505000Y-104202064D01*
X163235000Y-61647936D02*
X163235000Y-62102064D01*
X164705000Y-61647936D02*
X164705000Y-62102064D01*
X134635000Y-61647936D02*
X134635000Y-62102064D01*
X136105000Y-61647936D02*
X136105000Y-62102064D01*
%TO.C,U501*%
X166800000Y-106075000D02*
X166190000Y-106075000D01*
X166800000Y-106075000D02*
X166800000Y-98455000D01*
X166800000Y-122695000D02*
X166800000Y-122075000D01*
X168920000Y-122695000D02*
X166800000Y-122695000D01*
X183040000Y-122695000D02*
X180920000Y-122695000D01*
X183040000Y-122075000D02*
X183040000Y-122695000D01*
X183040000Y-98455000D02*
X183040000Y-106075000D01*
X166800000Y-98455000D02*
X183040000Y-98455000D01*
X138200000Y-106075000D02*
X137590000Y-106075000D01*
X138200000Y-106075000D02*
X138200000Y-98455000D01*
X138200000Y-122695000D02*
X138200000Y-122075000D01*
X140320000Y-122695000D02*
X138200000Y-122695000D01*
X154440000Y-122695000D02*
X152320000Y-122695000D01*
X154440000Y-122075000D02*
X154440000Y-122695000D01*
X154440000Y-98455000D02*
X154440000Y-106075000D01*
X138200000Y-98455000D02*
X154440000Y-98455000D01*
X109600000Y-106075000D02*
X108990000Y-106075000D01*
X109600000Y-106075000D02*
X109600000Y-98455000D01*
X109600000Y-122695000D02*
X109600000Y-122075000D01*
X111720000Y-122695000D02*
X109600000Y-122695000D01*
X125840000Y-122695000D02*
X123720000Y-122695000D01*
X125840000Y-122075000D02*
X125840000Y-122695000D01*
X125840000Y-98455000D02*
X125840000Y-106075000D01*
X109600000Y-98455000D02*
X125840000Y-98455000D01*
X166800000Y-63975000D02*
X166190000Y-63975000D01*
X166800000Y-63975000D02*
X166800000Y-56355000D01*
X166800000Y-80595000D02*
X166800000Y-79975000D01*
X168920000Y-80595000D02*
X166800000Y-80595000D01*
X183040000Y-80595000D02*
X180920000Y-80595000D01*
X183040000Y-79975000D02*
X183040000Y-80595000D01*
X183040000Y-56355000D02*
X183040000Y-63975000D01*
X166800000Y-56355000D02*
X183040000Y-56355000D01*
X138200000Y-63975000D02*
X137590000Y-63975000D01*
X138200000Y-63975000D02*
X138200000Y-56355000D01*
X138200000Y-80595000D02*
X138200000Y-79975000D01*
X140320000Y-80595000D02*
X138200000Y-80595000D01*
X154440000Y-80595000D02*
X152320000Y-80595000D01*
X154440000Y-79975000D02*
X154440000Y-80595000D01*
X154440000Y-56355000D02*
X154440000Y-63975000D01*
X138200000Y-56355000D02*
X154440000Y-56355000D01*
%TO.C,R507*%
X185335000Y-103847936D02*
X185335000Y-104302064D01*
X186805000Y-103847936D02*
X186805000Y-104302064D01*
X156735000Y-103847936D02*
X156735000Y-104302064D01*
X158205000Y-103847936D02*
X158205000Y-104302064D01*
X128135000Y-103847936D02*
X128135000Y-104302064D01*
X129605000Y-103847936D02*
X129605000Y-104302064D01*
X185335000Y-61747936D02*
X185335000Y-62202064D01*
X186805000Y-61747936D02*
X186805000Y-62202064D01*
X156735000Y-61747936D02*
X156735000Y-62202064D01*
X158205000Y-61747936D02*
X158205000Y-62202064D01*
%TO.C,C103*%
X176460000Y-129763748D02*
X176460000Y-131186252D01*
X178280000Y-129763748D02*
X178280000Y-131186252D01*
X147860000Y-129763748D02*
X147860000Y-131186252D01*
X149680000Y-129763748D02*
X149680000Y-131186252D01*
X119260000Y-129763748D02*
X119260000Y-131186252D01*
X121080000Y-129763748D02*
X121080000Y-131186252D01*
X176460000Y-87663748D02*
X176460000Y-89086252D01*
X178280000Y-87663748D02*
X178280000Y-89086252D01*
X147860000Y-87663748D02*
X147860000Y-89086252D01*
X149680000Y-87663748D02*
X149680000Y-89086252D01*
%TO.C,R505*%
X183942500Y-131529724D02*
X183942500Y-131020276D01*
X182897500Y-131529724D02*
X182897500Y-131020276D01*
X155342500Y-131529724D02*
X155342500Y-131020276D01*
X154297500Y-131529724D02*
X154297500Y-131020276D01*
X126742500Y-131529724D02*
X126742500Y-131020276D01*
X125697500Y-131529724D02*
X125697500Y-131020276D01*
X183942500Y-89429724D02*
X183942500Y-88920276D01*
X182897500Y-89429724D02*
X182897500Y-88920276D01*
X155342500Y-89429724D02*
X155342500Y-88920276D01*
X154297500Y-89429724D02*
X154297500Y-88920276D01*
%TO.C,R506*%
X185542500Y-131529724D02*
X185542500Y-131020276D01*
X184497500Y-131529724D02*
X184497500Y-131020276D01*
X156942500Y-131529724D02*
X156942500Y-131020276D01*
X155897500Y-131529724D02*
X155897500Y-131020276D01*
X128342500Y-131529724D02*
X128342500Y-131020276D01*
X127297500Y-131529724D02*
X127297500Y-131020276D01*
X185542500Y-89429724D02*
X185542500Y-88920276D01*
X184497500Y-89429724D02*
X184497500Y-88920276D01*
X156942500Y-89429724D02*
X156942500Y-88920276D01*
X155897500Y-89429724D02*
X155897500Y-88920276D01*
%TO.C,D502*%
X184160000Y-102060000D02*
X186620000Y-102060000D01*
X184160000Y-100590000D02*
X184160000Y-102060000D01*
X186620000Y-100590000D02*
X184160000Y-100590000D01*
X155560000Y-102060000D02*
X158020000Y-102060000D01*
X155560000Y-100590000D02*
X155560000Y-102060000D01*
X158020000Y-100590000D02*
X155560000Y-100590000D01*
X126960000Y-102060000D02*
X129420000Y-102060000D01*
X126960000Y-100590000D02*
X126960000Y-102060000D01*
X129420000Y-100590000D02*
X126960000Y-100590000D01*
X184160000Y-59960000D02*
X186620000Y-59960000D01*
X184160000Y-58490000D02*
X184160000Y-59960000D01*
X186620000Y-58490000D02*
X184160000Y-58490000D01*
X155560000Y-59960000D02*
X158020000Y-59960000D01*
X155560000Y-58490000D02*
X155560000Y-59960000D01*
X158020000Y-58490000D02*
X155560000Y-58490000D01*
%TO.C,R501*%
X181297500Y-131020276D02*
X181297500Y-131529724D01*
X182342500Y-131020276D02*
X182342500Y-131529724D01*
X152697500Y-131020276D02*
X152697500Y-131529724D01*
X153742500Y-131020276D02*
X153742500Y-131529724D01*
X124097500Y-131020276D02*
X124097500Y-131529724D01*
X125142500Y-131020276D02*
X125142500Y-131529724D01*
X181297500Y-88920276D02*
X181297500Y-89429724D01*
X182342500Y-88920276D02*
X182342500Y-89429724D01*
X152697500Y-88920276D02*
X152697500Y-89429724D01*
X153742500Y-88920276D02*
X153742500Y-89429724D01*
%TO.C,C102*%
X169110000Y-129763748D02*
X169110000Y-131186252D01*
X170930000Y-129763748D02*
X170930000Y-131186252D01*
X140510000Y-129763748D02*
X140510000Y-131186252D01*
X142330000Y-129763748D02*
X142330000Y-131186252D01*
X111910000Y-129763748D02*
X111910000Y-131186252D01*
X113730000Y-129763748D02*
X113730000Y-131186252D01*
X169110000Y-87663748D02*
X169110000Y-89086252D01*
X170930000Y-87663748D02*
X170930000Y-89086252D01*
X140510000Y-87663748D02*
X140510000Y-89086252D01*
X142330000Y-87663748D02*
X142330000Y-89086252D01*
%TO.C,SW502*%
X169980000Y-133175000D02*
X169980000Y-136875000D01*
X163860000Y-133175000D02*
X169980000Y-133175000D01*
X163860000Y-136875000D02*
X163860000Y-133175000D01*
X169980000Y-136875000D02*
X163860000Y-136875000D01*
X141380000Y-133175000D02*
X141380000Y-136875000D01*
X135260000Y-133175000D02*
X141380000Y-133175000D01*
X135260000Y-136875000D02*
X135260000Y-133175000D01*
X141380000Y-136875000D02*
X135260000Y-136875000D01*
X112780000Y-133175000D02*
X112780000Y-136875000D01*
X106660000Y-133175000D02*
X112780000Y-133175000D01*
X106660000Y-136875000D02*
X106660000Y-133175000D01*
X112780000Y-136875000D02*
X106660000Y-136875000D01*
X169980000Y-91075000D02*
X169980000Y-94775000D01*
X163860000Y-91075000D02*
X169980000Y-91075000D01*
X163860000Y-94775000D02*
X163860000Y-91075000D01*
X169980000Y-94775000D02*
X163860000Y-94775000D01*
X141380000Y-91075000D02*
X141380000Y-94775000D01*
X135260000Y-91075000D02*
X141380000Y-91075000D01*
X135260000Y-94775000D02*
X135260000Y-91075000D01*
X141380000Y-94775000D02*
X135260000Y-94775000D01*
%TO.C,C101*%
X171560000Y-129763748D02*
X171560000Y-131186252D01*
X173380000Y-129763748D02*
X173380000Y-131186252D01*
X142960000Y-129763748D02*
X142960000Y-131186252D01*
X144780000Y-129763748D02*
X144780000Y-131186252D01*
X114360000Y-129763748D02*
X114360000Y-131186252D01*
X116180000Y-129763748D02*
X116180000Y-131186252D01*
X171560000Y-87663748D02*
X171560000Y-89086252D01*
X173380000Y-87663748D02*
X173380000Y-89086252D01*
X142960000Y-87663748D02*
X142960000Y-89086252D01*
X144780000Y-87663748D02*
X144780000Y-89086252D01*
%TO.C,SW501*%
X179610000Y-136925000D02*
X179610000Y-133225000D01*
X185730000Y-136925000D02*
X179610000Y-136925000D01*
X185730000Y-133225000D02*
X185730000Y-136925000D01*
X179610000Y-133225000D02*
X185730000Y-133225000D01*
X151010000Y-136925000D02*
X151010000Y-133225000D01*
X157130000Y-136925000D02*
X151010000Y-136925000D01*
X157130000Y-133225000D02*
X157130000Y-136925000D01*
X151010000Y-133225000D02*
X157130000Y-133225000D01*
X122410000Y-136925000D02*
X122410000Y-133225000D01*
X128530000Y-136925000D02*
X122410000Y-136925000D01*
X128530000Y-133225000D02*
X128530000Y-136925000D01*
X122410000Y-133225000D02*
X128530000Y-133225000D01*
X179610000Y-94825000D02*
X179610000Y-91125000D01*
X185730000Y-94825000D02*
X179610000Y-94825000D01*
X185730000Y-91125000D02*
X185730000Y-94825000D01*
X179610000Y-91125000D02*
X185730000Y-91125000D01*
X151010000Y-94825000D02*
X151010000Y-91125000D01*
X157130000Y-94825000D02*
X151010000Y-94825000D01*
X157130000Y-91125000D02*
X157130000Y-94825000D01*
X151010000Y-91125000D02*
X157130000Y-91125000D01*
%TO.C,C502*%
X174010000Y-129763748D02*
X174010000Y-131186252D01*
X175830000Y-129763748D02*
X175830000Y-131186252D01*
X145410000Y-129763748D02*
X145410000Y-131186252D01*
X147230000Y-129763748D02*
X147230000Y-131186252D01*
X116810000Y-129763748D02*
X116810000Y-131186252D01*
X118630000Y-129763748D02*
X118630000Y-131186252D01*
X174010000Y-87663748D02*
X174010000Y-89086252D01*
X175830000Y-87663748D02*
X175830000Y-89086252D01*
X145410000Y-87663748D02*
X145410000Y-89086252D01*
X147230000Y-87663748D02*
X147230000Y-89086252D01*
%TO.C,R503*%
X166992500Y-131529724D02*
X166992500Y-131020276D01*
X165947500Y-131529724D02*
X165947500Y-131020276D01*
X138392500Y-131529724D02*
X138392500Y-131020276D01*
X137347500Y-131529724D02*
X137347500Y-131020276D01*
X109792500Y-131529724D02*
X109792500Y-131020276D01*
X108747500Y-131529724D02*
X108747500Y-131020276D01*
X166992500Y-89429724D02*
X166992500Y-88920276D01*
X165947500Y-89429724D02*
X165947500Y-88920276D01*
X138392500Y-89429724D02*
X138392500Y-88920276D01*
X137347500Y-89429724D02*
X137347500Y-88920276D01*
%TO.C,C501*%
X164360000Y-131128733D02*
X164360000Y-131421267D01*
X165380000Y-131128733D02*
X165380000Y-131421267D01*
X135760000Y-131128733D02*
X135760000Y-131421267D01*
X136780000Y-131128733D02*
X136780000Y-131421267D01*
X107160000Y-131128733D02*
X107160000Y-131421267D01*
X108180000Y-131128733D02*
X108180000Y-131421267D01*
X164360000Y-89028733D02*
X164360000Y-89321267D01*
X165380000Y-89028733D02*
X165380000Y-89321267D01*
X135760000Y-89028733D02*
X135760000Y-89321267D01*
X136780000Y-89028733D02*
X136780000Y-89321267D01*
%TO.C,D501*%
X165630000Y-100490000D02*
X163170000Y-100490000D01*
X165630000Y-101960000D02*
X165630000Y-100490000D01*
X163170000Y-101960000D02*
X165630000Y-101960000D01*
X137030000Y-100490000D02*
X134570000Y-100490000D01*
X137030000Y-101960000D02*
X137030000Y-100490000D01*
X134570000Y-101960000D02*
X137030000Y-101960000D01*
X108430000Y-100490000D02*
X105970000Y-100490000D01*
X108430000Y-101960000D02*
X108430000Y-100490000D01*
X105970000Y-101960000D02*
X108430000Y-101960000D01*
X165630000Y-58390000D02*
X163170000Y-58390000D01*
X165630000Y-59860000D02*
X165630000Y-58390000D01*
X163170000Y-59860000D02*
X165630000Y-59860000D01*
X137030000Y-58390000D02*
X134570000Y-58390000D01*
X137030000Y-59860000D02*
X137030000Y-58390000D01*
X134570000Y-59860000D02*
X137030000Y-59860000D01*
%TO.C,R502*%
X167497500Y-131020276D02*
X167497500Y-131529724D01*
X168542500Y-131020276D02*
X168542500Y-131529724D01*
X138897500Y-131020276D02*
X138897500Y-131529724D01*
X139942500Y-131020276D02*
X139942500Y-131529724D01*
X110297500Y-131020276D02*
X110297500Y-131529724D01*
X111342500Y-131020276D02*
X111342500Y-131529724D01*
X167497500Y-88920276D02*
X167497500Y-89429724D01*
X168542500Y-88920276D02*
X168542500Y-89429724D01*
X138897500Y-88920276D02*
X138897500Y-89429724D01*
X139942500Y-88920276D02*
X139942500Y-89429724D01*
%TO.C,J501*%
X182600000Y-124795000D02*
X182600000Y-126125000D01*
X181270000Y-124795000D02*
X182600000Y-124795000D01*
X180000000Y-124795000D02*
X180000000Y-127455000D01*
X180000000Y-127455000D02*
X167240000Y-127455000D01*
X180000000Y-124795000D02*
X167240000Y-124795000D01*
X167240000Y-124795000D02*
X167240000Y-127455000D01*
X154000000Y-124795000D02*
X154000000Y-126125000D01*
X152670000Y-124795000D02*
X154000000Y-124795000D01*
X151400000Y-124795000D02*
X151400000Y-127455000D01*
X151400000Y-127455000D02*
X138640000Y-127455000D01*
X151400000Y-124795000D02*
X138640000Y-124795000D01*
X138640000Y-124795000D02*
X138640000Y-127455000D01*
X125400000Y-124795000D02*
X125400000Y-126125000D01*
X124070000Y-124795000D02*
X125400000Y-124795000D01*
X122800000Y-124795000D02*
X122800000Y-127455000D01*
X122800000Y-127455000D02*
X110040000Y-127455000D01*
X122800000Y-124795000D02*
X110040000Y-124795000D01*
X110040000Y-124795000D02*
X110040000Y-127455000D01*
X182600000Y-82695000D02*
X182600000Y-84025000D01*
X181270000Y-82695000D02*
X182600000Y-82695000D01*
X180000000Y-82695000D02*
X180000000Y-85355000D01*
X180000000Y-85355000D02*
X167240000Y-85355000D01*
X180000000Y-82695000D02*
X167240000Y-82695000D01*
X167240000Y-82695000D02*
X167240000Y-85355000D01*
X154000000Y-82695000D02*
X154000000Y-84025000D01*
X152670000Y-82695000D02*
X154000000Y-82695000D01*
X151400000Y-82695000D02*
X151400000Y-85355000D01*
X151400000Y-85355000D02*
X138640000Y-85355000D01*
X151400000Y-82695000D02*
X138640000Y-82695000D01*
X138640000Y-82695000D02*
X138640000Y-85355000D01*
%TO.C,C104*%
X123530000Y-87663748D02*
X123530000Y-89086252D01*
X121710000Y-87663748D02*
X121710000Y-89086252D01*
%TO.C,R506*%
X127297500Y-89429724D02*
X127297500Y-88920276D01*
X128342500Y-89429724D02*
X128342500Y-88920276D01*
%TO.C,C501*%
X108180000Y-89028733D02*
X108180000Y-89321267D01*
X107160000Y-89028733D02*
X107160000Y-89321267D01*
%TO.C,C102*%
X113730000Y-87663748D02*
X113730000Y-89086252D01*
X111910000Y-87663748D02*
X111910000Y-89086252D01*
%TO.C,C101*%
X116180000Y-87663748D02*
X116180000Y-89086252D01*
X114360000Y-87663748D02*
X114360000Y-89086252D01*
%TO.C,J501*%
X110040000Y-82695000D02*
X110040000Y-85355000D01*
X122800000Y-82695000D02*
X110040000Y-82695000D01*
X122800000Y-85355000D02*
X110040000Y-85355000D01*
X122800000Y-82695000D02*
X122800000Y-85355000D01*
X124070000Y-82695000D02*
X125400000Y-82695000D01*
X125400000Y-82695000D02*
X125400000Y-84025000D01*
%TO.C,R504*%
X107505000Y-61647936D02*
X107505000Y-62102064D01*
X106035000Y-61647936D02*
X106035000Y-62102064D01*
%TO.C,R502*%
X111342500Y-88920276D02*
X111342500Y-89429724D01*
X110297500Y-88920276D02*
X110297500Y-89429724D01*
%TO.C,C103*%
X121080000Y-87663748D02*
X121080000Y-89086252D01*
X119260000Y-87663748D02*
X119260000Y-89086252D01*
%TO.C,R503*%
X108747500Y-89429724D02*
X108747500Y-88920276D01*
X109792500Y-89429724D02*
X109792500Y-88920276D01*
%TO.C,R501*%
X125142500Y-88920276D02*
X125142500Y-89429724D01*
X124097500Y-88920276D02*
X124097500Y-89429724D01*
%TO.C,D502*%
X129420000Y-58490000D02*
X126960000Y-58490000D01*
X126960000Y-58490000D02*
X126960000Y-59960000D01*
X126960000Y-59960000D02*
X129420000Y-59960000D01*
%TO.C,D501*%
X105970000Y-59860000D02*
X108430000Y-59860000D01*
X108430000Y-59860000D02*
X108430000Y-58390000D01*
X108430000Y-58390000D02*
X105970000Y-58390000D01*
%TO.C,C502*%
X118630000Y-87663748D02*
X118630000Y-89086252D01*
X116810000Y-87663748D02*
X116810000Y-89086252D01*
%TO.C,R505*%
X125697500Y-89429724D02*
X125697500Y-88920276D01*
X126742500Y-89429724D02*
X126742500Y-88920276D01*
%TO.C,SW501*%
X122410000Y-91125000D02*
X128530000Y-91125000D01*
X128530000Y-91125000D02*
X128530000Y-94825000D01*
X128530000Y-94825000D02*
X122410000Y-94825000D01*
X122410000Y-94825000D02*
X122410000Y-91125000D01*
%TO.C,SW502*%
X112780000Y-94775000D02*
X106660000Y-94775000D01*
X106660000Y-94775000D02*
X106660000Y-91075000D01*
X106660000Y-91075000D02*
X112780000Y-91075000D01*
X112780000Y-91075000D02*
X112780000Y-94775000D01*
%TO.C,U501*%
X109600000Y-56355000D02*
X125840000Y-56355000D01*
X125840000Y-56355000D02*
X125840000Y-63975000D01*
X125840000Y-79975000D02*
X125840000Y-80595000D01*
X125840000Y-80595000D02*
X123720000Y-80595000D01*
X111720000Y-80595000D02*
X109600000Y-80595000D01*
X109600000Y-80595000D02*
X109600000Y-79975000D01*
X109600000Y-63975000D02*
X109600000Y-56355000D01*
X109600000Y-63975000D02*
X108990000Y-63975000D01*
%TO.C,R507*%
X129605000Y-61747936D02*
X129605000Y-62202064D01*
X128135000Y-61747936D02*
X128135000Y-62202064D01*
%TO.C,D502*%
D14*
X185653333Y-100177380D02*
X185320000Y-99701190D01*
X185081904Y-100177380D02*
X185081904Y-99177380D01*
X185462857Y-99177380D01*
X185558095Y-99225000D01*
X185605714Y-99272619D01*
X185653333Y-99367857D01*
X185653333Y-99510714D01*
X185605714Y-99605952D01*
X185558095Y-99653571D01*
X185462857Y-99701190D01*
X185081904Y-99701190D01*
X185986666Y-99177380D02*
X186653333Y-100177380D01*
X186653333Y-99177380D02*
X185986666Y-100177380D01*
X157053333Y-100177380D02*
X156720000Y-99701190D01*
X156481904Y-100177380D02*
X156481904Y-99177380D01*
X156862857Y-99177380D01*
X156958095Y-99225000D01*
X157005714Y-99272619D01*
X157053333Y-99367857D01*
X157053333Y-99510714D01*
X157005714Y-99605952D01*
X156958095Y-99653571D01*
X156862857Y-99701190D01*
X156481904Y-99701190D01*
X157386666Y-99177380D02*
X158053333Y-100177380D01*
X158053333Y-99177380D02*
X157386666Y-100177380D01*
X128453333Y-100177380D02*
X128120000Y-99701190D01*
X127881904Y-100177380D02*
X127881904Y-99177380D01*
X128262857Y-99177380D01*
X128358095Y-99225000D01*
X128405714Y-99272619D01*
X128453333Y-99367857D01*
X128453333Y-99510714D01*
X128405714Y-99605952D01*
X128358095Y-99653571D01*
X128262857Y-99701190D01*
X127881904Y-99701190D01*
X128786666Y-99177380D02*
X129453333Y-100177380D01*
X129453333Y-99177380D02*
X128786666Y-100177380D01*
X185653333Y-58077380D02*
X185320000Y-57601190D01*
X185081904Y-58077380D02*
X185081904Y-57077380D01*
X185462857Y-57077380D01*
X185558095Y-57125000D01*
X185605714Y-57172619D01*
X185653333Y-57267857D01*
X185653333Y-57410714D01*
X185605714Y-57505952D01*
X185558095Y-57553571D01*
X185462857Y-57601190D01*
X185081904Y-57601190D01*
X185986666Y-57077380D02*
X186653333Y-58077380D01*
X186653333Y-57077380D02*
X185986666Y-58077380D01*
X157053333Y-58077380D02*
X156720000Y-57601190D01*
X156481904Y-58077380D02*
X156481904Y-57077380D01*
X156862857Y-57077380D01*
X156958095Y-57125000D01*
X157005714Y-57172619D01*
X157053333Y-57267857D01*
X157053333Y-57410714D01*
X157005714Y-57505952D01*
X156958095Y-57553571D01*
X156862857Y-57601190D01*
X156481904Y-57601190D01*
X157386666Y-57077380D02*
X158053333Y-58077380D01*
X158053333Y-57077380D02*
X157386666Y-58077380D01*
%TO.C,SW502*%
X170872380Y-136927380D02*
X170539047Y-136451190D01*
X170300952Y-136927380D02*
X170300952Y-135927380D01*
X170681904Y-135927380D01*
X170777142Y-135975000D01*
X170824761Y-136022619D01*
X170872380Y-136117857D01*
X170872380Y-136260714D01*
X170824761Y-136355952D01*
X170777142Y-136403571D01*
X170681904Y-136451190D01*
X170300952Y-136451190D01*
X171253333Y-136879761D02*
X171396190Y-136927380D01*
X171634285Y-136927380D01*
X171729523Y-136879761D01*
X171777142Y-136832142D01*
X171824761Y-136736904D01*
X171824761Y-136641666D01*
X171777142Y-136546428D01*
X171729523Y-136498809D01*
X171634285Y-136451190D01*
X171443809Y-136403571D01*
X171348571Y-136355952D01*
X171300952Y-136308333D01*
X171253333Y-136213095D01*
X171253333Y-136117857D01*
X171300952Y-136022619D01*
X171348571Y-135975000D01*
X171443809Y-135927380D01*
X171681904Y-135927380D01*
X171824761Y-135975000D01*
X172110476Y-135927380D02*
X172681904Y-135927380D01*
X172396190Y-136927380D02*
X172396190Y-135927380D01*
X142272380Y-136927380D02*
X141939047Y-136451190D01*
X141700952Y-136927380D02*
X141700952Y-135927380D01*
X142081904Y-135927380D01*
X142177142Y-135975000D01*
X142224761Y-136022619D01*
X142272380Y-136117857D01*
X142272380Y-136260714D01*
X142224761Y-136355952D01*
X142177142Y-136403571D01*
X142081904Y-136451190D01*
X141700952Y-136451190D01*
X142653333Y-136879761D02*
X142796190Y-136927380D01*
X143034285Y-136927380D01*
X143129523Y-136879761D01*
X143177142Y-136832142D01*
X143224761Y-136736904D01*
X143224761Y-136641666D01*
X143177142Y-136546428D01*
X143129523Y-136498809D01*
X143034285Y-136451190D01*
X142843809Y-136403571D01*
X142748571Y-136355952D01*
X142700952Y-136308333D01*
X142653333Y-136213095D01*
X142653333Y-136117857D01*
X142700952Y-136022619D01*
X142748571Y-135975000D01*
X142843809Y-135927380D01*
X143081904Y-135927380D01*
X143224761Y-135975000D01*
X143510476Y-135927380D02*
X144081904Y-135927380D01*
X143796190Y-136927380D02*
X143796190Y-135927380D01*
X113672380Y-136927380D02*
X113339047Y-136451190D01*
X113100952Y-136927380D02*
X113100952Y-135927380D01*
X113481904Y-135927380D01*
X113577142Y-135975000D01*
X113624761Y-136022619D01*
X113672380Y-136117857D01*
X113672380Y-136260714D01*
X113624761Y-136355952D01*
X113577142Y-136403571D01*
X113481904Y-136451190D01*
X113100952Y-136451190D01*
X114053333Y-136879761D02*
X114196190Y-136927380D01*
X114434285Y-136927380D01*
X114529523Y-136879761D01*
X114577142Y-136832142D01*
X114624761Y-136736904D01*
X114624761Y-136641666D01*
X114577142Y-136546428D01*
X114529523Y-136498809D01*
X114434285Y-136451190D01*
X114243809Y-136403571D01*
X114148571Y-136355952D01*
X114100952Y-136308333D01*
X114053333Y-136213095D01*
X114053333Y-136117857D01*
X114100952Y-136022619D01*
X114148571Y-135975000D01*
X114243809Y-135927380D01*
X114481904Y-135927380D01*
X114624761Y-135975000D01*
X114910476Y-135927380D02*
X115481904Y-135927380D01*
X115196190Y-136927380D02*
X115196190Y-135927380D01*
X170872380Y-94827380D02*
X170539047Y-94351190D01*
X170300952Y-94827380D02*
X170300952Y-93827380D01*
X170681904Y-93827380D01*
X170777142Y-93875000D01*
X170824761Y-93922619D01*
X170872380Y-94017857D01*
X170872380Y-94160714D01*
X170824761Y-94255952D01*
X170777142Y-94303571D01*
X170681904Y-94351190D01*
X170300952Y-94351190D01*
X171253333Y-94779761D02*
X171396190Y-94827380D01*
X171634285Y-94827380D01*
X171729523Y-94779761D01*
X171777142Y-94732142D01*
X171824761Y-94636904D01*
X171824761Y-94541666D01*
X171777142Y-94446428D01*
X171729523Y-94398809D01*
X171634285Y-94351190D01*
X171443809Y-94303571D01*
X171348571Y-94255952D01*
X171300952Y-94208333D01*
X171253333Y-94113095D01*
X171253333Y-94017857D01*
X171300952Y-93922619D01*
X171348571Y-93875000D01*
X171443809Y-93827380D01*
X171681904Y-93827380D01*
X171824761Y-93875000D01*
X172110476Y-93827380D02*
X172681904Y-93827380D01*
X172396190Y-94827380D02*
X172396190Y-93827380D01*
X142272380Y-94827380D02*
X141939047Y-94351190D01*
X141700952Y-94827380D02*
X141700952Y-93827380D01*
X142081904Y-93827380D01*
X142177142Y-93875000D01*
X142224761Y-93922619D01*
X142272380Y-94017857D01*
X142272380Y-94160714D01*
X142224761Y-94255952D01*
X142177142Y-94303571D01*
X142081904Y-94351190D01*
X141700952Y-94351190D01*
X142653333Y-94779761D02*
X142796190Y-94827380D01*
X143034285Y-94827380D01*
X143129523Y-94779761D01*
X143177142Y-94732142D01*
X143224761Y-94636904D01*
X143224761Y-94541666D01*
X143177142Y-94446428D01*
X143129523Y-94398809D01*
X143034285Y-94351190D01*
X142843809Y-94303571D01*
X142748571Y-94255952D01*
X142700952Y-94208333D01*
X142653333Y-94113095D01*
X142653333Y-94017857D01*
X142700952Y-93922619D01*
X142748571Y-93875000D01*
X142843809Y-93827380D01*
X143081904Y-93827380D01*
X143224761Y-93875000D01*
X143510476Y-93827380D02*
X144081904Y-93827380D01*
X143796190Y-94827380D02*
X143796190Y-93827380D01*
%TO.C,SW501*%
X176041428Y-136453571D02*
X175708095Y-136453571D01*
X175708095Y-136977380D02*
X175708095Y-135977380D01*
X176184285Y-135977380D01*
X176708095Y-136977380D02*
X176612857Y-136929761D01*
X176565238Y-136834523D01*
X176565238Y-135977380D01*
X177517619Y-136977380D02*
X177517619Y-136453571D01*
X177470000Y-136358333D01*
X177374761Y-136310714D01*
X177184285Y-136310714D01*
X177089047Y-136358333D01*
X177517619Y-136929761D02*
X177422380Y-136977380D01*
X177184285Y-136977380D01*
X177089047Y-136929761D01*
X177041428Y-136834523D01*
X177041428Y-136739285D01*
X177089047Y-136644047D01*
X177184285Y-136596428D01*
X177422380Y-136596428D01*
X177517619Y-136548809D01*
X177946190Y-136929761D02*
X178041428Y-136977380D01*
X178231904Y-136977380D01*
X178327142Y-136929761D01*
X178374761Y-136834523D01*
X178374761Y-136786904D01*
X178327142Y-136691666D01*
X178231904Y-136644047D01*
X178089047Y-136644047D01*
X177993809Y-136596428D01*
X177946190Y-136501190D01*
X177946190Y-136453571D01*
X177993809Y-136358333D01*
X178089047Y-136310714D01*
X178231904Y-136310714D01*
X178327142Y-136358333D01*
X178803333Y-136977380D02*
X178803333Y-135977380D01*
X179231904Y-136977380D02*
X179231904Y-136453571D01*
X179184285Y-136358333D01*
X179089047Y-136310714D01*
X178946190Y-136310714D01*
X178850952Y-136358333D01*
X178803333Y-136405952D01*
X147441428Y-136453571D02*
X147108095Y-136453571D01*
X147108095Y-136977380D02*
X147108095Y-135977380D01*
X147584285Y-135977380D01*
X148108095Y-136977380D02*
X148012857Y-136929761D01*
X147965238Y-136834523D01*
X147965238Y-135977380D01*
X148917619Y-136977380D02*
X148917619Y-136453571D01*
X148870000Y-136358333D01*
X148774761Y-136310714D01*
X148584285Y-136310714D01*
X148489047Y-136358333D01*
X148917619Y-136929761D02*
X148822380Y-136977380D01*
X148584285Y-136977380D01*
X148489047Y-136929761D01*
X148441428Y-136834523D01*
X148441428Y-136739285D01*
X148489047Y-136644047D01*
X148584285Y-136596428D01*
X148822380Y-136596428D01*
X148917619Y-136548809D01*
X149346190Y-136929761D02*
X149441428Y-136977380D01*
X149631904Y-136977380D01*
X149727142Y-136929761D01*
X149774761Y-136834523D01*
X149774761Y-136786904D01*
X149727142Y-136691666D01*
X149631904Y-136644047D01*
X149489047Y-136644047D01*
X149393809Y-136596428D01*
X149346190Y-136501190D01*
X149346190Y-136453571D01*
X149393809Y-136358333D01*
X149489047Y-136310714D01*
X149631904Y-136310714D01*
X149727142Y-136358333D01*
X150203333Y-136977380D02*
X150203333Y-135977380D01*
X150631904Y-136977380D02*
X150631904Y-136453571D01*
X150584285Y-136358333D01*
X150489047Y-136310714D01*
X150346190Y-136310714D01*
X150250952Y-136358333D01*
X150203333Y-136405952D01*
X118841428Y-136453571D02*
X118508095Y-136453571D01*
X118508095Y-136977380D02*
X118508095Y-135977380D01*
X118984285Y-135977380D01*
X119508095Y-136977380D02*
X119412857Y-136929761D01*
X119365238Y-136834523D01*
X119365238Y-135977380D01*
X120317619Y-136977380D02*
X120317619Y-136453571D01*
X120270000Y-136358333D01*
X120174761Y-136310714D01*
X119984285Y-136310714D01*
X119889047Y-136358333D01*
X120317619Y-136929761D02*
X120222380Y-136977380D01*
X119984285Y-136977380D01*
X119889047Y-136929761D01*
X119841428Y-136834523D01*
X119841428Y-136739285D01*
X119889047Y-136644047D01*
X119984285Y-136596428D01*
X120222380Y-136596428D01*
X120317619Y-136548809D01*
X120746190Y-136929761D02*
X120841428Y-136977380D01*
X121031904Y-136977380D01*
X121127142Y-136929761D01*
X121174761Y-136834523D01*
X121174761Y-136786904D01*
X121127142Y-136691666D01*
X121031904Y-136644047D01*
X120889047Y-136644047D01*
X120793809Y-136596428D01*
X120746190Y-136501190D01*
X120746190Y-136453571D01*
X120793809Y-136358333D01*
X120889047Y-136310714D01*
X121031904Y-136310714D01*
X121127142Y-136358333D01*
X121603333Y-136977380D02*
X121603333Y-135977380D01*
X122031904Y-136977380D02*
X122031904Y-136453571D01*
X121984285Y-136358333D01*
X121889047Y-136310714D01*
X121746190Y-136310714D01*
X121650952Y-136358333D01*
X121603333Y-136405952D01*
X176041428Y-94353571D02*
X175708095Y-94353571D01*
X175708095Y-94877380D02*
X175708095Y-93877380D01*
X176184285Y-93877380D01*
X176708095Y-94877380D02*
X176612857Y-94829761D01*
X176565238Y-94734523D01*
X176565238Y-93877380D01*
X177517619Y-94877380D02*
X177517619Y-94353571D01*
X177470000Y-94258333D01*
X177374761Y-94210714D01*
X177184285Y-94210714D01*
X177089047Y-94258333D01*
X177517619Y-94829761D02*
X177422380Y-94877380D01*
X177184285Y-94877380D01*
X177089047Y-94829761D01*
X177041428Y-94734523D01*
X177041428Y-94639285D01*
X177089047Y-94544047D01*
X177184285Y-94496428D01*
X177422380Y-94496428D01*
X177517619Y-94448809D01*
X177946190Y-94829761D02*
X178041428Y-94877380D01*
X178231904Y-94877380D01*
X178327142Y-94829761D01*
X178374761Y-94734523D01*
X178374761Y-94686904D01*
X178327142Y-94591666D01*
X178231904Y-94544047D01*
X178089047Y-94544047D01*
X177993809Y-94496428D01*
X177946190Y-94401190D01*
X177946190Y-94353571D01*
X177993809Y-94258333D01*
X178089047Y-94210714D01*
X178231904Y-94210714D01*
X178327142Y-94258333D01*
X178803333Y-94877380D02*
X178803333Y-93877380D01*
X179231904Y-94877380D02*
X179231904Y-94353571D01*
X179184285Y-94258333D01*
X179089047Y-94210714D01*
X178946190Y-94210714D01*
X178850952Y-94258333D01*
X178803333Y-94305952D01*
X147441428Y-94353571D02*
X147108095Y-94353571D01*
X147108095Y-94877380D02*
X147108095Y-93877380D01*
X147584285Y-93877380D01*
X148108095Y-94877380D02*
X148012857Y-94829761D01*
X147965238Y-94734523D01*
X147965238Y-93877380D01*
X148917619Y-94877380D02*
X148917619Y-94353571D01*
X148870000Y-94258333D01*
X148774761Y-94210714D01*
X148584285Y-94210714D01*
X148489047Y-94258333D01*
X148917619Y-94829761D02*
X148822380Y-94877380D01*
X148584285Y-94877380D01*
X148489047Y-94829761D01*
X148441428Y-94734523D01*
X148441428Y-94639285D01*
X148489047Y-94544047D01*
X148584285Y-94496428D01*
X148822380Y-94496428D01*
X148917619Y-94448809D01*
X149346190Y-94829761D02*
X149441428Y-94877380D01*
X149631904Y-94877380D01*
X149727142Y-94829761D01*
X149774761Y-94734523D01*
X149774761Y-94686904D01*
X149727142Y-94591666D01*
X149631904Y-94544047D01*
X149489047Y-94544047D01*
X149393809Y-94496428D01*
X149346190Y-94401190D01*
X149346190Y-94353571D01*
X149393809Y-94258333D01*
X149489047Y-94210714D01*
X149631904Y-94210714D01*
X149727142Y-94258333D01*
X150203333Y-94877380D02*
X150203333Y-93877380D01*
X150631904Y-94877380D02*
X150631904Y-94353571D01*
X150584285Y-94258333D01*
X150489047Y-94210714D01*
X150346190Y-94210714D01*
X150250952Y-94258333D01*
X150203333Y-94305952D01*
%TO.C,D501*%
X163208095Y-99227380D02*
X163779523Y-99227380D01*
X163493809Y-100227380D02*
X163493809Y-99227380D01*
X164017619Y-99227380D02*
X164684285Y-100227380D01*
X164684285Y-99227380D02*
X164017619Y-100227380D01*
X134608095Y-99227380D02*
X135179523Y-99227380D01*
X134893809Y-100227380D02*
X134893809Y-99227380D01*
X135417619Y-99227380D02*
X136084285Y-100227380D01*
X136084285Y-99227380D02*
X135417619Y-100227380D01*
X106008095Y-99227380D02*
X106579523Y-99227380D01*
X106293809Y-100227380D02*
X106293809Y-99227380D01*
X106817619Y-99227380D02*
X107484285Y-100227380D01*
X107484285Y-99227380D02*
X106817619Y-100227380D01*
X163208095Y-57127380D02*
X163779523Y-57127380D01*
X163493809Y-58127380D02*
X163493809Y-57127380D01*
X164017619Y-57127380D02*
X164684285Y-58127380D01*
X164684285Y-57127380D02*
X164017619Y-58127380D01*
X134608095Y-57127380D02*
X135179523Y-57127380D01*
X134893809Y-58127380D02*
X134893809Y-57127380D01*
X135417619Y-57127380D02*
X136084285Y-58127380D01*
X136084285Y-57127380D02*
X135417619Y-58127380D01*
%TO.C,J501*%
D10*
X166591428Y-128210714D02*
X166291428Y-128210714D01*
X166291428Y-128682142D02*
X166291428Y-127782142D01*
X166720000Y-127782142D01*
X166934285Y-127782142D02*
X167448571Y-127782142D01*
X167191428Y-128682142D02*
X167191428Y-127782142D01*
X167748571Y-128682142D02*
X167748571Y-127782142D01*
X167962857Y-127782142D01*
X168091428Y-127825000D01*
X168177142Y-127910714D01*
X168220000Y-127996428D01*
X168262857Y-128167857D01*
X168262857Y-128296428D01*
X168220000Y-128467857D01*
X168177142Y-128553571D01*
X168091428Y-128639285D01*
X167962857Y-128682142D01*
X167748571Y-128682142D01*
X168648571Y-128682142D02*
X168648571Y-127782142D01*
X137991428Y-128210714D02*
X137691428Y-128210714D01*
X137691428Y-128682142D02*
X137691428Y-127782142D01*
X138120000Y-127782142D01*
X138334285Y-127782142D02*
X138848571Y-127782142D01*
X138591428Y-128682142D02*
X138591428Y-127782142D01*
X139148571Y-128682142D02*
X139148571Y-127782142D01*
X139362857Y-127782142D01*
X139491428Y-127825000D01*
X139577142Y-127910714D01*
X139620000Y-127996428D01*
X139662857Y-128167857D01*
X139662857Y-128296428D01*
X139620000Y-128467857D01*
X139577142Y-128553571D01*
X139491428Y-128639285D01*
X139362857Y-128682142D01*
X139148571Y-128682142D01*
X140048571Y-128682142D02*
X140048571Y-127782142D01*
X109391428Y-128210714D02*
X109091428Y-128210714D01*
X109091428Y-128682142D02*
X109091428Y-127782142D01*
X109520000Y-127782142D01*
X109734285Y-127782142D02*
X110248571Y-127782142D01*
X109991428Y-128682142D02*
X109991428Y-127782142D01*
X110548571Y-128682142D02*
X110548571Y-127782142D01*
X110762857Y-127782142D01*
X110891428Y-127825000D01*
X110977142Y-127910714D01*
X111020000Y-127996428D01*
X111062857Y-128167857D01*
X111062857Y-128296428D01*
X111020000Y-128467857D01*
X110977142Y-128553571D01*
X110891428Y-128639285D01*
X110762857Y-128682142D01*
X110548571Y-128682142D01*
X111448571Y-128682142D02*
X111448571Y-127782142D01*
X166591428Y-86110714D02*
X166291428Y-86110714D01*
X166291428Y-86582142D02*
X166291428Y-85682142D01*
X166720000Y-85682142D01*
X166934285Y-85682142D02*
X167448571Y-85682142D01*
X167191428Y-86582142D02*
X167191428Y-85682142D01*
X167748571Y-86582142D02*
X167748571Y-85682142D01*
X167962857Y-85682142D01*
X168091428Y-85725000D01*
X168177142Y-85810714D01*
X168220000Y-85896428D01*
X168262857Y-86067857D01*
X168262857Y-86196428D01*
X168220000Y-86367857D01*
X168177142Y-86453571D01*
X168091428Y-86539285D01*
X167962857Y-86582142D01*
X167748571Y-86582142D01*
X168648571Y-86582142D02*
X168648571Y-85682142D01*
X137991428Y-86110714D02*
X137691428Y-86110714D01*
X137691428Y-86582142D02*
X137691428Y-85682142D01*
X138120000Y-85682142D01*
X138334285Y-85682142D02*
X138848571Y-85682142D01*
X138591428Y-86582142D02*
X138591428Y-85682142D01*
X139148571Y-86582142D02*
X139148571Y-85682142D01*
X139362857Y-85682142D01*
X139491428Y-85725000D01*
X139577142Y-85810714D01*
X139620000Y-85896428D01*
X139662857Y-86067857D01*
X139662857Y-86196428D01*
X139620000Y-86367857D01*
X139577142Y-86453571D01*
X139491428Y-86539285D01*
X139362857Y-86582142D01*
X139148571Y-86582142D01*
X140048571Y-86582142D02*
X140048571Y-85682142D01*
X109391428Y-86110714D02*
X109091428Y-86110714D01*
X109091428Y-86582142D02*
X109091428Y-85682142D01*
X109520000Y-85682142D01*
X109734285Y-85682142D02*
X110248571Y-85682142D01*
X109991428Y-86582142D02*
X109991428Y-85682142D01*
X110548571Y-86582142D02*
X110548571Y-85682142D01*
X110762857Y-85682142D01*
X110891428Y-85725000D01*
X110977142Y-85810714D01*
X111020000Y-85896428D01*
X111062857Y-86067857D01*
X111062857Y-86196428D01*
X111020000Y-86367857D01*
X110977142Y-86453571D01*
X110891428Y-86539285D01*
X110762857Y-86582142D01*
X110548571Y-86582142D01*
X111448571Y-86582142D02*
X111448571Y-85682142D01*
%TO.C,D502*%
D14*
X128453333Y-58077380D02*
X128120000Y-57601190D01*
X127881904Y-58077380D02*
X127881904Y-57077380D01*
X128262857Y-57077380D01*
X128358095Y-57125000D01*
X128405714Y-57172619D01*
X128453333Y-57267857D01*
X128453333Y-57410714D01*
X128405714Y-57505952D01*
X128358095Y-57553571D01*
X128262857Y-57601190D01*
X127881904Y-57601190D01*
X128786666Y-57077380D02*
X129453333Y-58077380D01*
X129453333Y-57077380D02*
X128786666Y-58077380D01*
%TO.C,D501*%
X106008095Y-57127380D02*
X106579523Y-57127380D01*
X106293809Y-58127380D02*
X106293809Y-57127380D01*
X106817619Y-57127380D02*
X107484285Y-58127380D01*
X107484285Y-57127380D02*
X106817619Y-58127380D01*
%TO.C,SW501*%
X118841428Y-94353571D02*
X118508095Y-94353571D01*
X118508095Y-94877380D02*
X118508095Y-93877380D01*
X118984285Y-93877380D01*
X119508095Y-94877380D02*
X119412857Y-94829761D01*
X119365238Y-94734523D01*
X119365238Y-93877380D01*
X120317619Y-94877380D02*
X120317619Y-94353571D01*
X120270000Y-94258333D01*
X120174761Y-94210714D01*
X119984285Y-94210714D01*
X119889047Y-94258333D01*
X120317619Y-94829761D02*
X120222380Y-94877380D01*
X119984285Y-94877380D01*
X119889047Y-94829761D01*
X119841428Y-94734523D01*
X119841428Y-94639285D01*
X119889047Y-94544047D01*
X119984285Y-94496428D01*
X120222380Y-94496428D01*
X120317619Y-94448809D01*
X120746190Y-94829761D02*
X120841428Y-94877380D01*
X121031904Y-94877380D01*
X121127142Y-94829761D01*
X121174761Y-94734523D01*
X121174761Y-94686904D01*
X121127142Y-94591666D01*
X121031904Y-94544047D01*
X120889047Y-94544047D01*
X120793809Y-94496428D01*
X120746190Y-94401190D01*
X120746190Y-94353571D01*
X120793809Y-94258333D01*
X120889047Y-94210714D01*
X121031904Y-94210714D01*
X121127142Y-94258333D01*
X121603333Y-94877380D02*
X121603333Y-93877380D01*
X122031904Y-94877380D02*
X122031904Y-94353571D01*
X121984285Y-94258333D01*
X121889047Y-94210714D01*
X121746190Y-94210714D01*
X121650952Y-94258333D01*
X121603333Y-94305952D01*
%TO.C,SW502*%
X113672380Y-94827380D02*
X113339047Y-94351190D01*
X113100952Y-94827380D02*
X113100952Y-93827380D01*
X113481904Y-93827380D01*
X113577142Y-93875000D01*
X113624761Y-93922619D01*
X113672380Y-94017857D01*
X113672380Y-94160714D01*
X113624761Y-94255952D01*
X113577142Y-94303571D01*
X113481904Y-94351190D01*
X113100952Y-94351190D01*
X114053333Y-94779761D02*
X114196190Y-94827380D01*
X114434285Y-94827380D01*
X114529523Y-94779761D01*
X114577142Y-94732142D01*
X114624761Y-94636904D01*
X114624761Y-94541666D01*
X114577142Y-94446428D01*
X114529523Y-94398809D01*
X114434285Y-94351190D01*
X114243809Y-94303571D01*
X114148571Y-94255952D01*
X114100952Y-94208333D01*
X114053333Y-94113095D01*
X114053333Y-94017857D01*
X114100952Y-93922619D01*
X114148571Y-93875000D01*
X114243809Y-93827380D01*
X114481904Y-93827380D01*
X114624761Y-93875000D01*
X114910476Y-93827380D02*
X115481904Y-93827380D01*
X115196190Y-94827380D02*
X115196190Y-93827380D01*
%TD*%
M02*
