M48
; DRILL file {KiCad 5.1.12-84ad8e8a86~92~ubuntu20.04.1} date Παρ 07 Ιαν 2022 10:29:13 μμ EET
; FORMAT={-:-/ absolute / inch / decimal}
; #@! TF.CreationDate,2022-01-07T22:29:13+02:00
; #@! TF.GenerationSoftware,Kicad,Pcbnew,5.1.12-84ad8e8a86~92~ubuntu20.04.1
; #@! TF.FileFunction,NonPlated,1,2,NPTH
FMAT,2
INCH
T1C0.0197
%
G90
G05
T1
X4.0165Y-2.8886
X4.0165Y-2.9161
X4.0165Y-2.9437
X4.0165Y-4.5461
X4.0165Y-4.5736
X4.0165Y-4.6012
X4.115Y-2.8846
X4.115Y-2.9122
X4.115Y-2.9398
X4.115Y-4.5421
X4.115Y-4.5697
X4.115Y-4.5972
X4.5717Y-2.0894
X4.5717Y-3.7469
X4.5717Y-5.4043
X4.5756Y-2.1878
X4.5756Y-3.8453
X4.5756Y-5.5028
X4.5992Y-2.0894
X4.5992Y-3.7469
X4.5992Y-5.4043
X4.6031Y-2.1878
X4.6031Y-3.8453
X4.6031Y-5.5028
X4.6268Y-2.0894
X4.6268Y-3.7469
X4.6268Y-5.4043
X4.6307Y-2.1878
X4.6307Y-3.8453
X4.6307Y-5.5028
X5.1425Y-2.8886
X5.1425Y-2.9161
X5.1425Y-2.9437
X5.1425Y-4.5461
X5.1425Y-4.5736
X5.1425Y-4.6012
X5.2409Y-2.8846
X5.2409Y-2.9122
X5.2409Y-2.9398
X5.2409Y-4.5421
X5.2409Y-4.5697
X5.2409Y-4.5972
X5.6858Y-2.0894
X5.6858Y-3.7469
X5.6858Y-5.4043
X5.6898Y-2.1878
X5.6898Y-3.8453
X5.6898Y-5.5028
X5.7134Y-2.0894
X5.7134Y-3.7469
X5.7134Y-5.4043
X5.7173Y-2.1878
X5.7173Y-3.8453
X5.7173Y-5.5028
X5.7409Y-2.0894
X5.7409Y-3.7469
X5.7409Y-5.4043
X5.7449Y-2.1878
X5.7449Y-3.8453
X5.7449Y-5.5028
X6.2685Y-2.8886
X6.2685Y-2.9161
X6.2685Y-2.9437
X6.2685Y-4.5461
X6.2685Y-4.5736
X6.2685Y-4.6012
X6.3669Y-2.8846
X6.3669Y-2.9122
X6.3669Y-2.9398
X6.3669Y-4.5421
X6.3669Y-4.5697
X6.3669Y-4.5972
X6.8Y-2.0894
X6.8Y-3.7469
X6.8Y-5.4043
X6.8039Y-2.1878
X6.8039Y-3.8453
X6.8039Y-5.5028
X6.8276Y-2.0894
X6.8276Y-3.7469
X6.8276Y-5.4043
X6.8315Y-2.1878
X6.8315Y-3.8453
X6.8315Y-5.5028
X6.8551Y-2.0894
X6.8551Y-3.7469
X6.8551Y-5.4043
X6.8591Y-2.1878
X6.8591Y-3.8453
X6.8591Y-5.5028
X7.3945Y-2.8886
X7.3945Y-2.9161
X7.3945Y-2.9437
X7.3945Y-4.5461
X7.3945Y-4.5736
X7.3945Y-4.6012
X7.4929Y-2.8846
X7.4929Y-2.9122
X7.4929Y-2.9398
X7.4929Y-4.5421
X7.4929Y-4.5697
X7.4929Y-4.5972
T0
M30
