%TF.GenerationSoftware,KiCad,Pcbnew,5.1.9-73d0e3b20d~88~ubuntu18.04.1*%
%TF.CreationDate,2021-11-28T02:45:39+02:00*%
%TF.ProjectId,ESP8266-Breakout-panel,45535038-3236-4362-9d42-7265616b6f75,rev?*%
%TF.SameCoordinates,Original*%
%TF.FileFunction,Legend,Top*%
%TF.FilePolarity,Positive*%
%FSLAX46Y46*%
G04 Gerber Fmt 4.6, Leading zero omitted, Abs format (unit mm)*
G04 Created by KiCad (PCBNEW 5.1.9-73d0e3b20d~88~ubuntu18.04.1) date 2021-11-28 02:45:39*
%MOMM*%
%LPD*%
G01*
G04 APERTURE LIST*
%ADD10C,0.300000*%
%ADD11C,0.130000*%
%ADD12C,0.100000*%
%ADD13C,0.120000*%
%ADD14C,0.150000*%
G04 APERTURE END LIST*
D10*
X180671428Y-140378571D02*
X180671428Y-141450000D01*
X180600000Y-141664285D01*
X180457142Y-141807142D01*
X180242857Y-141878571D01*
X180100000Y-141878571D01*
X182100000Y-141878571D02*
X181385714Y-141878571D01*
X181385714Y-140378571D01*
X183457142Y-141735714D02*
X183385714Y-141807142D01*
X183171428Y-141878571D01*
X183028571Y-141878571D01*
X182814285Y-141807142D01*
X182671428Y-141664285D01*
X182600000Y-141521428D01*
X182528571Y-141235714D01*
X182528571Y-141021428D01*
X182600000Y-140735714D01*
X182671428Y-140592857D01*
X182814285Y-140450000D01*
X183028571Y-140378571D01*
X183171428Y-140378571D01*
X183385714Y-140450000D01*
X183457142Y-140521428D01*
X184528571Y-140378571D02*
X184528571Y-141450000D01*
X184457142Y-141664285D01*
X184314285Y-141807142D01*
X184100000Y-141878571D01*
X183957142Y-141878571D01*
X185957142Y-141878571D02*
X185242857Y-141878571D01*
X185242857Y-140378571D01*
X187314285Y-141735714D02*
X187242857Y-141807142D01*
X187028571Y-141878571D01*
X186885714Y-141878571D01*
X186671428Y-141807142D01*
X186528571Y-141664285D01*
X186457142Y-141521428D01*
X186385714Y-141235714D01*
X186385714Y-141021428D01*
X186457142Y-140735714D01*
X186528571Y-140592857D01*
X186671428Y-140450000D01*
X186885714Y-140378571D01*
X187028571Y-140378571D01*
X187242857Y-140450000D01*
X187314285Y-140521428D01*
X188385714Y-140378571D02*
X188385714Y-141450000D01*
X188314285Y-141664285D01*
X188171428Y-141807142D01*
X187957142Y-141878571D01*
X187814285Y-141878571D01*
X189814285Y-141878571D02*
X189100000Y-141878571D01*
X189100000Y-140378571D01*
X191171428Y-141735714D02*
X191100000Y-141807142D01*
X190885714Y-141878571D01*
X190742857Y-141878571D01*
X190528571Y-141807142D01*
X190385714Y-141664285D01*
X190314285Y-141521428D01*
X190242857Y-141235714D01*
X190242857Y-141021428D01*
X190314285Y-140735714D01*
X190385714Y-140592857D01*
X190528571Y-140450000D01*
X190742857Y-140378571D01*
X190885714Y-140378571D01*
X191100000Y-140450000D01*
X191171428Y-140521428D01*
X192242857Y-140378571D02*
X192242857Y-141450000D01*
X192171428Y-141664285D01*
X192028571Y-141807142D01*
X191814285Y-141878571D01*
X191671428Y-141878571D01*
X193671428Y-141878571D02*
X192957142Y-141878571D01*
X192957142Y-140378571D01*
X195028571Y-141735714D02*
X194957142Y-141807142D01*
X194742857Y-141878571D01*
X194600000Y-141878571D01*
X194385714Y-141807142D01*
X194242857Y-141664285D01*
X194171428Y-141521428D01*
X194100000Y-141235714D01*
X194100000Y-141021428D01*
X194171428Y-140735714D01*
X194242857Y-140592857D01*
X194385714Y-140450000D01*
X194600000Y-140378571D01*
X194742857Y-140378571D01*
X194957142Y-140450000D01*
X195028571Y-140521428D01*
D11*
X177628571Y-122507142D02*
X178185714Y-122507142D01*
X177885714Y-122850000D01*
X178014285Y-122850000D01*
X178100000Y-122892857D01*
X178142857Y-122935714D01*
X178185714Y-123021428D01*
X178185714Y-123235714D01*
X178142857Y-123321428D01*
X178100000Y-123364285D01*
X178014285Y-123407142D01*
X177757142Y-123407142D01*
X177671428Y-123364285D01*
X177628571Y-123321428D01*
X178485714Y-122807142D02*
X178700000Y-123407142D01*
X178914285Y-122807142D01*
X179171428Y-122507142D02*
X179728571Y-122507142D01*
X179428571Y-122850000D01*
X179557142Y-122850000D01*
X179642857Y-122892857D01*
X179685714Y-122935714D01*
X179728571Y-123021428D01*
X179728571Y-123235714D01*
X179685714Y-123321428D01*
X179642857Y-123364285D01*
X179557142Y-123407142D01*
X179300000Y-123407142D01*
X179214285Y-123364285D01*
X179171428Y-123321428D01*
X149028571Y-122507142D02*
X149585714Y-122507142D01*
X149285714Y-122850000D01*
X149414285Y-122850000D01*
X149500000Y-122892857D01*
X149542857Y-122935714D01*
X149585714Y-123021428D01*
X149585714Y-123235714D01*
X149542857Y-123321428D01*
X149500000Y-123364285D01*
X149414285Y-123407142D01*
X149157142Y-123407142D01*
X149071428Y-123364285D01*
X149028571Y-123321428D01*
X149885714Y-122807142D02*
X150100000Y-123407142D01*
X150314285Y-122807142D01*
X150571428Y-122507142D02*
X151128571Y-122507142D01*
X150828571Y-122850000D01*
X150957142Y-122850000D01*
X151042857Y-122892857D01*
X151085714Y-122935714D01*
X151128571Y-123021428D01*
X151128571Y-123235714D01*
X151085714Y-123321428D01*
X151042857Y-123364285D01*
X150957142Y-123407142D01*
X150700000Y-123407142D01*
X150614285Y-123364285D01*
X150571428Y-123321428D01*
X120428571Y-122507142D02*
X120985714Y-122507142D01*
X120685714Y-122850000D01*
X120814285Y-122850000D01*
X120900000Y-122892857D01*
X120942857Y-122935714D01*
X120985714Y-123021428D01*
X120985714Y-123235714D01*
X120942857Y-123321428D01*
X120900000Y-123364285D01*
X120814285Y-123407142D01*
X120557142Y-123407142D01*
X120471428Y-123364285D01*
X120428571Y-123321428D01*
X121285714Y-122807142D02*
X121500000Y-123407142D01*
X121714285Y-122807142D01*
X121971428Y-122507142D02*
X122528571Y-122507142D01*
X122228571Y-122850000D01*
X122357142Y-122850000D01*
X122442857Y-122892857D01*
X122485714Y-122935714D01*
X122528571Y-123021428D01*
X122528571Y-123235714D01*
X122485714Y-123321428D01*
X122442857Y-123364285D01*
X122357142Y-123407142D01*
X122100000Y-123407142D01*
X122014285Y-123364285D01*
X121971428Y-123321428D01*
X177628571Y-80407142D02*
X178185714Y-80407142D01*
X177885714Y-80750000D01*
X178014285Y-80750000D01*
X178100000Y-80792857D01*
X178142857Y-80835714D01*
X178185714Y-80921428D01*
X178185714Y-81135714D01*
X178142857Y-81221428D01*
X178100000Y-81264285D01*
X178014285Y-81307142D01*
X177757142Y-81307142D01*
X177671428Y-81264285D01*
X177628571Y-81221428D01*
X178485714Y-80707142D02*
X178700000Y-81307142D01*
X178914285Y-80707142D01*
X179171428Y-80407142D02*
X179728571Y-80407142D01*
X179428571Y-80750000D01*
X179557142Y-80750000D01*
X179642857Y-80792857D01*
X179685714Y-80835714D01*
X179728571Y-80921428D01*
X179728571Y-81135714D01*
X179685714Y-81221428D01*
X179642857Y-81264285D01*
X179557142Y-81307142D01*
X179300000Y-81307142D01*
X179214285Y-81264285D01*
X179171428Y-81221428D01*
X149028571Y-80407142D02*
X149585714Y-80407142D01*
X149285714Y-80750000D01*
X149414285Y-80750000D01*
X149500000Y-80792857D01*
X149542857Y-80835714D01*
X149585714Y-80921428D01*
X149585714Y-81135714D01*
X149542857Y-81221428D01*
X149500000Y-81264285D01*
X149414285Y-81307142D01*
X149157142Y-81307142D01*
X149071428Y-81264285D01*
X149028571Y-81221428D01*
X149885714Y-80707142D02*
X150100000Y-81307142D01*
X150314285Y-80707142D01*
X150571428Y-80407142D02*
X151128571Y-80407142D01*
X150828571Y-80750000D01*
X150957142Y-80750000D01*
X151042857Y-80792857D01*
X151085714Y-80835714D01*
X151128571Y-80921428D01*
X151128571Y-81135714D01*
X151085714Y-81221428D01*
X151042857Y-81264285D01*
X150957142Y-81307142D01*
X150700000Y-81307142D01*
X150614285Y-81264285D01*
X150571428Y-81221428D01*
X189278571Y-127207142D02*
X188764285Y-127207142D01*
X189021428Y-127207142D02*
X189021428Y-126307142D01*
X188935714Y-126435714D01*
X188850000Y-126521428D01*
X188764285Y-126564285D01*
X189835714Y-126307142D02*
X189921428Y-126307142D01*
X190007142Y-126350000D01*
X190050000Y-126392857D01*
X190092857Y-126478571D01*
X190135714Y-126650000D01*
X190135714Y-126864285D01*
X190092857Y-127035714D01*
X190050000Y-127121428D01*
X190007142Y-127164285D01*
X189921428Y-127207142D01*
X189835714Y-127207142D01*
X189750000Y-127164285D01*
X189707142Y-127121428D01*
X189664285Y-127035714D01*
X189621428Y-126864285D01*
X189621428Y-126650000D01*
X189664285Y-126478571D01*
X189707142Y-126392857D01*
X189750000Y-126350000D01*
X189835714Y-126307142D01*
X160678571Y-127207142D02*
X160164285Y-127207142D01*
X160421428Y-127207142D02*
X160421428Y-126307142D01*
X160335714Y-126435714D01*
X160250000Y-126521428D01*
X160164285Y-126564285D01*
X161235714Y-126307142D02*
X161321428Y-126307142D01*
X161407142Y-126350000D01*
X161450000Y-126392857D01*
X161492857Y-126478571D01*
X161535714Y-126650000D01*
X161535714Y-126864285D01*
X161492857Y-127035714D01*
X161450000Y-127121428D01*
X161407142Y-127164285D01*
X161321428Y-127207142D01*
X161235714Y-127207142D01*
X161150000Y-127164285D01*
X161107142Y-127121428D01*
X161064285Y-127035714D01*
X161021428Y-126864285D01*
X161021428Y-126650000D01*
X161064285Y-126478571D01*
X161107142Y-126392857D01*
X161150000Y-126350000D01*
X161235714Y-126307142D01*
X132078571Y-127207142D02*
X131564285Y-127207142D01*
X131821428Y-127207142D02*
X131821428Y-126307142D01*
X131735714Y-126435714D01*
X131650000Y-126521428D01*
X131564285Y-126564285D01*
X132635714Y-126307142D02*
X132721428Y-126307142D01*
X132807142Y-126350000D01*
X132850000Y-126392857D01*
X132892857Y-126478571D01*
X132935714Y-126650000D01*
X132935714Y-126864285D01*
X132892857Y-127035714D01*
X132850000Y-127121428D01*
X132807142Y-127164285D01*
X132721428Y-127207142D01*
X132635714Y-127207142D01*
X132550000Y-127164285D01*
X132507142Y-127121428D01*
X132464285Y-127035714D01*
X132421428Y-126864285D01*
X132421428Y-126650000D01*
X132464285Y-126478571D01*
X132507142Y-126392857D01*
X132550000Y-126350000D01*
X132635714Y-126307142D01*
X189278571Y-85107142D02*
X188764285Y-85107142D01*
X189021428Y-85107142D02*
X189021428Y-84207142D01*
X188935714Y-84335714D01*
X188850000Y-84421428D01*
X188764285Y-84464285D01*
X189835714Y-84207142D02*
X189921428Y-84207142D01*
X190007142Y-84250000D01*
X190050000Y-84292857D01*
X190092857Y-84378571D01*
X190135714Y-84550000D01*
X190135714Y-84764285D01*
X190092857Y-84935714D01*
X190050000Y-85021428D01*
X190007142Y-85064285D01*
X189921428Y-85107142D01*
X189835714Y-85107142D01*
X189750000Y-85064285D01*
X189707142Y-85021428D01*
X189664285Y-84935714D01*
X189621428Y-84764285D01*
X189621428Y-84550000D01*
X189664285Y-84378571D01*
X189707142Y-84292857D01*
X189750000Y-84250000D01*
X189835714Y-84207142D01*
X160678571Y-85107142D02*
X160164285Y-85107142D01*
X160421428Y-85107142D02*
X160421428Y-84207142D01*
X160335714Y-84335714D01*
X160250000Y-84421428D01*
X160164285Y-84464285D01*
X161235714Y-84207142D02*
X161321428Y-84207142D01*
X161407142Y-84250000D01*
X161450000Y-84292857D01*
X161492857Y-84378571D01*
X161535714Y-84550000D01*
X161535714Y-84764285D01*
X161492857Y-84935714D01*
X161450000Y-85021428D01*
X161407142Y-85064285D01*
X161321428Y-85107142D01*
X161235714Y-85107142D01*
X161150000Y-85064285D01*
X161107142Y-85021428D01*
X161064285Y-84935714D01*
X161021428Y-84764285D01*
X161021428Y-84550000D01*
X161064285Y-84378571D01*
X161107142Y-84292857D01*
X161150000Y-84250000D01*
X161235714Y-84207142D01*
X189707142Y-116107142D02*
X189792857Y-116107142D01*
X189878571Y-116150000D01*
X189921428Y-116192857D01*
X189964285Y-116278571D01*
X190007142Y-116450000D01*
X190007142Y-116664285D01*
X189964285Y-116835714D01*
X189921428Y-116921428D01*
X189878571Y-116964285D01*
X189792857Y-117007142D01*
X189707142Y-117007142D01*
X189621428Y-116964285D01*
X189578571Y-116921428D01*
X189535714Y-116835714D01*
X189492857Y-116664285D01*
X189492857Y-116450000D01*
X189535714Y-116278571D01*
X189578571Y-116192857D01*
X189621428Y-116150000D01*
X189707142Y-116107142D01*
X161107142Y-116107142D02*
X161192857Y-116107142D01*
X161278571Y-116150000D01*
X161321428Y-116192857D01*
X161364285Y-116278571D01*
X161407142Y-116450000D01*
X161407142Y-116664285D01*
X161364285Y-116835714D01*
X161321428Y-116921428D01*
X161278571Y-116964285D01*
X161192857Y-117007142D01*
X161107142Y-117007142D01*
X161021428Y-116964285D01*
X160978571Y-116921428D01*
X160935714Y-116835714D01*
X160892857Y-116664285D01*
X160892857Y-116450000D01*
X160935714Y-116278571D01*
X160978571Y-116192857D01*
X161021428Y-116150000D01*
X161107142Y-116107142D01*
X132507142Y-116107142D02*
X132592857Y-116107142D01*
X132678571Y-116150000D01*
X132721428Y-116192857D01*
X132764285Y-116278571D01*
X132807142Y-116450000D01*
X132807142Y-116664285D01*
X132764285Y-116835714D01*
X132721428Y-116921428D01*
X132678571Y-116964285D01*
X132592857Y-117007142D01*
X132507142Y-117007142D01*
X132421428Y-116964285D01*
X132378571Y-116921428D01*
X132335714Y-116835714D01*
X132292857Y-116664285D01*
X132292857Y-116450000D01*
X132335714Y-116278571D01*
X132378571Y-116192857D01*
X132421428Y-116150000D01*
X132507142Y-116107142D01*
X189707142Y-74007142D02*
X189792857Y-74007142D01*
X189878571Y-74050000D01*
X189921428Y-74092857D01*
X189964285Y-74178571D01*
X190007142Y-74350000D01*
X190007142Y-74564285D01*
X189964285Y-74735714D01*
X189921428Y-74821428D01*
X189878571Y-74864285D01*
X189792857Y-74907142D01*
X189707142Y-74907142D01*
X189621428Y-74864285D01*
X189578571Y-74821428D01*
X189535714Y-74735714D01*
X189492857Y-74564285D01*
X189492857Y-74350000D01*
X189535714Y-74178571D01*
X189578571Y-74092857D01*
X189621428Y-74050000D01*
X189707142Y-74007142D01*
X161107142Y-74007142D02*
X161192857Y-74007142D01*
X161278571Y-74050000D01*
X161321428Y-74092857D01*
X161364285Y-74178571D01*
X161407142Y-74350000D01*
X161407142Y-74564285D01*
X161364285Y-74735714D01*
X161321428Y-74821428D01*
X161278571Y-74864285D01*
X161192857Y-74907142D01*
X161107142Y-74907142D01*
X161021428Y-74864285D01*
X160978571Y-74821428D01*
X160935714Y-74735714D01*
X160892857Y-74564285D01*
X160892857Y-74350000D01*
X160935714Y-74178571D01*
X160978571Y-74092857D01*
X161021428Y-74050000D01*
X161107142Y-74007142D01*
X189821428Y-113857142D02*
X189821428Y-114457142D01*
X189607142Y-113514285D02*
X189392857Y-114157142D01*
X189950000Y-114157142D01*
X161221428Y-113857142D02*
X161221428Y-114457142D01*
X161007142Y-113514285D02*
X160792857Y-114157142D01*
X161350000Y-114157142D01*
X132621428Y-113857142D02*
X132621428Y-114457142D01*
X132407142Y-113514285D02*
X132192857Y-114157142D01*
X132750000Y-114157142D01*
X189821428Y-71757142D02*
X189821428Y-72357142D01*
X189607142Y-71414285D02*
X189392857Y-72057142D01*
X189950000Y-72057142D01*
X161221428Y-71757142D02*
X161221428Y-72357142D01*
X161007142Y-71414285D02*
X160792857Y-72057142D01*
X161350000Y-72057142D01*
X189914285Y-111057142D02*
X189485714Y-111057142D01*
X189442857Y-111485714D01*
X189485714Y-111442857D01*
X189571428Y-111400000D01*
X189785714Y-111400000D01*
X189871428Y-111442857D01*
X189914285Y-111485714D01*
X189957142Y-111571428D01*
X189957142Y-111785714D01*
X189914285Y-111871428D01*
X189871428Y-111914285D01*
X189785714Y-111957142D01*
X189571428Y-111957142D01*
X189485714Y-111914285D01*
X189442857Y-111871428D01*
X161314285Y-111057142D02*
X160885714Y-111057142D01*
X160842857Y-111485714D01*
X160885714Y-111442857D01*
X160971428Y-111400000D01*
X161185714Y-111400000D01*
X161271428Y-111442857D01*
X161314285Y-111485714D01*
X161357142Y-111571428D01*
X161357142Y-111785714D01*
X161314285Y-111871428D01*
X161271428Y-111914285D01*
X161185714Y-111957142D01*
X160971428Y-111957142D01*
X160885714Y-111914285D01*
X160842857Y-111871428D01*
X132714285Y-111057142D02*
X132285714Y-111057142D01*
X132242857Y-111485714D01*
X132285714Y-111442857D01*
X132371428Y-111400000D01*
X132585714Y-111400000D01*
X132671428Y-111442857D01*
X132714285Y-111485714D01*
X132757142Y-111571428D01*
X132757142Y-111785714D01*
X132714285Y-111871428D01*
X132671428Y-111914285D01*
X132585714Y-111957142D01*
X132371428Y-111957142D01*
X132285714Y-111914285D01*
X132242857Y-111871428D01*
X189914285Y-68957142D02*
X189485714Y-68957142D01*
X189442857Y-69385714D01*
X189485714Y-69342857D01*
X189571428Y-69300000D01*
X189785714Y-69300000D01*
X189871428Y-69342857D01*
X189914285Y-69385714D01*
X189957142Y-69471428D01*
X189957142Y-69685714D01*
X189914285Y-69771428D01*
X189871428Y-69814285D01*
X189785714Y-69857142D01*
X189571428Y-69857142D01*
X189485714Y-69814285D01*
X189442857Y-69771428D01*
X161314285Y-68957142D02*
X160885714Y-68957142D01*
X160842857Y-69385714D01*
X160885714Y-69342857D01*
X160971428Y-69300000D01*
X161185714Y-69300000D01*
X161271428Y-69342857D01*
X161314285Y-69385714D01*
X161357142Y-69471428D01*
X161357142Y-69685714D01*
X161314285Y-69771428D01*
X161271428Y-69814285D01*
X161185714Y-69857142D01*
X160971428Y-69857142D01*
X160885714Y-69814285D01*
X160842857Y-69771428D01*
X189378571Y-122107142D02*
X188864285Y-122107142D01*
X189121428Y-122107142D02*
X189121428Y-121207142D01*
X189035714Y-121335714D01*
X188950000Y-121421428D01*
X188864285Y-121464285D01*
X190192857Y-121207142D02*
X189764285Y-121207142D01*
X189721428Y-121635714D01*
X189764285Y-121592857D01*
X189850000Y-121550000D01*
X190064285Y-121550000D01*
X190150000Y-121592857D01*
X190192857Y-121635714D01*
X190235714Y-121721428D01*
X190235714Y-121935714D01*
X190192857Y-122021428D01*
X190150000Y-122064285D01*
X190064285Y-122107142D01*
X189850000Y-122107142D01*
X189764285Y-122064285D01*
X189721428Y-122021428D01*
X160778571Y-122107142D02*
X160264285Y-122107142D01*
X160521428Y-122107142D02*
X160521428Y-121207142D01*
X160435714Y-121335714D01*
X160350000Y-121421428D01*
X160264285Y-121464285D01*
X161592857Y-121207142D02*
X161164285Y-121207142D01*
X161121428Y-121635714D01*
X161164285Y-121592857D01*
X161250000Y-121550000D01*
X161464285Y-121550000D01*
X161550000Y-121592857D01*
X161592857Y-121635714D01*
X161635714Y-121721428D01*
X161635714Y-121935714D01*
X161592857Y-122021428D01*
X161550000Y-122064285D01*
X161464285Y-122107142D01*
X161250000Y-122107142D01*
X161164285Y-122064285D01*
X161121428Y-122021428D01*
X132178571Y-122107142D02*
X131664285Y-122107142D01*
X131921428Y-122107142D02*
X131921428Y-121207142D01*
X131835714Y-121335714D01*
X131750000Y-121421428D01*
X131664285Y-121464285D01*
X132992857Y-121207142D02*
X132564285Y-121207142D01*
X132521428Y-121635714D01*
X132564285Y-121592857D01*
X132650000Y-121550000D01*
X132864285Y-121550000D01*
X132950000Y-121592857D01*
X132992857Y-121635714D01*
X133035714Y-121721428D01*
X133035714Y-121935714D01*
X132992857Y-122021428D01*
X132950000Y-122064285D01*
X132864285Y-122107142D01*
X132650000Y-122107142D01*
X132564285Y-122064285D01*
X132521428Y-122021428D01*
X189378571Y-80007142D02*
X188864285Y-80007142D01*
X189121428Y-80007142D02*
X189121428Y-79107142D01*
X189035714Y-79235714D01*
X188950000Y-79321428D01*
X188864285Y-79364285D01*
X190192857Y-79107142D02*
X189764285Y-79107142D01*
X189721428Y-79535714D01*
X189764285Y-79492857D01*
X189850000Y-79450000D01*
X190064285Y-79450000D01*
X190150000Y-79492857D01*
X190192857Y-79535714D01*
X190235714Y-79621428D01*
X190235714Y-79835714D01*
X190192857Y-79921428D01*
X190150000Y-79964285D01*
X190064285Y-80007142D01*
X189850000Y-80007142D01*
X189764285Y-79964285D01*
X189721428Y-79921428D01*
X160778571Y-80007142D02*
X160264285Y-80007142D01*
X160521428Y-80007142D02*
X160521428Y-79107142D01*
X160435714Y-79235714D01*
X160350000Y-79321428D01*
X160264285Y-79364285D01*
X161592857Y-79107142D02*
X161164285Y-79107142D01*
X161121428Y-79535714D01*
X161164285Y-79492857D01*
X161250000Y-79450000D01*
X161464285Y-79450000D01*
X161550000Y-79492857D01*
X161592857Y-79535714D01*
X161635714Y-79621428D01*
X161635714Y-79835714D01*
X161592857Y-79921428D01*
X161550000Y-79964285D01*
X161464285Y-80007142D01*
X161250000Y-80007142D01*
X161164285Y-79964285D01*
X161121428Y-79921428D01*
D12*
X167628571Y-100622857D02*
X167171428Y-100622857D01*
X167400000Y-100851428D02*
X167400000Y-100394285D01*
X139028571Y-100622857D02*
X138571428Y-100622857D01*
X138800000Y-100851428D02*
X138800000Y-100394285D01*
X110428571Y-100622857D02*
X109971428Y-100622857D01*
X110200000Y-100851428D02*
X110200000Y-100394285D01*
X167628571Y-58522857D02*
X167171428Y-58522857D01*
X167400000Y-58751428D02*
X167400000Y-58294285D01*
X139028571Y-58522857D02*
X138571428Y-58522857D01*
X138800000Y-58751428D02*
X138800000Y-58294285D01*
D11*
X169978571Y-126307142D02*
X169550000Y-126307142D01*
X169507142Y-126735714D01*
X169550000Y-126692857D01*
X169635714Y-126650000D01*
X169850000Y-126650000D01*
X169935714Y-126692857D01*
X169978571Y-126735714D01*
X170021428Y-126821428D01*
X170021428Y-127035714D01*
X169978571Y-127121428D01*
X169935714Y-127164285D01*
X169850000Y-127207142D01*
X169635714Y-127207142D01*
X169550000Y-127164285D01*
X169507142Y-127121428D01*
X170278571Y-126307142D02*
X170578571Y-127207142D01*
X170878571Y-126307142D01*
X141378571Y-126307142D02*
X140950000Y-126307142D01*
X140907142Y-126735714D01*
X140950000Y-126692857D01*
X141035714Y-126650000D01*
X141250000Y-126650000D01*
X141335714Y-126692857D01*
X141378571Y-126735714D01*
X141421428Y-126821428D01*
X141421428Y-127035714D01*
X141378571Y-127121428D01*
X141335714Y-127164285D01*
X141250000Y-127207142D01*
X141035714Y-127207142D01*
X140950000Y-127164285D01*
X140907142Y-127121428D01*
X141678571Y-126307142D02*
X141978571Y-127207142D01*
X142278571Y-126307142D01*
X112778571Y-126307142D02*
X112350000Y-126307142D01*
X112307142Y-126735714D01*
X112350000Y-126692857D01*
X112435714Y-126650000D01*
X112650000Y-126650000D01*
X112735714Y-126692857D01*
X112778571Y-126735714D01*
X112821428Y-126821428D01*
X112821428Y-127035714D01*
X112778571Y-127121428D01*
X112735714Y-127164285D01*
X112650000Y-127207142D01*
X112435714Y-127207142D01*
X112350000Y-127164285D01*
X112307142Y-127121428D01*
X113078571Y-126307142D02*
X113378571Y-127207142D01*
X113678571Y-126307142D01*
X169978571Y-84207142D02*
X169550000Y-84207142D01*
X169507142Y-84635714D01*
X169550000Y-84592857D01*
X169635714Y-84550000D01*
X169850000Y-84550000D01*
X169935714Y-84592857D01*
X169978571Y-84635714D01*
X170021428Y-84721428D01*
X170021428Y-84935714D01*
X169978571Y-85021428D01*
X169935714Y-85064285D01*
X169850000Y-85107142D01*
X169635714Y-85107142D01*
X169550000Y-85064285D01*
X169507142Y-85021428D01*
X170278571Y-84207142D02*
X170578571Y-85107142D01*
X170878571Y-84207142D01*
X141378571Y-84207142D02*
X140950000Y-84207142D01*
X140907142Y-84635714D01*
X140950000Y-84592857D01*
X141035714Y-84550000D01*
X141250000Y-84550000D01*
X141335714Y-84592857D01*
X141378571Y-84635714D01*
X141421428Y-84721428D01*
X141421428Y-84935714D01*
X141378571Y-85021428D01*
X141335714Y-85064285D01*
X141250000Y-85107142D01*
X141035714Y-85107142D01*
X140950000Y-85064285D01*
X140907142Y-85021428D01*
X141678571Y-84207142D02*
X141978571Y-85107142D01*
X142278571Y-84207142D01*
X170078571Y-122157142D02*
X169564285Y-122157142D01*
X169821428Y-122157142D02*
X169821428Y-121257142D01*
X169735714Y-121385714D01*
X169650000Y-121471428D01*
X169564285Y-121514285D01*
X170378571Y-121257142D02*
X170935714Y-121257142D01*
X170635714Y-121600000D01*
X170764285Y-121600000D01*
X170850000Y-121642857D01*
X170892857Y-121685714D01*
X170935714Y-121771428D01*
X170935714Y-121985714D01*
X170892857Y-122071428D01*
X170850000Y-122114285D01*
X170764285Y-122157142D01*
X170507142Y-122157142D01*
X170421428Y-122114285D01*
X170378571Y-122071428D01*
X141478571Y-122157142D02*
X140964285Y-122157142D01*
X141221428Y-122157142D02*
X141221428Y-121257142D01*
X141135714Y-121385714D01*
X141050000Y-121471428D01*
X140964285Y-121514285D01*
X141778571Y-121257142D02*
X142335714Y-121257142D01*
X142035714Y-121600000D01*
X142164285Y-121600000D01*
X142250000Y-121642857D01*
X142292857Y-121685714D01*
X142335714Y-121771428D01*
X142335714Y-121985714D01*
X142292857Y-122071428D01*
X142250000Y-122114285D01*
X142164285Y-122157142D01*
X141907142Y-122157142D01*
X141821428Y-122114285D01*
X141778571Y-122071428D01*
X112878571Y-122157142D02*
X112364285Y-122157142D01*
X112621428Y-122157142D02*
X112621428Y-121257142D01*
X112535714Y-121385714D01*
X112450000Y-121471428D01*
X112364285Y-121514285D01*
X113178571Y-121257142D02*
X113735714Y-121257142D01*
X113435714Y-121600000D01*
X113564285Y-121600000D01*
X113650000Y-121642857D01*
X113692857Y-121685714D01*
X113735714Y-121771428D01*
X113735714Y-121985714D01*
X113692857Y-122071428D01*
X113650000Y-122114285D01*
X113564285Y-122157142D01*
X113307142Y-122157142D01*
X113221428Y-122114285D01*
X113178571Y-122071428D01*
X170078571Y-80057142D02*
X169564285Y-80057142D01*
X169821428Y-80057142D02*
X169821428Y-79157142D01*
X169735714Y-79285714D01*
X169650000Y-79371428D01*
X169564285Y-79414285D01*
X170378571Y-79157142D02*
X170935714Y-79157142D01*
X170635714Y-79500000D01*
X170764285Y-79500000D01*
X170850000Y-79542857D01*
X170892857Y-79585714D01*
X170935714Y-79671428D01*
X170935714Y-79885714D01*
X170892857Y-79971428D01*
X170850000Y-80014285D01*
X170764285Y-80057142D01*
X170507142Y-80057142D01*
X170421428Y-80014285D01*
X170378571Y-79971428D01*
X141478571Y-80057142D02*
X140964285Y-80057142D01*
X141221428Y-80057142D02*
X141221428Y-79157142D01*
X141135714Y-79285714D01*
X141050000Y-79371428D01*
X140964285Y-79414285D01*
X141778571Y-79157142D02*
X142335714Y-79157142D01*
X142035714Y-79500000D01*
X142164285Y-79500000D01*
X142250000Y-79542857D01*
X142292857Y-79585714D01*
X142335714Y-79671428D01*
X142335714Y-79885714D01*
X142292857Y-79971428D01*
X142250000Y-80014285D01*
X142164285Y-80057142D01*
X141907142Y-80057142D01*
X141821428Y-80014285D01*
X141778571Y-79971428D01*
X189500000Y-109457142D02*
X189200000Y-109028571D01*
X188985714Y-109457142D02*
X188985714Y-108557142D01*
X189328571Y-108557142D01*
X189414285Y-108600000D01*
X189457142Y-108642857D01*
X189500000Y-108728571D01*
X189500000Y-108857142D01*
X189457142Y-108942857D01*
X189414285Y-108985714D01*
X189328571Y-109028571D01*
X188985714Y-109028571D01*
X189800000Y-108557142D02*
X190400000Y-109457142D01*
X190400000Y-108557142D02*
X189800000Y-109457142D01*
X160900000Y-109457142D02*
X160600000Y-109028571D01*
X160385714Y-109457142D02*
X160385714Y-108557142D01*
X160728571Y-108557142D01*
X160814285Y-108600000D01*
X160857142Y-108642857D01*
X160900000Y-108728571D01*
X160900000Y-108857142D01*
X160857142Y-108942857D01*
X160814285Y-108985714D01*
X160728571Y-109028571D01*
X160385714Y-109028571D01*
X161200000Y-108557142D02*
X161800000Y-109457142D01*
X161800000Y-108557142D02*
X161200000Y-109457142D01*
X132300000Y-109457142D02*
X132000000Y-109028571D01*
X131785714Y-109457142D02*
X131785714Y-108557142D01*
X132128571Y-108557142D01*
X132214285Y-108600000D01*
X132257142Y-108642857D01*
X132300000Y-108728571D01*
X132300000Y-108857142D01*
X132257142Y-108942857D01*
X132214285Y-108985714D01*
X132128571Y-109028571D01*
X131785714Y-109028571D01*
X132600000Y-108557142D02*
X133200000Y-109457142D01*
X133200000Y-108557142D02*
X132600000Y-109457142D01*
X189500000Y-67357142D02*
X189200000Y-66928571D01*
X188985714Y-67357142D02*
X188985714Y-66457142D01*
X189328571Y-66457142D01*
X189414285Y-66500000D01*
X189457142Y-66542857D01*
X189500000Y-66628571D01*
X189500000Y-66757142D01*
X189457142Y-66842857D01*
X189414285Y-66885714D01*
X189328571Y-66928571D01*
X188985714Y-66928571D01*
X189800000Y-66457142D02*
X190400000Y-67357142D01*
X190400000Y-66457142D02*
X189800000Y-67357142D01*
X160900000Y-67357142D02*
X160600000Y-66928571D01*
X160385714Y-67357142D02*
X160385714Y-66457142D01*
X160728571Y-66457142D01*
X160814285Y-66500000D01*
X160857142Y-66542857D01*
X160900000Y-66628571D01*
X160900000Y-66757142D01*
X160857142Y-66842857D01*
X160814285Y-66885714D01*
X160728571Y-66928571D01*
X160385714Y-66928571D01*
X161200000Y-66457142D02*
X161800000Y-67357142D01*
X161800000Y-66457142D02*
X161200000Y-67357142D01*
X188964285Y-105957142D02*
X189478571Y-105957142D01*
X189221428Y-106857142D02*
X189221428Y-105957142D01*
X189692857Y-105957142D02*
X190292857Y-106857142D01*
X190292857Y-105957142D02*
X189692857Y-106857142D01*
X160364285Y-105957142D02*
X160878571Y-105957142D01*
X160621428Y-106857142D02*
X160621428Y-105957142D01*
X161092857Y-105957142D02*
X161692857Y-106857142D01*
X161692857Y-105957142D02*
X161092857Y-106857142D01*
X131764285Y-105957142D02*
X132278571Y-105957142D01*
X132021428Y-106857142D02*
X132021428Y-105957142D01*
X132492857Y-105957142D02*
X133092857Y-106857142D01*
X133092857Y-105957142D02*
X132492857Y-106857142D01*
X188964285Y-63857142D02*
X189478571Y-63857142D01*
X189221428Y-64757142D02*
X189221428Y-63857142D01*
X189692857Y-63857142D02*
X190292857Y-64757142D01*
X190292857Y-63857142D02*
X189692857Y-64757142D01*
X160364285Y-63857142D02*
X160878571Y-63857142D01*
X160621428Y-64757142D02*
X160621428Y-63857142D01*
X161092857Y-63857142D02*
X161692857Y-64757142D01*
X161692857Y-63857142D02*
X161092857Y-64757142D01*
X183164285Y-122507142D02*
X183678571Y-122507142D01*
X183421428Y-123407142D02*
X183421428Y-122507142D01*
X183892857Y-122507142D02*
X184492857Y-123407142D01*
X184492857Y-122507142D02*
X183892857Y-123407142D01*
X154564285Y-122507142D02*
X155078571Y-122507142D01*
X154821428Y-123407142D02*
X154821428Y-122507142D01*
X155292857Y-122507142D02*
X155892857Y-123407142D01*
X155892857Y-122507142D02*
X155292857Y-123407142D01*
X125964285Y-122507142D02*
X126478571Y-122507142D01*
X126221428Y-123407142D02*
X126221428Y-122507142D01*
X126692857Y-122507142D02*
X127292857Y-123407142D01*
X127292857Y-122507142D02*
X126692857Y-123407142D01*
X183164285Y-80407142D02*
X183678571Y-80407142D01*
X183421428Y-81307142D02*
X183421428Y-80407142D01*
X183892857Y-80407142D02*
X184492857Y-81307142D01*
X184492857Y-80407142D02*
X183892857Y-81307142D01*
X154564285Y-80407142D02*
X155078571Y-80407142D01*
X154821428Y-81307142D02*
X154821428Y-80407142D01*
X155292857Y-80407142D02*
X155892857Y-81307142D01*
X155892857Y-80407142D02*
X155292857Y-81307142D01*
X169478571Y-123807142D02*
X170035714Y-123807142D01*
X169735714Y-124150000D01*
X169864285Y-124150000D01*
X169950000Y-124192857D01*
X169992857Y-124235714D01*
X170035714Y-124321428D01*
X170035714Y-124535714D01*
X169992857Y-124621428D01*
X169950000Y-124664285D01*
X169864285Y-124707142D01*
X169607142Y-124707142D01*
X169521428Y-124664285D01*
X169478571Y-124621428D01*
X170335714Y-124107142D02*
X170550000Y-124707142D01*
X170764285Y-124107142D01*
X171021428Y-123807142D02*
X171578571Y-123807142D01*
X171278571Y-124150000D01*
X171407142Y-124150000D01*
X171492857Y-124192857D01*
X171535714Y-124235714D01*
X171578571Y-124321428D01*
X171578571Y-124535714D01*
X171535714Y-124621428D01*
X171492857Y-124664285D01*
X171407142Y-124707142D01*
X171150000Y-124707142D01*
X171064285Y-124664285D01*
X171021428Y-124621428D01*
X140878571Y-123807142D02*
X141435714Y-123807142D01*
X141135714Y-124150000D01*
X141264285Y-124150000D01*
X141350000Y-124192857D01*
X141392857Y-124235714D01*
X141435714Y-124321428D01*
X141435714Y-124535714D01*
X141392857Y-124621428D01*
X141350000Y-124664285D01*
X141264285Y-124707142D01*
X141007142Y-124707142D01*
X140921428Y-124664285D01*
X140878571Y-124621428D01*
X141735714Y-124107142D02*
X141950000Y-124707142D01*
X142164285Y-124107142D01*
X142421428Y-123807142D02*
X142978571Y-123807142D01*
X142678571Y-124150000D01*
X142807142Y-124150000D01*
X142892857Y-124192857D01*
X142935714Y-124235714D01*
X142978571Y-124321428D01*
X142978571Y-124535714D01*
X142935714Y-124621428D01*
X142892857Y-124664285D01*
X142807142Y-124707142D01*
X142550000Y-124707142D01*
X142464285Y-124664285D01*
X142421428Y-124621428D01*
X112278571Y-123807142D02*
X112835714Y-123807142D01*
X112535714Y-124150000D01*
X112664285Y-124150000D01*
X112750000Y-124192857D01*
X112792857Y-124235714D01*
X112835714Y-124321428D01*
X112835714Y-124535714D01*
X112792857Y-124621428D01*
X112750000Y-124664285D01*
X112664285Y-124707142D01*
X112407142Y-124707142D01*
X112321428Y-124664285D01*
X112278571Y-124621428D01*
X113135714Y-124107142D02*
X113350000Y-124707142D01*
X113564285Y-124107142D01*
X113821428Y-123807142D02*
X114378571Y-123807142D01*
X114078571Y-124150000D01*
X114207142Y-124150000D01*
X114292857Y-124192857D01*
X114335714Y-124235714D01*
X114378571Y-124321428D01*
X114378571Y-124535714D01*
X114335714Y-124621428D01*
X114292857Y-124664285D01*
X114207142Y-124707142D01*
X113950000Y-124707142D01*
X113864285Y-124664285D01*
X113821428Y-124621428D01*
X169478571Y-81707142D02*
X170035714Y-81707142D01*
X169735714Y-82050000D01*
X169864285Y-82050000D01*
X169950000Y-82092857D01*
X169992857Y-82135714D01*
X170035714Y-82221428D01*
X170035714Y-82435714D01*
X169992857Y-82521428D01*
X169950000Y-82564285D01*
X169864285Y-82607142D01*
X169607142Y-82607142D01*
X169521428Y-82564285D01*
X169478571Y-82521428D01*
X170335714Y-82007142D02*
X170550000Y-82607142D01*
X170764285Y-82007142D01*
X171021428Y-81707142D02*
X171578571Y-81707142D01*
X171278571Y-82050000D01*
X171407142Y-82050000D01*
X171492857Y-82092857D01*
X171535714Y-82135714D01*
X171578571Y-82221428D01*
X171578571Y-82435714D01*
X171535714Y-82521428D01*
X171492857Y-82564285D01*
X171407142Y-82607142D01*
X171150000Y-82607142D01*
X171064285Y-82564285D01*
X171021428Y-82521428D01*
X140878571Y-81707142D02*
X141435714Y-81707142D01*
X141135714Y-82050000D01*
X141264285Y-82050000D01*
X141350000Y-82092857D01*
X141392857Y-82135714D01*
X141435714Y-82221428D01*
X141435714Y-82435714D01*
X141392857Y-82521428D01*
X141350000Y-82564285D01*
X141264285Y-82607142D01*
X141007142Y-82607142D01*
X140921428Y-82564285D01*
X140878571Y-82521428D01*
X141735714Y-82007142D02*
X141950000Y-82607142D01*
X142164285Y-82007142D01*
X142421428Y-81707142D02*
X142978571Y-81707142D01*
X142678571Y-82050000D01*
X142807142Y-82050000D01*
X142892857Y-82092857D01*
X142935714Y-82135714D01*
X142978571Y-82221428D01*
X142978571Y-82435714D01*
X142935714Y-82521428D01*
X142892857Y-82564285D01*
X142807142Y-82607142D01*
X142550000Y-82607142D01*
X142464285Y-82564285D01*
X142421428Y-82521428D01*
X188621428Y-123800000D02*
X188535714Y-123757142D01*
X188407142Y-123757142D01*
X188278571Y-123800000D01*
X188192857Y-123885714D01*
X188150000Y-123971428D01*
X188107142Y-124142857D01*
X188107142Y-124271428D01*
X188150000Y-124442857D01*
X188192857Y-124528571D01*
X188278571Y-124614285D01*
X188407142Y-124657142D01*
X188492857Y-124657142D01*
X188621428Y-124614285D01*
X188664285Y-124571428D01*
X188664285Y-124271428D01*
X188492857Y-124271428D01*
X189050000Y-124057142D02*
X189050000Y-124657142D01*
X189050000Y-124142857D02*
X189092857Y-124100000D01*
X189178571Y-124057142D01*
X189307142Y-124057142D01*
X189392857Y-124100000D01*
X189435714Y-124185714D01*
X189435714Y-124657142D01*
X190250000Y-124657142D02*
X190250000Y-123757142D01*
X190250000Y-124614285D02*
X190164285Y-124657142D01*
X189992857Y-124657142D01*
X189907142Y-124614285D01*
X189864285Y-124571428D01*
X189821428Y-124485714D01*
X189821428Y-124228571D01*
X189864285Y-124142857D01*
X189907142Y-124100000D01*
X189992857Y-124057142D01*
X190164285Y-124057142D01*
X190250000Y-124100000D01*
X160021428Y-123800000D02*
X159935714Y-123757142D01*
X159807142Y-123757142D01*
X159678571Y-123800000D01*
X159592857Y-123885714D01*
X159550000Y-123971428D01*
X159507142Y-124142857D01*
X159507142Y-124271428D01*
X159550000Y-124442857D01*
X159592857Y-124528571D01*
X159678571Y-124614285D01*
X159807142Y-124657142D01*
X159892857Y-124657142D01*
X160021428Y-124614285D01*
X160064285Y-124571428D01*
X160064285Y-124271428D01*
X159892857Y-124271428D01*
X160450000Y-124057142D02*
X160450000Y-124657142D01*
X160450000Y-124142857D02*
X160492857Y-124100000D01*
X160578571Y-124057142D01*
X160707142Y-124057142D01*
X160792857Y-124100000D01*
X160835714Y-124185714D01*
X160835714Y-124657142D01*
X161650000Y-124657142D02*
X161650000Y-123757142D01*
X161650000Y-124614285D02*
X161564285Y-124657142D01*
X161392857Y-124657142D01*
X161307142Y-124614285D01*
X161264285Y-124571428D01*
X161221428Y-124485714D01*
X161221428Y-124228571D01*
X161264285Y-124142857D01*
X161307142Y-124100000D01*
X161392857Y-124057142D01*
X161564285Y-124057142D01*
X161650000Y-124100000D01*
X131421428Y-123800000D02*
X131335714Y-123757142D01*
X131207142Y-123757142D01*
X131078571Y-123800000D01*
X130992857Y-123885714D01*
X130950000Y-123971428D01*
X130907142Y-124142857D01*
X130907142Y-124271428D01*
X130950000Y-124442857D01*
X130992857Y-124528571D01*
X131078571Y-124614285D01*
X131207142Y-124657142D01*
X131292857Y-124657142D01*
X131421428Y-124614285D01*
X131464285Y-124571428D01*
X131464285Y-124271428D01*
X131292857Y-124271428D01*
X131850000Y-124057142D02*
X131850000Y-124657142D01*
X131850000Y-124142857D02*
X131892857Y-124100000D01*
X131978571Y-124057142D01*
X132107142Y-124057142D01*
X132192857Y-124100000D01*
X132235714Y-124185714D01*
X132235714Y-124657142D01*
X133050000Y-124657142D02*
X133050000Y-123757142D01*
X133050000Y-124614285D02*
X132964285Y-124657142D01*
X132792857Y-124657142D01*
X132707142Y-124614285D01*
X132664285Y-124571428D01*
X132621428Y-124485714D01*
X132621428Y-124228571D01*
X132664285Y-124142857D01*
X132707142Y-124100000D01*
X132792857Y-124057142D01*
X132964285Y-124057142D01*
X133050000Y-124100000D01*
X188621428Y-81700000D02*
X188535714Y-81657142D01*
X188407142Y-81657142D01*
X188278571Y-81700000D01*
X188192857Y-81785714D01*
X188150000Y-81871428D01*
X188107142Y-82042857D01*
X188107142Y-82171428D01*
X188150000Y-82342857D01*
X188192857Y-82428571D01*
X188278571Y-82514285D01*
X188407142Y-82557142D01*
X188492857Y-82557142D01*
X188621428Y-82514285D01*
X188664285Y-82471428D01*
X188664285Y-82171428D01*
X188492857Y-82171428D01*
X189050000Y-81957142D02*
X189050000Y-82557142D01*
X189050000Y-82042857D02*
X189092857Y-82000000D01*
X189178571Y-81957142D01*
X189307142Y-81957142D01*
X189392857Y-82000000D01*
X189435714Y-82085714D01*
X189435714Y-82557142D01*
X190250000Y-82557142D02*
X190250000Y-81657142D01*
X190250000Y-82514285D02*
X190164285Y-82557142D01*
X189992857Y-82557142D01*
X189907142Y-82514285D01*
X189864285Y-82471428D01*
X189821428Y-82385714D01*
X189821428Y-82128571D01*
X189864285Y-82042857D01*
X189907142Y-82000000D01*
X189992857Y-81957142D01*
X190164285Y-81957142D01*
X190250000Y-82000000D01*
X160021428Y-81700000D02*
X159935714Y-81657142D01*
X159807142Y-81657142D01*
X159678571Y-81700000D01*
X159592857Y-81785714D01*
X159550000Y-81871428D01*
X159507142Y-82042857D01*
X159507142Y-82171428D01*
X159550000Y-82342857D01*
X159592857Y-82428571D01*
X159678571Y-82514285D01*
X159807142Y-82557142D01*
X159892857Y-82557142D01*
X160021428Y-82514285D01*
X160064285Y-82471428D01*
X160064285Y-82171428D01*
X159892857Y-82171428D01*
X160450000Y-81957142D02*
X160450000Y-82557142D01*
X160450000Y-82042857D02*
X160492857Y-82000000D01*
X160578571Y-81957142D01*
X160707142Y-81957142D01*
X160792857Y-82000000D01*
X160835714Y-82085714D01*
X160835714Y-82557142D01*
X161650000Y-82557142D02*
X161650000Y-81657142D01*
X161650000Y-82514285D02*
X161564285Y-82557142D01*
X161392857Y-82557142D01*
X161307142Y-82514285D01*
X161264285Y-82471428D01*
X161221428Y-82385714D01*
X161221428Y-82128571D01*
X161264285Y-82042857D01*
X161307142Y-82000000D01*
X161392857Y-81957142D01*
X161564285Y-81957142D01*
X161650000Y-82000000D01*
X169978571Y-114357142D02*
X169464285Y-114357142D01*
X169721428Y-114357142D02*
X169721428Y-113457142D01*
X169635714Y-113585714D01*
X169550000Y-113671428D01*
X169464285Y-113714285D01*
X170750000Y-113457142D02*
X170578571Y-113457142D01*
X170492857Y-113500000D01*
X170450000Y-113542857D01*
X170364285Y-113671428D01*
X170321428Y-113842857D01*
X170321428Y-114185714D01*
X170364285Y-114271428D01*
X170407142Y-114314285D01*
X170492857Y-114357142D01*
X170664285Y-114357142D01*
X170750000Y-114314285D01*
X170792857Y-114271428D01*
X170835714Y-114185714D01*
X170835714Y-113971428D01*
X170792857Y-113885714D01*
X170750000Y-113842857D01*
X170664285Y-113800000D01*
X170492857Y-113800000D01*
X170407142Y-113842857D01*
X170364285Y-113885714D01*
X170321428Y-113971428D01*
X141378571Y-114357142D02*
X140864285Y-114357142D01*
X141121428Y-114357142D02*
X141121428Y-113457142D01*
X141035714Y-113585714D01*
X140950000Y-113671428D01*
X140864285Y-113714285D01*
X142150000Y-113457142D02*
X141978571Y-113457142D01*
X141892857Y-113500000D01*
X141850000Y-113542857D01*
X141764285Y-113671428D01*
X141721428Y-113842857D01*
X141721428Y-114185714D01*
X141764285Y-114271428D01*
X141807142Y-114314285D01*
X141892857Y-114357142D01*
X142064285Y-114357142D01*
X142150000Y-114314285D01*
X142192857Y-114271428D01*
X142235714Y-114185714D01*
X142235714Y-113971428D01*
X142192857Y-113885714D01*
X142150000Y-113842857D01*
X142064285Y-113800000D01*
X141892857Y-113800000D01*
X141807142Y-113842857D01*
X141764285Y-113885714D01*
X141721428Y-113971428D01*
X112778571Y-114357142D02*
X112264285Y-114357142D01*
X112521428Y-114357142D02*
X112521428Y-113457142D01*
X112435714Y-113585714D01*
X112350000Y-113671428D01*
X112264285Y-113714285D01*
X113550000Y-113457142D02*
X113378571Y-113457142D01*
X113292857Y-113500000D01*
X113250000Y-113542857D01*
X113164285Y-113671428D01*
X113121428Y-113842857D01*
X113121428Y-114185714D01*
X113164285Y-114271428D01*
X113207142Y-114314285D01*
X113292857Y-114357142D01*
X113464285Y-114357142D01*
X113550000Y-114314285D01*
X113592857Y-114271428D01*
X113635714Y-114185714D01*
X113635714Y-113971428D01*
X113592857Y-113885714D01*
X113550000Y-113842857D01*
X113464285Y-113800000D01*
X113292857Y-113800000D01*
X113207142Y-113842857D01*
X113164285Y-113885714D01*
X113121428Y-113971428D01*
X169978571Y-72257142D02*
X169464285Y-72257142D01*
X169721428Y-72257142D02*
X169721428Y-71357142D01*
X169635714Y-71485714D01*
X169550000Y-71571428D01*
X169464285Y-71614285D01*
X170750000Y-71357142D02*
X170578571Y-71357142D01*
X170492857Y-71400000D01*
X170450000Y-71442857D01*
X170364285Y-71571428D01*
X170321428Y-71742857D01*
X170321428Y-72085714D01*
X170364285Y-72171428D01*
X170407142Y-72214285D01*
X170492857Y-72257142D01*
X170664285Y-72257142D01*
X170750000Y-72214285D01*
X170792857Y-72171428D01*
X170835714Y-72085714D01*
X170835714Y-71871428D01*
X170792857Y-71785714D01*
X170750000Y-71742857D01*
X170664285Y-71700000D01*
X170492857Y-71700000D01*
X170407142Y-71742857D01*
X170364285Y-71785714D01*
X170321428Y-71871428D01*
X141378571Y-72257142D02*
X140864285Y-72257142D01*
X141121428Y-72257142D02*
X141121428Y-71357142D01*
X141035714Y-71485714D01*
X140950000Y-71571428D01*
X140864285Y-71614285D01*
X142150000Y-71357142D02*
X141978571Y-71357142D01*
X141892857Y-71400000D01*
X141850000Y-71442857D01*
X141764285Y-71571428D01*
X141721428Y-71742857D01*
X141721428Y-72085714D01*
X141764285Y-72171428D01*
X141807142Y-72214285D01*
X141892857Y-72257142D01*
X142064285Y-72257142D01*
X142150000Y-72214285D01*
X142192857Y-72171428D01*
X142235714Y-72085714D01*
X142235714Y-71871428D01*
X142192857Y-71785714D01*
X142150000Y-71742857D01*
X142064285Y-71700000D01*
X141892857Y-71700000D01*
X141807142Y-71742857D01*
X141764285Y-71785714D01*
X141721428Y-71871428D01*
X169928571Y-116957142D02*
X169414285Y-116957142D01*
X169671428Y-116957142D02*
X169671428Y-116057142D01*
X169585714Y-116185714D01*
X169500000Y-116271428D01*
X169414285Y-116314285D01*
X170700000Y-116357142D02*
X170700000Y-116957142D01*
X170485714Y-116014285D02*
X170271428Y-116657142D01*
X170828571Y-116657142D01*
X141328571Y-116957142D02*
X140814285Y-116957142D01*
X141071428Y-116957142D02*
X141071428Y-116057142D01*
X140985714Y-116185714D01*
X140900000Y-116271428D01*
X140814285Y-116314285D01*
X142100000Y-116357142D02*
X142100000Y-116957142D01*
X141885714Y-116014285D02*
X141671428Y-116657142D01*
X142228571Y-116657142D01*
X112728571Y-116957142D02*
X112214285Y-116957142D01*
X112471428Y-116957142D02*
X112471428Y-116057142D01*
X112385714Y-116185714D01*
X112300000Y-116271428D01*
X112214285Y-116314285D01*
X113500000Y-116357142D02*
X113500000Y-116957142D01*
X113285714Y-116014285D02*
X113071428Y-116657142D01*
X113628571Y-116657142D01*
X169928571Y-74857142D02*
X169414285Y-74857142D01*
X169671428Y-74857142D02*
X169671428Y-73957142D01*
X169585714Y-74085714D01*
X169500000Y-74171428D01*
X169414285Y-74214285D01*
X170700000Y-74257142D02*
X170700000Y-74857142D01*
X170485714Y-73914285D02*
X170271428Y-74557142D01*
X170828571Y-74557142D01*
X141328571Y-74857142D02*
X140814285Y-74857142D01*
X141071428Y-74857142D02*
X141071428Y-73957142D01*
X140985714Y-74085714D01*
X140900000Y-74171428D01*
X140814285Y-74214285D01*
X142100000Y-74257142D02*
X142100000Y-74857142D01*
X141885714Y-73914285D02*
X141671428Y-74557142D01*
X142228571Y-74557142D01*
X170028571Y-119607142D02*
X169514285Y-119607142D01*
X169771428Y-119607142D02*
X169771428Y-118707142D01*
X169685714Y-118835714D01*
X169600000Y-118921428D01*
X169514285Y-118964285D01*
X170371428Y-118792857D02*
X170414285Y-118750000D01*
X170500000Y-118707142D01*
X170714285Y-118707142D01*
X170800000Y-118750000D01*
X170842857Y-118792857D01*
X170885714Y-118878571D01*
X170885714Y-118964285D01*
X170842857Y-119092857D01*
X170328571Y-119607142D01*
X170885714Y-119607142D01*
X141428571Y-119607142D02*
X140914285Y-119607142D01*
X141171428Y-119607142D02*
X141171428Y-118707142D01*
X141085714Y-118835714D01*
X141000000Y-118921428D01*
X140914285Y-118964285D01*
X141771428Y-118792857D02*
X141814285Y-118750000D01*
X141900000Y-118707142D01*
X142114285Y-118707142D01*
X142200000Y-118750000D01*
X142242857Y-118792857D01*
X142285714Y-118878571D01*
X142285714Y-118964285D01*
X142242857Y-119092857D01*
X141728571Y-119607142D01*
X142285714Y-119607142D01*
X112828571Y-119607142D02*
X112314285Y-119607142D01*
X112571428Y-119607142D02*
X112571428Y-118707142D01*
X112485714Y-118835714D01*
X112400000Y-118921428D01*
X112314285Y-118964285D01*
X113171428Y-118792857D02*
X113214285Y-118750000D01*
X113300000Y-118707142D01*
X113514285Y-118707142D01*
X113600000Y-118750000D01*
X113642857Y-118792857D01*
X113685714Y-118878571D01*
X113685714Y-118964285D01*
X113642857Y-119092857D01*
X113128571Y-119607142D01*
X113685714Y-119607142D01*
X170028571Y-77507142D02*
X169514285Y-77507142D01*
X169771428Y-77507142D02*
X169771428Y-76607142D01*
X169685714Y-76735714D01*
X169600000Y-76821428D01*
X169514285Y-76864285D01*
X170371428Y-76692857D02*
X170414285Y-76650000D01*
X170500000Y-76607142D01*
X170714285Y-76607142D01*
X170800000Y-76650000D01*
X170842857Y-76692857D01*
X170885714Y-76778571D01*
X170885714Y-76864285D01*
X170842857Y-76992857D01*
X170328571Y-77507142D01*
X170885714Y-77507142D01*
X141428571Y-77507142D02*
X140914285Y-77507142D01*
X141171428Y-77507142D02*
X141171428Y-76607142D01*
X141085714Y-76735714D01*
X141000000Y-76821428D01*
X140914285Y-76864285D01*
X141771428Y-76692857D02*
X141814285Y-76650000D01*
X141900000Y-76607142D01*
X142114285Y-76607142D01*
X142200000Y-76650000D01*
X142242857Y-76692857D01*
X142285714Y-76778571D01*
X142285714Y-76864285D01*
X142242857Y-76992857D01*
X141728571Y-77507142D01*
X142285714Y-77507142D01*
D12*
X192578571Y-100692857D02*
X192121428Y-100692857D01*
X192350000Y-100921428D02*
X192350000Y-100464285D01*
X163978571Y-100692857D02*
X163521428Y-100692857D01*
X163750000Y-100921428D02*
X163750000Y-100464285D01*
X135378571Y-100692857D02*
X134921428Y-100692857D01*
X135150000Y-100921428D02*
X135150000Y-100464285D01*
X192578571Y-58592857D02*
X192121428Y-58592857D01*
X192350000Y-58821428D02*
X192350000Y-58364285D01*
X163978571Y-58592857D02*
X163521428Y-58592857D01*
X163750000Y-58821428D02*
X163750000Y-58364285D01*
D11*
X181150000Y-123357142D02*
X180850000Y-122928571D01*
X180635714Y-123357142D02*
X180635714Y-122457142D01*
X180978571Y-122457142D01*
X181064285Y-122500000D01*
X181107142Y-122542857D01*
X181150000Y-122628571D01*
X181150000Y-122757142D01*
X181107142Y-122842857D01*
X181064285Y-122885714D01*
X180978571Y-122928571D01*
X180635714Y-122928571D01*
X181450000Y-122457142D02*
X182050000Y-123357142D01*
X182050000Y-122457142D02*
X181450000Y-123357142D01*
X152550000Y-123357142D02*
X152250000Y-122928571D01*
X152035714Y-123357142D02*
X152035714Y-122457142D01*
X152378571Y-122457142D01*
X152464285Y-122500000D01*
X152507142Y-122542857D01*
X152550000Y-122628571D01*
X152550000Y-122757142D01*
X152507142Y-122842857D01*
X152464285Y-122885714D01*
X152378571Y-122928571D01*
X152035714Y-122928571D01*
X152850000Y-122457142D02*
X153450000Y-123357142D01*
X153450000Y-122457142D02*
X152850000Y-123357142D01*
X123950000Y-123357142D02*
X123650000Y-122928571D01*
X123435714Y-123357142D02*
X123435714Y-122457142D01*
X123778571Y-122457142D01*
X123864285Y-122500000D01*
X123907142Y-122542857D01*
X123950000Y-122628571D01*
X123950000Y-122757142D01*
X123907142Y-122842857D01*
X123864285Y-122885714D01*
X123778571Y-122928571D01*
X123435714Y-122928571D01*
X124250000Y-122457142D02*
X124850000Y-123357142D01*
X124850000Y-122457142D02*
X124250000Y-123357142D01*
X181150000Y-81257142D02*
X180850000Y-80828571D01*
X180635714Y-81257142D02*
X180635714Y-80357142D01*
X180978571Y-80357142D01*
X181064285Y-80400000D01*
X181107142Y-80442857D01*
X181150000Y-80528571D01*
X181150000Y-80657142D01*
X181107142Y-80742857D01*
X181064285Y-80785714D01*
X180978571Y-80828571D01*
X180635714Y-80828571D01*
X181450000Y-80357142D02*
X182050000Y-81257142D01*
X182050000Y-80357142D02*
X181450000Y-81257142D01*
X152550000Y-81257142D02*
X152250000Y-80828571D01*
X152035714Y-81257142D02*
X152035714Y-80357142D01*
X152378571Y-80357142D01*
X152464285Y-80400000D01*
X152507142Y-80442857D01*
X152550000Y-80528571D01*
X152550000Y-80657142D01*
X152507142Y-80742857D01*
X152464285Y-80785714D01*
X152378571Y-80828571D01*
X152035714Y-80828571D01*
X152850000Y-80357142D02*
X153450000Y-81257142D01*
X153450000Y-80357142D02*
X152850000Y-81257142D01*
X173171428Y-122500000D02*
X173085714Y-122457142D01*
X172957142Y-122457142D01*
X172828571Y-122500000D01*
X172742857Y-122585714D01*
X172700000Y-122671428D01*
X172657142Y-122842857D01*
X172657142Y-122971428D01*
X172700000Y-123142857D01*
X172742857Y-123228571D01*
X172828571Y-123314285D01*
X172957142Y-123357142D01*
X173042857Y-123357142D01*
X173171428Y-123314285D01*
X173214285Y-123271428D01*
X173214285Y-122971428D01*
X173042857Y-122971428D01*
X173600000Y-122757142D02*
X173600000Y-123357142D01*
X173600000Y-122842857D02*
X173642857Y-122800000D01*
X173728571Y-122757142D01*
X173857142Y-122757142D01*
X173942857Y-122800000D01*
X173985714Y-122885714D01*
X173985714Y-123357142D01*
X174800000Y-123357142D02*
X174800000Y-122457142D01*
X174800000Y-123314285D02*
X174714285Y-123357142D01*
X174542857Y-123357142D01*
X174457142Y-123314285D01*
X174414285Y-123271428D01*
X174371428Y-123185714D01*
X174371428Y-122928571D01*
X174414285Y-122842857D01*
X174457142Y-122800000D01*
X174542857Y-122757142D01*
X174714285Y-122757142D01*
X174800000Y-122800000D01*
X144571428Y-122500000D02*
X144485714Y-122457142D01*
X144357142Y-122457142D01*
X144228571Y-122500000D01*
X144142857Y-122585714D01*
X144100000Y-122671428D01*
X144057142Y-122842857D01*
X144057142Y-122971428D01*
X144100000Y-123142857D01*
X144142857Y-123228571D01*
X144228571Y-123314285D01*
X144357142Y-123357142D01*
X144442857Y-123357142D01*
X144571428Y-123314285D01*
X144614285Y-123271428D01*
X144614285Y-122971428D01*
X144442857Y-122971428D01*
X145000000Y-122757142D02*
X145000000Y-123357142D01*
X145000000Y-122842857D02*
X145042857Y-122800000D01*
X145128571Y-122757142D01*
X145257142Y-122757142D01*
X145342857Y-122800000D01*
X145385714Y-122885714D01*
X145385714Y-123357142D01*
X146200000Y-123357142D02*
X146200000Y-122457142D01*
X146200000Y-123314285D02*
X146114285Y-123357142D01*
X145942857Y-123357142D01*
X145857142Y-123314285D01*
X145814285Y-123271428D01*
X145771428Y-123185714D01*
X145771428Y-122928571D01*
X145814285Y-122842857D01*
X145857142Y-122800000D01*
X145942857Y-122757142D01*
X146114285Y-122757142D01*
X146200000Y-122800000D01*
X115971428Y-122500000D02*
X115885714Y-122457142D01*
X115757142Y-122457142D01*
X115628571Y-122500000D01*
X115542857Y-122585714D01*
X115500000Y-122671428D01*
X115457142Y-122842857D01*
X115457142Y-122971428D01*
X115500000Y-123142857D01*
X115542857Y-123228571D01*
X115628571Y-123314285D01*
X115757142Y-123357142D01*
X115842857Y-123357142D01*
X115971428Y-123314285D01*
X116014285Y-123271428D01*
X116014285Y-122971428D01*
X115842857Y-122971428D01*
X116400000Y-122757142D02*
X116400000Y-123357142D01*
X116400000Y-122842857D02*
X116442857Y-122800000D01*
X116528571Y-122757142D01*
X116657142Y-122757142D01*
X116742857Y-122800000D01*
X116785714Y-122885714D01*
X116785714Y-123357142D01*
X117600000Y-123357142D02*
X117600000Y-122457142D01*
X117600000Y-123314285D02*
X117514285Y-123357142D01*
X117342857Y-123357142D01*
X117257142Y-123314285D01*
X117214285Y-123271428D01*
X117171428Y-123185714D01*
X117171428Y-122928571D01*
X117214285Y-122842857D01*
X117257142Y-122800000D01*
X117342857Y-122757142D01*
X117514285Y-122757142D01*
X117600000Y-122800000D01*
X173171428Y-80400000D02*
X173085714Y-80357142D01*
X172957142Y-80357142D01*
X172828571Y-80400000D01*
X172742857Y-80485714D01*
X172700000Y-80571428D01*
X172657142Y-80742857D01*
X172657142Y-80871428D01*
X172700000Y-81042857D01*
X172742857Y-81128571D01*
X172828571Y-81214285D01*
X172957142Y-81257142D01*
X173042857Y-81257142D01*
X173171428Y-81214285D01*
X173214285Y-81171428D01*
X173214285Y-80871428D01*
X173042857Y-80871428D01*
X173600000Y-80657142D02*
X173600000Y-81257142D01*
X173600000Y-80742857D02*
X173642857Y-80700000D01*
X173728571Y-80657142D01*
X173857142Y-80657142D01*
X173942857Y-80700000D01*
X173985714Y-80785714D01*
X173985714Y-81257142D01*
X174800000Y-81257142D02*
X174800000Y-80357142D01*
X174800000Y-81214285D02*
X174714285Y-81257142D01*
X174542857Y-81257142D01*
X174457142Y-81214285D01*
X174414285Y-81171428D01*
X174371428Y-81085714D01*
X174371428Y-80828571D01*
X174414285Y-80742857D01*
X174457142Y-80700000D01*
X174542857Y-80657142D01*
X174714285Y-80657142D01*
X174800000Y-80700000D01*
X144571428Y-80400000D02*
X144485714Y-80357142D01*
X144357142Y-80357142D01*
X144228571Y-80400000D01*
X144142857Y-80485714D01*
X144100000Y-80571428D01*
X144057142Y-80742857D01*
X144057142Y-80871428D01*
X144100000Y-81042857D01*
X144142857Y-81128571D01*
X144228571Y-81214285D01*
X144357142Y-81257142D01*
X144442857Y-81257142D01*
X144571428Y-81214285D01*
X144614285Y-81171428D01*
X144614285Y-80871428D01*
X144442857Y-80871428D01*
X145000000Y-80657142D02*
X145000000Y-81257142D01*
X145000000Y-80742857D02*
X145042857Y-80700000D01*
X145128571Y-80657142D01*
X145257142Y-80657142D01*
X145342857Y-80700000D01*
X145385714Y-80785714D01*
X145385714Y-81257142D01*
X146200000Y-81257142D02*
X146200000Y-80357142D01*
X146200000Y-81214285D02*
X146114285Y-81257142D01*
X145942857Y-81257142D01*
X145857142Y-81214285D01*
X145814285Y-81171428D01*
X145771428Y-81085714D01*
X145771428Y-80828571D01*
X145814285Y-80742857D01*
X145857142Y-80700000D01*
X145942857Y-80657142D01*
X146114285Y-80657142D01*
X146200000Y-80700000D01*
X189542857Y-118792857D02*
X189585714Y-118750000D01*
X189671428Y-118707142D01*
X189885714Y-118707142D01*
X189971428Y-118750000D01*
X190014285Y-118792857D01*
X190057142Y-118878571D01*
X190057142Y-118964285D01*
X190014285Y-119092857D01*
X189500000Y-119607142D01*
X190057142Y-119607142D01*
X160942857Y-118792857D02*
X160985714Y-118750000D01*
X161071428Y-118707142D01*
X161285714Y-118707142D01*
X161371428Y-118750000D01*
X161414285Y-118792857D01*
X161457142Y-118878571D01*
X161457142Y-118964285D01*
X161414285Y-119092857D01*
X160900000Y-119607142D01*
X161457142Y-119607142D01*
X132342857Y-118792857D02*
X132385714Y-118750000D01*
X132471428Y-118707142D01*
X132685714Y-118707142D01*
X132771428Y-118750000D01*
X132814285Y-118792857D01*
X132857142Y-118878571D01*
X132857142Y-118964285D01*
X132814285Y-119092857D01*
X132300000Y-119607142D01*
X132857142Y-119607142D01*
X189542857Y-76692857D02*
X189585714Y-76650000D01*
X189671428Y-76607142D01*
X189885714Y-76607142D01*
X189971428Y-76650000D01*
X190014285Y-76692857D01*
X190057142Y-76778571D01*
X190057142Y-76864285D01*
X190014285Y-76992857D01*
X189500000Y-77507142D01*
X190057142Y-77507142D01*
X160942857Y-76692857D02*
X160985714Y-76650000D01*
X161071428Y-76607142D01*
X161285714Y-76607142D01*
X161371428Y-76650000D01*
X161414285Y-76692857D01*
X161457142Y-76778571D01*
X161457142Y-76864285D01*
X161414285Y-76992857D01*
X160900000Y-77507142D01*
X161457142Y-77507142D01*
X170050000Y-106907142D02*
X169750000Y-106478571D01*
X169535714Y-106907142D02*
X169535714Y-106007142D01*
X169878571Y-106007142D01*
X169964285Y-106050000D01*
X170007142Y-106092857D01*
X170050000Y-106178571D01*
X170050000Y-106307142D01*
X170007142Y-106392857D01*
X169964285Y-106435714D01*
X169878571Y-106478571D01*
X169535714Y-106478571D01*
X170392857Y-106864285D02*
X170521428Y-106907142D01*
X170735714Y-106907142D01*
X170821428Y-106864285D01*
X170864285Y-106821428D01*
X170907142Y-106735714D01*
X170907142Y-106650000D01*
X170864285Y-106564285D01*
X170821428Y-106521428D01*
X170735714Y-106478571D01*
X170564285Y-106435714D01*
X170478571Y-106392857D01*
X170435714Y-106350000D01*
X170392857Y-106264285D01*
X170392857Y-106178571D01*
X170435714Y-106092857D01*
X170478571Y-106050000D01*
X170564285Y-106007142D01*
X170778571Y-106007142D01*
X170907142Y-106050000D01*
X141450000Y-106907142D02*
X141150000Y-106478571D01*
X140935714Y-106907142D02*
X140935714Y-106007142D01*
X141278571Y-106007142D01*
X141364285Y-106050000D01*
X141407142Y-106092857D01*
X141450000Y-106178571D01*
X141450000Y-106307142D01*
X141407142Y-106392857D01*
X141364285Y-106435714D01*
X141278571Y-106478571D01*
X140935714Y-106478571D01*
X141792857Y-106864285D02*
X141921428Y-106907142D01*
X142135714Y-106907142D01*
X142221428Y-106864285D01*
X142264285Y-106821428D01*
X142307142Y-106735714D01*
X142307142Y-106650000D01*
X142264285Y-106564285D01*
X142221428Y-106521428D01*
X142135714Y-106478571D01*
X141964285Y-106435714D01*
X141878571Y-106392857D01*
X141835714Y-106350000D01*
X141792857Y-106264285D01*
X141792857Y-106178571D01*
X141835714Y-106092857D01*
X141878571Y-106050000D01*
X141964285Y-106007142D01*
X142178571Y-106007142D01*
X142307142Y-106050000D01*
X112850000Y-106907142D02*
X112550000Y-106478571D01*
X112335714Y-106907142D02*
X112335714Y-106007142D01*
X112678571Y-106007142D01*
X112764285Y-106050000D01*
X112807142Y-106092857D01*
X112850000Y-106178571D01*
X112850000Y-106307142D01*
X112807142Y-106392857D01*
X112764285Y-106435714D01*
X112678571Y-106478571D01*
X112335714Y-106478571D01*
X113192857Y-106864285D02*
X113321428Y-106907142D01*
X113535714Y-106907142D01*
X113621428Y-106864285D01*
X113664285Y-106821428D01*
X113707142Y-106735714D01*
X113707142Y-106650000D01*
X113664285Y-106564285D01*
X113621428Y-106521428D01*
X113535714Y-106478571D01*
X113364285Y-106435714D01*
X113278571Y-106392857D01*
X113235714Y-106350000D01*
X113192857Y-106264285D01*
X113192857Y-106178571D01*
X113235714Y-106092857D01*
X113278571Y-106050000D01*
X113364285Y-106007142D01*
X113578571Y-106007142D01*
X113707142Y-106050000D01*
X170050000Y-64807142D02*
X169750000Y-64378571D01*
X169535714Y-64807142D02*
X169535714Y-63907142D01*
X169878571Y-63907142D01*
X169964285Y-63950000D01*
X170007142Y-63992857D01*
X170050000Y-64078571D01*
X170050000Y-64207142D01*
X170007142Y-64292857D01*
X169964285Y-64335714D01*
X169878571Y-64378571D01*
X169535714Y-64378571D01*
X170392857Y-64764285D02*
X170521428Y-64807142D01*
X170735714Y-64807142D01*
X170821428Y-64764285D01*
X170864285Y-64721428D01*
X170907142Y-64635714D01*
X170907142Y-64550000D01*
X170864285Y-64464285D01*
X170821428Y-64421428D01*
X170735714Y-64378571D01*
X170564285Y-64335714D01*
X170478571Y-64292857D01*
X170435714Y-64250000D01*
X170392857Y-64164285D01*
X170392857Y-64078571D01*
X170435714Y-63992857D01*
X170478571Y-63950000D01*
X170564285Y-63907142D01*
X170778571Y-63907142D01*
X170907142Y-63950000D01*
X141450000Y-64807142D02*
X141150000Y-64378571D01*
X140935714Y-64807142D02*
X140935714Y-63907142D01*
X141278571Y-63907142D01*
X141364285Y-63950000D01*
X141407142Y-63992857D01*
X141450000Y-64078571D01*
X141450000Y-64207142D01*
X141407142Y-64292857D01*
X141364285Y-64335714D01*
X141278571Y-64378571D01*
X140935714Y-64378571D01*
X141792857Y-64764285D02*
X141921428Y-64807142D01*
X142135714Y-64807142D01*
X142221428Y-64764285D01*
X142264285Y-64721428D01*
X142307142Y-64635714D01*
X142307142Y-64550000D01*
X142264285Y-64464285D01*
X142221428Y-64421428D01*
X142135714Y-64378571D01*
X141964285Y-64335714D01*
X141878571Y-64292857D01*
X141835714Y-64250000D01*
X141792857Y-64164285D01*
X141792857Y-64078571D01*
X141835714Y-63992857D01*
X141878571Y-63950000D01*
X141964285Y-63907142D01*
X142178571Y-63907142D01*
X142307142Y-63950000D01*
X169485714Y-109200000D02*
X169914285Y-109200000D01*
X169400000Y-109457142D02*
X169700000Y-108557142D01*
X170000000Y-109457142D01*
X170300000Y-109457142D02*
X170300000Y-108557142D01*
X170514285Y-108557142D01*
X170642857Y-108600000D01*
X170728571Y-108685714D01*
X170771428Y-108771428D01*
X170814285Y-108942857D01*
X170814285Y-109071428D01*
X170771428Y-109242857D01*
X170728571Y-109328571D01*
X170642857Y-109414285D01*
X170514285Y-109457142D01*
X170300000Y-109457142D01*
X140885714Y-109200000D02*
X141314285Y-109200000D01*
X140800000Y-109457142D02*
X141100000Y-108557142D01*
X141400000Y-109457142D01*
X141700000Y-109457142D02*
X141700000Y-108557142D01*
X141914285Y-108557142D01*
X142042857Y-108600000D01*
X142128571Y-108685714D01*
X142171428Y-108771428D01*
X142214285Y-108942857D01*
X142214285Y-109071428D01*
X142171428Y-109242857D01*
X142128571Y-109328571D01*
X142042857Y-109414285D01*
X141914285Y-109457142D01*
X141700000Y-109457142D01*
X112285714Y-109200000D02*
X112714285Y-109200000D01*
X112200000Y-109457142D02*
X112500000Y-108557142D01*
X112800000Y-109457142D01*
X113100000Y-109457142D02*
X113100000Y-108557142D01*
X113314285Y-108557142D01*
X113442857Y-108600000D01*
X113528571Y-108685714D01*
X113571428Y-108771428D01*
X113614285Y-108942857D01*
X113614285Y-109071428D01*
X113571428Y-109242857D01*
X113528571Y-109328571D01*
X113442857Y-109414285D01*
X113314285Y-109457142D01*
X113100000Y-109457142D01*
X169485714Y-67100000D02*
X169914285Y-67100000D01*
X169400000Y-67357142D02*
X169700000Y-66457142D01*
X170000000Y-67357142D01*
X170300000Y-67357142D02*
X170300000Y-66457142D01*
X170514285Y-66457142D01*
X170642857Y-66500000D01*
X170728571Y-66585714D01*
X170771428Y-66671428D01*
X170814285Y-66842857D01*
X170814285Y-66971428D01*
X170771428Y-67142857D01*
X170728571Y-67228571D01*
X170642857Y-67314285D01*
X170514285Y-67357142D01*
X170300000Y-67357142D01*
X140885714Y-67100000D02*
X141314285Y-67100000D01*
X140800000Y-67357142D02*
X141100000Y-66457142D01*
X141400000Y-67357142D01*
X141700000Y-67357142D02*
X141700000Y-66457142D01*
X141914285Y-66457142D01*
X142042857Y-66500000D01*
X142128571Y-66585714D01*
X142171428Y-66671428D01*
X142214285Y-66842857D01*
X142214285Y-66971428D01*
X142171428Y-67142857D01*
X142128571Y-67228571D01*
X142042857Y-67314285D01*
X141914285Y-67357142D01*
X141700000Y-67357142D01*
X169485714Y-111585714D02*
X169785714Y-111585714D01*
X169914285Y-112057142D02*
X169485714Y-112057142D01*
X169485714Y-111157142D01*
X169914285Y-111157142D01*
X170300000Y-112057142D02*
X170300000Y-111157142D01*
X170814285Y-112057142D01*
X170814285Y-111157142D01*
X140885714Y-111585714D02*
X141185714Y-111585714D01*
X141314285Y-112057142D02*
X140885714Y-112057142D01*
X140885714Y-111157142D01*
X141314285Y-111157142D01*
X141700000Y-112057142D02*
X141700000Y-111157142D01*
X142214285Y-112057142D01*
X142214285Y-111157142D01*
X112285714Y-111585714D02*
X112585714Y-111585714D01*
X112714285Y-112057142D02*
X112285714Y-112057142D01*
X112285714Y-111157142D01*
X112714285Y-111157142D01*
X113100000Y-112057142D02*
X113100000Y-111157142D01*
X113614285Y-112057142D01*
X113614285Y-111157142D01*
X169485714Y-69485714D02*
X169785714Y-69485714D01*
X169914285Y-69957142D02*
X169485714Y-69957142D01*
X169485714Y-69057142D01*
X169914285Y-69057142D01*
X170300000Y-69957142D02*
X170300000Y-69057142D01*
X170814285Y-69957142D01*
X170814285Y-69057142D01*
X140885714Y-69485714D02*
X141185714Y-69485714D01*
X141314285Y-69957142D02*
X140885714Y-69957142D01*
X140885714Y-69057142D01*
X141314285Y-69057142D01*
X141700000Y-69957142D02*
X141700000Y-69057142D01*
X142214285Y-69957142D01*
X142214285Y-69057142D01*
D12*
X135378571Y-58592857D02*
X134921428Y-58592857D01*
X135150000Y-58821428D02*
X135150000Y-58364285D01*
D11*
X123950000Y-81257142D02*
X123650000Y-80828571D01*
X123435714Y-81257142D02*
X123435714Y-80357142D01*
X123778571Y-80357142D01*
X123864285Y-80400000D01*
X123907142Y-80442857D01*
X123950000Y-80528571D01*
X123950000Y-80657142D01*
X123907142Y-80742857D01*
X123864285Y-80785714D01*
X123778571Y-80828571D01*
X123435714Y-80828571D01*
X124250000Y-80357142D02*
X124850000Y-81257142D01*
X124850000Y-80357142D02*
X124250000Y-81257142D01*
X125964285Y-80407142D02*
X126478571Y-80407142D01*
X126221428Y-81307142D02*
X126221428Y-80407142D01*
X126692857Y-80407142D02*
X127292857Y-81307142D01*
X127292857Y-80407142D02*
X126692857Y-81307142D01*
X112278571Y-81707142D02*
X112835714Y-81707142D01*
X112535714Y-82050000D01*
X112664285Y-82050000D01*
X112750000Y-82092857D01*
X112792857Y-82135714D01*
X112835714Y-82221428D01*
X112835714Y-82435714D01*
X112792857Y-82521428D01*
X112750000Y-82564285D01*
X112664285Y-82607142D01*
X112407142Y-82607142D01*
X112321428Y-82564285D01*
X112278571Y-82521428D01*
X113135714Y-82007142D02*
X113350000Y-82607142D01*
X113564285Y-82007142D01*
X113821428Y-81707142D02*
X114378571Y-81707142D01*
X114078571Y-82050000D01*
X114207142Y-82050000D01*
X114292857Y-82092857D01*
X114335714Y-82135714D01*
X114378571Y-82221428D01*
X114378571Y-82435714D01*
X114335714Y-82521428D01*
X114292857Y-82564285D01*
X114207142Y-82607142D01*
X113950000Y-82607142D01*
X113864285Y-82564285D01*
X113821428Y-82521428D01*
D12*
X110428571Y-58522857D02*
X109971428Y-58522857D01*
X110200000Y-58751428D02*
X110200000Y-58294285D01*
D11*
X112850000Y-64807142D02*
X112550000Y-64378571D01*
X112335714Y-64807142D02*
X112335714Y-63907142D01*
X112678571Y-63907142D01*
X112764285Y-63950000D01*
X112807142Y-63992857D01*
X112850000Y-64078571D01*
X112850000Y-64207142D01*
X112807142Y-64292857D01*
X112764285Y-64335714D01*
X112678571Y-64378571D01*
X112335714Y-64378571D01*
X113192857Y-64764285D02*
X113321428Y-64807142D01*
X113535714Y-64807142D01*
X113621428Y-64764285D01*
X113664285Y-64721428D01*
X113707142Y-64635714D01*
X113707142Y-64550000D01*
X113664285Y-64464285D01*
X113621428Y-64421428D01*
X113535714Y-64378571D01*
X113364285Y-64335714D01*
X113278571Y-64292857D01*
X113235714Y-64250000D01*
X113192857Y-64164285D01*
X113192857Y-64078571D01*
X113235714Y-63992857D01*
X113278571Y-63950000D01*
X113364285Y-63907142D01*
X113578571Y-63907142D01*
X113707142Y-63950000D01*
X112285714Y-67100000D02*
X112714285Y-67100000D01*
X112200000Y-67357142D02*
X112500000Y-66457142D01*
X112800000Y-67357142D01*
X113100000Y-67357142D02*
X113100000Y-66457142D01*
X113314285Y-66457142D01*
X113442857Y-66500000D01*
X113528571Y-66585714D01*
X113571428Y-66671428D01*
X113614285Y-66842857D01*
X113614285Y-66971428D01*
X113571428Y-67142857D01*
X113528571Y-67228571D01*
X113442857Y-67314285D01*
X113314285Y-67357142D01*
X113100000Y-67357142D01*
X112285714Y-69485714D02*
X112585714Y-69485714D01*
X112714285Y-69957142D02*
X112285714Y-69957142D01*
X112285714Y-69057142D01*
X112714285Y-69057142D01*
X113100000Y-69957142D02*
X113100000Y-69057142D01*
X113614285Y-69957142D01*
X113614285Y-69057142D01*
X112778571Y-72257142D02*
X112264285Y-72257142D01*
X112521428Y-72257142D02*
X112521428Y-71357142D01*
X112435714Y-71485714D01*
X112350000Y-71571428D01*
X112264285Y-71614285D01*
X113550000Y-71357142D02*
X113378571Y-71357142D01*
X113292857Y-71400000D01*
X113250000Y-71442857D01*
X113164285Y-71571428D01*
X113121428Y-71742857D01*
X113121428Y-72085714D01*
X113164285Y-72171428D01*
X113207142Y-72214285D01*
X113292857Y-72257142D01*
X113464285Y-72257142D01*
X113550000Y-72214285D01*
X113592857Y-72171428D01*
X113635714Y-72085714D01*
X113635714Y-71871428D01*
X113592857Y-71785714D01*
X113550000Y-71742857D01*
X113464285Y-71700000D01*
X113292857Y-71700000D01*
X113207142Y-71742857D01*
X113164285Y-71785714D01*
X113121428Y-71871428D01*
X112728571Y-74857142D02*
X112214285Y-74857142D01*
X112471428Y-74857142D02*
X112471428Y-73957142D01*
X112385714Y-74085714D01*
X112300000Y-74171428D01*
X112214285Y-74214285D01*
X113500000Y-74257142D02*
X113500000Y-74857142D01*
X113285714Y-73914285D02*
X113071428Y-74557142D01*
X113628571Y-74557142D01*
X112828571Y-77507142D02*
X112314285Y-77507142D01*
X112571428Y-77507142D02*
X112571428Y-76607142D01*
X112485714Y-76735714D01*
X112400000Y-76821428D01*
X112314285Y-76864285D01*
X113171428Y-76692857D02*
X113214285Y-76650000D01*
X113300000Y-76607142D01*
X113514285Y-76607142D01*
X113600000Y-76650000D01*
X113642857Y-76692857D01*
X113685714Y-76778571D01*
X113685714Y-76864285D01*
X113642857Y-76992857D01*
X113128571Y-77507142D01*
X113685714Y-77507142D01*
X112878571Y-80057142D02*
X112364285Y-80057142D01*
X112621428Y-80057142D02*
X112621428Y-79157142D01*
X112535714Y-79285714D01*
X112450000Y-79371428D01*
X112364285Y-79414285D01*
X113178571Y-79157142D02*
X113735714Y-79157142D01*
X113435714Y-79500000D01*
X113564285Y-79500000D01*
X113650000Y-79542857D01*
X113692857Y-79585714D01*
X113735714Y-79671428D01*
X113735714Y-79885714D01*
X113692857Y-79971428D01*
X113650000Y-80014285D01*
X113564285Y-80057142D01*
X113307142Y-80057142D01*
X113221428Y-80014285D01*
X113178571Y-79971428D01*
X132300000Y-67357142D02*
X132000000Y-66928571D01*
X131785714Y-67357142D02*
X131785714Y-66457142D01*
X132128571Y-66457142D01*
X132214285Y-66500000D01*
X132257142Y-66542857D01*
X132300000Y-66628571D01*
X132300000Y-66757142D01*
X132257142Y-66842857D01*
X132214285Y-66885714D01*
X132128571Y-66928571D01*
X131785714Y-66928571D01*
X132600000Y-66457142D02*
X133200000Y-67357142D01*
X133200000Y-66457142D02*
X132600000Y-67357142D01*
X131764285Y-63857142D02*
X132278571Y-63857142D01*
X132021428Y-64757142D02*
X132021428Y-63857142D01*
X132492857Y-63857142D02*
X133092857Y-64757142D01*
X133092857Y-63857142D02*
X132492857Y-64757142D01*
X132507142Y-74007142D02*
X132592857Y-74007142D01*
X132678571Y-74050000D01*
X132721428Y-74092857D01*
X132764285Y-74178571D01*
X132807142Y-74350000D01*
X132807142Y-74564285D01*
X132764285Y-74735714D01*
X132721428Y-74821428D01*
X132678571Y-74864285D01*
X132592857Y-74907142D01*
X132507142Y-74907142D01*
X132421428Y-74864285D01*
X132378571Y-74821428D01*
X132335714Y-74735714D01*
X132292857Y-74564285D01*
X132292857Y-74350000D01*
X132335714Y-74178571D01*
X132378571Y-74092857D01*
X132421428Y-74050000D01*
X132507142Y-74007142D01*
X132621428Y-71757142D02*
X132621428Y-72357142D01*
X132407142Y-71414285D02*
X132192857Y-72057142D01*
X132750000Y-72057142D01*
X132714285Y-68957142D02*
X132285714Y-68957142D01*
X132242857Y-69385714D01*
X132285714Y-69342857D01*
X132371428Y-69300000D01*
X132585714Y-69300000D01*
X132671428Y-69342857D01*
X132714285Y-69385714D01*
X132757142Y-69471428D01*
X132757142Y-69685714D01*
X132714285Y-69771428D01*
X132671428Y-69814285D01*
X132585714Y-69857142D01*
X132371428Y-69857142D01*
X132285714Y-69814285D01*
X132242857Y-69771428D01*
X132342857Y-76692857D02*
X132385714Y-76650000D01*
X132471428Y-76607142D01*
X132685714Y-76607142D01*
X132771428Y-76650000D01*
X132814285Y-76692857D01*
X132857142Y-76778571D01*
X132857142Y-76864285D01*
X132814285Y-76992857D01*
X132300000Y-77507142D01*
X132857142Y-77507142D01*
X132178571Y-80007142D02*
X131664285Y-80007142D01*
X131921428Y-80007142D02*
X131921428Y-79107142D01*
X131835714Y-79235714D01*
X131750000Y-79321428D01*
X131664285Y-79364285D01*
X132992857Y-79107142D02*
X132564285Y-79107142D01*
X132521428Y-79535714D01*
X132564285Y-79492857D01*
X132650000Y-79450000D01*
X132864285Y-79450000D01*
X132950000Y-79492857D01*
X132992857Y-79535714D01*
X133035714Y-79621428D01*
X133035714Y-79835714D01*
X132992857Y-79921428D01*
X132950000Y-79964285D01*
X132864285Y-80007142D01*
X132650000Y-80007142D01*
X132564285Y-79964285D01*
X132521428Y-79921428D01*
X131421428Y-81700000D02*
X131335714Y-81657142D01*
X131207142Y-81657142D01*
X131078571Y-81700000D01*
X130992857Y-81785714D01*
X130950000Y-81871428D01*
X130907142Y-82042857D01*
X130907142Y-82171428D01*
X130950000Y-82342857D01*
X130992857Y-82428571D01*
X131078571Y-82514285D01*
X131207142Y-82557142D01*
X131292857Y-82557142D01*
X131421428Y-82514285D01*
X131464285Y-82471428D01*
X131464285Y-82171428D01*
X131292857Y-82171428D01*
X131850000Y-81957142D02*
X131850000Y-82557142D01*
X131850000Y-82042857D02*
X131892857Y-82000000D01*
X131978571Y-81957142D01*
X132107142Y-81957142D01*
X132192857Y-82000000D01*
X132235714Y-82085714D01*
X132235714Y-82557142D01*
X133050000Y-82557142D02*
X133050000Y-81657142D01*
X133050000Y-82514285D02*
X132964285Y-82557142D01*
X132792857Y-82557142D01*
X132707142Y-82514285D01*
X132664285Y-82471428D01*
X132621428Y-82385714D01*
X132621428Y-82128571D01*
X132664285Y-82042857D01*
X132707142Y-82000000D01*
X132792857Y-81957142D01*
X132964285Y-81957142D01*
X133050000Y-82000000D01*
X112778571Y-84207142D02*
X112350000Y-84207142D01*
X112307142Y-84635714D01*
X112350000Y-84592857D01*
X112435714Y-84550000D01*
X112650000Y-84550000D01*
X112735714Y-84592857D01*
X112778571Y-84635714D01*
X112821428Y-84721428D01*
X112821428Y-84935714D01*
X112778571Y-85021428D01*
X112735714Y-85064285D01*
X112650000Y-85107142D01*
X112435714Y-85107142D01*
X112350000Y-85064285D01*
X112307142Y-85021428D01*
X113078571Y-84207142D02*
X113378571Y-85107142D01*
X113678571Y-84207142D01*
X132078571Y-85107142D02*
X131564285Y-85107142D01*
X131821428Y-85107142D02*
X131821428Y-84207142D01*
X131735714Y-84335714D01*
X131650000Y-84421428D01*
X131564285Y-84464285D01*
X132635714Y-84207142D02*
X132721428Y-84207142D01*
X132807142Y-84250000D01*
X132850000Y-84292857D01*
X132892857Y-84378571D01*
X132935714Y-84550000D01*
X132935714Y-84764285D01*
X132892857Y-84935714D01*
X132850000Y-85021428D01*
X132807142Y-85064285D01*
X132721428Y-85107142D01*
X132635714Y-85107142D01*
X132550000Y-85064285D01*
X132507142Y-85021428D01*
X132464285Y-84935714D01*
X132421428Y-84764285D01*
X132421428Y-84550000D01*
X132464285Y-84378571D01*
X132507142Y-84292857D01*
X132550000Y-84250000D01*
X132635714Y-84207142D01*
X115971428Y-80400000D02*
X115885714Y-80357142D01*
X115757142Y-80357142D01*
X115628571Y-80400000D01*
X115542857Y-80485714D01*
X115500000Y-80571428D01*
X115457142Y-80742857D01*
X115457142Y-80871428D01*
X115500000Y-81042857D01*
X115542857Y-81128571D01*
X115628571Y-81214285D01*
X115757142Y-81257142D01*
X115842857Y-81257142D01*
X115971428Y-81214285D01*
X116014285Y-81171428D01*
X116014285Y-80871428D01*
X115842857Y-80871428D01*
X116400000Y-80657142D02*
X116400000Y-81257142D01*
X116400000Y-80742857D02*
X116442857Y-80700000D01*
X116528571Y-80657142D01*
X116657142Y-80657142D01*
X116742857Y-80700000D01*
X116785714Y-80785714D01*
X116785714Y-81257142D01*
X117600000Y-81257142D02*
X117600000Y-80357142D01*
X117600000Y-81214285D02*
X117514285Y-81257142D01*
X117342857Y-81257142D01*
X117257142Y-81214285D01*
X117214285Y-81171428D01*
X117171428Y-81085714D01*
X117171428Y-80828571D01*
X117214285Y-80742857D01*
X117257142Y-80700000D01*
X117342857Y-80657142D01*
X117514285Y-80657142D01*
X117600000Y-80700000D01*
X120428571Y-80407142D02*
X120985714Y-80407142D01*
X120685714Y-80750000D01*
X120814285Y-80750000D01*
X120900000Y-80792857D01*
X120942857Y-80835714D01*
X120985714Y-80921428D01*
X120985714Y-81135714D01*
X120942857Y-81221428D01*
X120900000Y-81264285D01*
X120814285Y-81307142D01*
X120557142Y-81307142D01*
X120471428Y-81264285D01*
X120428571Y-81221428D01*
X121285714Y-80707142D02*
X121500000Y-81307142D01*
X121714285Y-80707142D01*
X121971428Y-80407142D02*
X122528571Y-80407142D01*
X122228571Y-80750000D01*
X122357142Y-80750000D01*
X122442857Y-80792857D01*
X122485714Y-80835714D01*
X122528571Y-80921428D01*
X122528571Y-81135714D01*
X122485714Y-81221428D01*
X122442857Y-81264285D01*
X122357142Y-81307142D01*
X122100000Y-81307142D01*
X122014285Y-81264285D01*
X121971428Y-81221428D01*
D13*
%TO.C,C501*%
X169440000Y-129803733D02*
X169440000Y-130096267D01*
X170460000Y-129803733D02*
X170460000Y-130096267D01*
X140840000Y-129803733D02*
X140840000Y-130096267D01*
X141860000Y-129803733D02*
X141860000Y-130096267D01*
X112240000Y-129803733D02*
X112240000Y-130096267D01*
X113260000Y-129803733D02*
X113260000Y-130096267D01*
X169440000Y-87703733D02*
X169440000Y-87996267D01*
X170460000Y-87703733D02*
X170460000Y-87996267D01*
X140840000Y-87703733D02*
X140840000Y-87996267D01*
X141860000Y-87703733D02*
X141860000Y-87996267D01*
%TO.C,C103*%
X181540000Y-128438748D02*
X181540000Y-129861252D01*
X183360000Y-128438748D02*
X183360000Y-129861252D01*
X152940000Y-128438748D02*
X152940000Y-129861252D01*
X154760000Y-128438748D02*
X154760000Y-129861252D01*
X124340000Y-128438748D02*
X124340000Y-129861252D01*
X126160000Y-128438748D02*
X126160000Y-129861252D01*
X181540000Y-86338748D02*
X181540000Y-87761252D01*
X183360000Y-86338748D02*
X183360000Y-87761252D01*
X152940000Y-86338748D02*
X152940000Y-87761252D01*
X154760000Y-86338748D02*
X154760000Y-87761252D01*
%TO.C,R501*%
X186377500Y-129695276D02*
X186377500Y-130204724D01*
X187422500Y-129695276D02*
X187422500Y-130204724D01*
X157777500Y-129695276D02*
X157777500Y-130204724D01*
X158822500Y-129695276D02*
X158822500Y-130204724D01*
X129177500Y-129695276D02*
X129177500Y-130204724D01*
X130222500Y-129695276D02*
X130222500Y-130204724D01*
X186377500Y-87595276D02*
X186377500Y-88104724D01*
X187422500Y-87595276D02*
X187422500Y-88104724D01*
X157777500Y-87595276D02*
X157777500Y-88104724D01*
X158822500Y-87595276D02*
X158822500Y-88104724D01*
%TO.C,C101*%
X176640000Y-128438748D02*
X176640000Y-129861252D01*
X178460000Y-128438748D02*
X178460000Y-129861252D01*
X148040000Y-128438748D02*
X148040000Y-129861252D01*
X149860000Y-128438748D02*
X149860000Y-129861252D01*
X119440000Y-128438748D02*
X119440000Y-129861252D01*
X121260000Y-128438748D02*
X121260000Y-129861252D01*
X176640000Y-86338748D02*
X176640000Y-87761252D01*
X178460000Y-86338748D02*
X178460000Y-87761252D01*
X148040000Y-86338748D02*
X148040000Y-87761252D01*
X149860000Y-86338748D02*
X149860000Y-87761252D01*
%TO.C,R502*%
X172577500Y-129695276D02*
X172577500Y-130204724D01*
X173622500Y-129695276D02*
X173622500Y-130204724D01*
X143977500Y-129695276D02*
X143977500Y-130204724D01*
X145022500Y-129695276D02*
X145022500Y-130204724D01*
X115377500Y-129695276D02*
X115377500Y-130204724D01*
X116422500Y-129695276D02*
X116422500Y-130204724D01*
X172577500Y-87595276D02*
X172577500Y-88104724D01*
X173622500Y-87595276D02*
X173622500Y-88104724D01*
X143977500Y-87595276D02*
X143977500Y-88104724D01*
X145022500Y-87595276D02*
X145022500Y-88104724D01*
%TO.C,C104*%
X183990000Y-128438748D02*
X183990000Y-129861252D01*
X185810000Y-128438748D02*
X185810000Y-129861252D01*
X155390000Y-128438748D02*
X155390000Y-129861252D01*
X157210000Y-128438748D02*
X157210000Y-129861252D01*
X126790000Y-128438748D02*
X126790000Y-129861252D01*
X128610000Y-128438748D02*
X128610000Y-129861252D01*
X183990000Y-86338748D02*
X183990000Y-87761252D01*
X185810000Y-86338748D02*
X185810000Y-87761252D01*
X155390000Y-86338748D02*
X155390000Y-87761252D01*
X157210000Y-86338748D02*
X157210000Y-87761252D01*
%TO.C,R505*%
X189022500Y-130204724D02*
X189022500Y-129695276D01*
X187977500Y-130204724D02*
X187977500Y-129695276D01*
X160422500Y-130204724D02*
X160422500Y-129695276D01*
X159377500Y-130204724D02*
X159377500Y-129695276D01*
X131822500Y-130204724D02*
X131822500Y-129695276D01*
X130777500Y-130204724D02*
X130777500Y-129695276D01*
X189022500Y-88104724D02*
X189022500Y-87595276D01*
X187977500Y-88104724D02*
X187977500Y-87595276D01*
X160422500Y-88104724D02*
X160422500Y-87595276D01*
X159377500Y-88104724D02*
X159377500Y-87595276D01*
%TO.C,R507*%
X190415000Y-102522936D02*
X190415000Y-102977064D01*
X191885000Y-102522936D02*
X191885000Y-102977064D01*
X161815000Y-102522936D02*
X161815000Y-102977064D01*
X163285000Y-102522936D02*
X163285000Y-102977064D01*
X133215000Y-102522936D02*
X133215000Y-102977064D01*
X134685000Y-102522936D02*
X134685000Y-102977064D01*
X190415000Y-60422936D02*
X190415000Y-60877064D01*
X191885000Y-60422936D02*
X191885000Y-60877064D01*
X161815000Y-60422936D02*
X161815000Y-60877064D01*
X163285000Y-60422936D02*
X163285000Y-60877064D01*
%TO.C,C102*%
X174190000Y-128438748D02*
X174190000Y-129861252D01*
X176010000Y-128438748D02*
X176010000Y-129861252D01*
X145590000Y-128438748D02*
X145590000Y-129861252D01*
X147410000Y-128438748D02*
X147410000Y-129861252D01*
X116990000Y-128438748D02*
X116990000Y-129861252D01*
X118810000Y-128438748D02*
X118810000Y-129861252D01*
X174190000Y-86338748D02*
X174190000Y-87761252D01*
X176010000Y-86338748D02*
X176010000Y-87761252D01*
X145590000Y-86338748D02*
X145590000Y-87761252D01*
X147410000Y-86338748D02*
X147410000Y-87761252D01*
%TO.C,C502*%
X179090000Y-128438748D02*
X179090000Y-129861252D01*
X180910000Y-128438748D02*
X180910000Y-129861252D01*
X150490000Y-128438748D02*
X150490000Y-129861252D01*
X152310000Y-128438748D02*
X152310000Y-129861252D01*
X121890000Y-128438748D02*
X121890000Y-129861252D01*
X123710000Y-128438748D02*
X123710000Y-129861252D01*
X179090000Y-86338748D02*
X179090000Y-87761252D01*
X180910000Y-86338748D02*
X180910000Y-87761252D01*
X150490000Y-86338748D02*
X150490000Y-87761252D01*
X152310000Y-86338748D02*
X152310000Y-87761252D01*
%TO.C,J501*%
X187680000Y-123470000D02*
X187680000Y-124800000D01*
X186350000Y-123470000D02*
X187680000Y-123470000D01*
X185080000Y-123470000D02*
X185080000Y-126130000D01*
X185080000Y-126130000D02*
X172320000Y-126130000D01*
X185080000Y-123470000D02*
X172320000Y-123470000D01*
X172320000Y-123470000D02*
X172320000Y-126130000D01*
X159080000Y-123470000D02*
X159080000Y-124800000D01*
X157750000Y-123470000D02*
X159080000Y-123470000D01*
X156480000Y-123470000D02*
X156480000Y-126130000D01*
X156480000Y-126130000D02*
X143720000Y-126130000D01*
X156480000Y-123470000D02*
X143720000Y-123470000D01*
X143720000Y-123470000D02*
X143720000Y-126130000D01*
X130480000Y-123470000D02*
X130480000Y-124800000D01*
X129150000Y-123470000D02*
X130480000Y-123470000D01*
X127880000Y-123470000D02*
X127880000Y-126130000D01*
X127880000Y-126130000D02*
X115120000Y-126130000D01*
X127880000Y-123470000D02*
X115120000Y-123470000D01*
X115120000Y-123470000D02*
X115120000Y-126130000D01*
X187680000Y-81370000D02*
X187680000Y-82700000D01*
X186350000Y-81370000D02*
X187680000Y-81370000D01*
X185080000Y-81370000D02*
X185080000Y-84030000D01*
X185080000Y-84030000D02*
X172320000Y-84030000D01*
X185080000Y-81370000D02*
X172320000Y-81370000D01*
X172320000Y-81370000D02*
X172320000Y-84030000D01*
X159080000Y-81370000D02*
X159080000Y-82700000D01*
X157750000Y-81370000D02*
X159080000Y-81370000D01*
X156480000Y-81370000D02*
X156480000Y-84030000D01*
X156480000Y-84030000D02*
X143720000Y-84030000D01*
X156480000Y-81370000D02*
X143720000Y-81370000D01*
X143720000Y-81370000D02*
X143720000Y-84030000D01*
%TO.C,R506*%
X190622500Y-130204724D02*
X190622500Y-129695276D01*
X189577500Y-130204724D02*
X189577500Y-129695276D01*
X162022500Y-130204724D02*
X162022500Y-129695276D01*
X160977500Y-130204724D02*
X160977500Y-129695276D01*
X133422500Y-130204724D02*
X133422500Y-129695276D01*
X132377500Y-130204724D02*
X132377500Y-129695276D01*
X190622500Y-88104724D02*
X190622500Y-87595276D01*
X189577500Y-88104724D02*
X189577500Y-87595276D01*
X162022500Y-88104724D02*
X162022500Y-87595276D01*
X160977500Y-88104724D02*
X160977500Y-87595276D01*
%TO.C,SW501*%
X184690000Y-135600000D02*
X184690000Y-131900000D01*
X190810000Y-135600000D02*
X184690000Y-135600000D01*
X190810000Y-131900000D02*
X190810000Y-135600000D01*
X184690000Y-131900000D02*
X190810000Y-131900000D01*
X156090000Y-135600000D02*
X156090000Y-131900000D01*
X162210000Y-135600000D02*
X156090000Y-135600000D01*
X162210000Y-131900000D02*
X162210000Y-135600000D01*
X156090000Y-131900000D02*
X162210000Y-131900000D01*
X127490000Y-135600000D02*
X127490000Y-131900000D01*
X133610000Y-135600000D02*
X127490000Y-135600000D01*
X133610000Y-131900000D02*
X133610000Y-135600000D01*
X127490000Y-131900000D02*
X133610000Y-131900000D01*
X184690000Y-93500000D02*
X184690000Y-89800000D01*
X190810000Y-93500000D02*
X184690000Y-93500000D01*
X190810000Y-89800000D02*
X190810000Y-93500000D01*
X184690000Y-89800000D02*
X190810000Y-89800000D01*
X156090000Y-93500000D02*
X156090000Y-89800000D01*
X162210000Y-93500000D02*
X156090000Y-93500000D01*
X162210000Y-89800000D02*
X162210000Y-93500000D01*
X156090000Y-89800000D02*
X162210000Y-89800000D01*
%TO.C,D501*%
X170710000Y-99165000D02*
X168250000Y-99165000D01*
X170710000Y-100635000D02*
X170710000Y-99165000D01*
X168250000Y-100635000D02*
X170710000Y-100635000D01*
X142110000Y-99165000D02*
X139650000Y-99165000D01*
X142110000Y-100635000D02*
X142110000Y-99165000D01*
X139650000Y-100635000D02*
X142110000Y-100635000D01*
X113510000Y-99165000D02*
X111050000Y-99165000D01*
X113510000Y-100635000D02*
X113510000Y-99165000D01*
X111050000Y-100635000D02*
X113510000Y-100635000D01*
X170710000Y-57065000D02*
X168250000Y-57065000D01*
X170710000Y-58535000D02*
X170710000Y-57065000D01*
X168250000Y-58535000D02*
X170710000Y-58535000D01*
X142110000Y-57065000D02*
X139650000Y-57065000D01*
X142110000Y-58535000D02*
X142110000Y-57065000D01*
X139650000Y-58535000D02*
X142110000Y-58535000D01*
%TO.C,U501*%
X171880000Y-104750000D02*
X171270000Y-104750000D01*
X171880000Y-104750000D02*
X171880000Y-97130000D01*
X171880000Y-121370000D02*
X171880000Y-120750000D01*
X174000000Y-121370000D02*
X171880000Y-121370000D01*
X188120000Y-121370000D02*
X186000000Y-121370000D01*
X188120000Y-120750000D02*
X188120000Y-121370000D01*
X188120000Y-97130000D02*
X188120000Y-104750000D01*
X171880000Y-97130000D02*
X188120000Y-97130000D01*
X143280000Y-104750000D02*
X142670000Y-104750000D01*
X143280000Y-104750000D02*
X143280000Y-97130000D01*
X143280000Y-121370000D02*
X143280000Y-120750000D01*
X145400000Y-121370000D02*
X143280000Y-121370000D01*
X159520000Y-121370000D02*
X157400000Y-121370000D01*
X159520000Y-120750000D02*
X159520000Y-121370000D01*
X159520000Y-97130000D02*
X159520000Y-104750000D01*
X143280000Y-97130000D02*
X159520000Y-97130000D01*
X114680000Y-104750000D02*
X114070000Y-104750000D01*
X114680000Y-104750000D02*
X114680000Y-97130000D01*
X114680000Y-121370000D02*
X114680000Y-120750000D01*
X116800000Y-121370000D02*
X114680000Y-121370000D01*
X130920000Y-121370000D02*
X128800000Y-121370000D01*
X130920000Y-120750000D02*
X130920000Y-121370000D01*
X130920000Y-97130000D02*
X130920000Y-104750000D01*
X114680000Y-97130000D02*
X130920000Y-97130000D01*
X171880000Y-62650000D02*
X171270000Y-62650000D01*
X171880000Y-62650000D02*
X171880000Y-55030000D01*
X171880000Y-79270000D02*
X171880000Y-78650000D01*
X174000000Y-79270000D02*
X171880000Y-79270000D01*
X188120000Y-79270000D02*
X186000000Y-79270000D01*
X188120000Y-78650000D02*
X188120000Y-79270000D01*
X188120000Y-55030000D02*
X188120000Y-62650000D01*
X171880000Y-55030000D02*
X188120000Y-55030000D01*
X143280000Y-62650000D02*
X142670000Y-62650000D01*
X143280000Y-62650000D02*
X143280000Y-55030000D01*
X143280000Y-79270000D02*
X143280000Y-78650000D01*
X145400000Y-79270000D02*
X143280000Y-79270000D01*
X159520000Y-79270000D02*
X157400000Y-79270000D01*
X159520000Y-78650000D02*
X159520000Y-79270000D01*
X159520000Y-55030000D02*
X159520000Y-62650000D01*
X143280000Y-55030000D02*
X159520000Y-55030000D01*
%TO.C,D502*%
X189240000Y-100735000D02*
X191700000Y-100735000D01*
X189240000Y-99265000D02*
X189240000Y-100735000D01*
X191700000Y-99265000D02*
X189240000Y-99265000D01*
X160640000Y-100735000D02*
X163100000Y-100735000D01*
X160640000Y-99265000D02*
X160640000Y-100735000D01*
X163100000Y-99265000D02*
X160640000Y-99265000D01*
X132040000Y-100735000D02*
X134500000Y-100735000D01*
X132040000Y-99265000D02*
X132040000Y-100735000D01*
X134500000Y-99265000D02*
X132040000Y-99265000D01*
X189240000Y-58635000D02*
X191700000Y-58635000D01*
X189240000Y-57165000D02*
X189240000Y-58635000D01*
X191700000Y-57165000D02*
X189240000Y-57165000D01*
X160640000Y-58635000D02*
X163100000Y-58635000D01*
X160640000Y-57165000D02*
X160640000Y-58635000D01*
X163100000Y-57165000D02*
X160640000Y-57165000D01*
%TO.C,SW502*%
X175060000Y-131850000D02*
X175060000Y-135550000D01*
X168940000Y-131850000D02*
X175060000Y-131850000D01*
X168940000Y-135550000D02*
X168940000Y-131850000D01*
X175060000Y-135550000D02*
X168940000Y-135550000D01*
X146460000Y-131850000D02*
X146460000Y-135550000D01*
X140340000Y-131850000D02*
X146460000Y-131850000D01*
X140340000Y-135550000D02*
X140340000Y-131850000D01*
X146460000Y-135550000D02*
X140340000Y-135550000D01*
X117860000Y-131850000D02*
X117860000Y-135550000D01*
X111740000Y-131850000D02*
X117860000Y-131850000D01*
X111740000Y-135550000D02*
X111740000Y-131850000D01*
X117860000Y-135550000D02*
X111740000Y-135550000D01*
X175060000Y-89750000D02*
X175060000Y-93450000D01*
X168940000Y-89750000D02*
X175060000Y-89750000D01*
X168940000Y-93450000D02*
X168940000Y-89750000D01*
X175060000Y-93450000D02*
X168940000Y-93450000D01*
X146460000Y-89750000D02*
X146460000Y-93450000D01*
X140340000Y-89750000D02*
X146460000Y-89750000D01*
X140340000Y-93450000D02*
X140340000Y-89750000D01*
X146460000Y-93450000D02*
X140340000Y-93450000D01*
%TO.C,R504*%
X168315000Y-102422936D02*
X168315000Y-102877064D01*
X169785000Y-102422936D02*
X169785000Y-102877064D01*
X139715000Y-102422936D02*
X139715000Y-102877064D01*
X141185000Y-102422936D02*
X141185000Y-102877064D01*
X111115000Y-102422936D02*
X111115000Y-102877064D01*
X112585000Y-102422936D02*
X112585000Y-102877064D01*
X168315000Y-60322936D02*
X168315000Y-60777064D01*
X169785000Y-60322936D02*
X169785000Y-60777064D01*
X139715000Y-60322936D02*
X139715000Y-60777064D01*
X141185000Y-60322936D02*
X141185000Y-60777064D01*
%TO.C,R503*%
X172072500Y-130204724D02*
X172072500Y-129695276D01*
X171027500Y-130204724D02*
X171027500Y-129695276D01*
X143472500Y-130204724D02*
X143472500Y-129695276D01*
X142427500Y-130204724D02*
X142427500Y-129695276D01*
X114872500Y-130204724D02*
X114872500Y-129695276D01*
X113827500Y-130204724D02*
X113827500Y-129695276D01*
X172072500Y-88104724D02*
X172072500Y-87595276D01*
X171027500Y-88104724D02*
X171027500Y-87595276D01*
X143472500Y-88104724D02*
X143472500Y-87595276D01*
X142427500Y-88104724D02*
X142427500Y-87595276D01*
%TO.C,J501*%
X115120000Y-81370000D02*
X115120000Y-84030000D01*
X127880000Y-81370000D02*
X115120000Y-81370000D01*
X127880000Y-84030000D02*
X115120000Y-84030000D01*
X127880000Y-81370000D02*
X127880000Y-84030000D01*
X129150000Y-81370000D02*
X130480000Y-81370000D01*
X130480000Y-81370000D02*
X130480000Y-82700000D01*
%TO.C,C501*%
X113260000Y-87703733D02*
X113260000Y-87996267D01*
X112240000Y-87703733D02*
X112240000Y-87996267D01*
%TO.C,SW501*%
X127490000Y-89800000D02*
X133610000Y-89800000D01*
X133610000Y-89800000D02*
X133610000Y-93500000D01*
X133610000Y-93500000D02*
X127490000Y-93500000D01*
X127490000Y-93500000D02*
X127490000Y-89800000D01*
%TO.C,C502*%
X123710000Y-86338748D02*
X123710000Y-87761252D01*
X121890000Y-86338748D02*
X121890000Y-87761252D01*
%TO.C,D502*%
X134500000Y-57165000D02*
X132040000Y-57165000D01*
X132040000Y-57165000D02*
X132040000Y-58635000D01*
X132040000Y-58635000D02*
X134500000Y-58635000D01*
%TO.C,D501*%
X111050000Y-58535000D02*
X113510000Y-58535000D01*
X113510000Y-58535000D02*
X113510000Y-57065000D01*
X113510000Y-57065000D02*
X111050000Y-57065000D01*
%TO.C,C104*%
X128610000Y-86338748D02*
X128610000Y-87761252D01*
X126790000Y-86338748D02*
X126790000Y-87761252D01*
%TO.C,R501*%
X130222500Y-87595276D02*
X130222500Y-88104724D01*
X129177500Y-87595276D02*
X129177500Y-88104724D01*
%TO.C,C101*%
X121260000Y-86338748D02*
X121260000Y-87761252D01*
X119440000Y-86338748D02*
X119440000Y-87761252D01*
%TO.C,R504*%
X112585000Y-60322936D02*
X112585000Y-60777064D01*
X111115000Y-60322936D02*
X111115000Y-60777064D01*
%TO.C,R502*%
X116422500Y-87595276D02*
X116422500Y-88104724D01*
X115377500Y-87595276D02*
X115377500Y-88104724D01*
%TO.C,R503*%
X113827500Y-88104724D02*
X113827500Y-87595276D01*
X114872500Y-88104724D02*
X114872500Y-87595276D01*
%TO.C,C103*%
X126160000Y-86338748D02*
X126160000Y-87761252D01*
X124340000Y-86338748D02*
X124340000Y-87761252D01*
%TO.C,C102*%
X118810000Y-86338748D02*
X118810000Y-87761252D01*
X116990000Y-86338748D02*
X116990000Y-87761252D01*
%TO.C,U501*%
X114680000Y-55030000D02*
X130920000Y-55030000D01*
X130920000Y-55030000D02*
X130920000Y-62650000D01*
X130920000Y-78650000D02*
X130920000Y-79270000D01*
X130920000Y-79270000D02*
X128800000Y-79270000D01*
X116800000Y-79270000D02*
X114680000Y-79270000D01*
X114680000Y-79270000D02*
X114680000Y-78650000D01*
X114680000Y-62650000D02*
X114680000Y-55030000D01*
X114680000Y-62650000D02*
X114070000Y-62650000D01*
%TO.C,R507*%
X134685000Y-60422936D02*
X134685000Y-60877064D01*
X133215000Y-60422936D02*
X133215000Y-60877064D01*
%TO.C,SW502*%
X117860000Y-93450000D02*
X111740000Y-93450000D01*
X111740000Y-93450000D02*
X111740000Y-89750000D01*
X111740000Y-89750000D02*
X117860000Y-89750000D01*
X117860000Y-89750000D02*
X117860000Y-93450000D01*
%TO.C,R506*%
X132377500Y-88104724D02*
X132377500Y-87595276D01*
X133422500Y-88104724D02*
X133422500Y-87595276D01*
%TO.C,R505*%
X130777500Y-88104724D02*
X130777500Y-87595276D01*
X131822500Y-88104724D02*
X131822500Y-87595276D01*
%TO.C,J501*%
D12*
X171671428Y-126885714D02*
X171371428Y-126885714D01*
X171371428Y-127357142D02*
X171371428Y-126457142D01*
X171800000Y-126457142D01*
X172014285Y-126457142D02*
X172528571Y-126457142D01*
X172271428Y-127357142D02*
X172271428Y-126457142D01*
X172828571Y-127357142D02*
X172828571Y-126457142D01*
X173042857Y-126457142D01*
X173171428Y-126500000D01*
X173257142Y-126585714D01*
X173300000Y-126671428D01*
X173342857Y-126842857D01*
X173342857Y-126971428D01*
X173300000Y-127142857D01*
X173257142Y-127228571D01*
X173171428Y-127314285D01*
X173042857Y-127357142D01*
X172828571Y-127357142D01*
X173728571Y-127357142D02*
X173728571Y-126457142D01*
X143071428Y-126885714D02*
X142771428Y-126885714D01*
X142771428Y-127357142D02*
X142771428Y-126457142D01*
X143200000Y-126457142D01*
X143414285Y-126457142D02*
X143928571Y-126457142D01*
X143671428Y-127357142D02*
X143671428Y-126457142D01*
X144228571Y-127357142D02*
X144228571Y-126457142D01*
X144442857Y-126457142D01*
X144571428Y-126500000D01*
X144657142Y-126585714D01*
X144700000Y-126671428D01*
X144742857Y-126842857D01*
X144742857Y-126971428D01*
X144700000Y-127142857D01*
X144657142Y-127228571D01*
X144571428Y-127314285D01*
X144442857Y-127357142D01*
X144228571Y-127357142D01*
X145128571Y-127357142D02*
X145128571Y-126457142D01*
X114471428Y-126885714D02*
X114171428Y-126885714D01*
X114171428Y-127357142D02*
X114171428Y-126457142D01*
X114600000Y-126457142D01*
X114814285Y-126457142D02*
X115328571Y-126457142D01*
X115071428Y-127357142D02*
X115071428Y-126457142D01*
X115628571Y-127357142D02*
X115628571Y-126457142D01*
X115842857Y-126457142D01*
X115971428Y-126500000D01*
X116057142Y-126585714D01*
X116100000Y-126671428D01*
X116142857Y-126842857D01*
X116142857Y-126971428D01*
X116100000Y-127142857D01*
X116057142Y-127228571D01*
X115971428Y-127314285D01*
X115842857Y-127357142D01*
X115628571Y-127357142D01*
X116528571Y-127357142D02*
X116528571Y-126457142D01*
X171671428Y-84785714D02*
X171371428Y-84785714D01*
X171371428Y-85257142D02*
X171371428Y-84357142D01*
X171800000Y-84357142D01*
X172014285Y-84357142D02*
X172528571Y-84357142D01*
X172271428Y-85257142D02*
X172271428Y-84357142D01*
X172828571Y-85257142D02*
X172828571Y-84357142D01*
X173042857Y-84357142D01*
X173171428Y-84400000D01*
X173257142Y-84485714D01*
X173300000Y-84571428D01*
X173342857Y-84742857D01*
X173342857Y-84871428D01*
X173300000Y-85042857D01*
X173257142Y-85128571D01*
X173171428Y-85214285D01*
X173042857Y-85257142D01*
X172828571Y-85257142D01*
X173728571Y-85257142D02*
X173728571Y-84357142D01*
X143071428Y-84785714D02*
X142771428Y-84785714D01*
X142771428Y-85257142D02*
X142771428Y-84357142D01*
X143200000Y-84357142D01*
X143414285Y-84357142D02*
X143928571Y-84357142D01*
X143671428Y-85257142D02*
X143671428Y-84357142D01*
X144228571Y-85257142D02*
X144228571Y-84357142D01*
X144442857Y-84357142D01*
X144571428Y-84400000D01*
X144657142Y-84485714D01*
X144700000Y-84571428D01*
X144742857Y-84742857D01*
X144742857Y-84871428D01*
X144700000Y-85042857D01*
X144657142Y-85128571D01*
X144571428Y-85214285D01*
X144442857Y-85257142D01*
X144228571Y-85257142D01*
X145128571Y-85257142D02*
X145128571Y-84357142D01*
%TO.C,SW501*%
D14*
X181121428Y-135128571D02*
X180788095Y-135128571D01*
X180788095Y-135652380D02*
X180788095Y-134652380D01*
X181264285Y-134652380D01*
X181788095Y-135652380D02*
X181692857Y-135604761D01*
X181645238Y-135509523D01*
X181645238Y-134652380D01*
X182597619Y-135652380D02*
X182597619Y-135128571D01*
X182550000Y-135033333D01*
X182454761Y-134985714D01*
X182264285Y-134985714D01*
X182169047Y-135033333D01*
X182597619Y-135604761D02*
X182502380Y-135652380D01*
X182264285Y-135652380D01*
X182169047Y-135604761D01*
X182121428Y-135509523D01*
X182121428Y-135414285D01*
X182169047Y-135319047D01*
X182264285Y-135271428D01*
X182502380Y-135271428D01*
X182597619Y-135223809D01*
X183026190Y-135604761D02*
X183121428Y-135652380D01*
X183311904Y-135652380D01*
X183407142Y-135604761D01*
X183454761Y-135509523D01*
X183454761Y-135461904D01*
X183407142Y-135366666D01*
X183311904Y-135319047D01*
X183169047Y-135319047D01*
X183073809Y-135271428D01*
X183026190Y-135176190D01*
X183026190Y-135128571D01*
X183073809Y-135033333D01*
X183169047Y-134985714D01*
X183311904Y-134985714D01*
X183407142Y-135033333D01*
X183883333Y-135652380D02*
X183883333Y-134652380D01*
X184311904Y-135652380D02*
X184311904Y-135128571D01*
X184264285Y-135033333D01*
X184169047Y-134985714D01*
X184026190Y-134985714D01*
X183930952Y-135033333D01*
X183883333Y-135080952D01*
X152521428Y-135128571D02*
X152188095Y-135128571D01*
X152188095Y-135652380D02*
X152188095Y-134652380D01*
X152664285Y-134652380D01*
X153188095Y-135652380D02*
X153092857Y-135604761D01*
X153045238Y-135509523D01*
X153045238Y-134652380D01*
X153997619Y-135652380D02*
X153997619Y-135128571D01*
X153950000Y-135033333D01*
X153854761Y-134985714D01*
X153664285Y-134985714D01*
X153569047Y-135033333D01*
X153997619Y-135604761D02*
X153902380Y-135652380D01*
X153664285Y-135652380D01*
X153569047Y-135604761D01*
X153521428Y-135509523D01*
X153521428Y-135414285D01*
X153569047Y-135319047D01*
X153664285Y-135271428D01*
X153902380Y-135271428D01*
X153997619Y-135223809D01*
X154426190Y-135604761D02*
X154521428Y-135652380D01*
X154711904Y-135652380D01*
X154807142Y-135604761D01*
X154854761Y-135509523D01*
X154854761Y-135461904D01*
X154807142Y-135366666D01*
X154711904Y-135319047D01*
X154569047Y-135319047D01*
X154473809Y-135271428D01*
X154426190Y-135176190D01*
X154426190Y-135128571D01*
X154473809Y-135033333D01*
X154569047Y-134985714D01*
X154711904Y-134985714D01*
X154807142Y-135033333D01*
X155283333Y-135652380D02*
X155283333Y-134652380D01*
X155711904Y-135652380D02*
X155711904Y-135128571D01*
X155664285Y-135033333D01*
X155569047Y-134985714D01*
X155426190Y-134985714D01*
X155330952Y-135033333D01*
X155283333Y-135080952D01*
X123921428Y-135128571D02*
X123588095Y-135128571D01*
X123588095Y-135652380D02*
X123588095Y-134652380D01*
X124064285Y-134652380D01*
X124588095Y-135652380D02*
X124492857Y-135604761D01*
X124445238Y-135509523D01*
X124445238Y-134652380D01*
X125397619Y-135652380D02*
X125397619Y-135128571D01*
X125350000Y-135033333D01*
X125254761Y-134985714D01*
X125064285Y-134985714D01*
X124969047Y-135033333D01*
X125397619Y-135604761D02*
X125302380Y-135652380D01*
X125064285Y-135652380D01*
X124969047Y-135604761D01*
X124921428Y-135509523D01*
X124921428Y-135414285D01*
X124969047Y-135319047D01*
X125064285Y-135271428D01*
X125302380Y-135271428D01*
X125397619Y-135223809D01*
X125826190Y-135604761D02*
X125921428Y-135652380D01*
X126111904Y-135652380D01*
X126207142Y-135604761D01*
X126254761Y-135509523D01*
X126254761Y-135461904D01*
X126207142Y-135366666D01*
X126111904Y-135319047D01*
X125969047Y-135319047D01*
X125873809Y-135271428D01*
X125826190Y-135176190D01*
X125826190Y-135128571D01*
X125873809Y-135033333D01*
X125969047Y-134985714D01*
X126111904Y-134985714D01*
X126207142Y-135033333D01*
X126683333Y-135652380D02*
X126683333Y-134652380D01*
X127111904Y-135652380D02*
X127111904Y-135128571D01*
X127064285Y-135033333D01*
X126969047Y-134985714D01*
X126826190Y-134985714D01*
X126730952Y-135033333D01*
X126683333Y-135080952D01*
X181121428Y-93028571D02*
X180788095Y-93028571D01*
X180788095Y-93552380D02*
X180788095Y-92552380D01*
X181264285Y-92552380D01*
X181788095Y-93552380D02*
X181692857Y-93504761D01*
X181645238Y-93409523D01*
X181645238Y-92552380D01*
X182597619Y-93552380D02*
X182597619Y-93028571D01*
X182550000Y-92933333D01*
X182454761Y-92885714D01*
X182264285Y-92885714D01*
X182169047Y-92933333D01*
X182597619Y-93504761D02*
X182502380Y-93552380D01*
X182264285Y-93552380D01*
X182169047Y-93504761D01*
X182121428Y-93409523D01*
X182121428Y-93314285D01*
X182169047Y-93219047D01*
X182264285Y-93171428D01*
X182502380Y-93171428D01*
X182597619Y-93123809D01*
X183026190Y-93504761D02*
X183121428Y-93552380D01*
X183311904Y-93552380D01*
X183407142Y-93504761D01*
X183454761Y-93409523D01*
X183454761Y-93361904D01*
X183407142Y-93266666D01*
X183311904Y-93219047D01*
X183169047Y-93219047D01*
X183073809Y-93171428D01*
X183026190Y-93076190D01*
X183026190Y-93028571D01*
X183073809Y-92933333D01*
X183169047Y-92885714D01*
X183311904Y-92885714D01*
X183407142Y-92933333D01*
X183883333Y-93552380D02*
X183883333Y-92552380D01*
X184311904Y-93552380D02*
X184311904Y-93028571D01*
X184264285Y-92933333D01*
X184169047Y-92885714D01*
X184026190Y-92885714D01*
X183930952Y-92933333D01*
X183883333Y-92980952D01*
X152521428Y-93028571D02*
X152188095Y-93028571D01*
X152188095Y-93552380D02*
X152188095Y-92552380D01*
X152664285Y-92552380D01*
X153188095Y-93552380D02*
X153092857Y-93504761D01*
X153045238Y-93409523D01*
X153045238Y-92552380D01*
X153997619Y-93552380D02*
X153997619Y-93028571D01*
X153950000Y-92933333D01*
X153854761Y-92885714D01*
X153664285Y-92885714D01*
X153569047Y-92933333D01*
X153997619Y-93504761D02*
X153902380Y-93552380D01*
X153664285Y-93552380D01*
X153569047Y-93504761D01*
X153521428Y-93409523D01*
X153521428Y-93314285D01*
X153569047Y-93219047D01*
X153664285Y-93171428D01*
X153902380Y-93171428D01*
X153997619Y-93123809D01*
X154426190Y-93504761D02*
X154521428Y-93552380D01*
X154711904Y-93552380D01*
X154807142Y-93504761D01*
X154854761Y-93409523D01*
X154854761Y-93361904D01*
X154807142Y-93266666D01*
X154711904Y-93219047D01*
X154569047Y-93219047D01*
X154473809Y-93171428D01*
X154426190Y-93076190D01*
X154426190Y-93028571D01*
X154473809Y-92933333D01*
X154569047Y-92885714D01*
X154711904Y-92885714D01*
X154807142Y-92933333D01*
X155283333Y-93552380D02*
X155283333Y-92552380D01*
X155711904Y-93552380D02*
X155711904Y-93028571D01*
X155664285Y-92933333D01*
X155569047Y-92885714D01*
X155426190Y-92885714D01*
X155330952Y-92933333D01*
X155283333Y-92980952D01*
%TO.C,D501*%
X168288095Y-97902380D02*
X168859523Y-97902380D01*
X168573809Y-98902380D02*
X168573809Y-97902380D01*
X169097619Y-97902380D02*
X169764285Y-98902380D01*
X169764285Y-97902380D02*
X169097619Y-98902380D01*
X139688095Y-97902380D02*
X140259523Y-97902380D01*
X139973809Y-98902380D02*
X139973809Y-97902380D01*
X140497619Y-97902380D02*
X141164285Y-98902380D01*
X141164285Y-97902380D02*
X140497619Y-98902380D01*
X111088095Y-97902380D02*
X111659523Y-97902380D01*
X111373809Y-98902380D02*
X111373809Y-97902380D01*
X111897619Y-97902380D02*
X112564285Y-98902380D01*
X112564285Y-97902380D02*
X111897619Y-98902380D01*
X168288095Y-55802380D02*
X168859523Y-55802380D01*
X168573809Y-56802380D02*
X168573809Y-55802380D01*
X169097619Y-55802380D02*
X169764285Y-56802380D01*
X169764285Y-55802380D02*
X169097619Y-56802380D01*
X139688095Y-55802380D02*
X140259523Y-55802380D01*
X139973809Y-56802380D02*
X139973809Y-55802380D01*
X140497619Y-55802380D02*
X141164285Y-56802380D01*
X141164285Y-55802380D02*
X140497619Y-56802380D01*
%TO.C,D502*%
X190733333Y-98852380D02*
X190400000Y-98376190D01*
X190161904Y-98852380D02*
X190161904Y-97852380D01*
X190542857Y-97852380D01*
X190638095Y-97900000D01*
X190685714Y-97947619D01*
X190733333Y-98042857D01*
X190733333Y-98185714D01*
X190685714Y-98280952D01*
X190638095Y-98328571D01*
X190542857Y-98376190D01*
X190161904Y-98376190D01*
X191066666Y-97852380D02*
X191733333Y-98852380D01*
X191733333Y-97852380D02*
X191066666Y-98852380D01*
X162133333Y-98852380D02*
X161800000Y-98376190D01*
X161561904Y-98852380D02*
X161561904Y-97852380D01*
X161942857Y-97852380D01*
X162038095Y-97900000D01*
X162085714Y-97947619D01*
X162133333Y-98042857D01*
X162133333Y-98185714D01*
X162085714Y-98280952D01*
X162038095Y-98328571D01*
X161942857Y-98376190D01*
X161561904Y-98376190D01*
X162466666Y-97852380D02*
X163133333Y-98852380D01*
X163133333Y-97852380D02*
X162466666Y-98852380D01*
X133533333Y-98852380D02*
X133200000Y-98376190D01*
X132961904Y-98852380D02*
X132961904Y-97852380D01*
X133342857Y-97852380D01*
X133438095Y-97900000D01*
X133485714Y-97947619D01*
X133533333Y-98042857D01*
X133533333Y-98185714D01*
X133485714Y-98280952D01*
X133438095Y-98328571D01*
X133342857Y-98376190D01*
X132961904Y-98376190D01*
X133866666Y-97852380D02*
X134533333Y-98852380D01*
X134533333Y-97852380D02*
X133866666Y-98852380D01*
X190733333Y-56752380D02*
X190400000Y-56276190D01*
X190161904Y-56752380D02*
X190161904Y-55752380D01*
X190542857Y-55752380D01*
X190638095Y-55800000D01*
X190685714Y-55847619D01*
X190733333Y-55942857D01*
X190733333Y-56085714D01*
X190685714Y-56180952D01*
X190638095Y-56228571D01*
X190542857Y-56276190D01*
X190161904Y-56276190D01*
X191066666Y-55752380D02*
X191733333Y-56752380D01*
X191733333Y-55752380D02*
X191066666Y-56752380D01*
X162133333Y-56752380D02*
X161800000Y-56276190D01*
X161561904Y-56752380D02*
X161561904Y-55752380D01*
X161942857Y-55752380D01*
X162038095Y-55800000D01*
X162085714Y-55847619D01*
X162133333Y-55942857D01*
X162133333Y-56085714D01*
X162085714Y-56180952D01*
X162038095Y-56228571D01*
X161942857Y-56276190D01*
X161561904Y-56276190D01*
X162466666Y-55752380D02*
X163133333Y-56752380D01*
X163133333Y-55752380D02*
X162466666Y-56752380D01*
%TO.C,SW502*%
X175952380Y-135602380D02*
X175619047Y-135126190D01*
X175380952Y-135602380D02*
X175380952Y-134602380D01*
X175761904Y-134602380D01*
X175857142Y-134650000D01*
X175904761Y-134697619D01*
X175952380Y-134792857D01*
X175952380Y-134935714D01*
X175904761Y-135030952D01*
X175857142Y-135078571D01*
X175761904Y-135126190D01*
X175380952Y-135126190D01*
X176333333Y-135554761D02*
X176476190Y-135602380D01*
X176714285Y-135602380D01*
X176809523Y-135554761D01*
X176857142Y-135507142D01*
X176904761Y-135411904D01*
X176904761Y-135316666D01*
X176857142Y-135221428D01*
X176809523Y-135173809D01*
X176714285Y-135126190D01*
X176523809Y-135078571D01*
X176428571Y-135030952D01*
X176380952Y-134983333D01*
X176333333Y-134888095D01*
X176333333Y-134792857D01*
X176380952Y-134697619D01*
X176428571Y-134650000D01*
X176523809Y-134602380D01*
X176761904Y-134602380D01*
X176904761Y-134650000D01*
X177190476Y-134602380D02*
X177761904Y-134602380D01*
X177476190Y-135602380D02*
X177476190Y-134602380D01*
X147352380Y-135602380D02*
X147019047Y-135126190D01*
X146780952Y-135602380D02*
X146780952Y-134602380D01*
X147161904Y-134602380D01*
X147257142Y-134650000D01*
X147304761Y-134697619D01*
X147352380Y-134792857D01*
X147352380Y-134935714D01*
X147304761Y-135030952D01*
X147257142Y-135078571D01*
X147161904Y-135126190D01*
X146780952Y-135126190D01*
X147733333Y-135554761D02*
X147876190Y-135602380D01*
X148114285Y-135602380D01*
X148209523Y-135554761D01*
X148257142Y-135507142D01*
X148304761Y-135411904D01*
X148304761Y-135316666D01*
X148257142Y-135221428D01*
X148209523Y-135173809D01*
X148114285Y-135126190D01*
X147923809Y-135078571D01*
X147828571Y-135030952D01*
X147780952Y-134983333D01*
X147733333Y-134888095D01*
X147733333Y-134792857D01*
X147780952Y-134697619D01*
X147828571Y-134650000D01*
X147923809Y-134602380D01*
X148161904Y-134602380D01*
X148304761Y-134650000D01*
X148590476Y-134602380D02*
X149161904Y-134602380D01*
X148876190Y-135602380D02*
X148876190Y-134602380D01*
X118752380Y-135602380D02*
X118419047Y-135126190D01*
X118180952Y-135602380D02*
X118180952Y-134602380D01*
X118561904Y-134602380D01*
X118657142Y-134650000D01*
X118704761Y-134697619D01*
X118752380Y-134792857D01*
X118752380Y-134935714D01*
X118704761Y-135030952D01*
X118657142Y-135078571D01*
X118561904Y-135126190D01*
X118180952Y-135126190D01*
X119133333Y-135554761D02*
X119276190Y-135602380D01*
X119514285Y-135602380D01*
X119609523Y-135554761D01*
X119657142Y-135507142D01*
X119704761Y-135411904D01*
X119704761Y-135316666D01*
X119657142Y-135221428D01*
X119609523Y-135173809D01*
X119514285Y-135126190D01*
X119323809Y-135078571D01*
X119228571Y-135030952D01*
X119180952Y-134983333D01*
X119133333Y-134888095D01*
X119133333Y-134792857D01*
X119180952Y-134697619D01*
X119228571Y-134650000D01*
X119323809Y-134602380D01*
X119561904Y-134602380D01*
X119704761Y-134650000D01*
X119990476Y-134602380D02*
X120561904Y-134602380D01*
X120276190Y-135602380D02*
X120276190Y-134602380D01*
X175952380Y-93502380D02*
X175619047Y-93026190D01*
X175380952Y-93502380D02*
X175380952Y-92502380D01*
X175761904Y-92502380D01*
X175857142Y-92550000D01*
X175904761Y-92597619D01*
X175952380Y-92692857D01*
X175952380Y-92835714D01*
X175904761Y-92930952D01*
X175857142Y-92978571D01*
X175761904Y-93026190D01*
X175380952Y-93026190D01*
X176333333Y-93454761D02*
X176476190Y-93502380D01*
X176714285Y-93502380D01*
X176809523Y-93454761D01*
X176857142Y-93407142D01*
X176904761Y-93311904D01*
X176904761Y-93216666D01*
X176857142Y-93121428D01*
X176809523Y-93073809D01*
X176714285Y-93026190D01*
X176523809Y-92978571D01*
X176428571Y-92930952D01*
X176380952Y-92883333D01*
X176333333Y-92788095D01*
X176333333Y-92692857D01*
X176380952Y-92597619D01*
X176428571Y-92550000D01*
X176523809Y-92502380D01*
X176761904Y-92502380D01*
X176904761Y-92550000D01*
X177190476Y-92502380D02*
X177761904Y-92502380D01*
X177476190Y-93502380D02*
X177476190Y-92502380D01*
X147352380Y-93502380D02*
X147019047Y-93026190D01*
X146780952Y-93502380D02*
X146780952Y-92502380D01*
X147161904Y-92502380D01*
X147257142Y-92550000D01*
X147304761Y-92597619D01*
X147352380Y-92692857D01*
X147352380Y-92835714D01*
X147304761Y-92930952D01*
X147257142Y-92978571D01*
X147161904Y-93026190D01*
X146780952Y-93026190D01*
X147733333Y-93454761D02*
X147876190Y-93502380D01*
X148114285Y-93502380D01*
X148209523Y-93454761D01*
X148257142Y-93407142D01*
X148304761Y-93311904D01*
X148304761Y-93216666D01*
X148257142Y-93121428D01*
X148209523Y-93073809D01*
X148114285Y-93026190D01*
X147923809Y-92978571D01*
X147828571Y-92930952D01*
X147780952Y-92883333D01*
X147733333Y-92788095D01*
X147733333Y-92692857D01*
X147780952Y-92597619D01*
X147828571Y-92550000D01*
X147923809Y-92502380D01*
X148161904Y-92502380D01*
X148304761Y-92550000D01*
X148590476Y-92502380D02*
X149161904Y-92502380D01*
X148876190Y-93502380D02*
X148876190Y-92502380D01*
%TO.C,J501*%
D12*
X114471428Y-84785714D02*
X114171428Y-84785714D01*
X114171428Y-85257142D02*
X114171428Y-84357142D01*
X114600000Y-84357142D01*
X114814285Y-84357142D02*
X115328571Y-84357142D01*
X115071428Y-85257142D02*
X115071428Y-84357142D01*
X115628571Y-85257142D02*
X115628571Y-84357142D01*
X115842857Y-84357142D01*
X115971428Y-84400000D01*
X116057142Y-84485714D01*
X116100000Y-84571428D01*
X116142857Y-84742857D01*
X116142857Y-84871428D01*
X116100000Y-85042857D01*
X116057142Y-85128571D01*
X115971428Y-85214285D01*
X115842857Y-85257142D01*
X115628571Y-85257142D01*
X116528571Y-85257142D02*
X116528571Y-84357142D01*
%TO.C,SW501*%
D14*
X123921428Y-93028571D02*
X123588095Y-93028571D01*
X123588095Y-93552380D02*
X123588095Y-92552380D01*
X124064285Y-92552380D01*
X124588095Y-93552380D02*
X124492857Y-93504761D01*
X124445238Y-93409523D01*
X124445238Y-92552380D01*
X125397619Y-93552380D02*
X125397619Y-93028571D01*
X125350000Y-92933333D01*
X125254761Y-92885714D01*
X125064285Y-92885714D01*
X124969047Y-92933333D01*
X125397619Y-93504761D02*
X125302380Y-93552380D01*
X125064285Y-93552380D01*
X124969047Y-93504761D01*
X124921428Y-93409523D01*
X124921428Y-93314285D01*
X124969047Y-93219047D01*
X125064285Y-93171428D01*
X125302380Y-93171428D01*
X125397619Y-93123809D01*
X125826190Y-93504761D02*
X125921428Y-93552380D01*
X126111904Y-93552380D01*
X126207142Y-93504761D01*
X126254761Y-93409523D01*
X126254761Y-93361904D01*
X126207142Y-93266666D01*
X126111904Y-93219047D01*
X125969047Y-93219047D01*
X125873809Y-93171428D01*
X125826190Y-93076190D01*
X125826190Y-93028571D01*
X125873809Y-92933333D01*
X125969047Y-92885714D01*
X126111904Y-92885714D01*
X126207142Y-92933333D01*
X126683333Y-93552380D02*
X126683333Y-92552380D01*
X127111904Y-93552380D02*
X127111904Y-93028571D01*
X127064285Y-92933333D01*
X126969047Y-92885714D01*
X126826190Y-92885714D01*
X126730952Y-92933333D01*
X126683333Y-92980952D01*
%TO.C,D502*%
X133533333Y-56752380D02*
X133200000Y-56276190D01*
X132961904Y-56752380D02*
X132961904Y-55752380D01*
X133342857Y-55752380D01*
X133438095Y-55800000D01*
X133485714Y-55847619D01*
X133533333Y-55942857D01*
X133533333Y-56085714D01*
X133485714Y-56180952D01*
X133438095Y-56228571D01*
X133342857Y-56276190D01*
X132961904Y-56276190D01*
X133866666Y-55752380D02*
X134533333Y-56752380D01*
X134533333Y-55752380D02*
X133866666Y-56752380D01*
%TO.C,D501*%
X111088095Y-55802380D02*
X111659523Y-55802380D01*
X111373809Y-56802380D02*
X111373809Y-55802380D01*
X111897619Y-55802380D02*
X112564285Y-56802380D01*
X112564285Y-55802380D02*
X111897619Y-56802380D01*
%TO.C,SW502*%
X118752380Y-93502380D02*
X118419047Y-93026190D01*
X118180952Y-93502380D02*
X118180952Y-92502380D01*
X118561904Y-92502380D01*
X118657142Y-92550000D01*
X118704761Y-92597619D01*
X118752380Y-92692857D01*
X118752380Y-92835714D01*
X118704761Y-92930952D01*
X118657142Y-92978571D01*
X118561904Y-93026190D01*
X118180952Y-93026190D01*
X119133333Y-93454761D02*
X119276190Y-93502380D01*
X119514285Y-93502380D01*
X119609523Y-93454761D01*
X119657142Y-93407142D01*
X119704761Y-93311904D01*
X119704761Y-93216666D01*
X119657142Y-93121428D01*
X119609523Y-93073809D01*
X119514285Y-93026190D01*
X119323809Y-92978571D01*
X119228571Y-92930952D01*
X119180952Y-92883333D01*
X119133333Y-92788095D01*
X119133333Y-92692857D01*
X119180952Y-92597619D01*
X119228571Y-92550000D01*
X119323809Y-92502380D01*
X119561904Y-92502380D01*
X119704761Y-92550000D01*
X119990476Y-92502380D02*
X120561904Y-92502380D01*
X120276190Y-93502380D02*
X120276190Y-92502380D01*
%TD*%
M02*
