%TF.GenerationSoftware,KiCad,Pcbnew,5.1.12-84ad8e8a86~92~ubuntu20.04.1*%
%TF.CreationDate,2022-01-07T22:28:58+02:00*%
%TF.ProjectId,ESP8266-Breakout-panel,45535038-3236-4362-9d42-7265616b6f75,rev?*%
%TF.SameCoordinates,Original*%
%TF.FileFunction,Paste,Top*%
%TF.FilePolarity,Positive*%
%FSLAX46Y46*%
G04 Gerber Fmt 4.6, Leading zero omitted, Abs format (unit mm)*
G04 Created by KiCad (PCBNEW 5.1.12-84ad8e8a86~92~ubuntu20.04.1) date 2022-01-07 22:28:58*
%MOMM*%
%LPD*%
G01*
G04 APERTURE LIST*
%ADD10R,2.500000X1.000000*%
%ADD11R,1.000000X1.800000*%
%ADD12R,1.500000X1.500000*%
G04 APERTURE END LIST*
%TO.C,C104*%
G36*
G01*
X179169998Y-131375000D02*
X180470002Y-131375000D01*
G75*
G02*
X180720000Y-131624998I0J-249998D01*
G01*
X180720000Y-132450002D01*
G75*
G02*
X180470002Y-132700000I-249998J0D01*
G01*
X179169998Y-132700000D01*
G75*
G02*
X178920000Y-132450002I0J249998D01*
G01*
X178920000Y-131624998D01*
G75*
G02*
X179169998Y-131375000I249998J0D01*
G01*
G37*
G36*
G01*
X179169998Y-128250000D02*
X180470002Y-128250000D01*
G75*
G02*
X180720000Y-128499998I0J-249998D01*
G01*
X180720000Y-129325002D01*
G75*
G02*
X180470002Y-129575000I-249998J0D01*
G01*
X179169998Y-129575000D01*
G75*
G02*
X178920000Y-129325002I0J249998D01*
G01*
X178920000Y-128499998D01*
G75*
G02*
X179169998Y-128250000I249998J0D01*
G01*
G37*
%TD*%
%TO.C,C104*%
G36*
G01*
X150569998Y-131375000D02*
X151870002Y-131375000D01*
G75*
G02*
X152120000Y-131624998I0J-249998D01*
G01*
X152120000Y-132450002D01*
G75*
G02*
X151870002Y-132700000I-249998J0D01*
G01*
X150569998Y-132700000D01*
G75*
G02*
X150320000Y-132450002I0J249998D01*
G01*
X150320000Y-131624998D01*
G75*
G02*
X150569998Y-131375000I249998J0D01*
G01*
G37*
G36*
G01*
X150569998Y-128250000D02*
X151870002Y-128250000D01*
G75*
G02*
X152120000Y-128499998I0J-249998D01*
G01*
X152120000Y-129325002D01*
G75*
G02*
X151870002Y-129575000I-249998J0D01*
G01*
X150569998Y-129575000D01*
G75*
G02*
X150320000Y-129325002I0J249998D01*
G01*
X150320000Y-128499998D01*
G75*
G02*
X150569998Y-128250000I249998J0D01*
G01*
G37*
%TD*%
%TO.C,C104*%
G36*
G01*
X121969998Y-131375000D02*
X123270002Y-131375000D01*
G75*
G02*
X123520000Y-131624998I0J-249998D01*
G01*
X123520000Y-132450002D01*
G75*
G02*
X123270002Y-132700000I-249998J0D01*
G01*
X121969998Y-132700000D01*
G75*
G02*
X121720000Y-132450002I0J249998D01*
G01*
X121720000Y-131624998D01*
G75*
G02*
X121969998Y-131375000I249998J0D01*
G01*
G37*
G36*
G01*
X121969998Y-128250000D02*
X123270002Y-128250000D01*
G75*
G02*
X123520000Y-128499998I0J-249998D01*
G01*
X123520000Y-129325002D01*
G75*
G02*
X123270002Y-129575000I-249998J0D01*
G01*
X121969998Y-129575000D01*
G75*
G02*
X121720000Y-129325002I0J249998D01*
G01*
X121720000Y-128499998D01*
G75*
G02*
X121969998Y-128250000I249998J0D01*
G01*
G37*
%TD*%
%TO.C,C104*%
G36*
G01*
X179169998Y-89275000D02*
X180470002Y-89275000D01*
G75*
G02*
X180720000Y-89524998I0J-249998D01*
G01*
X180720000Y-90350002D01*
G75*
G02*
X180470002Y-90600000I-249998J0D01*
G01*
X179169998Y-90600000D01*
G75*
G02*
X178920000Y-90350002I0J249998D01*
G01*
X178920000Y-89524998D01*
G75*
G02*
X179169998Y-89275000I249998J0D01*
G01*
G37*
G36*
G01*
X179169998Y-86150000D02*
X180470002Y-86150000D01*
G75*
G02*
X180720000Y-86399998I0J-249998D01*
G01*
X180720000Y-87225002D01*
G75*
G02*
X180470002Y-87475000I-249998J0D01*
G01*
X179169998Y-87475000D01*
G75*
G02*
X178920000Y-87225002I0J249998D01*
G01*
X178920000Y-86399998D01*
G75*
G02*
X179169998Y-86150000I249998J0D01*
G01*
G37*
%TD*%
%TO.C,C104*%
G36*
G01*
X150569998Y-89275000D02*
X151870002Y-89275000D01*
G75*
G02*
X152120000Y-89524998I0J-249998D01*
G01*
X152120000Y-90350002D01*
G75*
G02*
X151870002Y-90600000I-249998J0D01*
G01*
X150569998Y-90600000D01*
G75*
G02*
X150320000Y-90350002I0J249998D01*
G01*
X150320000Y-89524998D01*
G75*
G02*
X150569998Y-89275000I249998J0D01*
G01*
G37*
G36*
G01*
X150569998Y-86150000D02*
X151870002Y-86150000D01*
G75*
G02*
X152120000Y-86399998I0J-249998D01*
G01*
X152120000Y-87225002D01*
G75*
G02*
X151870002Y-87475000I-249998J0D01*
G01*
X150569998Y-87475000D01*
G75*
G02*
X150320000Y-87225002I0J249998D01*
G01*
X150320000Y-86399998D01*
G75*
G02*
X150569998Y-86150000I249998J0D01*
G01*
G37*
%TD*%
%TO.C,R504*%
G36*
G01*
X163519999Y-104375000D02*
X164420001Y-104375000D01*
G75*
G02*
X164670000Y-104624999I0J-249999D01*
G01*
X164670000Y-105325001D01*
G75*
G02*
X164420001Y-105575000I-249999J0D01*
G01*
X163519999Y-105575000D01*
G75*
G02*
X163270000Y-105325001I0J249999D01*
G01*
X163270000Y-104624999D01*
G75*
G02*
X163519999Y-104375000I249999J0D01*
G01*
G37*
G36*
G01*
X163519999Y-102375000D02*
X164420001Y-102375000D01*
G75*
G02*
X164670000Y-102624999I0J-249999D01*
G01*
X164670000Y-103325001D01*
G75*
G02*
X164420001Y-103575000I-249999J0D01*
G01*
X163519999Y-103575000D01*
G75*
G02*
X163270000Y-103325001I0J249999D01*
G01*
X163270000Y-102624999D01*
G75*
G02*
X163519999Y-102375000I249999J0D01*
G01*
G37*
%TD*%
%TO.C,R504*%
G36*
G01*
X134919999Y-104375000D02*
X135820001Y-104375000D01*
G75*
G02*
X136070000Y-104624999I0J-249999D01*
G01*
X136070000Y-105325001D01*
G75*
G02*
X135820001Y-105575000I-249999J0D01*
G01*
X134919999Y-105575000D01*
G75*
G02*
X134670000Y-105325001I0J249999D01*
G01*
X134670000Y-104624999D01*
G75*
G02*
X134919999Y-104375000I249999J0D01*
G01*
G37*
G36*
G01*
X134919999Y-102375000D02*
X135820001Y-102375000D01*
G75*
G02*
X136070000Y-102624999I0J-249999D01*
G01*
X136070000Y-103325001D01*
G75*
G02*
X135820001Y-103575000I-249999J0D01*
G01*
X134919999Y-103575000D01*
G75*
G02*
X134670000Y-103325001I0J249999D01*
G01*
X134670000Y-102624999D01*
G75*
G02*
X134919999Y-102375000I249999J0D01*
G01*
G37*
%TD*%
%TO.C,R504*%
G36*
G01*
X106319999Y-104375000D02*
X107220001Y-104375000D01*
G75*
G02*
X107470000Y-104624999I0J-249999D01*
G01*
X107470000Y-105325001D01*
G75*
G02*
X107220001Y-105575000I-249999J0D01*
G01*
X106319999Y-105575000D01*
G75*
G02*
X106070000Y-105325001I0J249999D01*
G01*
X106070000Y-104624999D01*
G75*
G02*
X106319999Y-104375000I249999J0D01*
G01*
G37*
G36*
G01*
X106319999Y-102375000D02*
X107220001Y-102375000D01*
G75*
G02*
X107470000Y-102624999I0J-249999D01*
G01*
X107470000Y-103325001D01*
G75*
G02*
X107220001Y-103575000I-249999J0D01*
G01*
X106319999Y-103575000D01*
G75*
G02*
X106070000Y-103325001I0J249999D01*
G01*
X106070000Y-102624999D01*
G75*
G02*
X106319999Y-102375000I249999J0D01*
G01*
G37*
%TD*%
%TO.C,R504*%
G36*
G01*
X163519999Y-62275000D02*
X164420001Y-62275000D01*
G75*
G02*
X164670000Y-62524999I0J-249999D01*
G01*
X164670000Y-63225001D01*
G75*
G02*
X164420001Y-63475000I-249999J0D01*
G01*
X163519999Y-63475000D01*
G75*
G02*
X163270000Y-63225001I0J249999D01*
G01*
X163270000Y-62524999D01*
G75*
G02*
X163519999Y-62275000I249999J0D01*
G01*
G37*
G36*
G01*
X163519999Y-60275000D02*
X164420001Y-60275000D01*
G75*
G02*
X164670000Y-60524999I0J-249999D01*
G01*
X164670000Y-61225001D01*
G75*
G02*
X164420001Y-61475000I-249999J0D01*
G01*
X163519999Y-61475000D01*
G75*
G02*
X163270000Y-61225001I0J249999D01*
G01*
X163270000Y-60524999D01*
G75*
G02*
X163519999Y-60275000I249999J0D01*
G01*
G37*
%TD*%
%TO.C,R504*%
G36*
G01*
X134919999Y-62275000D02*
X135820001Y-62275000D01*
G75*
G02*
X136070000Y-62524999I0J-249999D01*
G01*
X136070000Y-63225001D01*
G75*
G02*
X135820001Y-63475000I-249999J0D01*
G01*
X134919999Y-63475000D01*
G75*
G02*
X134670000Y-63225001I0J249999D01*
G01*
X134670000Y-62524999D01*
G75*
G02*
X134919999Y-62275000I249999J0D01*
G01*
G37*
G36*
G01*
X134919999Y-60275000D02*
X135820001Y-60275000D01*
G75*
G02*
X136070000Y-60524999I0J-249999D01*
G01*
X136070000Y-61225001D01*
G75*
G02*
X135820001Y-61475000I-249999J0D01*
G01*
X134919999Y-61475000D01*
G75*
G02*
X134670000Y-61225001I0J249999D01*
G01*
X134670000Y-60524999D01*
G75*
G02*
X134919999Y-60275000I249999J0D01*
G01*
G37*
%TD*%
D10*
%TO.C,U501*%
X182520000Y-107075000D03*
X182520000Y-109075000D03*
X182520000Y-111075000D03*
X182520000Y-113075000D03*
X182520000Y-115075000D03*
X182520000Y-117075000D03*
X182520000Y-119075000D03*
X182520000Y-121075000D03*
D11*
X179920000Y-122575000D03*
X177920000Y-122575000D03*
X175920000Y-122575000D03*
X173920000Y-122575000D03*
X171920000Y-122575000D03*
X169920000Y-122575000D03*
D10*
X167320000Y-121075000D03*
X167320000Y-119075000D03*
X167320000Y-117075000D03*
X167320000Y-115075000D03*
X167320000Y-113075000D03*
X167320000Y-111075000D03*
X167320000Y-109075000D03*
X167320000Y-107075000D03*
%TD*%
%TO.C,U501*%
X153920000Y-107075000D03*
X153920000Y-109075000D03*
X153920000Y-111075000D03*
X153920000Y-113075000D03*
X153920000Y-115075000D03*
X153920000Y-117075000D03*
X153920000Y-119075000D03*
X153920000Y-121075000D03*
D11*
X151320000Y-122575000D03*
X149320000Y-122575000D03*
X147320000Y-122575000D03*
X145320000Y-122575000D03*
X143320000Y-122575000D03*
X141320000Y-122575000D03*
D10*
X138720000Y-121075000D03*
X138720000Y-119075000D03*
X138720000Y-117075000D03*
X138720000Y-115075000D03*
X138720000Y-113075000D03*
X138720000Y-111075000D03*
X138720000Y-109075000D03*
X138720000Y-107075000D03*
%TD*%
%TO.C,U501*%
X125320000Y-107075000D03*
X125320000Y-109075000D03*
X125320000Y-111075000D03*
X125320000Y-113075000D03*
X125320000Y-115075000D03*
X125320000Y-117075000D03*
X125320000Y-119075000D03*
X125320000Y-121075000D03*
D11*
X122720000Y-122575000D03*
X120720000Y-122575000D03*
X118720000Y-122575000D03*
X116720000Y-122575000D03*
X114720000Y-122575000D03*
X112720000Y-122575000D03*
D10*
X110120000Y-121075000D03*
X110120000Y-119075000D03*
X110120000Y-117075000D03*
X110120000Y-115075000D03*
X110120000Y-113075000D03*
X110120000Y-111075000D03*
X110120000Y-109075000D03*
X110120000Y-107075000D03*
%TD*%
%TO.C,U501*%
X182520000Y-64975000D03*
X182520000Y-66975000D03*
X182520000Y-68975000D03*
X182520000Y-70975000D03*
X182520000Y-72975000D03*
X182520000Y-74975000D03*
X182520000Y-76975000D03*
X182520000Y-78975000D03*
D11*
X179920000Y-80475000D03*
X177920000Y-80475000D03*
X175920000Y-80475000D03*
X173920000Y-80475000D03*
X171920000Y-80475000D03*
X169920000Y-80475000D03*
D10*
X167320000Y-78975000D03*
X167320000Y-76975000D03*
X167320000Y-74975000D03*
X167320000Y-72975000D03*
X167320000Y-70975000D03*
X167320000Y-68975000D03*
X167320000Y-66975000D03*
X167320000Y-64975000D03*
%TD*%
%TO.C,U501*%
X153920000Y-64975000D03*
X153920000Y-66975000D03*
X153920000Y-68975000D03*
X153920000Y-70975000D03*
X153920000Y-72975000D03*
X153920000Y-74975000D03*
X153920000Y-76975000D03*
X153920000Y-78975000D03*
D11*
X151320000Y-80475000D03*
X149320000Y-80475000D03*
X147320000Y-80475000D03*
X145320000Y-80475000D03*
X143320000Y-80475000D03*
X141320000Y-80475000D03*
D10*
X138720000Y-78975000D03*
X138720000Y-76975000D03*
X138720000Y-74975000D03*
X138720000Y-72975000D03*
X138720000Y-70975000D03*
X138720000Y-68975000D03*
X138720000Y-66975000D03*
X138720000Y-64975000D03*
%TD*%
%TO.C,R507*%
G36*
G01*
X185619999Y-104475000D02*
X186520001Y-104475000D01*
G75*
G02*
X186770000Y-104724999I0J-249999D01*
G01*
X186770000Y-105425001D01*
G75*
G02*
X186520001Y-105675000I-249999J0D01*
G01*
X185619999Y-105675000D01*
G75*
G02*
X185370000Y-105425001I0J249999D01*
G01*
X185370000Y-104724999D01*
G75*
G02*
X185619999Y-104475000I249999J0D01*
G01*
G37*
G36*
G01*
X185619999Y-102475000D02*
X186520001Y-102475000D01*
G75*
G02*
X186770000Y-102724999I0J-249999D01*
G01*
X186770000Y-103425001D01*
G75*
G02*
X186520001Y-103675000I-249999J0D01*
G01*
X185619999Y-103675000D01*
G75*
G02*
X185370000Y-103425001I0J249999D01*
G01*
X185370000Y-102724999D01*
G75*
G02*
X185619999Y-102475000I249999J0D01*
G01*
G37*
%TD*%
%TO.C,R507*%
G36*
G01*
X157019999Y-104475000D02*
X157920001Y-104475000D01*
G75*
G02*
X158170000Y-104724999I0J-249999D01*
G01*
X158170000Y-105425001D01*
G75*
G02*
X157920001Y-105675000I-249999J0D01*
G01*
X157019999Y-105675000D01*
G75*
G02*
X156770000Y-105425001I0J249999D01*
G01*
X156770000Y-104724999D01*
G75*
G02*
X157019999Y-104475000I249999J0D01*
G01*
G37*
G36*
G01*
X157019999Y-102475000D02*
X157920001Y-102475000D01*
G75*
G02*
X158170000Y-102724999I0J-249999D01*
G01*
X158170000Y-103425001D01*
G75*
G02*
X157920001Y-103675000I-249999J0D01*
G01*
X157019999Y-103675000D01*
G75*
G02*
X156770000Y-103425001I0J249999D01*
G01*
X156770000Y-102724999D01*
G75*
G02*
X157019999Y-102475000I249999J0D01*
G01*
G37*
%TD*%
%TO.C,R507*%
G36*
G01*
X128419999Y-104475000D02*
X129320001Y-104475000D01*
G75*
G02*
X129570000Y-104724999I0J-249999D01*
G01*
X129570000Y-105425001D01*
G75*
G02*
X129320001Y-105675000I-249999J0D01*
G01*
X128419999Y-105675000D01*
G75*
G02*
X128170000Y-105425001I0J249999D01*
G01*
X128170000Y-104724999D01*
G75*
G02*
X128419999Y-104475000I249999J0D01*
G01*
G37*
G36*
G01*
X128419999Y-102475000D02*
X129320001Y-102475000D01*
G75*
G02*
X129570000Y-102724999I0J-249999D01*
G01*
X129570000Y-103425001D01*
G75*
G02*
X129320001Y-103675000I-249999J0D01*
G01*
X128419999Y-103675000D01*
G75*
G02*
X128170000Y-103425001I0J249999D01*
G01*
X128170000Y-102724999D01*
G75*
G02*
X128419999Y-102475000I249999J0D01*
G01*
G37*
%TD*%
%TO.C,R507*%
G36*
G01*
X185619999Y-62375000D02*
X186520001Y-62375000D01*
G75*
G02*
X186770000Y-62624999I0J-249999D01*
G01*
X186770000Y-63325001D01*
G75*
G02*
X186520001Y-63575000I-249999J0D01*
G01*
X185619999Y-63575000D01*
G75*
G02*
X185370000Y-63325001I0J249999D01*
G01*
X185370000Y-62624999D01*
G75*
G02*
X185619999Y-62375000I249999J0D01*
G01*
G37*
G36*
G01*
X185619999Y-60375000D02*
X186520001Y-60375000D01*
G75*
G02*
X186770000Y-60624999I0J-249999D01*
G01*
X186770000Y-61325001D01*
G75*
G02*
X186520001Y-61575000I-249999J0D01*
G01*
X185619999Y-61575000D01*
G75*
G02*
X185370000Y-61325001I0J249999D01*
G01*
X185370000Y-60624999D01*
G75*
G02*
X185619999Y-60375000I249999J0D01*
G01*
G37*
%TD*%
%TO.C,R507*%
G36*
G01*
X157019999Y-62375000D02*
X157920001Y-62375000D01*
G75*
G02*
X158170000Y-62624999I0J-249999D01*
G01*
X158170000Y-63325001D01*
G75*
G02*
X157920001Y-63575000I-249999J0D01*
G01*
X157019999Y-63575000D01*
G75*
G02*
X156770000Y-63325001I0J249999D01*
G01*
X156770000Y-62624999D01*
G75*
G02*
X157019999Y-62375000I249999J0D01*
G01*
G37*
G36*
G01*
X157019999Y-60375000D02*
X157920001Y-60375000D01*
G75*
G02*
X158170000Y-60624999I0J-249999D01*
G01*
X158170000Y-61325001D01*
G75*
G02*
X157920001Y-61575000I-249999J0D01*
G01*
X157019999Y-61575000D01*
G75*
G02*
X156770000Y-61325001I0J249999D01*
G01*
X156770000Y-60624999D01*
G75*
G02*
X157019999Y-60375000I249999J0D01*
G01*
G37*
%TD*%
%TO.C,C103*%
G36*
G01*
X176719998Y-131375000D02*
X178020002Y-131375000D01*
G75*
G02*
X178270000Y-131624998I0J-249998D01*
G01*
X178270000Y-132450002D01*
G75*
G02*
X178020002Y-132700000I-249998J0D01*
G01*
X176719998Y-132700000D01*
G75*
G02*
X176470000Y-132450002I0J249998D01*
G01*
X176470000Y-131624998D01*
G75*
G02*
X176719998Y-131375000I249998J0D01*
G01*
G37*
G36*
G01*
X176719998Y-128250000D02*
X178020002Y-128250000D01*
G75*
G02*
X178270000Y-128499998I0J-249998D01*
G01*
X178270000Y-129325002D01*
G75*
G02*
X178020002Y-129575000I-249998J0D01*
G01*
X176719998Y-129575000D01*
G75*
G02*
X176470000Y-129325002I0J249998D01*
G01*
X176470000Y-128499998D01*
G75*
G02*
X176719998Y-128250000I249998J0D01*
G01*
G37*
%TD*%
%TO.C,C103*%
G36*
G01*
X148119998Y-131375000D02*
X149420002Y-131375000D01*
G75*
G02*
X149670000Y-131624998I0J-249998D01*
G01*
X149670000Y-132450002D01*
G75*
G02*
X149420002Y-132700000I-249998J0D01*
G01*
X148119998Y-132700000D01*
G75*
G02*
X147870000Y-132450002I0J249998D01*
G01*
X147870000Y-131624998D01*
G75*
G02*
X148119998Y-131375000I249998J0D01*
G01*
G37*
G36*
G01*
X148119998Y-128250000D02*
X149420002Y-128250000D01*
G75*
G02*
X149670000Y-128499998I0J-249998D01*
G01*
X149670000Y-129325002D01*
G75*
G02*
X149420002Y-129575000I-249998J0D01*
G01*
X148119998Y-129575000D01*
G75*
G02*
X147870000Y-129325002I0J249998D01*
G01*
X147870000Y-128499998D01*
G75*
G02*
X148119998Y-128250000I249998J0D01*
G01*
G37*
%TD*%
%TO.C,C103*%
G36*
G01*
X119519998Y-131375000D02*
X120820002Y-131375000D01*
G75*
G02*
X121070000Y-131624998I0J-249998D01*
G01*
X121070000Y-132450002D01*
G75*
G02*
X120820002Y-132700000I-249998J0D01*
G01*
X119519998Y-132700000D01*
G75*
G02*
X119270000Y-132450002I0J249998D01*
G01*
X119270000Y-131624998D01*
G75*
G02*
X119519998Y-131375000I249998J0D01*
G01*
G37*
G36*
G01*
X119519998Y-128250000D02*
X120820002Y-128250000D01*
G75*
G02*
X121070000Y-128499998I0J-249998D01*
G01*
X121070000Y-129325002D01*
G75*
G02*
X120820002Y-129575000I-249998J0D01*
G01*
X119519998Y-129575000D01*
G75*
G02*
X119270000Y-129325002I0J249998D01*
G01*
X119270000Y-128499998D01*
G75*
G02*
X119519998Y-128250000I249998J0D01*
G01*
G37*
%TD*%
%TO.C,C103*%
G36*
G01*
X176719998Y-89275000D02*
X178020002Y-89275000D01*
G75*
G02*
X178270000Y-89524998I0J-249998D01*
G01*
X178270000Y-90350002D01*
G75*
G02*
X178020002Y-90600000I-249998J0D01*
G01*
X176719998Y-90600000D01*
G75*
G02*
X176470000Y-90350002I0J249998D01*
G01*
X176470000Y-89524998D01*
G75*
G02*
X176719998Y-89275000I249998J0D01*
G01*
G37*
G36*
G01*
X176719998Y-86150000D02*
X178020002Y-86150000D01*
G75*
G02*
X178270000Y-86399998I0J-249998D01*
G01*
X178270000Y-87225002D01*
G75*
G02*
X178020002Y-87475000I-249998J0D01*
G01*
X176719998Y-87475000D01*
G75*
G02*
X176470000Y-87225002I0J249998D01*
G01*
X176470000Y-86399998D01*
G75*
G02*
X176719998Y-86150000I249998J0D01*
G01*
G37*
%TD*%
%TO.C,C103*%
G36*
G01*
X148119998Y-89275000D02*
X149420002Y-89275000D01*
G75*
G02*
X149670000Y-89524998I0J-249998D01*
G01*
X149670000Y-90350002D01*
G75*
G02*
X149420002Y-90600000I-249998J0D01*
G01*
X148119998Y-90600000D01*
G75*
G02*
X147870000Y-90350002I0J249998D01*
G01*
X147870000Y-89524998D01*
G75*
G02*
X148119998Y-89275000I249998J0D01*
G01*
G37*
G36*
G01*
X148119998Y-86150000D02*
X149420002Y-86150000D01*
G75*
G02*
X149670000Y-86399998I0J-249998D01*
G01*
X149670000Y-87225002D01*
G75*
G02*
X149420002Y-87475000I-249998J0D01*
G01*
X148119998Y-87475000D01*
G75*
G02*
X147870000Y-87225002I0J249998D01*
G01*
X147870000Y-86399998D01*
G75*
G02*
X148119998Y-86150000I249998J0D01*
G01*
G37*
%TD*%
%TO.C,R505*%
G36*
G01*
X183657500Y-130850000D02*
X183182500Y-130850000D01*
G75*
G02*
X182945000Y-130612500I0J237500D01*
G01*
X182945000Y-130112500D01*
G75*
G02*
X183182500Y-129875000I237500J0D01*
G01*
X183657500Y-129875000D01*
G75*
G02*
X183895000Y-130112500I0J-237500D01*
G01*
X183895000Y-130612500D01*
G75*
G02*
X183657500Y-130850000I-237500J0D01*
G01*
G37*
G36*
G01*
X183657500Y-132675000D02*
X183182500Y-132675000D01*
G75*
G02*
X182945000Y-132437500I0J237500D01*
G01*
X182945000Y-131937500D01*
G75*
G02*
X183182500Y-131700000I237500J0D01*
G01*
X183657500Y-131700000D01*
G75*
G02*
X183895000Y-131937500I0J-237500D01*
G01*
X183895000Y-132437500D01*
G75*
G02*
X183657500Y-132675000I-237500J0D01*
G01*
G37*
%TD*%
%TO.C,R505*%
G36*
G01*
X155057500Y-130850000D02*
X154582500Y-130850000D01*
G75*
G02*
X154345000Y-130612500I0J237500D01*
G01*
X154345000Y-130112500D01*
G75*
G02*
X154582500Y-129875000I237500J0D01*
G01*
X155057500Y-129875000D01*
G75*
G02*
X155295000Y-130112500I0J-237500D01*
G01*
X155295000Y-130612500D01*
G75*
G02*
X155057500Y-130850000I-237500J0D01*
G01*
G37*
G36*
G01*
X155057500Y-132675000D02*
X154582500Y-132675000D01*
G75*
G02*
X154345000Y-132437500I0J237500D01*
G01*
X154345000Y-131937500D01*
G75*
G02*
X154582500Y-131700000I237500J0D01*
G01*
X155057500Y-131700000D01*
G75*
G02*
X155295000Y-131937500I0J-237500D01*
G01*
X155295000Y-132437500D01*
G75*
G02*
X155057500Y-132675000I-237500J0D01*
G01*
G37*
%TD*%
%TO.C,R505*%
G36*
G01*
X126457500Y-130850000D02*
X125982500Y-130850000D01*
G75*
G02*
X125745000Y-130612500I0J237500D01*
G01*
X125745000Y-130112500D01*
G75*
G02*
X125982500Y-129875000I237500J0D01*
G01*
X126457500Y-129875000D01*
G75*
G02*
X126695000Y-130112500I0J-237500D01*
G01*
X126695000Y-130612500D01*
G75*
G02*
X126457500Y-130850000I-237500J0D01*
G01*
G37*
G36*
G01*
X126457500Y-132675000D02*
X125982500Y-132675000D01*
G75*
G02*
X125745000Y-132437500I0J237500D01*
G01*
X125745000Y-131937500D01*
G75*
G02*
X125982500Y-131700000I237500J0D01*
G01*
X126457500Y-131700000D01*
G75*
G02*
X126695000Y-131937500I0J-237500D01*
G01*
X126695000Y-132437500D01*
G75*
G02*
X126457500Y-132675000I-237500J0D01*
G01*
G37*
%TD*%
%TO.C,R505*%
G36*
G01*
X183657500Y-88750000D02*
X183182500Y-88750000D01*
G75*
G02*
X182945000Y-88512500I0J237500D01*
G01*
X182945000Y-88012500D01*
G75*
G02*
X183182500Y-87775000I237500J0D01*
G01*
X183657500Y-87775000D01*
G75*
G02*
X183895000Y-88012500I0J-237500D01*
G01*
X183895000Y-88512500D01*
G75*
G02*
X183657500Y-88750000I-237500J0D01*
G01*
G37*
G36*
G01*
X183657500Y-90575000D02*
X183182500Y-90575000D01*
G75*
G02*
X182945000Y-90337500I0J237500D01*
G01*
X182945000Y-89837500D01*
G75*
G02*
X183182500Y-89600000I237500J0D01*
G01*
X183657500Y-89600000D01*
G75*
G02*
X183895000Y-89837500I0J-237500D01*
G01*
X183895000Y-90337500D01*
G75*
G02*
X183657500Y-90575000I-237500J0D01*
G01*
G37*
%TD*%
%TO.C,R505*%
G36*
G01*
X155057500Y-88750000D02*
X154582500Y-88750000D01*
G75*
G02*
X154345000Y-88512500I0J237500D01*
G01*
X154345000Y-88012500D01*
G75*
G02*
X154582500Y-87775000I237500J0D01*
G01*
X155057500Y-87775000D01*
G75*
G02*
X155295000Y-88012500I0J-237500D01*
G01*
X155295000Y-88512500D01*
G75*
G02*
X155057500Y-88750000I-237500J0D01*
G01*
G37*
G36*
G01*
X155057500Y-90575000D02*
X154582500Y-90575000D01*
G75*
G02*
X154345000Y-90337500I0J237500D01*
G01*
X154345000Y-89837500D01*
G75*
G02*
X154582500Y-89600000I237500J0D01*
G01*
X155057500Y-89600000D01*
G75*
G02*
X155295000Y-89837500I0J-237500D01*
G01*
X155295000Y-90337500D01*
G75*
G02*
X155057500Y-90575000I-237500J0D01*
G01*
G37*
%TD*%
%TO.C,R506*%
G36*
G01*
X185257500Y-130850000D02*
X184782500Y-130850000D01*
G75*
G02*
X184545000Y-130612500I0J237500D01*
G01*
X184545000Y-130112500D01*
G75*
G02*
X184782500Y-129875000I237500J0D01*
G01*
X185257500Y-129875000D01*
G75*
G02*
X185495000Y-130112500I0J-237500D01*
G01*
X185495000Y-130612500D01*
G75*
G02*
X185257500Y-130850000I-237500J0D01*
G01*
G37*
G36*
G01*
X185257500Y-132675000D02*
X184782500Y-132675000D01*
G75*
G02*
X184545000Y-132437500I0J237500D01*
G01*
X184545000Y-131937500D01*
G75*
G02*
X184782500Y-131700000I237500J0D01*
G01*
X185257500Y-131700000D01*
G75*
G02*
X185495000Y-131937500I0J-237500D01*
G01*
X185495000Y-132437500D01*
G75*
G02*
X185257500Y-132675000I-237500J0D01*
G01*
G37*
%TD*%
%TO.C,R506*%
G36*
G01*
X156657500Y-130850000D02*
X156182500Y-130850000D01*
G75*
G02*
X155945000Y-130612500I0J237500D01*
G01*
X155945000Y-130112500D01*
G75*
G02*
X156182500Y-129875000I237500J0D01*
G01*
X156657500Y-129875000D01*
G75*
G02*
X156895000Y-130112500I0J-237500D01*
G01*
X156895000Y-130612500D01*
G75*
G02*
X156657500Y-130850000I-237500J0D01*
G01*
G37*
G36*
G01*
X156657500Y-132675000D02*
X156182500Y-132675000D01*
G75*
G02*
X155945000Y-132437500I0J237500D01*
G01*
X155945000Y-131937500D01*
G75*
G02*
X156182500Y-131700000I237500J0D01*
G01*
X156657500Y-131700000D01*
G75*
G02*
X156895000Y-131937500I0J-237500D01*
G01*
X156895000Y-132437500D01*
G75*
G02*
X156657500Y-132675000I-237500J0D01*
G01*
G37*
%TD*%
%TO.C,R506*%
G36*
G01*
X128057500Y-130850000D02*
X127582500Y-130850000D01*
G75*
G02*
X127345000Y-130612500I0J237500D01*
G01*
X127345000Y-130112500D01*
G75*
G02*
X127582500Y-129875000I237500J0D01*
G01*
X128057500Y-129875000D01*
G75*
G02*
X128295000Y-130112500I0J-237500D01*
G01*
X128295000Y-130612500D01*
G75*
G02*
X128057500Y-130850000I-237500J0D01*
G01*
G37*
G36*
G01*
X128057500Y-132675000D02*
X127582500Y-132675000D01*
G75*
G02*
X127345000Y-132437500I0J237500D01*
G01*
X127345000Y-131937500D01*
G75*
G02*
X127582500Y-131700000I237500J0D01*
G01*
X128057500Y-131700000D01*
G75*
G02*
X128295000Y-131937500I0J-237500D01*
G01*
X128295000Y-132437500D01*
G75*
G02*
X128057500Y-132675000I-237500J0D01*
G01*
G37*
%TD*%
%TO.C,R506*%
G36*
G01*
X185257500Y-88750000D02*
X184782500Y-88750000D01*
G75*
G02*
X184545000Y-88512500I0J237500D01*
G01*
X184545000Y-88012500D01*
G75*
G02*
X184782500Y-87775000I237500J0D01*
G01*
X185257500Y-87775000D01*
G75*
G02*
X185495000Y-88012500I0J-237500D01*
G01*
X185495000Y-88512500D01*
G75*
G02*
X185257500Y-88750000I-237500J0D01*
G01*
G37*
G36*
G01*
X185257500Y-90575000D02*
X184782500Y-90575000D01*
G75*
G02*
X184545000Y-90337500I0J237500D01*
G01*
X184545000Y-89837500D01*
G75*
G02*
X184782500Y-89600000I237500J0D01*
G01*
X185257500Y-89600000D01*
G75*
G02*
X185495000Y-89837500I0J-237500D01*
G01*
X185495000Y-90337500D01*
G75*
G02*
X185257500Y-90575000I-237500J0D01*
G01*
G37*
%TD*%
%TO.C,R506*%
G36*
G01*
X156657500Y-88750000D02*
X156182500Y-88750000D01*
G75*
G02*
X155945000Y-88512500I0J237500D01*
G01*
X155945000Y-88012500D01*
G75*
G02*
X156182500Y-87775000I237500J0D01*
G01*
X156657500Y-87775000D01*
G75*
G02*
X156895000Y-88012500I0J-237500D01*
G01*
X156895000Y-88512500D01*
G75*
G02*
X156657500Y-88750000I-237500J0D01*
G01*
G37*
G36*
G01*
X156657500Y-90575000D02*
X156182500Y-90575000D01*
G75*
G02*
X155945000Y-90337500I0J237500D01*
G01*
X155945000Y-89837500D01*
G75*
G02*
X156182500Y-89600000I237500J0D01*
G01*
X156657500Y-89600000D01*
G75*
G02*
X156895000Y-89837500I0J-237500D01*
G01*
X156895000Y-90337500D01*
G75*
G02*
X156657500Y-90575000I-237500J0D01*
G01*
G37*
%TD*%
%TO.C,D502*%
G36*
G01*
X186170000Y-101562500D02*
X186170000Y-101087500D01*
G75*
G02*
X186407500Y-100850000I237500J0D01*
G01*
X186982500Y-100850000D01*
G75*
G02*
X187220000Y-101087500I0J-237500D01*
G01*
X187220000Y-101562500D01*
G75*
G02*
X186982500Y-101800000I-237500J0D01*
G01*
X186407500Y-101800000D01*
G75*
G02*
X186170000Y-101562500I0J237500D01*
G01*
G37*
G36*
G01*
X184420000Y-101562500D02*
X184420000Y-101087500D01*
G75*
G02*
X184657500Y-100850000I237500J0D01*
G01*
X185232500Y-100850000D01*
G75*
G02*
X185470000Y-101087500I0J-237500D01*
G01*
X185470000Y-101562500D01*
G75*
G02*
X185232500Y-101800000I-237500J0D01*
G01*
X184657500Y-101800000D01*
G75*
G02*
X184420000Y-101562500I0J237500D01*
G01*
G37*
%TD*%
%TO.C,D502*%
G36*
G01*
X157570000Y-101562500D02*
X157570000Y-101087500D01*
G75*
G02*
X157807500Y-100850000I237500J0D01*
G01*
X158382500Y-100850000D01*
G75*
G02*
X158620000Y-101087500I0J-237500D01*
G01*
X158620000Y-101562500D01*
G75*
G02*
X158382500Y-101800000I-237500J0D01*
G01*
X157807500Y-101800000D01*
G75*
G02*
X157570000Y-101562500I0J237500D01*
G01*
G37*
G36*
G01*
X155820000Y-101562500D02*
X155820000Y-101087500D01*
G75*
G02*
X156057500Y-100850000I237500J0D01*
G01*
X156632500Y-100850000D01*
G75*
G02*
X156870000Y-101087500I0J-237500D01*
G01*
X156870000Y-101562500D01*
G75*
G02*
X156632500Y-101800000I-237500J0D01*
G01*
X156057500Y-101800000D01*
G75*
G02*
X155820000Y-101562500I0J237500D01*
G01*
G37*
%TD*%
%TO.C,D502*%
G36*
G01*
X128970000Y-101562500D02*
X128970000Y-101087500D01*
G75*
G02*
X129207500Y-100850000I237500J0D01*
G01*
X129782500Y-100850000D01*
G75*
G02*
X130020000Y-101087500I0J-237500D01*
G01*
X130020000Y-101562500D01*
G75*
G02*
X129782500Y-101800000I-237500J0D01*
G01*
X129207500Y-101800000D01*
G75*
G02*
X128970000Y-101562500I0J237500D01*
G01*
G37*
G36*
G01*
X127220000Y-101562500D02*
X127220000Y-101087500D01*
G75*
G02*
X127457500Y-100850000I237500J0D01*
G01*
X128032500Y-100850000D01*
G75*
G02*
X128270000Y-101087500I0J-237500D01*
G01*
X128270000Y-101562500D01*
G75*
G02*
X128032500Y-101800000I-237500J0D01*
G01*
X127457500Y-101800000D01*
G75*
G02*
X127220000Y-101562500I0J237500D01*
G01*
G37*
%TD*%
%TO.C,D502*%
G36*
G01*
X186170000Y-59462500D02*
X186170000Y-58987500D01*
G75*
G02*
X186407500Y-58750000I237500J0D01*
G01*
X186982500Y-58750000D01*
G75*
G02*
X187220000Y-58987500I0J-237500D01*
G01*
X187220000Y-59462500D01*
G75*
G02*
X186982500Y-59700000I-237500J0D01*
G01*
X186407500Y-59700000D01*
G75*
G02*
X186170000Y-59462500I0J237500D01*
G01*
G37*
G36*
G01*
X184420000Y-59462500D02*
X184420000Y-58987500D01*
G75*
G02*
X184657500Y-58750000I237500J0D01*
G01*
X185232500Y-58750000D01*
G75*
G02*
X185470000Y-58987500I0J-237500D01*
G01*
X185470000Y-59462500D01*
G75*
G02*
X185232500Y-59700000I-237500J0D01*
G01*
X184657500Y-59700000D01*
G75*
G02*
X184420000Y-59462500I0J237500D01*
G01*
G37*
%TD*%
%TO.C,D502*%
G36*
G01*
X157570000Y-59462500D02*
X157570000Y-58987500D01*
G75*
G02*
X157807500Y-58750000I237500J0D01*
G01*
X158382500Y-58750000D01*
G75*
G02*
X158620000Y-58987500I0J-237500D01*
G01*
X158620000Y-59462500D01*
G75*
G02*
X158382500Y-59700000I-237500J0D01*
G01*
X157807500Y-59700000D01*
G75*
G02*
X157570000Y-59462500I0J237500D01*
G01*
G37*
G36*
G01*
X155820000Y-59462500D02*
X155820000Y-58987500D01*
G75*
G02*
X156057500Y-58750000I237500J0D01*
G01*
X156632500Y-58750000D01*
G75*
G02*
X156870000Y-58987500I0J-237500D01*
G01*
X156870000Y-59462500D01*
G75*
G02*
X156632500Y-59700000I-237500J0D01*
G01*
X156057500Y-59700000D01*
G75*
G02*
X155820000Y-59462500I0J237500D01*
G01*
G37*
%TD*%
%TO.C,R501*%
G36*
G01*
X181582500Y-131700000D02*
X182057500Y-131700000D01*
G75*
G02*
X182295000Y-131937500I0J-237500D01*
G01*
X182295000Y-132437500D01*
G75*
G02*
X182057500Y-132675000I-237500J0D01*
G01*
X181582500Y-132675000D01*
G75*
G02*
X181345000Y-132437500I0J237500D01*
G01*
X181345000Y-131937500D01*
G75*
G02*
X181582500Y-131700000I237500J0D01*
G01*
G37*
G36*
G01*
X181582500Y-129875000D02*
X182057500Y-129875000D01*
G75*
G02*
X182295000Y-130112500I0J-237500D01*
G01*
X182295000Y-130612500D01*
G75*
G02*
X182057500Y-130850000I-237500J0D01*
G01*
X181582500Y-130850000D01*
G75*
G02*
X181345000Y-130612500I0J237500D01*
G01*
X181345000Y-130112500D01*
G75*
G02*
X181582500Y-129875000I237500J0D01*
G01*
G37*
%TD*%
%TO.C,R501*%
G36*
G01*
X152982500Y-131700000D02*
X153457500Y-131700000D01*
G75*
G02*
X153695000Y-131937500I0J-237500D01*
G01*
X153695000Y-132437500D01*
G75*
G02*
X153457500Y-132675000I-237500J0D01*
G01*
X152982500Y-132675000D01*
G75*
G02*
X152745000Y-132437500I0J237500D01*
G01*
X152745000Y-131937500D01*
G75*
G02*
X152982500Y-131700000I237500J0D01*
G01*
G37*
G36*
G01*
X152982500Y-129875000D02*
X153457500Y-129875000D01*
G75*
G02*
X153695000Y-130112500I0J-237500D01*
G01*
X153695000Y-130612500D01*
G75*
G02*
X153457500Y-130850000I-237500J0D01*
G01*
X152982500Y-130850000D01*
G75*
G02*
X152745000Y-130612500I0J237500D01*
G01*
X152745000Y-130112500D01*
G75*
G02*
X152982500Y-129875000I237500J0D01*
G01*
G37*
%TD*%
%TO.C,R501*%
G36*
G01*
X124382500Y-131700000D02*
X124857500Y-131700000D01*
G75*
G02*
X125095000Y-131937500I0J-237500D01*
G01*
X125095000Y-132437500D01*
G75*
G02*
X124857500Y-132675000I-237500J0D01*
G01*
X124382500Y-132675000D01*
G75*
G02*
X124145000Y-132437500I0J237500D01*
G01*
X124145000Y-131937500D01*
G75*
G02*
X124382500Y-131700000I237500J0D01*
G01*
G37*
G36*
G01*
X124382500Y-129875000D02*
X124857500Y-129875000D01*
G75*
G02*
X125095000Y-130112500I0J-237500D01*
G01*
X125095000Y-130612500D01*
G75*
G02*
X124857500Y-130850000I-237500J0D01*
G01*
X124382500Y-130850000D01*
G75*
G02*
X124145000Y-130612500I0J237500D01*
G01*
X124145000Y-130112500D01*
G75*
G02*
X124382500Y-129875000I237500J0D01*
G01*
G37*
%TD*%
%TO.C,R501*%
G36*
G01*
X181582500Y-89600000D02*
X182057500Y-89600000D01*
G75*
G02*
X182295000Y-89837500I0J-237500D01*
G01*
X182295000Y-90337500D01*
G75*
G02*
X182057500Y-90575000I-237500J0D01*
G01*
X181582500Y-90575000D01*
G75*
G02*
X181345000Y-90337500I0J237500D01*
G01*
X181345000Y-89837500D01*
G75*
G02*
X181582500Y-89600000I237500J0D01*
G01*
G37*
G36*
G01*
X181582500Y-87775000D02*
X182057500Y-87775000D01*
G75*
G02*
X182295000Y-88012500I0J-237500D01*
G01*
X182295000Y-88512500D01*
G75*
G02*
X182057500Y-88750000I-237500J0D01*
G01*
X181582500Y-88750000D01*
G75*
G02*
X181345000Y-88512500I0J237500D01*
G01*
X181345000Y-88012500D01*
G75*
G02*
X181582500Y-87775000I237500J0D01*
G01*
G37*
%TD*%
%TO.C,R501*%
G36*
G01*
X152982500Y-89600000D02*
X153457500Y-89600000D01*
G75*
G02*
X153695000Y-89837500I0J-237500D01*
G01*
X153695000Y-90337500D01*
G75*
G02*
X153457500Y-90575000I-237500J0D01*
G01*
X152982500Y-90575000D01*
G75*
G02*
X152745000Y-90337500I0J237500D01*
G01*
X152745000Y-89837500D01*
G75*
G02*
X152982500Y-89600000I237500J0D01*
G01*
G37*
G36*
G01*
X152982500Y-87775000D02*
X153457500Y-87775000D01*
G75*
G02*
X153695000Y-88012500I0J-237500D01*
G01*
X153695000Y-88512500D01*
G75*
G02*
X153457500Y-88750000I-237500J0D01*
G01*
X152982500Y-88750000D01*
G75*
G02*
X152745000Y-88512500I0J237500D01*
G01*
X152745000Y-88012500D01*
G75*
G02*
X152982500Y-87775000I237500J0D01*
G01*
G37*
%TD*%
%TO.C,C102*%
G36*
G01*
X169369998Y-131375000D02*
X170670002Y-131375000D01*
G75*
G02*
X170920000Y-131624998I0J-249998D01*
G01*
X170920000Y-132450002D01*
G75*
G02*
X170670002Y-132700000I-249998J0D01*
G01*
X169369998Y-132700000D01*
G75*
G02*
X169120000Y-132450002I0J249998D01*
G01*
X169120000Y-131624998D01*
G75*
G02*
X169369998Y-131375000I249998J0D01*
G01*
G37*
G36*
G01*
X169369998Y-128250000D02*
X170670002Y-128250000D01*
G75*
G02*
X170920000Y-128499998I0J-249998D01*
G01*
X170920000Y-129325002D01*
G75*
G02*
X170670002Y-129575000I-249998J0D01*
G01*
X169369998Y-129575000D01*
G75*
G02*
X169120000Y-129325002I0J249998D01*
G01*
X169120000Y-128499998D01*
G75*
G02*
X169369998Y-128250000I249998J0D01*
G01*
G37*
%TD*%
%TO.C,C102*%
G36*
G01*
X140769998Y-131375000D02*
X142070002Y-131375000D01*
G75*
G02*
X142320000Y-131624998I0J-249998D01*
G01*
X142320000Y-132450002D01*
G75*
G02*
X142070002Y-132700000I-249998J0D01*
G01*
X140769998Y-132700000D01*
G75*
G02*
X140520000Y-132450002I0J249998D01*
G01*
X140520000Y-131624998D01*
G75*
G02*
X140769998Y-131375000I249998J0D01*
G01*
G37*
G36*
G01*
X140769998Y-128250000D02*
X142070002Y-128250000D01*
G75*
G02*
X142320000Y-128499998I0J-249998D01*
G01*
X142320000Y-129325002D01*
G75*
G02*
X142070002Y-129575000I-249998J0D01*
G01*
X140769998Y-129575000D01*
G75*
G02*
X140520000Y-129325002I0J249998D01*
G01*
X140520000Y-128499998D01*
G75*
G02*
X140769998Y-128250000I249998J0D01*
G01*
G37*
%TD*%
%TO.C,C102*%
G36*
G01*
X112169998Y-131375000D02*
X113470002Y-131375000D01*
G75*
G02*
X113720000Y-131624998I0J-249998D01*
G01*
X113720000Y-132450002D01*
G75*
G02*
X113470002Y-132700000I-249998J0D01*
G01*
X112169998Y-132700000D01*
G75*
G02*
X111920000Y-132450002I0J249998D01*
G01*
X111920000Y-131624998D01*
G75*
G02*
X112169998Y-131375000I249998J0D01*
G01*
G37*
G36*
G01*
X112169998Y-128250000D02*
X113470002Y-128250000D01*
G75*
G02*
X113720000Y-128499998I0J-249998D01*
G01*
X113720000Y-129325002D01*
G75*
G02*
X113470002Y-129575000I-249998J0D01*
G01*
X112169998Y-129575000D01*
G75*
G02*
X111920000Y-129325002I0J249998D01*
G01*
X111920000Y-128499998D01*
G75*
G02*
X112169998Y-128250000I249998J0D01*
G01*
G37*
%TD*%
%TO.C,C102*%
G36*
G01*
X169369998Y-89275000D02*
X170670002Y-89275000D01*
G75*
G02*
X170920000Y-89524998I0J-249998D01*
G01*
X170920000Y-90350002D01*
G75*
G02*
X170670002Y-90600000I-249998J0D01*
G01*
X169369998Y-90600000D01*
G75*
G02*
X169120000Y-90350002I0J249998D01*
G01*
X169120000Y-89524998D01*
G75*
G02*
X169369998Y-89275000I249998J0D01*
G01*
G37*
G36*
G01*
X169369998Y-86150000D02*
X170670002Y-86150000D01*
G75*
G02*
X170920000Y-86399998I0J-249998D01*
G01*
X170920000Y-87225002D01*
G75*
G02*
X170670002Y-87475000I-249998J0D01*
G01*
X169369998Y-87475000D01*
G75*
G02*
X169120000Y-87225002I0J249998D01*
G01*
X169120000Y-86399998D01*
G75*
G02*
X169369998Y-86150000I249998J0D01*
G01*
G37*
%TD*%
%TO.C,C102*%
G36*
G01*
X140769998Y-89275000D02*
X142070002Y-89275000D01*
G75*
G02*
X142320000Y-89524998I0J-249998D01*
G01*
X142320000Y-90350002D01*
G75*
G02*
X142070002Y-90600000I-249998J0D01*
G01*
X140769998Y-90600000D01*
G75*
G02*
X140520000Y-90350002I0J249998D01*
G01*
X140520000Y-89524998D01*
G75*
G02*
X140769998Y-89275000I249998J0D01*
G01*
G37*
G36*
G01*
X140769998Y-86150000D02*
X142070002Y-86150000D01*
G75*
G02*
X142320000Y-86399998I0J-249998D01*
G01*
X142320000Y-87225002D01*
G75*
G02*
X142070002Y-87475000I-249998J0D01*
G01*
X140769998Y-87475000D01*
G75*
G02*
X140520000Y-87225002I0J249998D01*
G01*
X140520000Y-86399998D01*
G75*
G02*
X140769998Y-86150000I249998J0D01*
G01*
G37*
%TD*%
D12*
%TO.C,SW502*%
X163020000Y-135025000D03*
X170820000Y-135025000D03*
%TD*%
%TO.C,SW502*%
X134420000Y-135025000D03*
X142220000Y-135025000D03*
%TD*%
%TO.C,SW502*%
X105820000Y-135025000D03*
X113620000Y-135025000D03*
%TD*%
%TO.C,SW502*%
X163020000Y-92925000D03*
X170820000Y-92925000D03*
%TD*%
%TO.C,SW502*%
X134420000Y-92925000D03*
X142220000Y-92925000D03*
%TD*%
%TO.C,C101*%
G36*
G01*
X171819998Y-131375000D02*
X173120002Y-131375000D01*
G75*
G02*
X173370000Y-131624998I0J-249998D01*
G01*
X173370000Y-132450002D01*
G75*
G02*
X173120002Y-132700000I-249998J0D01*
G01*
X171819998Y-132700000D01*
G75*
G02*
X171570000Y-132450002I0J249998D01*
G01*
X171570000Y-131624998D01*
G75*
G02*
X171819998Y-131375000I249998J0D01*
G01*
G37*
G36*
G01*
X171819998Y-128250000D02*
X173120002Y-128250000D01*
G75*
G02*
X173370000Y-128499998I0J-249998D01*
G01*
X173370000Y-129325002D01*
G75*
G02*
X173120002Y-129575000I-249998J0D01*
G01*
X171819998Y-129575000D01*
G75*
G02*
X171570000Y-129325002I0J249998D01*
G01*
X171570000Y-128499998D01*
G75*
G02*
X171819998Y-128250000I249998J0D01*
G01*
G37*
%TD*%
%TO.C,C101*%
G36*
G01*
X143219998Y-131375000D02*
X144520002Y-131375000D01*
G75*
G02*
X144770000Y-131624998I0J-249998D01*
G01*
X144770000Y-132450002D01*
G75*
G02*
X144520002Y-132700000I-249998J0D01*
G01*
X143219998Y-132700000D01*
G75*
G02*
X142970000Y-132450002I0J249998D01*
G01*
X142970000Y-131624998D01*
G75*
G02*
X143219998Y-131375000I249998J0D01*
G01*
G37*
G36*
G01*
X143219998Y-128250000D02*
X144520002Y-128250000D01*
G75*
G02*
X144770000Y-128499998I0J-249998D01*
G01*
X144770000Y-129325002D01*
G75*
G02*
X144520002Y-129575000I-249998J0D01*
G01*
X143219998Y-129575000D01*
G75*
G02*
X142970000Y-129325002I0J249998D01*
G01*
X142970000Y-128499998D01*
G75*
G02*
X143219998Y-128250000I249998J0D01*
G01*
G37*
%TD*%
%TO.C,C101*%
G36*
G01*
X114619998Y-131375000D02*
X115920002Y-131375000D01*
G75*
G02*
X116170000Y-131624998I0J-249998D01*
G01*
X116170000Y-132450002D01*
G75*
G02*
X115920002Y-132700000I-249998J0D01*
G01*
X114619998Y-132700000D01*
G75*
G02*
X114370000Y-132450002I0J249998D01*
G01*
X114370000Y-131624998D01*
G75*
G02*
X114619998Y-131375000I249998J0D01*
G01*
G37*
G36*
G01*
X114619998Y-128250000D02*
X115920002Y-128250000D01*
G75*
G02*
X116170000Y-128499998I0J-249998D01*
G01*
X116170000Y-129325002D01*
G75*
G02*
X115920002Y-129575000I-249998J0D01*
G01*
X114619998Y-129575000D01*
G75*
G02*
X114370000Y-129325002I0J249998D01*
G01*
X114370000Y-128499998D01*
G75*
G02*
X114619998Y-128250000I249998J0D01*
G01*
G37*
%TD*%
%TO.C,C101*%
G36*
G01*
X171819998Y-89275000D02*
X173120002Y-89275000D01*
G75*
G02*
X173370000Y-89524998I0J-249998D01*
G01*
X173370000Y-90350002D01*
G75*
G02*
X173120002Y-90600000I-249998J0D01*
G01*
X171819998Y-90600000D01*
G75*
G02*
X171570000Y-90350002I0J249998D01*
G01*
X171570000Y-89524998D01*
G75*
G02*
X171819998Y-89275000I249998J0D01*
G01*
G37*
G36*
G01*
X171819998Y-86150000D02*
X173120002Y-86150000D01*
G75*
G02*
X173370000Y-86399998I0J-249998D01*
G01*
X173370000Y-87225002D01*
G75*
G02*
X173120002Y-87475000I-249998J0D01*
G01*
X171819998Y-87475000D01*
G75*
G02*
X171570000Y-87225002I0J249998D01*
G01*
X171570000Y-86399998D01*
G75*
G02*
X171819998Y-86150000I249998J0D01*
G01*
G37*
%TD*%
%TO.C,C101*%
G36*
G01*
X143219998Y-89275000D02*
X144520002Y-89275000D01*
G75*
G02*
X144770000Y-89524998I0J-249998D01*
G01*
X144770000Y-90350002D01*
G75*
G02*
X144520002Y-90600000I-249998J0D01*
G01*
X143219998Y-90600000D01*
G75*
G02*
X142970000Y-90350002I0J249998D01*
G01*
X142970000Y-89524998D01*
G75*
G02*
X143219998Y-89275000I249998J0D01*
G01*
G37*
G36*
G01*
X143219998Y-86150000D02*
X144520002Y-86150000D01*
G75*
G02*
X144770000Y-86399998I0J-249998D01*
G01*
X144770000Y-87225002D01*
G75*
G02*
X144520002Y-87475000I-249998J0D01*
G01*
X143219998Y-87475000D01*
G75*
G02*
X142970000Y-87225002I0J249998D01*
G01*
X142970000Y-86399998D01*
G75*
G02*
X143219998Y-86150000I249998J0D01*
G01*
G37*
%TD*%
%TO.C,SW501*%
X186570000Y-135075000D03*
X178770000Y-135075000D03*
%TD*%
%TO.C,SW501*%
X157970000Y-135075000D03*
X150170000Y-135075000D03*
%TD*%
%TO.C,SW501*%
X129370000Y-135075000D03*
X121570000Y-135075000D03*
%TD*%
%TO.C,SW501*%
X186570000Y-92975000D03*
X178770000Y-92975000D03*
%TD*%
%TO.C,SW501*%
X157970000Y-92975000D03*
X150170000Y-92975000D03*
%TD*%
%TO.C,C502*%
G36*
G01*
X174269998Y-131375000D02*
X175570002Y-131375000D01*
G75*
G02*
X175820000Y-131624998I0J-249998D01*
G01*
X175820000Y-132450002D01*
G75*
G02*
X175570002Y-132700000I-249998J0D01*
G01*
X174269998Y-132700000D01*
G75*
G02*
X174020000Y-132450002I0J249998D01*
G01*
X174020000Y-131624998D01*
G75*
G02*
X174269998Y-131375000I249998J0D01*
G01*
G37*
G36*
G01*
X174269998Y-128250000D02*
X175570002Y-128250000D01*
G75*
G02*
X175820000Y-128499998I0J-249998D01*
G01*
X175820000Y-129325002D01*
G75*
G02*
X175570002Y-129575000I-249998J0D01*
G01*
X174269998Y-129575000D01*
G75*
G02*
X174020000Y-129325002I0J249998D01*
G01*
X174020000Y-128499998D01*
G75*
G02*
X174269998Y-128250000I249998J0D01*
G01*
G37*
%TD*%
%TO.C,C502*%
G36*
G01*
X145669998Y-131375000D02*
X146970002Y-131375000D01*
G75*
G02*
X147220000Y-131624998I0J-249998D01*
G01*
X147220000Y-132450002D01*
G75*
G02*
X146970002Y-132700000I-249998J0D01*
G01*
X145669998Y-132700000D01*
G75*
G02*
X145420000Y-132450002I0J249998D01*
G01*
X145420000Y-131624998D01*
G75*
G02*
X145669998Y-131375000I249998J0D01*
G01*
G37*
G36*
G01*
X145669998Y-128250000D02*
X146970002Y-128250000D01*
G75*
G02*
X147220000Y-128499998I0J-249998D01*
G01*
X147220000Y-129325002D01*
G75*
G02*
X146970002Y-129575000I-249998J0D01*
G01*
X145669998Y-129575000D01*
G75*
G02*
X145420000Y-129325002I0J249998D01*
G01*
X145420000Y-128499998D01*
G75*
G02*
X145669998Y-128250000I249998J0D01*
G01*
G37*
%TD*%
%TO.C,C502*%
G36*
G01*
X117069998Y-131375000D02*
X118370002Y-131375000D01*
G75*
G02*
X118620000Y-131624998I0J-249998D01*
G01*
X118620000Y-132450002D01*
G75*
G02*
X118370002Y-132700000I-249998J0D01*
G01*
X117069998Y-132700000D01*
G75*
G02*
X116820000Y-132450002I0J249998D01*
G01*
X116820000Y-131624998D01*
G75*
G02*
X117069998Y-131375000I249998J0D01*
G01*
G37*
G36*
G01*
X117069998Y-128250000D02*
X118370002Y-128250000D01*
G75*
G02*
X118620000Y-128499998I0J-249998D01*
G01*
X118620000Y-129325002D01*
G75*
G02*
X118370002Y-129575000I-249998J0D01*
G01*
X117069998Y-129575000D01*
G75*
G02*
X116820000Y-129325002I0J249998D01*
G01*
X116820000Y-128499998D01*
G75*
G02*
X117069998Y-128250000I249998J0D01*
G01*
G37*
%TD*%
%TO.C,C502*%
G36*
G01*
X174269998Y-89275000D02*
X175570002Y-89275000D01*
G75*
G02*
X175820000Y-89524998I0J-249998D01*
G01*
X175820000Y-90350002D01*
G75*
G02*
X175570002Y-90600000I-249998J0D01*
G01*
X174269998Y-90600000D01*
G75*
G02*
X174020000Y-90350002I0J249998D01*
G01*
X174020000Y-89524998D01*
G75*
G02*
X174269998Y-89275000I249998J0D01*
G01*
G37*
G36*
G01*
X174269998Y-86150000D02*
X175570002Y-86150000D01*
G75*
G02*
X175820000Y-86399998I0J-249998D01*
G01*
X175820000Y-87225002D01*
G75*
G02*
X175570002Y-87475000I-249998J0D01*
G01*
X174269998Y-87475000D01*
G75*
G02*
X174020000Y-87225002I0J249998D01*
G01*
X174020000Y-86399998D01*
G75*
G02*
X174269998Y-86150000I249998J0D01*
G01*
G37*
%TD*%
%TO.C,C502*%
G36*
G01*
X145669998Y-89275000D02*
X146970002Y-89275000D01*
G75*
G02*
X147220000Y-89524998I0J-249998D01*
G01*
X147220000Y-90350002D01*
G75*
G02*
X146970002Y-90600000I-249998J0D01*
G01*
X145669998Y-90600000D01*
G75*
G02*
X145420000Y-90350002I0J249998D01*
G01*
X145420000Y-89524998D01*
G75*
G02*
X145669998Y-89275000I249998J0D01*
G01*
G37*
G36*
G01*
X145669998Y-86150000D02*
X146970002Y-86150000D01*
G75*
G02*
X147220000Y-86399998I0J-249998D01*
G01*
X147220000Y-87225002D01*
G75*
G02*
X146970002Y-87475000I-249998J0D01*
G01*
X145669998Y-87475000D01*
G75*
G02*
X145420000Y-87225002I0J249998D01*
G01*
X145420000Y-86399998D01*
G75*
G02*
X145669998Y-86150000I249998J0D01*
G01*
G37*
%TD*%
%TO.C,R503*%
G36*
G01*
X166707500Y-130850000D02*
X166232500Y-130850000D01*
G75*
G02*
X165995000Y-130612500I0J237500D01*
G01*
X165995000Y-130112500D01*
G75*
G02*
X166232500Y-129875000I237500J0D01*
G01*
X166707500Y-129875000D01*
G75*
G02*
X166945000Y-130112500I0J-237500D01*
G01*
X166945000Y-130612500D01*
G75*
G02*
X166707500Y-130850000I-237500J0D01*
G01*
G37*
G36*
G01*
X166707500Y-132675000D02*
X166232500Y-132675000D01*
G75*
G02*
X165995000Y-132437500I0J237500D01*
G01*
X165995000Y-131937500D01*
G75*
G02*
X166232500Y-131700000I237500J0D01*
G01*
X166707500Y-131700000D01*
G75*
G02*
X166945000Y-131937500I0J-237500D01*
G01*
X166945000Y-132437500D01*
G75*
G02*
X166707500Y-132675000I-237500J0D01*
G01*
G37*
%TD*%
%TO.C,R503*%
G36*
G01*
X138107500Y-130850000D02*
X137632500Y-130850000D01*
G75*
G02*
X137395000Y-130612500I0J237500D01*
G01*
X137395000Y-130112500D01*
G75*
G02*
X137632500Y-129875000I237500J0D01*
G01*
X138107500Y-129875000D01*
G75*
G02*
X138345000Y-130112500I0J-237500D01*
G01*
X138345000Y-130612500D01*
G75*
G02*
X138107500Y-130850000I-237500J0D01*
G01*
G37*
G36*
G01*
X138107500Y-132675000D02*
X137632500Y-132675000D01*
G75*
G02*
X137395000Y-132437500I0J237500D01*
G01*
X137395000Y-131937500D01*
G75*
G02*
X137632500Y-131700000I237500J0D01*
G01*
X138107500Y-131700000D01*
G75*
G02*
X138345000Y-131937500I0J-237500D01*
G01*
X138345000Y-132437500D01*
G75*
G02*
X138107500Y-132675000I-237500J0D01*
G01*
G37*
%TD*%
%TO.C,R503*%
G36*
G01*
X109507500Y-130850000D02*
X109032500Y-130850000D01*
G75*
G02*
X108795000Y-130612500I0J237500D01*
G01*
X108795000Y-130112500D01*
G75*
G02*
X109032500Y-129875000I237500J0D01*
G01*
X109507500Y-129875000D01*
G75*
G02*
X109745000Y-130112500I0J-237500D01*
G01*
X109745000Y-130612500D01*
G75*
G02*
X109507500Y-130850000I-237500J0D01*
G01*
G37*
G36*
G01*
X109507500Y-132675000D02*
X109032500Y-132675000D01*
G75*
G02*
X108795000Y-132437500I0J237500D01*
G01*
X108795000Y-131937500D01*
G75*
G02*
X109032500Y-131700000I237500J0D01*
G01*
X109507500Y-131700000D01*
G75*
G02*
X109745000Y-131937500I0J-237500D01*
G01*
X109745000Y-132437500D01*
G75*
G02*
X109507500Y-132675000I-237500J0D01*
G01*
G37*
%TD*%
%TO.C,R503*%
G36*
G01*
X166707500Y-88750000D02*
X166232500Y-88750000D01*
G75*
G02*
X165995000Y-88512500I0J237500D01*
G01*
X165995000Y-88012500D01*
G75*
G02*
X166232500Y-87775000I237500J0D01*
G01*
X166707500Y-87775000D01*
G75*
G02*
X166945000Y-88012500I0J-237500D01*
G01*
X166945000Y-88512500D01*
G75*
G02*
X166707500Y-88750000I-237500J0D01*
G01*
G37*
G36*
G01*
X166707500Y-90575000D02*
X166232500Y-90575000D01*
G75*
G02*
X165995000Y-90337500I0J237500D01*
G01*
X165995000Y-89837500D01*
G75*
G02*
X166232500Y-89600000I237500J0D01*
G01*
X166707500Y-89600000D01*
G75*
G02*
X166945000Y-89837500I0J-237500D01*
G01*
X166945000Y-90337500D01*
G75*
G02*
X166707500Y-90575000I-237500J0D01*
G01*
G37*
%TD*%
%TO.C,R503*%
G36*
G01*
X138107500Y-88750000D02*
X137632500Y-88750000D01*
G75*
G02*
X137395000Y-88512500I0J237500D01*
G01*
X137395000Y-88012500D01*
G75*
G02*
X137632500Y-87775000I237500J0D01*
G01*
X138107500Y-87775000D01*
G75*
G02*
X138345000Y-88012500I0J-237500D01*
G01*
X138345000Y-88512500D01*
G75*
G02*
X138107500Y-88750000I-237500J0D01*
G01*
G37*
G36*
G01*
X138107500Y-90575000D02*
X137632500Y-90575000D01*
G75*
G02*
X137395000Y-90337500I0J237500D01*
G01*
X137395000Y-89837500D01*
G75*
G02*
X137632500Y-89600000I237500J0D01*
G01*
X138107500Y-89600000D01*
G75*
G02*
X138345000Y-89837500I0J-237500D01*
G01*
X138345000Y-90337500D01*
G75*
G02*
X138107500Y-90575000I-237500J0D01*
G01*
G37*
%TD*%
%TO.C,C501*%
G36*
G01*
X164632500Y-131600000D02*
X165107500Y-131600000D01*
G75*
G02*
X165345000Y-131837500I0J-237500D01*
G01*
X165345000Y-132437500D01*
G75*
G02*
X165107500Y-132675000I-237500J0D01*
G01*
X164632500Y-132675000D01*
G75*
G02*
X164395000Y-132437500I0J237500D01*
G01*
X164395000Y-131837500D01*
G75*
G02*
X164632500Y-131600000I237500J0D01*
G01*
G37*
G36*
G01*
X164632500Y-129875000D02*
X165107500Y-129875000D01*
G75*
G02*
X165345000Y-130112500I0J-237500D01*
G01*
X165345000Y-130712500D01*
G75*
G02*
X165107500Y-130950000I-237500J0D01*
G01*
X164632500Y-130950000D01*
G75*
G02*
X164395000Y-130712500I0J237500D01*
G01*
X164395000Y-130112500D01*
G75*
G02*
X164632500Y-129875000I237500J0D01*
G01*
G37*
%TD*%
%TO.C,C501*%
G36*
G01*
X136032500Y-131600000D02*
X136507500Y-131600000D01*
G75*
G02*
X136745000Y-131837500I0J-237500D01*
G01*
X136745000Y-132437500D01*
G75*
G02*
X136507500Y-132675000I-237500J0D01*
G01*
X136032500Y-132675000D01*
G75*
G02*
X135795000Y-132437500I0J237500D01*
G01*
X135795000Y-131837500D01*
G75*
G02*
X136032500Y-131600000I237500J0D01*
G01*
G37*
G36*
G01*
X136032500Y-129875000D02*
X136507500Y-129875000D01*
G75*
G02*
X136745000Y-130112500I0J-237500D01*
G01*
X136745000Y-130712500D01*
G75*
G02*
X136507500Y-130950000I-237500J0D01*
G01*
X136032500Y-130950000D01*
G75*
G02*
X135795000Y-130712500I0J237500D01*
G01*
X135795000Y-130112500D01*
G75*
G02*
X136032500Y-129875000I237500J0D01*
G01*
G37*
%TD*%
%TO.C,C501*%
G36*
G01*
X107432500Y-131600000D02*
X107907500Y-131600000D01*
G75*
G02*
X108145000Y-131837500I0J-237500D01*
G01*
X108145000Y-132437500D01*
G75*
G02*
X107907500Y-132675000I-237500J0D01*
G01*
X107432500Y-132675000D01*
G75*
G02*
X107195000Y-132437500I0J237500D01*
G01*
X107195000Y-131837500D01*
G75*
G02*
X107432500Y-131600000I237500J0D01*
G01*
G37*
G36*
G01*
X107432500Y-129875000D02*
X107907500Y-129875000D01*
G75*
G02*
X108145000Y-130112500I0J-237500D01*
G01*
X108145000Y-130712500D01*
G75*
G02*
X107907500Y-130950000I-237500J0D01*
G01*
X107432500Y-130950000D01*
G75*
G02*
X107195000Y-130712500I0J237500D01*
G01*
X107195000Y-130112500D01*
G75*
G02*
X107432500Y-129875000I237500J0D01*
G01*
G37*
%TD*%
%TO.C,C501*%
G36*
G01*
X164632500Y-89500000D02*
X165107500Y-89500000D01*
G75*
G02*
X165345000Y-89737500I0J-237500D01*
G01*
X165345000Y-90337500D01*
G75*
G02*
X165107500Y-90575000I-237500J0D01*
G01*
X164632500Y-90575000D01*
G75*
G02*
X164395000Y-90337500I0J237500D01*
G01*
X164395000Y-89737500D01*
G75*
G02*
X164632500Y-89500000I237500J0D01*
G01*
G37*
G36*
G01*
X164632500Y-87775000D02*
X165107500Y-87775000D01*
G75*
G02*
X165345000Y-88012500I0J-237500D01*
G01*
X165345000Y-88612500D01*
G75*
G02*
X165107500Y-88850000I-237500J0D01*
G01*
X164632500Y-88850000D01*
G75*
G02*
X164395000Y-88612500I0J237500D01*
G01*
X164395000Y-88012500D01*
G75*
G02*
X164632500Y-87775000I237500J0D01*
G01*
G37*
%TD*%
%TO.C,C501*%
G36*
G01*
X136032500Y-89500000D02*
X136507500Y-89500000D01*
G75*
G02*
X136745000Y-89737500I0J-237500D01*
G01*
X136745000Y-90337500D01*
G75*
G02*
X136507500Y-90575000I-237500J0D01*
G01*
X136032500Y-90575000D01*
G75*
G02*
X135795000Y-90337500I0J237500D01*
G01*
X135795000Y-89737500D01*
G75*
G02*
X136032500Y-89500000I237500J0D01*
G01*
G37*
G36*
G01*
X136032500Y-87775000D02*
X136507500Y-87775000D01*
G75*
G02*
X136745000Y-88012500I0J-237500D01*
G01*
X136745000Y-88612500D01*
G75*
G02*
X136507500Y-88850000I-237500J0D01*
G01*
X136032500Y-88850000D01*
G75*
G02*
X135795000Y-88612500I0J237500D01*
G01*
X135795000Y-88012500D01*
G75*
G02*
X136032500Y-87775000I237500J0D01*
G01*
G37*
%TD*%
%TO.C,D501*%
G36*
G01*
X163620000Y-100987500D02*
X163620000Y-101462500D01*
G75*
G02*
X163382500Y-101700000I-237500J0D01*
G01*
X162807500Y-101700000D01*
G75*
G02*
X162570000Y-101462500I0J237500D01*
G01*
X162570000Y-100987500D01*
G75*
G02*
X162807500Y-100750000I237500J0D01*
G01*
X163382500Y-100750000D01*
G75*
G02*
X163620000Y-100987500I0J-237500D01*
G01*
G37*
G36*
G01*
X165370000Y-100987500D02*
X165370000Y-101462500D01*
G75*
G02*
X165132500Y-101700000I-237500J0D01*
G01*
X164557500Y-101700000D01*
G75*
G02*
X164320000Y-101462500I0J237500D01*
G01*
X164320000Y-100987500D01*
G75*
G02*
X164557500Y-100750000I237500J0D01*
G01*
X165132500Y-100750000D01*
G75*
G02*
X165370000Y-100987500I0J-237500D01*
G01*
G37*
%TD*%
%TO.C,D501*%
G36*
G01*
X135020000Y-100987500D02*
X135020000Y-101462500D01*
G75*
G02*
X134782500Y-101700000I-237500J0D01*
G01*
X134207500Y-101700000D01*
G75*
G02*
X133970000Y-101462500I0J237500D01*
G01*
X133970000Y-100987500D01*
G75*
G02*
X134207500Y-100750000I237500J0D01*
G01*
X134782500Y-100750000D01*
G75*
G02*
X135020000Y-100987500I0J-237500D01*
G01*
G37*
G36*
G01*
X136770000Y-100987500D02*
X136770000Y-101462500D01*
G75*
G02*
X136532500Y-101700000I-237500J0D01*
G01*
X135957500Y-101700000D01*
G75*
G02*
X135720000Y-101462500I0J237500D01*
G01*
X135720000Y-100987500D01*
G75*
G02*
X135957500Y-100750000I237500J0D01*
G01*
X136532500Y-100750000D01*
G75*
G02*
X136770000Y-100987500I0J-237500D01*
G01*
G37*
%TD*%
%TO.C,D501*%
G36*
G01*
X106420000Y-100987500D02*
X106420000Y-101462500D01*
G75*
G02*
X106182500Y-101700000I-237500J0D01*
G01*
X105607500Y-101700000D01*
G75*
G02*
X105370000Y-101462500I0J237500D01*
G01*
X105370000Y-100987500D01*
G75*
G02*
X105607500Y-100750000I237500J0D01*
G01*
X106182500Y-100750000D01*
G75*
G02*
X106420000Y-100987500I0J-237500D01*
G01*
G37*
G36*
G01*
X108170000Y-100987500D02*
X108170000Y-101462500D01*
G75*
G02*
X107932500Y-101700000I-237500J0D01*
G01*
X107357500Y-101700000D01*
G75*
G02*
X107120000Y-101462500I0J237500D01*
G01*
X107120000Y-100987500D01*
G75*
G02*
X107357500Y-100750000I237500J0D01*
G01*
X107932500Y-100750000D01*
G75*
G02*
X108170000Y-100987500I0J-237500D01*
G01*
G37*
%TD*%
%TO.C,D501*%
G36*
G01*
X163620000Y-58887500D02*
X163620000Y-59362500D01*
G75*
G02*
X163382500Y-59600000I-237500J0D01*
G01*
X162807500Y-59600000D01*
G75*
G02*
X162570000Y-59362500I0J237500D01*
G01*
X162570000Y-58887500D01*
G75*
G02*
X162807500Y-58650000I237500J0D01*
G01*
X163382500Y-58650000D01*
G75*
G02*
X163620000Y-58887500I0J-237500D01*
G01*
G37*
G36*
G01*
X165370000Y-58887500D02*
X165370000Y-59362500D01*
G75*
G02*
X165132500Y-59600000I-237500J0D01*
G01*
X164557500Y-59600000D01*
G75*
G02*
X164320000Y-59362500I0J237500D01*
G01*
X164320000Y-58887500D01*
G75*
G02*
X164557500Y-58650000I237500J0D01*
G01*
X165132500Y-58650000D01*
G75*
G02*
X165370000Y-58887500I0J-237500D01*
G01*
G37*
%TD*%
%TO.C,D501*%
G36*
G01*
X135020000Y-58887500D02*
X135020000Y-59362500D01*
G75*
G02*
X134782500Y-59600000I-237500J0D01*
G01*
X134207500Y-59600000D01*
G75*
G02*
X133970000Y-59362500I0J237500D01*
G01*
X133970000Y-58887500D01*
G75*
G02*
X134207500Y-58650000I237500J0D01*
G01*
X134782500Y-58650000D01*
G75*
G02*
X135020000Y-58887500I0J-237500D01*
G01*
G37*
G36*
G01*
X136770000Y-58887500D02*
X136770000Y-59362500D01*
G75*
G02*
X136532500Y-59600000I-237500J0D01*
G01*
X135957500Y-59600000D01*
G75*
G02*
X135720000Y-59362500I0J237500D01*
G01*
X135720000Y-58887500D01*
G75*
G02*
X135957500Y-58650000I237500J0D01*
G01*
X136532500Y-58650000D01*
G75*
G02*
X136770000Y-58887500I0J-237500D01*
G01*
G37*
%TD*%
%TO.C,R502*%
G36*
G01*
X167782500Y-131700000D02*
X168257500Y-131700000D01*
G75*
G02*
X168495000Y-131937500I0J-237500D01*
G01*
X168495000Y-132437500D01*
G75*
G02*
X168257500Y-132675000I-237500J0D01*
G01*
X167782500Y-132675000D01*
G75*
G02*
X167545000Y-132437500I0J237500D01*
G01*
X167545000Y-131937500D01*
G75*
G02*
X167782500Y-131700000I237500J0D01*
G01*
G37*
G36*
G01*
X167782500Y-129875000D02*
X168257500Y-129875000D01*
G75*
G02*
X168495000Y-130112500I0J-237500D01*
G01*
X168495000Y-130612500D01*
G75*
G02*
X168257500Y-130850000I-237500J0D01*
G01*
X167782500Y-130850000D01*
G75*
G02*
X167545000Y-130612500I0J237500D01*
G01*
X167545000Y-130112500D01*
G75*
G02*
X167782500Y-129875000I237500J0D01*
G01*
G37*
%TD*%
%TO.C,R502*%
G36*
G01*
X139182500Y-131700000D02*
X139657500Y-131700000D01*
G75*
G02*
X139895000Y-131937500I0J-237500D01*
G01*
X139895000Y-132437500D01*
G75*
G02*
X139657500Y-132675000I-237500J0D01*
G01*
X139182500Y-132675000D01*
G75*
G02*
X138945000Y-132437500I0J237500D01*
G01*
X138945000Y-131937500D01*
G75*
G02*
X139182500Y-131700000I237500J0D01*
G01*
G37*
G36*
G01*
X139182500Y-129875000D02*
X139657500Y-129875000D01*
G75*
G02*
X139895000Y-130112500I0J-237500D01*
G01*
X139895000Y-130612500D01*
G75*
G02*
X139657500Y-130850000I-237500J0D01*
G01*
X139182500Y-130850000D01*
G75*
G02*
X138945000Y-130612500I0J237500D01*
G01*
X138945000Y-130112500D01*
G75*
G02*
X139182500Y-129875000I237500J0D01*
G01*
G37*
%TD*%
%TO.C,R502*%
G36*
G01*
X110582500Y-131700000D02*
X111057500Y-131700000D01*
G75*
G02*
X111295000Y-131937500I0J-237500D01*
G01*
X111295000Y-132437500D01*
G75*
G02*
X111057500Y-132675000I-237500J0D01*
G01*
X110582500Y-132675000D01*
G75*
G02*
X110345000Y-132437500I0J237500D01*
G01*
X110345000Y-131937500D01*
G75*
G02*
X110582500Y-131700000I237500J0D01*
G01*
G37*
G36*
G01*
X110582500Y-129875000D02*
X111057500Y-129875000D01*
G75*
G02*
X111295000Y-130112500I0J-237500D01*
G01*
X111295000Y-130612500D01*
G75*
G02*
X111057500Y-130850000I-237500J0D01*
G01*
X110582500Y-130850000D01*
G75*
G02*
X110345000Y-130612500I0J237500D01*
G01*
X110345000Y-130112500D01*
G75*
G02*
X110582500Y-129875000I237500J0D01*
G01*
G37*
%TD*%
%TO.C,R502*%
G36*
G01*
X167782500Y-89600000D02*
X168257500Y-89600000D01*
G75*
G02*
X168495000Y-89837500I0J-237500D01*
G01*
X168495000Y-90337500D01*
G75*
G02*
X168257500Y-90575000I-237500J0D01*
G01*
X167782500Y-90575000D01*
G75*
G02*
X167545000Y-90337500I0J237500D01*
G01*
X167545000Y-89837500D01*
G75*
G02*
X167782500Y-89600000I237500J0D01*
G01*
G37*
G36*
G01*
X167782500Y-87775000D02*
X168257500Y-87775000D01*
G75*
G02*
X168495000Y-88012500I0J-237500D01*
G01*
X168495000Y-88512500D01*
G75*
G02*
X168257500Y-88750000I-237500J0D01*
G01*
X167782500Y-88750000D01*
G75*
G02*
X167545000Y-88512500I0J237500D01*
G01*
X167545000Y-88012500D01*
G75*
G02*
X167782500Y-87775000I237500J0D01*
G01*
G37*
%TD*%
%TO.C,R502*%
G36*
G01*
X139182500Y-89600000D02*
X139657500Y-89600000D01*
G75*
G02*
X139895000Y-89837500I0J-237500D01*
G01*
X139895000Y-90337500D01*
G75*
G02*
X139657500Y-90575000I-237500J0D01*
G01*
X139182500Y-90575000D01*
G75*
G02*
X138945000Y-90337500I0J237500D01*
G01*
X138945000Y-89837500D01*
G75*
G02*
X139182500Y-89600000I237500J0D01*
G01*
G37*
G36*
G01*
X139182500Y-87775000D02*
X139657500Y-87775000D01*
G75*
G02*
X139895000Y-88012500I0J-237500D01*
G01*
X139895000Y-88512500D01*
G75*
G02*
X139657500Y-88750000I-237500J0D01*
G01*
X139182500Y-88750000D01*
G75*
G02*
X138945000Y-88512500I0J237500D01*
G01*
X138945000Y-88012500D01*
G75*
G02*
X139182500Y-87775000I237500J0D01*
G01*
G37*
%TD*%
%TO.C,C104*%
G36*
G01*
X121969998Y-86150000D02*
X123270002Y-86150000D01*
G75*
G02*
X123520000Y-86399998I0J-249998D01*
G01*
X123520000Y-87225002D01*
G75*
G02*
X123270002Y-87475000I-249998J0D01*
G01*
X121969998Y-87475000D01*
G75*
G02*
X121720000Y-87225002I0J249998D01*
G01*
X121720000Y-86399998D01*
G75*
G02*
X121969998Y-86150000I249998J0D01*
G01*
G37*
G36*
G01*
X121969998Y-89275000D02*
X123270002Y-89275000D01*
G75*
G02*
X123520000Y-89524998I0J-249998D01*
G01*
X123520000Y-90350002D01*
G75*
G02*
X123270002Y-90600000I-249998J0D01*
G01*
X121969998Y-90600000D01*
G75*
G02*
X121720000Y-90350002I0J249998D01*
G01*
X121720000Y-89524998D01*
G75*
G02*
X121969998Y-89275000I249998J0D01*
G01*
G37*
%TD*%
%TO.C,R506*%
G36*
G01*
X128057500Y-90575000D02*
X127582500Y-90575000D01*
G75*
G02*
X127345000Y-90337500I0J237500D01*
G01*
X127345000Y-89837500D01*
G75*
G02*
X127582500Y-89600000I237500J0D01*
G01*
X128057500Y-89600000D01*
G75*
G02*
X128295000Y-89837500I0J-237500D01*
G01*
X128295000Y-90337500D01*
G75*
G02*
X128057500Y-90575000I-237500J0D01*
G01*
G37*
G36*
G01*
X128057500Y-88750000D02*
X127582500Y-88750000D01*
G75*
G02*
X127345000Y-88512500I0J237500D01*
G01*
X127345000Y-88012500D01*
G75*
G02*
X127582500Y-87775000I237500J0D01*
G01*
X128057500Y-87775000D01*
G75*
G02*
X128295000Y-88012500I0J-237500D01*
G01*
X128295000Y-88512500D01*
G75*
G02*
X128057500Y-88750000I-237500J0D01*
G01*
G37*
%TD*%
%TO.C,C501*%
G36*
G01*
X107432500Y-87775000D02*
X107907500Y-87775000D01*
G75*
G02*
X108145000Y-88012500I0J-237500D01*
G01*
X108145000Y-88612500D01*
G75*
G02*
X107907500Y-88850000I-237500J0D01*
G01*
X107432500Y-88850000D01*
G75*
G02*
X107195000Y-88612500I0J237500D01*
G01*
X107195000Y-88012500D01*
G75*
G02*
X107432500Y-87775000I237500J0D01*
G01*
G37*
G36*
G01*
X107432500Y-89500000D02*
X107907500Y-89500000D01*
G75*
G02*
X108145000Y-89737500I0J-237500D01*
G01*
X108145000Y-90337500D01*
G75*
G02*
X107907500Y-90575000I-237500J0D01*
G01*
X107432500Y-90575000D01*
G75*
G02*
X107195000Y-90337500I0J237500D01*
G01*
X107195000Y-89737500D01*
G75*
G02*
X107432500Y-89500000I237500J0D01*
G01*
G37*
%TD*%
%TO.C,C102*%
G36*
G01*
X112169998Y-86150000D02*
X113470002Y-86150000D01*
G75*
G02*
X113720000Y-86399998I0J-249998D01*
G01*
X113720000Y-87225002D01*
G75*
G02*
X113470002Y-87475000I-249998J0D01*
G01*
X112169998Y-87475000D01*
G75*
G02*
X111920000Y-87225002I0J249998D01*
G01*
X111920000Y-86399998D01*
G75*
G02*
X112169998Y-86150000I249998J0D01*
G01*
G37*
G36*
G01*
X112169998Y-89275000D02*
X113470002Y-89275000D01*
G75*
G02*
X113720000Y-89524998I0J-249998D01*
G01*
X113720000Y-90350002D01*
G75*
G02*
X113470002Y-90600000I-249998J0D01*
G01*
X112169998Y-90600000D01*
G75*
G02*
X111920000Y-90350002I0J249998D01*
G01*
X111920000Y-89524998D01*
G75*
G02*
X112169998Y-89275000I249998J0D01*
G01*
G37*
%TD*%
%TO.C,C101*%
G36*
G01*
X114619998Y-86150000D02*
X115920002Y-86150000D01*
G75*
G02*
X116170000Y-86399998I0J-249998D01*
G01*
X116170000Y-87225002D01*
G75*
G02*
X115920002Y-87475000I-249998J0D01*
G01*
X114619998Y-87475000D01*
G75*
G02*
X114370000Y-87225002I0J249998D01*
G01*
X114370000Y-86399998D01*
G75*
G02*
X114619998Y-86150000I249998J0D01*
G01*
G37*
G36*
G01*
X114619998Y-89275000D02*
X115920002Y-89275000D01*
G75*
G02*
X116170000Y-89524998I0J-249998D01*
G01*
X116170000Y-90350002D01*
G75*
G02*
X115920002Y-90600000I-249998J0D01*
G01*
X114619998Y-90600000D01*
G75*
G02*
X114370000Y-90350002I0J249998D01*
G01*
X114370000Y-89524998D01*
G75*
G02*
X114619998Y-89275000I249998J0D01*
G01*
G37*
%TD*%
%TO.C,R504*%
G36*
G01*
X106319999Y-60275000D02*
X107220001Y-60275000D01*
G75*
G02*
X107470000Y-60524999I0J-249999D01*
G01*
X107470000Y-61225001D01*
G75*
G02*
X107220001Y-61475000I-249999J0D01*
G01*
X106319999Y-61475000D01*
G75*
G02*
X106070000Y-61225001I0J249999D01*
G01*
X106070000Y-60524999D01*
G75*
G02*
X106319999Y-60275000I249999J0D01*
G01*
G37*
G36*
G01*
X106319999Y-62275000D02*
X107220001Y-62275000D01*
G75*
G02*
X107470000Y-62524999I0J-249999D01*
G01*
X107470000Y-63225001D01*
G75*
G02*
X107220001Y-63475000I-249999J0D01*
G01*
X106319999Y-63475000D01*
G75*
G02*
X106070000Y-63225001I0J249999D01*
G01*
X106070000Y-62524999D01*
G75*
G02*
X106319999Y-62275000I249999J0D01*
G01*
G37*
%TD*%
%TO.C,R502*%
G36*
G01*
X110582500Y-87775000D02*
X111057500Y-87775000D01*
G75*
G02*
X111295000Y-88012500I0J-237500D01*
G01*
X111295000Y-88512500D01*
G75*
G02*
X111057500Y-88750000I-237500J0D01*
G01*
X110582500Y-88750000D01*
G75*
G02*
X110345000Y-88512500I0J237500D01*
G01*
X110345000Y-88012500D01*
G75*
G02*
X110582500Y-87775000I237500J0D01*
G01*
G37*
G36*
G01*
X110582500Y-89600000D02*
X111057500Y-89600000D01*
G75*
G02*
X111295000Y-89837500I0J-237500D01*
G01*
X111295000Y-90337500D01*
G75*
G02*
X111057500Y-90575000I-237500J0D01*
G01*
X110582500Y-90575000D01*
G75*
G02*
X110345000Y-90337500I0J237500D01*
G01*
X110345000Y-89837500D01*
G75*
G02*
X110582500Y-89600000I237500J0D01*
G01*
G37*
%TD*%
%TO.C,C103*%
G36*
G01*
X119519998Y-86150000D02*
X120820002Y-86150000D01*
G75*
G02*
X121070000Y-86399998I0J-249998D01*
G01*
X121070000Y-87225002D01*
G75*
G02*
X120820002Y-87475000I-249998J0D01*
G01*
X119519998Y-87475000D01*
G75*
G02*
X119270000Y-87225002I0J249998D01*
G01*
X119270000Y-86399998D01*
G75*
G02*
X119519998Y-86150000I249998J0D01*
G01*
G37*
G36*
G01*
X119519998Y-89275000D02*
X120820002Y-89275000D01*
G75*
G02*
X121070000Y-89524998I0J-249998D01*
G01*
X121070000Y-90350002D01*
G75*
G02*
X120820002Y-90600000I-249998J0D01*
G01*
X119519998Y-90600000D01*
G75*
G02*
X119270000Y-90350002I0J249998D01*
G01*
X119270000Y-89524998D01*
G75*
G02*
X119519998Y-89275000I249998J0D01*
G01*
G37*
%TD*%
%TO.C,R503*%
G36*
G01*
X109507500Y-90575000D02*
X109032500Y-90575000D01*
G75*
G02*
X108795000Y-90337500I0J237500D01*
G01*
X108795000Y-89837500D01*
G75*
G02*
X109032500Y-89600000I237500J0D01*
G01*
X109507500Y-89600000D01*
G75*
G02*
X109745000Y-89837500I0J-237500D01*
G01*
X109745000Y-90337500D01*
G75*
G02*
X109507500Y-90575000I-237500J0D01*
G01*
G37*
G36*
G01*
X109507500Y-88750000D02*
X109032500Y-88750000D01*
G75*
G02*
X108795000Y-88512500I0J237500D01*
G01*
X108795000Y-88012500D01*
G75*
G02*
X109032500Y-87775000I237500J0D01*
G01*
X109507500Y-87775000D01*
G75*
G02*
X109745000Y-88012500I0J-237500D01*
G01*
X109745000Y-88512500D01*
G75*
G02*
X109507500Y-88750000I-237500J0D01*
G01*
G37*
%TD*%
%TO.C,R501*%
G36*
G01*
X124382500Y-87775000D02*
X124857500Y-87775000D01*
G75*
G02*
X125095000Y-88012500I0J-237500D01*
G01*
X125095000Y-88512500D01*
G75*
G02*
X124857500Y-88750000I-237500J0D01*
G01*
X124382500Y-88750000D01*
G75*
G02*
X124145000Y-88512500I0J237500D01*
G01*
X124145000Y-88012500D01*
G75*
G02*
X124382500Y-87775000I237500J0D01*
G01*
G37*
G36*
G01*
X124382500Y-89600000D02*
X124857500Y-89600000D01*
G75*
G02*
X125095000Y-89837500I0J-237500D01*
G01*
X125095000Y-90337500D01*
G75*
G02*
X124857500Y-90575000I-237500J0D01*
G01*
X124382500Y-90575000D01*
G75*
G02*
X124145000Y-90337500I0J237500D01*
G01*
X124145000Y-89837500D01*
G75*
G02*
X124382500Y-89600000I237500J0D01*
G01*
G37*
%TD*%
%TO.C,D502*%
G36*
G01*
X127220000Y-59462500D02*
X127220000Y-58987500D01*
G75*
G02*
X127457500Y-58750000I237500J0D01*
G01*
X128032500Y-58750000D01*
G75*
G02*
X128270000Y-58987500I0J-237500D01*
G01*
X128270000Y-59462500D01*
G75*
G02*
X128032500Y-59700000I-237500J0D01*
G01*
X127457500Y-59700000D01*
G75*
G02*
X127220000Y-59462500I0J237500D01*
G01*
G37*
G36*
G01*
X128970000Y-59462500D02*
X128970000Y-58987500D01*
G75*
G02*
X129207500Y-58750000I237500J0D01*
G01*
X129782500Y-58750000D01*
G75*
G02*
X130020000Y-58987500I0J-237500D01*
G01*
X130020000Y-59462500D01*
G75*
G02*
X129782500Y-59700000I-237500J0D01*
G01*
X129207500Y-59700000D01*
G75*
G02*
X128970000Y-59462500I0J237500D01*
G01*
G37*
%TD*%
%TO.C,D501*%
G36*
G01*
X108170000Y-58887500D02*
X108170000Y-59362500D01*
G75*
G02*
X107932500Y-59600000I-237500J0D01*
G01*
X107357500Y-59600000D01*
G75*
G02*
X107120000Y-59362500I0J237500D01*
G01*
X107120000Y-58887500D01*
G75*
G02*
X107357500Y-58650000I237500J0D01*
G01*
X107932500Y-58650000D01*
G75*
G02*
X108170000Y-58887500I0J-237500D01*
G01*
G37*
G36*
G01*
X106420000Y-58887500D02*
X106420000Y-59362500D01*
G75*
G02*
X106182500Y-59600000I-237500J0D01*
G01*
X105607500Y-59600000D01*
G75*
G02*
X105370000Y-59362500I0J237500D01*
G01*
X105370000Y-58887500D01*
G75*
G02*
X105607500Y-58650000I237500J0D01*
G01*
X106182500Y-58650000D01*
G75*
G02*
X106420000Y-58887500I0J-237500D01*
G01*
G37*
%TD*%
%TO.C,C502*%
G36*
G01*
X117069998Y-86150000D02*
X118370002Y-86150000D01*
G75*
G02*
X118620000Y-86399998I0J-249998D01*
G01*
X118620000Y-87225002D01*
G75*
G02*
X118370002Y-87475000I-249998J0D01*
G01*
X117069998Y-87475000D01*
G75*
G02*
X116820000Y-87225002I0J249998D01*
G01*
X116820000Y-86399998D01*
G75*
G02*
X117069998Y-86150000I249998J0D01*
G01*
G37*
G36*
G01*
X117069998Y-89275000D02*
X118370002Y-89275000D01*
G75*
G02*
X118620000Y-89524998I0J-249998D01*
G01*
X118620000Y-90350002D01*
G75*
G02*
X118370002Y-90600000I-249998J0D01*
G01*
X117069998Y-90600000D01*
G75*
G02*
X116820000Y-90350002I0J249998D01*
G01*
X116820000Y-89524998D01*
G75*
G02*
X117069998Y-89275000I249998J0D01*
G01*
G37*
%TD*%
%TO.C,R505*%
G36*
G01*
X126457500Y-90575000D02*
X125982500Y-90575000D01*
G75*
G02*
X125745000Y-90337500I0J237500D01*
G01*
X125745000Y-89837500D01*
G75*
G02*
X125982500Y-89600000I237500J0D01*
G01*
X126457500Y-89600000D01*
G75*
G02*
X126695000Y-89837500I0J-237500D01*
G01*
X126695000Y-90337500D01*
G75*
G02*
X126457500Y-90575000I-237500J0D01*
G01*
G37*
G36*
G01*
X126457500Y-88750000D02*
X125982500Y-88750000D01*
G75*
G02*
X125745000Y-88512500I0J237500D01*
G01*
X125745000Y-88012500D01*
G75*
G02*
X125982500Y-87775000I237500J0D01*
G01*
X126457500Y-87775000D01*
G75*
G02*
X126695000Y-88012500I0J-237500D01*
G01*
X126695000Y-88512500D01*
G75*
G02*
X126457500Y-88750000I-237500J0D01*
G01*
G37*
%TD*%
%TO.C,SW501*%
X121570000Y-92975000D03*
X129370000Y-92975000D03*
%TD*%
%TO.C,SW502*%
X113620000Y-92925000D03*
X105820000Y-92925000D03*
%TD*%
D10*
%TO.C,U501*%
X110120000Y-64975000D03*
X110120000Y-66975000D03*
X110120000Y-68975000D03*
X110120000Y-70975000D03*
X110120000Y-72975000D03*
X110120000Y-74975000D03*
X110120000Y-76975000D03*
X110120000Y-78975000D03*
D11*
X112720000Y-80475000D03*
X114720000Y-80475000D03*
X116720000Y-80475000D03*
X118720000Y-80475000D03*
X120720000Y-80475000D03*
X122720000Y-80475000D03*
D10*
X125320000Y-78975000D03*
X125320000Y-76975000D03*
X125320000Y-74975000D03*
X125320000Y-72975000D03*
X125320000Y-70975000D03*
X125320000Y-68975000D03*
X125320000Y-66975000D03*
X125320000Y-64975000D03*
%TD*%
%TO.C,R507*%
G36*
G01*
X128419999Y-60375000D02*
X129320001Y-60375000D01*
G75*
G02*
X129570000Y-60624999I0J-249999D01*
G01*
X129570000Y-61325001D01*
G75*
G02*
X129320001Y-61575000I-249999J0D01*
G01*
X128419999Y-61575000D01*
G75*
G02*
X128170000Y-61325001I0J249999D01*
G01*
X128170000Y-60624999D01*
G75*
G02*
X128419999Y-60375000I249999J0D01*
G01*
G37*
G36*
G01*
X128419999Y-62375000D02*
X129320001Y-62375000D01*
G75*
G02*
X129570000Y-62624999I0J-249999D01*
G01*
X129570000Y-63325001D01*
G75*
G02*
X129320001Y-63575000I-249999J0D01*
G01*
X128419999Y-63575000D01*
G75*
G02*
X128170000Y-63325001I0J249999D01*
G01*
X128170000Y-62624999D01*
G75*
G02*
X128419999Y-62375000I249999J0D01*
G01*
G37*
%TD*%
M02*
