M48
; DRILL file {KiCad 5.1.12-84ad8e8a86~92~ubuntu20.04.1} date Παρ 07 Ιαν 2022 10:29:13 μμ EET
; FORMAT={-:-/ absolute / inch / decimal}
; #@! TF.CreationDate,2022-01-07T22:29:13+02:00
; #@! TF.GenerationSoftware,Kicad,Pcbnew,5.1.12-84ad8e8a86~92~ubuntu20.04.1
; #@! TF.FileFunction,Plated,1,2,PTH
FMAT,2
INCH
T1C0.0157
T2C0.0394
%
G90
G05
T1
X4.1602Y-2.2293
X4.1602Y-3.8868
X4.2173Y-3.6053
X4.2173Y-5.2628
X4.2429Y-2.2274
X4.2429Y-3.8848
X4.2769Y-3.3548
X4.2769Y-5.0123
X4.2921Y-3.4262
X4.2921Y-5.0837
X4.3108Y-3.2018
X4.3108Y-4.8593
X4.4142Y-2.8297
X4.4142Y-2.9439
X4.4142Y-4.4872
X4.4142Y-4.6014
X4.4181Y-2.564
X4.4181Y-2.6939
X4.4181Y-4.2215
X4.4181Y-4.3514
X4.4201Y-3.7116
X4.4201Y-5.3691
X4.428Y-3.1033
X4.428Y-4.7608
X4.4732Y-3.1033
X4.4732Y-4.7608
X4.4969Y-3.0089
X4.4969Y-4.6663
X4.5185Y-3.1033
X4.5185Y-4.7608
X4.5618Y-3.1033
X4.5618Y-4.7608
X4.5638Y-3.623
X4.5638Y-5.2805
X4.6957Y-3.625
X4.6957Y-5.2825
X4.739Y-3.0974
X4.739Y-4.7549
X4.7429Y-2.9813
X4.7429Y-4.6388
X4.7862Y-3.0974
X4.7862Y-4.7549
X4.8276Y-3.0955
X4.8276Y-4.753
X4.8295Y-2.8297
X4.8295Y-3.0167
X4.8295Y-3.0561
X4.8295Y-4.4872
X4.8295Y-4.6742
X4.8295Y-4.7136
X4.8335Y-2.9439
X4.8335Y-4.6014
X4.8394Y-3.7136
X4.8394Y-5.3711
X4.8492Y-2.562
X4.8492Y-4.2195
X4.8613Y-2.6925
X4.8613Y-4.35
X4.8886Y-3.1624
X4.8886Y-4.8199
X4.922Y-3.4242
X4.922Y-5.0817
X4.9535Y-3.1683
X4.9535Y-4.8258
X4.9713Y-3.4262
X4.9713Y-5.0837
X5.0205Y-3.4242
X5.0205Y-5.0817
X5.0264Y-2.2234
X5.0264Y-3.8809
X5.0303Y-2.5325
X5.0303Y-4.19
X5.0421Y-3.6053
X5.0421Y-5.2628
X5.0933Y-3.4715
X5.0933Y-3.6053
X5.0933Y-5.1289
X5.0933Y-5.2628
X5.1012Y-2.2254
X5.1012Y-3.8829
X5.2862Y-2.2293
X5.2862Y-3.8868
X5.3433Y-3.6053
X5.3433Y-5.2628
X5.3689Y-2.2274
X5.3689Y-3.8848
X5.4028Y-3.3548
X5.4028Y-5.0123
X5.4181Y-3.4262
X5.4181Y-5.0837
X5.4368Y-3.2018
X5.4368Y-4.8593
X5.5402Y-2.8297
X5.5402Y-2.9439
X5.5402Y-4.4872
X5.5402Y-4.6014
X5.5441Y-2.564
X5.5441Y-2.6939
X5.5441Y-4.2215
X5.5441Y-4.3514
X5.5461Y-3.7116
X5.5461Y-5.3691
X5.5539Y-3.1033
X5.5539Y-4.7608
X5.5992Y-3.1033
X5.5992Y-4.7608
X5.6228Y-3.0089
X5.6228Y-4.6663
X5.6445Y-3.1033
X5.6445Y-4.7608
X5.6878Y-3.1033
X5.6878Y-4.7608
X5.6898Y-3.623
X5.6898Y-5.2805
X5.8217Y-3.625
X5.8217Y-5.2825
X5.865Y-3.0974
X5.865Y-4.7549
X5.8689Y-2.9813
X5.8689Y-4.6388
X5.9122Y-3.0974
X5.9122Y-4.7549
X5.9535Y-3.0955
X5.9535Y-4.753
X5.9555Y-2.8297
X5.9555Y-3.0167
X5.9555Y-3.0561
X5.9555Y-4.4872
X5.9555Y-4.6742
X5.9555Y-4.7136
X5.9594Y-2.9439
X5.9594Y-4.6014
X5.9654Y-3.7136
X5.9654Y-5.3711
X5.9752Y-2.562
X5.9752Y-4.2195
X5.9872Y-2.6925
X5.9872Y-4.35
X6.0146Y-3.1624
X6.0146Y-4.8199
X6.048Y-3.4242
X6.048Y-5.0817
X6.0795Y-3.1683
X6.0795Y-4.8258
X6.0972Y-3.4262
X6.0972Y-5.0837
X6.1465Y-3.4242
X6.1465Y-5.0817
X6.1524Y-2.2234
X6.1524Y-3.8809
X6.1563Y-2.5325
X6.1563Y-4.19
X6.1681Y-3.6053
X6.1681Y-5.2628
X6.2193Y-3.4715
X6.2193Y-3.6053
X6.2193Y-5.1289
X6.2193Y-5.2628
X6.2272Y-2.2254
X6.2272Y-3.8829
X6.4122Y-2.2293
X6.4122Y-3.8868
X6.4693Y-3.6053
X6.4693Y-5.2628
X6.4949Y-2.2274
X6.4949Y-3.8848
X6.5288Y-3.3548
X6.5288Y-5.0123
X6.5441Y-3.4262
X6.5441Y-5.0837
X6.5628Y-3.2018
X6.5628Y-4.8593
X6.6661Y-2.8297
X6.6661Y-2.9439
X6.6661Y-4.4872
X6.6661Y-4.6014
X6.6701Y-2.564
X6.6701Y-2.6939
X6.6701Y-4.2215
X6.6701Y-4.3514
X6.672Y-3.7116
X6.672Y-5.3691
X6.6799Y-3.1033
X6.6799Y-4.7608
X6.7252Y-3.1033
X6.7252Y-4.7608
X6.7488Y-3.0089
X6.7488Y-4.6663
X6.7705Y-3.1033
X6.7705Y-4.7608
X6.8138Y-3.1033
X6.8138Y-4.7608
X6.8157Y-3.623
X6.8157Y-5.2805
X6.9476Y-3.625
X6.9476Y-5.2825
X6.9909Y-3.0974
X6.9909Y-4.7549
X6.9949Y-2.9813
X6.9949Y-4.6388
X7.0382Y-3.0974
X7.0382Y-4.7549
X7.0795Y-3.0955
X7.0795Y-4.753
X7.0815Y-2.8297
X7.0815Y-3.0167
X7.0815Y-3.0561
X7.0815Y-4.4872
X7.0815Y-4.6742
X7.0815Y-4.7136
X7.0854Y-2.9439
X7.0854Y-4.6014
X7.0913Y-3.7136
X7.0913Y-5.3711
X7.1012Y-2.562
X7.1012Y-4.2195
X7.1132Y-2.6925
X7.1132Y-4.35
X7.1406Y-3.1624
X7.1406Y-4.8199
X7.174Y-3.4242
X7.174Y-5.0817
X7.2055Y-3.1683
X7.2055Y-4.8258
X7.2232Y-3.4262
X7.2232Y-5.0837
X7.2724Y-3.4242
X7.2724Y-5.0817
X7.2783Y-2.2234
X7.2783Y-3.8809
X7.2823Y-2.5325
X7.2823Y-4.19
X7.2941Y-3.6053
X7.2941Y-5.2628
X7.3453Y-3.4715
X7.3453Y-3.6053
X7.3453Y-5.1289
X7.3453Y-5.2628
X7.3531Y-2.2254
X7.3531Y-3.8829
T2
X4.178Y-2.5856
X4.178Y-2.6856
X4.178Y-2.7856
X4.178Y-2.8856
X4.178Y-2.9856
X4.178Y-3.0856
X4.178Y-3.1856
X4.178Y-3.2856
X4.178Y-3.3856
X4.178Y-4.2431
X4.178Y-4.3431
X4.178Y-4.4431
X4.178Y-4.5431
X4.178Y-4.6431
X4.178Y-4.7431
X4.178Y-4.8431
X4.178Y-4.9431
X4.178Y-5.0431
X4.3846Y-3.3081
X4.3846Y-4.9656
X4.4846Y-3.3081
X4.4846Y-4.9656
X4.5846Y-3.3081
X4.5846Y-4.9656
X4.6846Y-3.3081
X4.6846Y-4.9656
X4.7846Y-3.3081
X4.7846Y-4.9656
X4.8846Y-3.3081
X4.8846Y-4.9656
X5.0835Y-2.5856
X5.0835Y-2.6856
X5.0835Y-2.7856
X5.0835Y-2.8856
X5.0835Y-2.9856
X5.0835Y-3.0856
X5.0835Y-3.1856
X5.0835Y-3.2856
X5.0835Y-3.3856
X5.0835Y-4.2431
X5.0835Y-4.3431
X5.0835Y-4.4431
X5.0835Y-4.5431
X5.0835Y-4.6431
X5.0835Y-4.7431
X5.0835Y-4.8431
X5.0835Y-4.9431
X5.0835Y-5.0431
X5.3039Y-2.5856
X5.3039Y-2.6856
X5.3039Y-2.7856
X5.3039Y-2.8856
X5.3039Y-2.9856
X5.3039Y-3.0856
X5.3039Y-3.1856
X5.3039Y-3.2856
X5.3039Y-3.3856
X5.3039Y-4.2431
X5.3039Y-4.3431
X5.3039Y-4.4431
X5.3039Y-4.5431
X5.3039Y-4.6431
X5.3039Y-4.7431
X5.3039Y-4.8431
X5.3039Y-4.9431
X5.3039Y-5.0431
X5.5106Y-3.3081
X5.5106Y-4.9656
X5.6106Y-3.3081
X5.6106Y-4.9656
X5.7106Y-3.3081
X5.7106Y-4.9656
X5.8106Y-3.3081
X5.8106Y-4.9656
X5.9106Y-3.3081
X5.9106Y-4.9656
X6.0106Y-3.3081
X6.0106Y-4.9656
X6.2094Y-2.5856
X6.2094Y-2.6856
X6.2094Y-2.7856
X6.2094Y-2.8856
X6.2094Y-2.9856
X6.2094Y-3.0856
X6.2094Y-3.1856
X6.2094Y-3.2856
X6.2094Y-3.3856
X6.2094Y-4.2431
X6.2094Y-4.3431
X6.2094Y-4.4431
X6.2094Y-4.5431
X6.2094Y-4.6431
X6.2094Y-4.7431
X6.2094Y-4.8431
X6.2094Y-4.9431
X6.2094Y-5.0431
X6.4299Y-2.5856
X6.4299Y-2.6856
X6.4299Y-2.7856
X6.4299Y-2.8856
X6.4299Y-2.9856
X6.4299Y-3.0856
X6.4299Y-3.1856
X6.4299Y-3.2856
X6.4299Y-3.3856
X6.4299Y-4.2431
X6.4299Y-4.3431
X6.4299Y-4.4431
X6.4299Y-4.5431
X6.4299Y-4.6431
X6.4299Y-4.7431
X6.4299Y-4.8431
X6.4299Y-4.9431
X6.4299Y-5.0431
X6.6366Y-3.3081
X6.6366Y-4.9656
X6.7366Y-3.3081
X6.7366Y-4.9656
X6.8366Y-3.3081
X6.8366Y-4.9656
X6.9366Y-3.3081
X6.9366Y-4.9656
X7.0366Y-3.3081
X7.0366Y-4.9656
X7.1366Y-3.3081
X7.1366Y-4.9656
X7.3354Y-2.5856
X7.3354Y-2.6856
X7.3354Y-2.7856
X7.3354Y-2.8856
X7.3354Y-2.9856
X7.3354Y-3.0856
X7.3354Y-3.1856
X7.3354Y-3.2856
X7.3354Y-3.3856
X7.3354Y-4.2431
X7.3354Y-4.3431
X7.3354Y-4.4431
X7.3354Y-4.5431
X7.3354Y-4.6431
X7.3354Y-4.7431
X7.3354Y-4.8431
X7.3354Y-4.9431
X7.3354Y-5.0431
T0
M30
