%TF.GenerationSoftware,KiCad,Pcbnew,5.1.12-84ad8e8a86~92~ubuntu20.04.1*%
%TF.CreationDate,2022-01-07T22:28:58+02:00*%
%TF.ProjectId,ESP8266-Breakout-panel,45535038-3236-4362-9d42-7265616b6f75,rev?*%
%TF.SameCoordinates,Original*%
%TF.FileFunction,Profile,NP*%
%FSLAX46Y46*%
G04 Gerber Fmt 4.6, Leading zero omitted, Abs format (unit mm)*
G04 Created by KiCad (PCBNEW 5.1.12-84ad8e8a86~92~ubuntu20.04.1) date 2022-01-07 22:28:58*
%MOMM*%
%LPD*%
G01*
G04 APERTURE LIST*
%TA.AperFunction,Profile*%
%ADD10C,0.050000*%
%TD*%
G04 APERTURE END LIST*
D10*
X190619999Y-75470001D02*
X190619999Y-114669999D01*
X187620001Y-75470001D02*
X187620000Y-94270000D01*
X162019999Y-72569999D02*
X162020000Y-56570000D01*
X159020001Y-75470001D02*
X159020000Y-94270000D01*
X133419999Y-72569999D02*
X133420000Y-56570000D01*
X130420001Y-75470001D02*
X130420000Y-94270000D01*
X104819999Y-72569999D02*
X104820000Y-56570000D01*
X101820001Y-75470001D02*
X101820001Y-114669999D01*
X101820001Y-117570001D02*
X101820000Y-140070000D01*
X162020000Y-56570000D02*
G75*
G02*
X162720000Y-55870000I700000J0D01*
G01*
X104820000Y-98670000D02*
G75*
G02*
X105520000Y-97970000I700000J0D01*
G01*
X133420000Y-98670000D02*
G75*
G02*
X134120000Y-97970000I700000J0D01*
G01*
X162020000Y-98670000D02*
G75*
G02*
X162720000Y-97970000I700000J0D01*
G01*
X158320000Y-55870000D02*
G75*
G02*
X159020000Y-56570000I0J-700000D01*
G01*
X186920000Y-55870000D02*
G75*
G02*
X187620000Y-56570000I0J-700000D01*
G01*
X129720000Y-97970000D02*
G75*
G02*
X130420000Y-98670000I0J-700000D01*
G01*
X158320000Y-97970000D02*
G75*
G02*
X159020000Y-98670000I0J-700000D01*
G01*
X186920000Y-97970000D02*
G75*
G02*
X187620000Y-98670000I0J-700000D01*
G01*
X133420000Y-94270000D02*
X133419999Y-75470001D01*
X162020000Y-94270000D02*
X162019999Y-75470001D01*
X104820000Y-136370000D02*
X104819999Y-117570001D01*
X133420000Y-136370000D02*
X133419999Y-117570001D01*
X162020000Y-136370000D02*
X162019999Y-117570001D01*
X104819999Y-114669999D02*
G75*
G02*
X101820001Y-114669999I-1499999J1299999D01*
G01*
X133419999Y-114669999D02*
G75*
G02*
X130420001Y-114669999I-1499999J1299999D01*
G01*
X162019999Y-114669999D02*
G75*
G02*
X159020001Y-114669999I-1499999J1299999D01*
G01*
X190619999Y-114669999D02*
G75*
G02*
X187620001Y-114669999I-1499999J1299999D01*
G01*
X130420001Y-75470001D02*
G75*
G02*
X133419999Y-75470001I1499999J-1299999D01*
G01*
X159020001Y-75470001D02*
G75*
G02*
X162019999Y-75470001I1499999J-1299999D01*
G01*
X187620001Y-75470001D02*
G75*
G02*
X190619999Y-75470001I1499999J-1299999D01*
G01*
X101820001Y-117570001D02*
G75*
G02*
X104819999Y-117570001I1499999J-1299999D01*
G01*
X130420001Y-117570001D02*
G75*
G02*
X133419999Y-117570001I1499999J-1299999D01*
G01*
X159020001Y-117570001D02*
G75*
G02*
X162019999Y-117570001I1499999J-1299999D01*
G01*
X187620001Y-117570001D02*
G75*
G02*
X190619999Y-117570001I1499999J-1299999D01*
G01*
X118320001Y-140069999D02*
G75*
G02*
X118320001Y-137070001I1299999J1499999D01*
G01*
X146620001Y-140069999D02*
G75*
G02*
X146620001Y-137070001I1299999J1499999D01*
G01*
X174920001Y-140069999D02*
G75*
G02*
X174920001Y-137070001I1299999J1499999D01*
G01*
X146620000Y-52870000D02*
X172019999Y-52870001D01*
X146620001Y-55869999D02*
X158320000Y-55870000D01*
X174920001Y-52870001D02*
X190620000Y-52870000D01*
X174920001Y-55869999D02*
X186920000Y-55870000D01*
X162720000Y-55870000D02*
X172019999Y-55869999D01*
X172019999Y-94970001D02*
X162720000Y-94970000D01*
X174920001Y-97969999D02*
X186920000Y-97970000D01*
X172019999Y-140069999D02*
X146620001Y-140069999D01*
X172019999Y-137070001D02*
X162720000Y-137070000D01*
X146620001Y-97969999D02*
X158320000Y-97970000D01*
X190619999Y-117570001D02*
X190620000Y-140070000D01*
X143719999Y-94970001D02*
X134120000Y-94970000D01*
X143719999Y-137070001D02*
X134120000Y-137070000D01*
X143719999Y-140069999D02*
X118320001Y-140069999D01*
X115419999Y-94970001D02*
X105520000Y-94970000D01*
X118320001Y-97969999D02*
X129720000Y-97970000D01*
X115419999Y-137070001D02*
X105520000Y-137070000D01*
X115419999Y-140069999D02*
X101820000Y-140070000D01*
X101820001Y-75470001D02*
G75*
G02*
X104819999Y-75470001I1499999J-1299999D01*
G01*
X104819999Y-72569999D02*
G75*
G02*
X101820001Y-72569999I-1499999J1299999D01*
G01*
X133419999Y-72569999D02*
G75*
G02*
X130420001Y-72569999I-1499999J1299999D01*
G01*
X162019999Y-72569999D02*
G75*
G02*
X159020001Y-72569999I-1499999J1299999D01*
G01*
X190619999Y-72569999D02*
G75*
G02*
X187620001Y-72569999I-1499999J1299999D01*
G01*
X187620001Y-117570001D02*
X187620000Y-136370000D01*
X104820000Y-52870000D02*
X101820000Y-52870000D01*
X101820000Y-52870000D02*
X101820001Y-72569999D01*
X190620000Y-52870000D02*
X190619999Y-72569999D01*
X190620000Y-140070000D02*
X174920001Y-140069999D01*
X104820000Y-52870000D02*
X115419999Y-52870001D01*
X96820000Y-47870000D02*
X195620000Y-47870000D01*
X195620000Y-47870000D02*
X195620000Y-145070000D01*
X195620000Y-145070000D02*
X96820000Y-145070000D01*
X96820000Y-145070000D02*
X96820000Y-47870000D01*
X118320001Y-55869999D02*
G75*
G02*
X118320001Y-52870001I1299999J1499999D01*
G01*
X115419999Y-52870001D02*
G75*
G02*
X115419999Y-55869999I-1299999J-1499999D01*
G01*
X118320001Y-52870001D02*
X143719999Y-52870001D01*
X118320001Y-55869999D02*
X129720000Y-55870000D01*
X187620000Y-94270000D02*
G75*
G02*
X186920000Y-94970000I-700000J0D01*
G01*
X130420000Y-136370000D02*
G75*
G02*
X129720000Y-137070000I-700000J0D01*
G01*
X159020000Y-136370000D02*
G75*
G02*
X158320000Y-137070000I-700000J0D01*
G01*
X187620000Y-136370000D02*
G75*
G02*
X186920000Y-137070000I-700000J0D01*
G01*
X158320000Y-94970000D02*
X146620001Y-94970001D01*
X186920000Y-94970000D02*
X174920001Y-94970001D01*
X129720000Y-137070000D02*
X118320001Y-137070001D01*
X158320000Y-137070000D02*
X146620001Y-137070001D01*
X186920000Y-137070000D02*
X174920001Y-137070001D01*
X134120000Y-55870000D02*
X143719999Y-55869999D01*
X105520000Y-97970000D02*
X115419999Y-97969999D01*
X134120000Y-97970000D02*
X143719999Y-97969999D01*
X162720000Y-97970000D02*
X172019999Y-97969999D01*
X133420000Y-56570000D02*
G75*
G02*
X134120000Y-55870000I700000J0D01*
G01*
X129720000Y-94970000D02*
X118320001Y-94970001D01*
X130420000Y-56570000D02*
X130420001Y-72569999D01*
X105520000Y-55870000D02*
X115419999Y-55869999D01*
X159020000Y-56570000D02*
X159020001Y-72569999D01*
X187620000Y-56570000D02*
X187620001Y-72569999D01*
X130420000Y-98670000D02*
X130420001Y-114669999D01*
X159020000Y-98670000D02*
X159020001Y-114669999D01*
X187620000Y-98670000D02*
X187620001Y-114669999D01*
X134120000Y-94970000D02*
G75*
G02*
X133420000Y-94270000I0J700000D01*
G01*
X162720000Y-94970000D02*
G75*
G02*
X162020000Y-94270000I0J700000D01*
G01*
X105520000Y-137070000D02*
G75*
G02*
X104820000Y-136370000I0J700000D01*
G01*
X134120000Y-137070000D02*
G75*
G02*
X133420000Y-136370000I0J700000D01*
G01*
X162720000Y-137070000D02*
G75*
G02*
X162020000Y-136370000I0J700000D01*
G01*
X159020000Y-94270000D02*
G75*
G02*
X158320000Y-94970000I-700000J0D01*
G01*
X104820000Y-94270000D02*
X104819999Y-75470001D01*
X129720000Y-55870000D02*
G75*
G02*
X130420000Y-56570000I0J-700000D01*
G01*
X104820000Y-56570000D02*
G75*
G02*
X105520000Y-55870000I700000J0D01*
G01*
X105520000Y-94970000D02*
G75*
G02*
X104820000Y-94270000I0J700000D01*
G01*
X130420000Y-94270000D02*
G75*
G02*
X129720000Y-94970000I-700000J0D01*
G01*
X143719999Y-52870001D02*
G75*
G02*
X143719999Y-55869999I-1299999J-1499999D01*
G01*
X172019999Y-52870001D02*
G75*
G02*
X172019999Y-55869999I-1299999J-1499999D01*
G01*
X115419999Y-94970001D02*
G75*
G02*
X115419999Y-97969999I-1299999J-1499999D01*
G01*
X143719999Y-94970001D02*
G75*
G02*
X143719999Y-97969999I-1299999J-1499999D01*
G01*
X172019999Y-94970001D02*
G75*
G02*
X172019999Y-97969999I-1299999J-1499999D01*
G01*
X115419999Y-137070001D02*
G75*
G02*
X115419999Y-140069999I-1299999J-1499999D01*
G01*
X143719999Y-137070001D02*
G75*
G02*
X143719999Y-140069999I-1299999J-1499999D01*
G01*
X172019999Y-137070001D02*
G75*
G02*
X172019999Y-140069999I-1299999J-1499999D01*
G01*
X146620001Y-55869999D02*
G75*
G02*
X146620001Y-52870001I1299999J1499999D01*
G01*
X174920001Y-55869999D02*
G75*
G02*
X174920001Y-52870001I1299999J1499999D01*
G01*
X118320001Y-97969999D02*
G75*
G02*
X118320001Y-94970001I1299999J1499999D01*
G01*
X146620001Y-97969999D02*
G75*
G02*
X146620001Y-94970001I1299999J1499999D01*
G01*
X174920001Y-97969999D02*
G75*
G02*
X174920001Y-94970001I1299999J1499999D01*
G01*
X162019999Y-114669999D02*
X162020000Y-98670000D01*
X159020001Y-117570001D02*
X159020000Y-136370000D01*
X130420001Y-117570001D02*
X130420000Y-136370000D01*
X133419999Y-114669999D02*
X133420000Y-98670000D01*
X104819999Y-114669999D02*
X104820000Y-98670000D01*
M02*
