%TF.GenerationSoftware,KiCad,Pcbnew,5.1.9-73d0e3b20d~88~ubuntu18.04.1*%
%TF.CreationDate,2021-11-28T02:45:39+02:00*%
%TF.ProjectId,ESP8266-Breakout-panel,45535038-3236-4362-9d42-7265616b6f75,rev?*%
%TF.SameCoordinates,Original*%
%TF.FileFunction,Soldermask,Top*%
%TF.FilePolarity,Negative*%
%FSLAX46Y46*%
G04 Gerber Fmt 4.6, Leading zero omitted, Abs format (unit mm)*
G04 Created by KiCad (PCBNEW 5.1.9-73d0e3b20d~88~ubuntu18.04.1) date 2021-11-28 02:45:39*
%MOMM*%
%LPD*%
G01*
G04 APERTURE LIST*
%ADD10R,1.700000X1.700000*%
%ADD11O,1.700000X1.700000*%
%ADD12R,1.500000X1.500000*%
%ADD13R,2.500000X1.000000*%
%ADD14R,1.000000X1.800000*%
%ADD15C,0.500000*%
G04 APERTURE END LIST*
%TO.C,C501*%
G36*
G01*
X169712500Y-130275000D02*
X170187500Y-130275000D01*
G75*
G02*
X170425000Y-130512500I0J-237500D01*
G01*
X170425000Y-131112500D01*
G75*
G02*
X170187500Y-131350000I-237500J0D01*
G01*
X169712500Y-131350000D01*
G75*
G02*
X169475000Y-131112500I0J237500D01*
G01*
X169475000Y-130512500D01*
G75*
G02*
X169712500Y-130275000I237500J0D01*
G01*
G37*
G36*
G01*
X169712500Y-128550000D02*
X170187500Y-128550000D01*
G75*
G02*
X170425000Y-128787500I0J-237500D01*
G01*
X170425000Y-129387500D01*
G75*
G02*
X170187500Y-129625000I-237500J0D01*
G01*
X169712500Y-129625000D01*
G75*
G02*
X169475000Y-129387500I0J237500D01*
G01*
X169475000Y-128787500D01*
G75*
G02*
X169712500Y-128550000I237500J0D01*
G01*
G37*
%TD*%
%TO.C,C501*%
G36*
G01*
X141112500Y-130275000D02*
X141587500Y-130275000D01*
G75*
G02*
X141825000Y-130512500I0J-237500D01*
G01*
X141825000Y-131112500D01*
G75*
G02*
X141587500Y-131350000I-237500J0D01*
G01*
X141112500Y-131350000D01*
G75*
G02*
X140875000Y-131112500I0J237500D01*
G01*
X140875000Y-130512500D01*
G75*
G02*
X141112500Y-130275000I237500J0D01*
G01*
G37*
G36*
G01*
X141112500Y-128550000D02*
X141587500Y-128550000D01*
G75*
G02*
X141825000Y-128787500I0J-237500D01*
G01*
X141825000Y-129387500D01*
G75*
G02*
X141587500Y-129625000I-237500J0D01*
G01*
X141112500Y-129625000D01*
G75*
G02*
X140875000Y-129387500I0J237500D01*
G01*
X140875000Y-128787500D01*
G75*
G02*
X141112500Y-128550000I237500J0D01*
G01*
G37*
%TD*%
%TO.C,C501*%
G36*
G01*
X112512500Y-130275000D02*
X112987500Y-130275000D01*
G75*
G02*
X113225000Y-130512500I0J-237500D01*
G01*
X113225000Y-131112500D01*
G75*
G02*
X112987500Y-131350000I-237500J0D01*
G01*
X112512500Y-131350000D01*
G75*
G02*
X112275000Y-131112500I0J237500D01*
G01*
X112275000Y-130512500D01*
G75*
G02*
X112512500Y-130275000I237500J0D01*
G01*
G37*
G36*
G01*
X112512500Y-128550000D02*
X112987500Y-128550000D01*
G75*
G02*
X113225000Y-128787500I0J-237500D01*
G01*
X113225000Y-129387500D01*
G75*
G02*
X112987500Y-129625000I-237500J0D01*
G01*
X112512500Y-129625000D01*
G75*
G02*
X112275000Y-129387500I0J237500D01*
G01*
X112275000Y-128787500D01*
G75*
G02*
X112512500Y-128550000I237500J0D01*
G01*
G37*
%TD*%
%TO.C,C501*%
G36*
G01*
X169712500Y-88175000D02*
X170187500Y-88175000D01*
G75*
G02*
X170425000Y-88412500I0J-237500D01*
G01*
X170425000Y-89012500D01*
G75*
G02*
X170187500Y-89250000I-237500J0D01*
G01*
X169712500Y-89250000D01*
G75*
G02*
X169475000Y-89012500I0J237500D01*
G01*
X169475000Y-88412500D01*
G75*
G02*
X169712500Y-88175000I237500J0D01*
G01*
G37*
G36*
G01*
X169712500Y-86450000D02*
X170187500Y-86450000D01*
G75*
G02*
X170425000Y-86687500I0J-237500D01*
G01*
X170425000Y-87287500D01*
G75*
G02*
X170187500Y-87525000I-237500J0D01*
G01*
X169712500Y-87525000D01*
G75*
G02*
X169475000Y-87287500I0J237500D01*
G01*
X169475000Y-86687500D01*
G75*
G02*
X169712500Y-86450000I237500J0D01*
G01*
G37*
%TD*%
%TO.C,C501*%
G36*
G01*
X141112500Y-88175000D02*
X141587500Y-88175000D01*
G75*
G02*
X141825000Y-88412500I0J-237500D01*
G01*
X141825000Y-89012500D01*
G75*
G02*
X141587500Y-89250000I-237500J0D01*
G01*
X141112500Y-89250000D01*
G75*
G02*
X140875000Y-89012500I0J237500D01*
G01*
X140875000Y-88412500D01*
G75*
G02*
X141112500Y-88175000I237500J0D01*
G01*
G37*
G36*
G01*
X141112500Y-86450000D02*
X141587500Y-86450000D01*
G75*
G02*
X141825000Y-86687500I0J-237500D01*
G01*
X141825000Y-87287500D01*
G75*
G02*
X141587500Y-87525000I-237500J0D01*
G01*
X141112500Y-87525000D01*
G75*
G02*
X140875000Y-87287500I0J237500D01*
G01*
X140875000Y-86687500D01*
G75*
G02*
X141112500Y-86450000I237500J0D01*
G01*
G37*
%TD*%
%TO.C,C103*%
G36*
G01*
X181799998Y-130050000D02*
X183100002Y-130050000D01*
G75*
G02*
X183350000Y-130299998I0J-249998D01*
G01*
X183350000Y-131125002D01*
G75*
G02*
X183100002Y-131375000I-249998J0D01*
G01*
X181799998Y-131375000D01*
G75*
G02*
X181550000Y-131125002I0J249998D01*
G01*
X181550000Y-130299998D01*
G75*
G02*
X181799998Y-130050000I249998J0D01*
G01*
G37*
G36*
G01*
X181799998Y-126925000D02*
X183100002Y-126925000D01*
G75*
G02*
X183350000Y-127174998I0J-249998D01*
G01*
X183350000Y-128000002D01*
G75*
G02*
X183100002Y-128250000I-249998J0D01*
G01*
X181799998Y-128250000D01*
G75*
G02*
X181550000Y-128000002I0J249998D01*
G01*
X181550000Y-127174998D01*
G75*
G02*
X181799998Y-126925000I249998J0D01*
G01*
G37*
%TD*%
%TO.C,C103*%
G36*
G01*
X153199998Y-130050000D02*
X154500002Y-130050000D01*
G75*
G02*
X154750000Y-130299998I0J-249998D01*
G01*
X154750000Y-131125002D01*
G75*
G02*
X154500002Y-131375000I-249998J0D01*
G01*
X153199998Y-131375000D01*
G75*
G02*
X152950000Y-131125002I0J249998D01*
G01*
X152950000Y-130299998D01*
G75*
G02*
X153199998Y-130050000I249998J0D01*
G01*
G37*
G36*
G01*
X153199998Y-126925000D02*
X154500002Y-126925000D01*
G75*
G02*
X154750000Y-127174998I0J-249998D01*
G01*
X154750000Y-128000002D01*
G75*
G02*
X154500002Y-128250000I-249998J0D01*
G01*
X153199998Y-128250000D01*
G75*
G02*
X152950000Y-128000002I0J249998D01*
G01*
X152950000Y-127174998D01*
G75*
G02*
X153199998Y-126925000I249998J0D01*
G01*
G37*
%TD*%
%TO.C,C103*%
G36*
G01*
X124599998Y-130050000D02*
X125900002Y-130050000D01*
G75*
G02*
X126150000Y-130299998I0J-249998D01*
G01*
X126150000Y-131125002D01*
G75*
G02*
X125900002Y-131375000I-249998J0D01*
G01*
X124599998Y-131375000D01*
G75*
G02*
X124350000Y-131125002I0J249998D01*
G01*
X124350000Y-130299998D01*
G75*
G02*
X124599998Y-130050000I249998J0D01*
G01*
G37*
G36*
G01*
X124599998Y-126925000D02*
X125900002Y-126925000D01*
G75*
G02*
X126150000Y-127174998I0J-249998D01*
G01*
X126150000Y-128000002D01*
G75*
G02*
X125900002Y-128250000I-249998J0D01*
G01*
X124599998Y-128250000D01*
G75*
G02*
X124350000Y-128000002I0J249998D01*
G01*
X124350000Y-127174998D01*
G75*
G02*
X124599998Y-126925000I249998J0D01*
G01*
G37*
%TD*%
%TO.C,C103*%
G36*
G01*
X181799998Y-87950000D02*
X183100002Y-87950000D01*
G75*
G02*
X183350000Y-88199998I0J-249998D01*
G01*
X183350000Y-89025002D01*
G75*
G02*
X183100002Y-89275000I-249998J0D01*
G01*
X181799998Y-89275000D01*
G75*
G02*
X181550000Y-89025002I0J249998D01*
G01*
X181550000Y-88199998D01*
G75*
G02*
X181799998Y-87950000I249998J0D01*
G01*
G37*
G36*
G01*
X181799998Y-84825000D02*
X183100002Y-84825000D01*
G75*
G02*
X183350000Y-85074998I0J-249998D01*
G01*
X183350000Y-85900002D01*
G75*
G02*
X183100002Y-86150000I-249998J0D01*
G01*
X181799998Y-86150000D01*
G75*
G02*
X181550000Y-85900002I0J249998D01*
G01*
X181550000Y-85074998D01*
G75*
G02*
X181799998Y-84825000I249998J0D01*
G01*
G37*
%TD*%
%TO.C,C103*%
G36*
G01*
X153199998Y-87950000D02*
X154500002Y-87950000D01*
G75*
G02*
X154750000Y-88199998I0J-249998D01*
G01*
X154750000Y-89025002D01*
G75*
G02*
X154500002Y-89275000I-249998J0D01*
G01*
X153199998Y-89275000D01*
G75*
G02*
X152950000Y-89025002I0J249998D01*
G01*
X152950000Y-88199998D01*
G75*
G02*
X153199998Y-87950000I249998J0D01*
G01*
G37*
G36*
G01*
X153199998Y-84825000D02*
X154500002Y-84825000D01*
G75*
G02*
X154750000Y-85074998I0J-249998D01*
G01*
X154750000Y-85900002D01*
G75*
G02*
X154500002Y-86150000I-249998J0D01*
G01*
X153199998Y-86150000D01*
G75*
G02*
X152950000Y-85900002I0J249998D01*
G01*
X152950000Y-85074998D01*
G75*
G02*
X153199998Y-84825000I249998J0D01*
G01*
G37*
%TD*%
%TO.C,R501*%
G36*
G01*
X186662500Y-130375000D02*
X187137500Y-130375000D01*
G75*
G02*
X187375000Y-130612500I0J-237500D01*
G01*
X187375000Y-131112500D01*
G75*
G02*
X187137500Y-131350000I-237500J0D01*
G01*
X186662500Y-131350000D01*
G75*
G02*
X186425000Y-131112500I0J237500D01*
G01*
X186425000Y-130612500D01*
G75*
G02*
X186662500Y-130375000I237500J0D01*
G01*
G37*
G36*
G01*
X186662500Y-128550000D02*
X187137500Y-128550000D01*
G75*
G02*
X187375000Y-128787500I0J-237500D01*
G01*
X187375000Y-129287500D01*
G75*
G02*
X187137500Y-129525000I-237500J0D01*
G01*
X186662500Y-129525000D01*
G75*
G02*
X186425000Y-129287500I0J237500D01*
G01*
X186425000Y-128787500D01*
G75*
G02*
X186662500Y-128550000I237500J0D01*
G01*
G37*
%TD*%
%TO.C,R501*%
G36*
G01*
X158062500Y-130375000D02*
X158537500Y-130375000D01*
G75*
G02*
X158775000Y-130612500I0J-237500D01*
G01*
X158775000Y-131112500D01*
G75*
G02*
X158537500Y-131350000I-237500J0D01*
G01*
X158062500Y-131350000D01*
G75*
G02*
X157825000Y-131112500I0J237500D01*
G01*
X157825000Y-130612500D01*
G75*
G02*
X158062500Y-130375000I237500J0D01*
G01*
G37*
G36*
G01*
X158062500Y-128550000D02*
X158537500Y-128550000D01*
G75*
G02*
X158775000Y-128787500I0J-237500D01*
G01*
X158775000Y-129287500D01*
G75*
G02*
X158537500Y-129525000I-237500J0D01*
G01*
X158062500Y-129525000D01*
G75*
G02*
X157825000Y-129287500I0J237500D01*
G01*
X157825000Y-128787500D01*
G75*
G02*
X158062500Y-128550000I237500J0D01*
G01*
G37*
%TD*%
%TO.C,R501*%
G36*
G01*
X129462500Y-130375000D02*
X129937500Y-130375000D01*
G75*
G02*
X130175000Y-130612500I0J-237500D01*
G01*
X130175000Y-131112500D01*
G75*
G02*
X129937500Y-131350000I-237500J0D01*
G01*
X129462500Y-131350000D01*
G75*
G02*
X129225000Y-131112500I0J237500D01*
G01*
X129225000Y-130612500D01*
G75*
G02*
X129462500Y-130375000I237500J0D01*
G01*
G37*
G36*
G01*
X129462500Y-128550000D02*
X129937500Y-128550000D01*
G75*
G02*
X130175000Y-128787500I0J-237500D01*
G01*
X130175000Y-129287500D01*
G75*
G02*
X129937500Y-129525000I-237500J0D01*
G01*
X129462500Y-129525000D01*
G75*
G02*
X129225000Y-129287500I0J237500D01*
G01*
X129225000Y-128787500D01*
G75*
G02*
X129462500Y-128550000I237500J0D01*
G01*
G37*
%TD*%
%TO.C,R501*%
G36*
G01*
X186662500Y-88275000D02*
X187137500Y-88275000D01*
G75*
G02*
X187375000Y-88512500I0J-237500D01*
G01*
X187375000Y-89012500D01*
G75*
G02*
X187137500Y-89250000I-237500J0D01*
G01*
X186662500Y-89250000D01*
G75*
G02*
X186425000Y-89012500I0J237500D01*
G01*
X186425000Y-88512500D01*
G75*
G02*
X186662500Y-88275000I237500J0D01*
G01*
G37*
G36*
G01*
X186662500Y-86450000D02*
X187137500Y-86450000D01*
G75*
G02*
X187375000Y-86687500I0J-237500D01*
G01*
X187375000Y-87187500D01*
G75*
G02*
X187137500Y-87425000I-237500J0D01*
G01*
X186662500Y-87425000D01*
G75*
G02*
X186425000Y-87187500I0J237500D01*
G01*
X186425000Y-86687500D01*
G75*
G02*
X186662500Y-86450000I237500J0D01*
G01*
G37*
%TD*%
%TO.C,R501*%
G36*
G01*
X158062500Y-88275000D02*
X158537500Y-88275000D01*
G75*
G02*
X158775000Y-88512500I0J-237500D01*
G01*
X158775000Y-89012500D01*
G75*
G02*
X158537500Y-89250000I-237500J0D01*
G01*
X158062500Y-89250000D01*
G75*
G02*
X157825000Y-89012500I0J237500D01*
G01*
X157825000Y-88512500D01*
G75*
G02*
X158062500Y-88275000I237500J0D01*
G01*
G37*
G36*
G01*
X158062500Y-86450000D02*
X158537500Y-86450000D01*
G75*
G02*
X158775000Y-86687500I0J-237500D01*
G01*
X158775000Y-87187500D01*
G75*
G02*
X158537500Y-87425000I-237500J0D01*
G01*
X158062500Y-87425000D01*
G75*
G02*
X157825000Y-87187500I0J237500D01*
G01*
X157825000Y-86687500D01*
G75*
G02*
X158062500Y-86450000I237500J0D01*
G01*
G37*
%TD*%
%TO.C,C101*%
G36*
G01*
X176899998Y-130050000D02*
X178200002Y-130050000D01*
G75*
G02*
X178450000Y-130299998I0J-249998D01*
G01*
X178450000Y-131125002D01*
G75*
G02*
X178200002Y-131375000I-249998J0D01*
G01*
X176899998Y-131375000D01*
G75*
G02*
X176650000Y-131125002I0J249998D01*
G01*
X176650000Y-130299998D01*
G75*
G02*
X176899998Y-130050000I249998J0D01*
G01*
G37*
G36*
G01*
X176899998Y-126925000D02*
X178200002Y-126925000D01*
G75*
G02*
X178450000Y-127174998I0J-249998D01*
G01*
X178450000Y-128000002D01*
G75*
G02*
X178200002Y-128250000I-249998J0D01*
G01*
X176899998Y-128250000D01*
G75*
G02*
X176650000Y-128000002I0J249998D01*
G01*
X176650000Y-127174998D01*
G75*
G02*
X176899998Y-126925000I249998J0D01*
G01*
G37*
%TD*%
%TO.C,C101*%
G36*
G01*
X148299998Y-130050000D02*
X149600002Y-130050000D01*
G75*
G02*
X149850000Y-130299998I0J-249998D01*
G01*
X149850000Y-131125002D01*
G75*
G02*
X149600002Y-131375000I-249998J0D01*
G01*
X148299998Y-131375000D01*
G75*
G02*
X148050000Y-131125002I0J249998D01*
G01*
X148050000Y-130299998D01*
G75*
G02*
X148299998Y-130050000I249998J0D01*
G01*
G37*
G36*
G01*
X148299998Y-126925000D02*
X149600002Y-126925000D01*
G75*
G02*
X149850000Y-127174998I0J-249998D01*
G01*
X149850000Y-128000002D01*
G75*
G02*
X149600002Y-128250000I-249998J0D01*
G01*
X148299998Y-128250000D01*
G75*
G02*
X148050000Y-128000002I0J249998D01*
G01*
X148050000Y-127174998D01*
G75*
G02*
X148299998Y-126925000I249998J0D01*
G01*
G37*
%TD*%
%TO.C,C101*%
G36*
G01*
X119699998Y-130050000D02*
X121000002Y-130050000D01*
G75*
G02*
X121250000Y-130299998I0J-249998D01*
G01*
X121250000Y-131125002D01*
G75*
G02*
X121000002Y-131375000I-249998J0D01*
G01*
X119699998Y-131375000D01*
G75*
G02*
X119450000Y-131125002I0J249998D01*
G01*
X119450000Y-130299998D01*
G75*
G02*
X119699998Y-130050000I249998J0D01*
G01*
G37*
G36*
G01*
X119699998Y-126925000D02*
X121000002Y-126925000D01*
G75*
G02*
X121250000Y-127174998I0J-249998D01*
G01*
X121250000Y-128000002D01*
G75*
G02*
X121000002Y-128250000I-249998J0D01*
G01*
X119699998Y-128250000D01*
G75*
G02*
X119450000Y-128000002I0J249998D01*
G01*
X119450000Y-127174998D01*
G75*
G02*
X119699998Y-126925000I249998J0D01*
G01*
G37*
%TD*%
%TO.C,C101*%
G36*
G01*
X176899998Y-87950000D02*
X178200002Y-87950000D01*
G75*
G02*
X178450000Y-88199998I0J-249998D01*
G01*
X178450000Y-89025002D01*
G75*
G02*
X178200002Y-89275000I-249998J0D01*
G01*
X176899998Y-89275000D01*
G75*
G02*
X176650000Y-89025002I0J249998D01*
G01*
X176650000Y-88199998D01*
G75*
G02*
X176899998Y-87950000I249998J0D01*
G01*
G37*
G36*
G01*
X176899998Y-84825000D02*
X178200002Y-84825000D01*
G75*
G02*
X178450000Y-85074998I0J-249998D01*
G01*
X178450000Y-85900002D01*
G75*
G02*
X178200002Y-86150000I-249998J0D01*
G01*
X176899998Y-86150000D01*
G75*
G02*
X176650000Y-85900002I0J249998D01*
G01*
X176650000Y-85074998D01*
G75*
G02*
X176899998Y-84825000I249998J0D01*
G01*
G37*
%TD*%
%TO.C,C101*%
G36*
G01*
X148299998Y-87950000D02*
X149600002Y-87950000D01*
G75*
G02*
X149850000Y-88199998I0J-249998D01*
G01*
X149850000Y-89025002D01*
G75*
G02*
X149600002Y-89275000I-249998J0D01*
G01*
X148299998Y-89275000D01*
G75*
G02*
X148050000Y-89025002I0J249998D01*
G01*
X148050000Y-88199998D01*
G75*
G02*
X148299998Y-87950000I249998J0D01*
G01*
G37*
G36*
G01*
X148299998Y-84825000D02*
X149600002Y-84825000D01*
G75*
G02*
X149850000Y-85074998I0J-249998D01*
G01*
X149850000Y-85900002D01*
G75*
G02*
X149600002Y-86150000I-249998J0D01*
G01*
X148299998Y-86150000D01*
G75*
G02*
X148050000Y-85900002I0J249998D01*
G01*
X148050000Y-85074998D01*
G75*
G02*
X148299998Y-84825000I249998J0D01*
G01*
G37*
%TD*%
%TO.C,R502*%
G36*
G01*
X172862500Y-130375000D02*
X173337500Y-130375000D01*
G75*
G02*
X173575000Y-130612500I0J-237500D01*
G01*
X173575000Y-131112500D01*
G75*
G02*
X173337500Y-131350000I-237500J0D01*
G01*
X172862500Y-131350000D01*
G75*
G02*
X172625000Y-131112500I0J237500D01*
G01*
X172625000Y-130612500D01*
G75*
G02*
X172862500Y-130375000I237500J0D01*
G01*
G37*
G36*
G01*
X172862500Y-128550000D02*
X173337500Y-128550000D01*
G75*
G02*
X173575000Y-128787500I0J-237500D01*
G01*
X173575000Y-129287500D01*
G75*
G02*
X173337500Y-129525000I-237500J0D01*
G01*
X172862500Y-129525000D01*
G75*
G02*
X172625000Y-129287500I0J237500D01*
G01*
X172625000Y-128787500D01*
G75*
G02*
X172862500Y-128550000I237500J0D01*
G01*
G37*
%TD*%
%TO.C,R502*%
G36*
G01*
X144262500Y-130375000D02*
X144737500Y-130375000D01*
G75*
G02*
X144975000Y-130612500I0J-237500D01*
G01*
X144975000Y-131112500D01*
G75*
G02*
X144737500Y-131350000I-237500J0D01*
G01*
X144262500Y-131350000D01*
G75*
G02*
X144025000Y-131112500I0J237500D01*
G01*
X144025000Y-130612500D01*
G75*
G02*
X144262500Y-130375000I237500J0D01*
G01*
G37*
G36*
G01*
X144262500Y-128550000D02*
X144737500Y-128550000D01*
G75*
G02*
X144975000Y-128787500I0J-237500D01*
G01*
X144975000Y-129287500D01*
G75*
G02*
X144737500Y-129525000I-237500J0D01*
G01*
X144262500Y-129525000D01*
G75*
G02*
X144025000Y-129287500I0J237500D01*
G01*
X144025000Y-128787500D01*
G75*
G02*
X144262500Y-128550000I237500J0D01*
G01*
G37*
%TD*%
%TO.C,R502*%
G36*
G01*
X115662500Y-130375000D02*
X116137500Y-130375000D01*
G75*
G02*
X116375000Y-130612500I0J-237500D01*
G01*
X116375000Y-131112500D01*
G75*
G02*
X116137500Y-131350000I-237500J0D01*
G01*
X115662500Y-131350000D01*
G75*
G02*
X115425000Y-131112500I0J237500D01*
G01*
X115425000Y-130612500D01*
G75*
G02*
X115662500Y-130375000I237500J0D01*
G01*
G37*
G36*
G01*
X115662500Y-128550000D02*
X116137500Y-128550000D01*
G75*
G02*
X116375000Y-128787500I0J-237500D01*
G01*
X116375000Y-129287500D01*
G75*
G02*
X116137500Y-129525000I-237500J0D01*
G01*
X115662500Y-129525000D01*
G75*
G02*
X115425000Y-129287500I0J237500D01*
G01*
X115425000Y-128787500D01*
G75*
G02*
X115662500Y-128550000I237500J0D01*
G01*
G37*
%TD*%
%TO.C,R502*%
G36*
G01*
X172862500Y-88275000D02*
X173337500Y-88275000D01*
G75*
G02*
X173575000Y-88512500I0J-237500D01*
G01*
X173575000Y-89012500D01*
G75*
G02*
X173337500Y-89250000I-237500J0D01*
G01*
X172862500Y-89250000D01*
G75*
G02*
X172625000Y-89012500I0J237500D01*
G01*
X172625000Y-88512500D01*
G75*
G02*
X172862500Y-88275000I237500J0D01*
G01*
G37*
G36*
G01*
X172862500Y-86450000D02*
X173337500Y-86450000D01*
G75*
G02*
X173575000Y-86687500I0J-237500D01*
G01*
X173575000Y-87187500D01*
G75*
G02*
X173337500Y-87425000I-237500J0D01*
G01*
X172862500Y-87425000D01*
G75*
G02*
X172625000Y-87187500I0J237500D01*
G01*
X172625000Y-86687500D01*
G75*
G02*
X172862500Y-86450000I237500J0D01*
G01*
G37*
%TD*%
%TO.C,R502*%
G36*
G01*
X144262500Y-88275000D02*
X144737500Y-88275000D01*
G75*
G02*
X144975000Y-88512500I0J-237500D01*
G01*
X144975000Y-89012500D01*
G75*
G02*
X144737500Y-89250000I-237500J0D01*
G01*
X144262500Y-89250000D01*
G75*
G02*
X144025000Y-89012500I0J237500D01*
G01*
X144025000Y-88512500D01*
G75*
G02*
X144262500Y-88275000I237500J0D01*
G01*
G37*
G36*
G01*
X144262500Y-86450000D02*
X144737500Y-86450000D01*
G75*
G02*
X144975000Y-86687500I0J-237500D01*
G01*
X144975000Y-87187500D01*
G75*
G02*
X144737500Y-87425000I-237500J0D01*
G01*
X144262500Y-87425000D01*
G75*
G02*
X144025000Y-87187500I0J237500D01*
G01*
X144025000Y-86687500D01*
G75*
G02*
X144262500Y-86450000I237500J0D01*
G01*
G37*
%TD*%
D10*
%TO.C,J101*%
X168400000Y-106450000D03*
D11*
X168400000Y-108990000D03*
X168400000Y-111530000D03*
X168400000Y-114070000D03*
X168400000Y-116610000D03*
X168400000Y-119150000D03*
X168400000Y-121690000D03*
X168400000Y-124230000D03*
X168400000Y-126770000D03*
%TD*%
D10*
%TO.C,J101*%
X139800000Y-106450000D03*
D11*
X139800000Y-108990000D03*
X139800000Y-111530000D03*
X139800000Y-114070000D03*
X139800000Y-116610000D03*
X139800000Y-119150000D03*
X139800000Y-121690000D03*
X139800000Y-124230000D03*
X139800000Y-126770000D03*
%TD*%
D10*
%TO.C,J101*%
X111200000Y-106450000D03*
D11*
X111200000Y-108990000D03*
X111200000Y-111530000D03*
X111200000Y-114070000D03*
X111200000Y-116610000D03*
X111200000Y-119150000D03*
X111200000Y-121690000D03*
X111200000Y-124230000D03*
X111200000Y-126770000D03*
%TD*%
D10*
%TO.C,J101*%
X168400000Y-64350000D03*
D11*
X168400000Y-66890000D03*
X168400000Y-69430000D03*
X168400000Y-71970000D03*
X168400000Y-74510000D03*
X168400000Y-77050000D03*
X168400000Y-79590000D03*
X168400000Y-82130000D03*
X168400000Y-84670000D03*
%TD*%
D10*
%TO.C,J101*%
X139800000Y-64350000D03*
D11*
X139800000Y-66890000D03*
X139800000Y-69430000D03*
X139800000Y-71970000D03*
X139800000Y-74510000D03*
X139800000Y-77050000D03*
X139800000Y-79590000D03*
X139800000Y-82130000D03*
X139800000Y-84670000D03*
%TD*%
%TO.C,C104*%
G36*
G01*
X184249998Y-130050000D02*
X185550002Y-130050000D01*
G75*
G02*
X185800000Y-130299998I0J-249998D01*
G01*
X185800000Y-131125002D01*
G75*
G02*
X185550002Y-131375000I-249998J0D01*
G01*
X184249998Y-131375000D01*
G75*
G02*
X184000000Y-131125002I0J249998D01*
G01*
X184000000Y-130299998D01*
G75*
G02*
X184249998Y-130050000I249998J0D01*
G01*
G37*
G36*
G01*
X184249998Y-126925000D02*
X185550002Y-126925000D01*
G75*
G02*
X185800000Y-127174998I0J-249998D01*
G01*
X185800000Y-128000002D01*
G75*
G02*
X185550002Y-128250000I-249998J0D01*
G01*
X184249998Y-128250000D01*
G75*
G02*
X184000000Y-128000002I0J249998D01*
G01*
X184000000Y-127174998D01*
G75*
G02*
X184249998Y-126925000I249998J0D01*
G01*
G37*
%TD*%
%TO.C,C104*%
G36*
G01*
X155649998Y-130050000D02*
X156950002Y-130050000D01*
G75*
G02*
X157200000Y-130299998I0J-249998D01*
G01*
X157200000Y-131125002D01*
G75*
G02*
X156950002Y-131375000I-249998J0D01*
G01*
X155649998Y-131375000D01*
G75*
G02*
X155400000Y-131125002I0J249998D01*
G01*
X155400000Y-130299998D01*
G75*
G02*
X155649998Y-130050000I249998J0D01*
G01*
G37*
G36*
G01*
X155649998Y-126925000D02*
X156950002Y-126925000D01*
G75*
G02*
X157200000Y-127174998I0J-249998D01*
G01*
X157200000Y-128000002D01*
G75*
G02*
X156950002Y-128250000I-249998J0D01*
G01*
X155649998Y-128250000D01*
G75*
G02*
X155400000Y-128000002I0J249998D01*
G01*
X155400000Y-127174998D01*
G75*
G02*
X155649998Y-126925000I249998J0D01*
G01*
G37*
%TD*%
%TO.C,C104*%
G36*
G01*
X127049998Y-130050000D02*
X128350002Y-130050000D01*
G75*
G02*
X128600000Y-130299998I0J-249998D01*
G01*
X128600000Y-131125002D01*
G75*
G02*
X128350002Y-131375000I-249998J0D01*
G01*
X127049998Y-131375000D01*
G75*
G02*
X126800000Y-131125002I0J249998D01*
G01*
X126800000Y-130299998D01*
G75*
G02*
X127049998Y-130050000I249998J0D01*
G01*
G37*
G36*
G01*
X127049998Y-126925000D02*
X128350002Y-126925000D01*
G75*
G02*
X128600000Y-127174998I0J-249998D01*
G01*
X128600000Y-128000002D01*
G75*
G02*
X128350002Y-128250000I-249998J0D01*
G01*
X127049998Y-128250000D01*
G75*
G02*
X126800000Y-128000002I0J249998D01*
G01*
X126800000Y-127174998D01*
G75*
G02*
X127049998Y-126925000I249998J0D01*
G01*
G37*
%TD*%
%TO.C,C104*%
G36*
G01*
X184249998Y-87950000D02*
X185550002Y-87950000D01*
G75*
G02*
X185800000Y-88199998I0J-249998D01*
G01*
X185800000Y-89025002D01*
G75*
G02*
X185550002Y-89275000I-249998J0D01*
G01*
X184249998Y-89275000D01*
G75*
G02*
X184000000Y-89025002I0J249998D01*
G01*
X184000000Y-88199998D01*
G75*
G02*
X184249998Y-87950000I249998J0D01*
G01*
G37*
G36*
G01*
X184249998Y-84825000D02*
X185550002Y-84825000D01*
G75*
G02*
X185800000Y-85074998I0J-249998D01*
G01*
X185800000Y-85900002D01*
G75*
G02*
X185550002Y-86150000I-249998J0D01*
G01*
X184249998Y-86150000D01*
G75*
G02*
X184000000Y-85900002I0J249998D01*
G01*
X184000000Y-85074998D01*
G75*
G02*
X184249998Y-84825000I249998J0D01*
G01*
G37*
%TD*%
%TO.C,C104*%
G36*
G01*
X155649998Y-87950000D02*
X156950002Y-87950000D01*
G75*
G02*
X157200000Y-88199998I0J-249998D01*
G01*
X157200000Y-89025002D01*
G75*
G02*
X156950002Y-89275000I-249998J0D01*
G01*
X155649998Y-89275000D01*
G75*
G02*
X155400000Y-89025002I0J249998D01*
G01*
X155400000Y-88199998D01*
G75*
G02*
X155649998Y-87950000I249998J0D01*
G01*
G37*
G36*
G01*
X155649998Y-84825000D02*
X156950002Y-84825000D01*
G75*
G02*
X157200000Y-85074998I0J-249998D01*
G01*
X157200000Y-85900002D01*
G75*
G02*
X156950002Y-86150000I-249998J0D01*
G01*
X155649998Y-86150000D01*
G75*
G02*
X155400000Y-85900002I0J249998D01*
G01*
X155400000Y-85074998D01*
G75*
G02*
X155649998Y-84825000I249998J0D01*
G01*
G37*
%TD*%
%TO.C,R505*%
G36*
G01*
X188737500Y-129525000D02*
X188262500Y-129525000D01*
G75*
G02*
X188025000Y-129287500I0J237500D01*
G01*
X188025000Y-128787500D01*
G75*
G02*
X188262500Y-128550000I237500J0D01*
G01*
X188737500Y-128550000D01*
G75*
G02*
X188975000Y-128787500I0J-237500D01*
G01*
X188975000Y-129287500D01*
G75*
G02*
X188737500Y-129525000I-237500J0D01*
G01*
G37*
G36*
G01*
X188737500Y-131350000D02*
X188262500Y-131350000D01*
G75*
G02*
X188025000Y-131112500I0J237500D01*
G01*
X188025000Y-130612500D01*
G75*
G02*
X188262500Y-130375000I237500J0D01*
G01*
X188737500Y-130375000D01*
G75*
G02*
X188975000Y-130612500I0J-237500D01*
G01*
X188975000Y-131112500D01*
G75*
G02*
X188737500Y-131350000I-237500J0D01*
G01*
G37*
%TD*%
%TO.C,R505*%
G36*
G01*
X160137500Y-129525000D02*
X159662500Y-129525000D01*
G75*
G02*
X159425000Y-129287500I0J237500D01*
G01*
X159425000Y-128787500D01*
G75*
G02*
X159662500Y-128550000I237500J0D01*
G01*
X160137500Y-128550000D01*
G75*
G02*
X160375000Y-128787500I0J-237500D01*
G01*
X160375000Y-129287500D01*
G75*
G02*
X160137500Y-129525000I-237500J0D01*
G01*
G37*
G36*
G01*
X160137500Y-131350000D02*
X159662500Y-131350000D01*
G75*
G02*
X159425000Y-131112500I0J237500D01*
G01*
X159425000Y-130612500D01*
G75*
G02*
X159662500Y-130375000I237500J0D01*
G01*
X160137500Y-130375000D01*
G75*
G02*
X160375000Y-130612500I0J-237500D01*
G01*
X160375000Y-131112500D01*
G75*
G02*
X160137500Y-131350000I-237500J0D01*
G01*
G37*
%TD*%
%TO.C,R505*%
G36*
G01*
X131537500Y-129525000D02*
X131062500Y-129525000D01*
G75*
G02*
X130825000Y-129287500I0J237500D01*
G01*
X130825000Y-128787500D01*
G75*
G02*
X131062500Y-128550000I237500J0D01*
G01*
X131537500Y-128550000D01*
G75*
G02*
X131775000Y-128787500I0J-237500D01*
G01*
X131775000Y-129287500D01*
G75*
G02*
X131537500Y-129525000I-237500J0D01*
G01*
G37*
G36*
G01*
X131537500Y-131350000D02*
X131062500Y-131350000D01*
G75*
G02*
X130825000Y-131112500I0J237500D01*
G01*
X130825000Y-130612500D01*
G75*
G02*
X131062500Y-130375000I237500J0D01*
G01*
X131537500Y-130375000D01*
G75*
G02*
X131775000Y-130612500I0J-237500D01*
G01*
X131775000Y-131112500D01*
G75*
G02*
X131537500Y-131350000I-237500J0D01*
G01*
G37*
%TD*%
%TO.C,R505*%
G36*
G01*
X188737500Y-87425000D02*
X188262500Y-87425000D01*
G75*
G02*
X188025000Y-87187500I0J237500D01*
G01*
X188025000Y-86687500D01*
G75*
G02*
X188262500Y-86450000I237500J0D01*
G01*
X188737500Y-86450000D01*
G75*
G02*
X188975000Y-86687500I0J-237500D01*
G01*
X188975000Y-87187500D01*
G75*
G02*
X188737500Y-87425000I-237500J0D01*
G01*
G37*
G36*
G01*
X188737500Y-89250000D02*
X188262500Y-89250000D01*
G75*
G02*
X188025000Y-89012500I0J237500D01*
G01*
X188025000Y-88512500D01*
G75*
G02*
X188262500Y-88275000I237500J0D01*
G01*
X188737500Y-88275000D01*
G75*
G02*
X188975000Y-88512500I0J-237500D01*
G01*
X188975000Y-89012500D01*
G75*
G02*
X188737500Y-89250000I-237500J0D01*
G01*
G37*
%TD*%
%TO.C,R505*%
G36*
G01*
X160137500Y-87425000D02*
X159662500Y-87425000D01*
G75*
G02*
X159425000Y-87187500I0J237500D01*
G01*
X159425000Y-86687500D01*
G75*
G02*
X159662500Y-86450000I237500J0D01*
G01*
X160137500Y-86450000D01*
G75*
G02*
X160375000Y-86687500I0J-237500D01*
G01*
X160375000Y-87187500D01*
G75*
G02*
X160137500Y-87425000I-237500J0D01*
G01*
G37*
G36*
G01*
X160137500Y-89250000D02*
X159662500Y-89250000D01*
G75*
G02*
X159425000Y-89012500I0J237500D01*
G01*
X159425000Y-88512500D01*
G75*
G02*
X159662500Y-88275000I237500J0D01*
G01*
X160137500Y-88275000D01*
G75*
G02*
X160375000Y-88512500I0J-237500D01*
G01*
X160375000Y-89012500D01*
G75*
G02*
X160137500Y-89250000I-237500J0D01*
G01*
G37*
%TD*%
%TO.C,R507*%
G36*
G01*
X190699999Y-103150000D02*
X191600001Y-103150000D01*
G75*
G02*
X191850000Y-103399999I0J-249999D01*
G01*
X191850000Y-104100001D01*
G75*
G02*
X191600001Y-104350000I-249999J0D01*
G01*
X190699999Y-104350000D01*
G75*
G02*
X190450000Y-104100001I0J249999D01*
G01*
X190450000Y-103399999D01*
G75*
G02*
X190699999Y-103150000I249999J0D01*
G01*
G37*
G36*
G01*
X190699999Y-101150000D02*
X191600001Y-101150000D01*
G75*
G02*
X191850000Y-101399999I0J-249999D01*
G01*
X191850000Y-102100001D01*
G75*
G02*
X191600001Y-102350000I-249999J0D01*
G01*
X190699999Y-102350000D01*
G75*
G02*
X190450000Y-102100001I0J249999D01*
G01*
X190450000Y-101399999D01*
G75*
G02*
X190699999Y-101150000I249999J0D01*
G01*
G37*
%TD*%
%TO.C,R507*%
G36*
G01*
X162099999Y-103150000D02*
X163000001Y-103150000D01*
G75*
G02*
X163250000Y-103399999I0J-249999D01*
G01*
X163250000Y-104100001D01*
G75*
G02*
X163000001Y-104350000I-249999J0D01*
G01*
X162099999Y-104350000D01*
G75*
G02*
X161850000Y-104100001I0J249999D01*
G01*
X161850000Y-103399999D01*
G75*
G02*
X162099999Y-103150000I249999J0D01*
G01*
G37*
G36*
G01*
X162099999Y-101150000D02*
X163000001Y-101150000D01*
G75*
G02*
X163250000Y-101399999I0J-249999D01*
G01*
X163250000Y-102100001D01*
G75*
G02*
X163000001Y-102350000I-249999J0D01*
G01*
X162099999Y-102350000D01*
G75*
G02*
X161850000Y-102100001I0J249999D01*
G01*
X161850000Y-101399999D01*
G75*
G02*
X162099999Y-101150000I249999J0D01*
G01*
G37*
%TD*%
%TO.C,R507*%
G36*
G01*
X133499999Y-103150000D02*
X134400001Y-103150000D01*
G75*
G02*
X134650000Y-103399999I0J-249999D01*
G01*
X134650000Y-104100001D01*
G75*
G02*
X134400001Y-104350000I-249999J0D01*
G01*
X133499999Y-104350000D01*
G75*
G02*
X133250000Y-104100001I0J249999D01*
G01*
X133250000Y-103399999D01*
G75*
G02*
X133499999Y-103150000I249999J0D01*
G01*
G37*
G36*
G01*
X133499999Y-101150000D02*
X134400001Y-101150000D01*
G75*
G02*
X134650000Y-101399999I0J-249999D01*
G01*
X134650000Y-102100001D01*
G75*
G02*
X134400001Y-102350000I-249999J0D01*
G01*
X133499999Y-102350000D01*
G75*
G02*
X133250000Y-102100001I0J249999D01*
G01*
X133250000Y-101399999D01*
G75*
G02*
X133499999Y-101150000I249999J0D01*
G01*
G37*
%TD*%
%TO.C,R507*%
G36*
G01*
X190699999Y-61050000D02*
X191600001Y-61050000D01*
G75*
G02*
X191850000Y-61299999I0J-249999D01*
G01*
X191850000Y-62000001D01*
G75*
G02*
X191600001Y-62250000I-249999J0D01*
G01*
X190699999Y-62250000D01*
G75*
G02*
X190450000Y-62000001I0J249999D01*
G01*
X190450000Y-61299999D01*
G75*
G02*
X190699999Y-61050000I249999J0D01*
G01*
G37*
G36*
G01*
X190699999Y-59050000D02*
X191600001Y-59050000D01*
G75*
G02*
X191850000Y-59299999I0J-249999D01*
G01*
X191850000Y-60000001D01*
G75*
G02*
X191600001Y-60250000I-249999J0D01*
G01*
X190699999Y-60250000D01*
G75*
G02*
X190450000Y-60000001I0J249999D01*
G01*
X190450000Y-59299999D01*
G75*
G02*
X190699999Y-59050000I249999J0D01*
G01*
G37*
%TD*%
%TO.C,R507*%
G36*
G01*
X162099999Y-61050000D02*
X163000001Y-61050000D01*
G75*
G02*
X163250000Y-61299999I0J-249999D01*
G01*
X163250000Y-62000001D01*
G75*
G02*
X163000001Y-62250000I-249999J0D01*
G01*
X162099999Y-62250000D01*
G75*
G02*
X161850000Y-62000001I0J249999D01*
G01*
X161850000Y-61299999D01*
G75*
G02*
X162099999Y-61050000I249999J0D01*
G01*
G37*
G36*
G01*
X162099999Y-59050000D02*
X163000001Y-59050000D01*
G75*
G02*
X163250000Y-59299999I0J-249999D01*
G01*
X163250000Y-60000001D01*
G75*
G02*
X163000001Y-60250000I-249999J0D01*
G01*
X162099999Y-60250000D01*
G75*
G02*
X161850000Y-60000001I0J249999D01*
G01*
X161850000Y-59299999D01*
G75*
G02*
X162099999Y-59050000I249999J0D01*
G01*
G37*
%TD*%
%TO.C,C102*%
G36*
G01*
X174449998Y-130050000D02*
X175750002Y-130050000D01*
G75*
G02*
X176000000Y-130299998I0J-249998D01*
G01*
X176000000Y-131125002D01*
G75*
G02*
X175750002Y-131375000I-249998J0D01*
G01*
X174449998Y-131375000D01*
G75*
G02*
X174200000Y-131125002I0J249998D01*
G01*
X174200000Y-130299998D01*
G75*
G02*
X174449998Y-130050000I249998J0D01*
G01*
G37*
G36*
G01*
X174449998Y-126925000D02*
X175750002Y-126925000D01*
G75*
G02*
X176000000Y-127174998I0J-249998D01*
G01*
X176000000Y-128000002D01*
G75*
G02*
X175750002Y-128250000I-249998J0D01*
G01*
X174449998Y-128250000D01*
G75*
G02*
X174200000Y-128000002I0J249998D01*
G01*
X174200000Y-127174998D01*
G75*
G02*
X174449998Y-126925000I249998J0D01*
G01*
G37*
%TD*%
%TO.C,C102*%
G36*
G01*
X145849998Y-130050000D02*
X147150002Y-130050000D01*
G75*
G02*
X147400000Y-130299998I0J-249998D01*
G01*
X147400000Y-131125002D01*
G75*
G02*
X147150002Y-131375000I-249998J0D01*
G01*
X145849998Y-131375000D01*
G75*
G02*
X145600000Y-131125002I0J249998D01*
G01*
X145600000Y-130299998D01*
G75*
G02*
X145849998Y-130050000I249998J0D01*
G01*
G37*
G36*
G01*
X145849998Y-126925000D02*
X147150002Y-126925000D01*
G75*
G02*
X147400000Y-127174998I0J-249998D01*
G01*
X147400000Y-128000002D01*
G75*
G02*
X147150002Y-128250000I-249998J0D01*
G01*
X145849998Y-128250000D01*
G75*
G02*
X145600000Y-128000002I0J249998D01*
G01*
X145600000Y-127174998D01*
G75*
G02*
X145849998Y-126925000I249998J0D01*
G01*
G37*
%TD*%
%TO.C,C102*%
G36*
G01*
X117249998Y-130050000D02*
X118550002Y-130050000D01*
G75*
G02*
X118800000Y-130299998I0J-249998D01*
G01*
X118800000Y-131125002D01*
G75*
G02*
X118550002Y-131375000I-249998J0D01*
G01*
X117249998Y-131375000D01*
G75*
G02*
X117000000Y-131125002I0J249998D01*
G01*
X117000000Y-130299998D01*
G75*
G02*
X117249998Y-130050000I249998J0D01*
G01*
G37*
G36*
G01*
X117249998Y-126925000D02*
X118550002Y-126925000D01*
G75*
G02*
X118800000Y-127174998I0J-249998D01*
G01*
X118800000Y-128000002D01*
G75*
G02*
X118550002Y-128250000I-249998J0D01*
G01*
X117249998Y-128250000D01*
G75*
G02*
X117000000Y-128000002I0J249998D01*
G01*
X117000000Y-127174998D01*
G75*
G02*
X117249998Y-126925000I249998J0D01*
G01*
G37*
%TD*%
%TO.C,C102*%
G36*
G01*
X174449998Y-87950000D02*
X175750002Y-87950000D01*
G75*
G02*
X176000000Y-88199998I0J-249998D01*
G01*
X176000000Y-89025002D01*
G75*
G02*
X175750002Y-89275000I-249998J0D01*
G01*
X174449998Y-89275000D01*
G75*
G02*
X174200000Y-89025002I0J249998D01*
G01*
X174200000Y-88199998D01*
G75*
G02*
X174449998Y-87950000I249998J0D01*
G01*
G37*
G36*
G01*
X174449998Y-84825000D02*
X175750002Y-84825000D01*
G75*
G02*
X176000000Y-85074998I0J-249998D01*
G01*
X176000000Y-85900002D01*
G75*
G02*
X175750002Y-86150000I-249998J0D01*
G01*
X174449998Y-86150000D01*
G75*
G02*
X174200000Y-85900002I0J249998D01*
G01*
X174200000Y-85074998D01*
G75*
G02*
X174449998Y-84825000I249998J0D01*
G01*
G37*
%TD*%
%TO.C,C102*%
G36*
G01*
X145849998Y-87950000D02*
X147150002Y-87950000D01*
G75*
G02*
X147400000Y-88199998I0J-249998D01*
G01*
X147400000Y-89025002D01*
G75*
G02*
X147150002Y-89275000I-249998J0D01*
G01*
X145849998Y-89275000D01*
G75*
G02*
X145600000Y-89025002I0J249998D01*
G01*
X145600000Y-88199998D01*
G75*
G02*
X145849998Y-87950000I249998J0D01*
G01*
G37*
G36*
G01*
X145849998Y-84825000D02*
X147150002Y-84825000D01*
G75*
G02*
X147400000Y-85074998I0J-249998D01*
G01*
X147400000Y-85900002D01*
G75*
G02*
X147150002Y-86150000I-249998J0D01*
G01*
X145849998Y-86150000D01*
G75*
G02*
X145600000Y-85900002I0J249998D01*
G01*
X145600000Y-85074998D01*
G75*
G02*
X145849998Y-84825000I249998J0D01*
G01*
G37*
%TD*%
%TO.C,J102*%
X191400000Y-126770000D03*
X191400000Y-124230000D03*
X191400000Y-121690000D03*
X191400000Y-119150000D03*
X191400000Y-116610000D03*
X191400000Y-114070000D03*
X191400000Y-111530000D03*
X191400000Y-108990000D03*
D10*
X191400000Y-106450000D03*
%TD*%
D11*
%TO.C,J102*%
X162800000Y-126770000D03*
X162800000Y-124230000D03*
X162800000Y-121690000D03*
X162800000Y-119150000D03*
X162800000Y-116610000D03*
X162800000Y-114070000D03*
X162800000Y-111530000D03*
X162800000Y-108990000D03*
D10*
X162800000Y-106450000D03*
%TD*%
D11*
%TO.C,J102*%
X134200000Y-126770000D03*
X134200000Y-124230000D03*
X134200000Y-121690000D03*
X134200000Y-119150000D03*
X134200000Y-116610000D03*
X134200000Y-114070000D03*
X134200000Y-111530000D03*
X134200000Y-108990000D03*
D10*
X134200000Y-106450000D03*
%TD*%
D11*
%TO.C,J102*%
X191400000Y-84670000D03*
X191400000Y-82130000D03*
X191400000Y-79590000D03*
X191400000Y-77050000D03*
X191400000Y-74510000D03*
X191400000Y-71970000D03*
X191400000Y-69430000D03*
X191400000Y-66890000D03*
D10*
X191400000Y-64350000D03*
%TD*%
D11*
%TO.C,J102*%
X162800000Y-84670000D03*
X162800000Y-82130000D03*
X162800000Y-79590000D03*
X162800000Y-77050000D03*
X162800000Y-74510000D03*
X162800000Y-71970000D03*
X162800000Y-69430000D03*
X162800000Y-66890000D03*
D10*
X162800000Y-64350000D03*
%TD*%
%TO.C,C502*%
G36*
G01*
X179349998Y-130050000D02*
X180650002Y-130050000D01*
G75*
G02*
X180900000Y-130299998I0J-249998D01*
G01*
X180900000Y-131125002D01*
G75*
G02*
X180650002Y-131375000I-249998J0D01*
G01*
X179349998Y-131375000D01*
G75*
G02*
X179100000Y-131125002I0J249998D01*
G01*
X179100000Y-130299998D01*
G75*
G02*
X179349998Y-130050000I249998J0D01*
G01*
G37*
G36*
G01*
X179349998Y-126925000D02*
X180650002Y-126925000D01*
G75*
G02*
X180900000Y-127174998I0J-249998D01*
G01*
X180900000Y-128000002D01*
G75*
G02*
X180650002Y-128250000I-249998J0D01*
G01*
X179349998Y-128250000D01*
G75*
G02*
X179100000Y-128000002I0J249998D01*
G01*
X179100000Y-127174998D01*
G75*
G02*
X179349998Y-126925000I249998J0D01*
G01*
G37*
%TD*%
%TO.C,C502*%
G36*
G01*
X150749998Y-130050000D02*
X152050002Y-130050000D01*
G75*
G02*
X152300000Y-130299998I0J-249998D01*
G01*
X152300000Y-131125002D01*
G75*
G02*
X152050002Y-131375000I-249998J0D01*
G01*
X150749998Y-131375000D01*
G75*
G02*
X150500000Y-131125002I0J249998D01*
G01*
X150500000Y-130299998D01*
G75*
G02*
X150749998Y-130050000I249998J0D01*
G01*
G37*
G36*
G01*
X150749998Y-126925000D02*
X152050002Y-126925000D01*
G75*
G02*
X152300000Y-127174998I0J-249998D01*
G01*
X152300000Y-128000002D01*
G75*
G02*
X152050002Y-128250000I-249998J0D01*
G01*
X150749998Y-128250000D01*
G75*
G02*
X150500000Y-128000002I0J249998D01*
G01*
X150500000Y-127174998D01*
G75*
G02*
X150749998Y-126925000I249998J0D01*
G01*
G37*
%TD*%
%TO.C,C502*%
G36*
G01*
X122149998Y-130050000D02*
X123450002Y-130050000D01*
G75*
G02*
X123700000Y-130299998I0J-249998D01*
G01*
X123700000Y-131125002D01*
G75*
G02*
X123450002Y-131375000I-249998J0D01*
G01*
X122149998Y-131375000D01*
G75*
G02*
X121900000Y-131125002I0J249998D01*
G01*
X121900000Y-130299998D01*
G75*
G02*
X122149998Y-130050000I249998J0D01*
G01*
G37*
G36*
G01*
X122149998Y-126925000D02*
X123450002Y-126925000D01*
G75*
G02*
X123700000Y-127174998I0J-249998D01*
G01*
X123700000Y-128000002D01*
G75*
G02*
X123450002Y-128250000I-249998J0D01*
G01*
X122149998Y-128250000D01*
G75*
G02*
X121900000Y-128000002I0J249998D01*
G01*
X121900000Y-127174998D01*
G75*
G02*
X122149998Y-126925000I249998J0D01*
G01*
G37*
%TD*%
%TO.C,C502*%
G36*
G01*
X179349998Y-87950000D02*
X180650002Y-87950000D01*
G75*
G02*
X180900000Y-88199998I0J-249998D01*
G01*
X180900000Y-89025002D01*
G75*
G02*
X180650002Y-89275000I-249998J0D01*
G01*
X179349998Y-89275000D01*
G75*
G02*
X179100000Y-89025002I0J249998D01*
G01*
X179100000Y-88199998D01*
G75*
G02*
X179349998Y-87950000I249998J0D01*
G01*
G37*
G36*
G01*
X179349998Y-84825000D02*
X180650002Y-84825000D01*
G75*
G02*
X180900000Y-85074998I0J-249998D01*
G01*
X180900000Y-85900002D01*
G75*
G02*
X180650002Y-86150000I-249998J0D01*
G01*
X179349998Y-86150000D01*
G75*
G02*
X179100000Y-85900002I0J249998D01*
G01*
X179100000Y-85074998D01*
G75*
G02*
X179349998Y-84825000I249998J0D01*
G01*
G37*
%TD*%
%TO.C,C502*%
G36*
G01*
X150749998Y-87950000D02*
X152050002Y-87950000D01*
G75*
G02*
X152300000Y-88199998I0J-249998D01*
G01*
X152300000Y-89025002D01*
G75*
G02*
X152050002Y-89275000I-249998J0D01*
G01*
X150749998Y-89275000D01*
G75*
G02*
X150500000Y-89025002I0J249998D01*
G01*
X150500000Y-88199998D01*
G75*
G02*
X150749998Y-87950000I249998J0D01*
G01*
G37*
G36*
G01*
X150749998Y-84825000D02*
X152050002Y-84825000D01*
G75*
G02*
X152300000Y-85074998I0J-249998D01*
G01*
X152300000Y-85900002D01*
G75*
G02*
X152050002Y-86150000I-249998J0D01*
G01*
X150749998Y-86150000D01*
G75*
G02*
X150500000Y-85900002I0J249998D01*
G01*
X150500000Y-85074998D01*
G75*
G02*
X150749998Y-84825000I249998J0D01*
G01*
G37*
%TD*%
D11*
%TO.C,J501*%
X173650000Y-124800000D03*
X176190000Y-124800000D03*
X178730000Y-124800000D03*
X181270000Y-124800000D03*
X183810000Y-124800000D03*
D10*
X186350000Y-124800000D03*
%TD*%
D11*
%TO.C,J501*%
X145050000Y-124800000D03*
X147590000Y-124800000D03*
X150130000Y-124800000D03*
X152670000Y-124800000D03*
X155210000Y-124800000D03*
D10*
X157750000Y-124800000D03*
%TD*%
D11*
%TO.C,J501*%
X116450000Y-124800000D03*
X118990000Y-124800000D03*
X121530000Y-124800000D03*
X124070000Y-124800000D03*
X126610000Y-124800000D03*
D10*
X129150000Y-124800000D03*
%TD*%
D11*
%TO.C,J501*%
X173650000Y-82700000D03*
X176190000Y-82700000D03*
X178730000Y-82700000D03*
X181270000Y-82700000D03*
X183810000Y-82700000D03*
D10*
X186350000Y-82700000D03*
%TD*%
D11*
%TO.C,J501*%
X145050000Y-82700000D03*
X147590000Y-82700000D03*
X150130000Y-82700000D03*
X152670000Y-82700000D03*
X155210000Y-82700000D03*
D10*
X157750000Y-82700000D03*
%TD*%
%TO.C,R506*%
G36*
G01*
X190337500Y-129525000D02*
X189862500Y-129525000D01*
G75*
G02*
X189625000Y-129287500I0J237500D01*
G01*
X189625000Y-128787500D01*
G75*
G02*
X189862500Y-128550000I237500J0D01*
G01*
X190337500Y-128550000D01*
G75*
G02*
X190575000Y-128787500I0J-237500D01*
G01*
X190575000Y-129287500D01*
G75*
G02*
X190337500Y-129525000I-237500J0D01*
G01*
G37*
G36*
G01*
X190337500Y-131350000D02*
X189862500Y-131350000D01*
G75*
G02*
X189625000Y-131112500I0J237500D01*
G01*
X189625000Y-130612500D01*
G75*
G02*
X189862500Y-130375000I237500J0D01*
G01*
X190337500Y-130375000D01*
G75*
G02*
X190575000Y-130612500I0J-237500D01*
G01*
X190575000Y-131112500D01*
G75*
G02*
X190337500Y-131350000I-237500J0D01*
G01*
G37*
%TD*%
%TO.C,R506*%
G36*
G01*
X161737500Y-129525000D02*
X161262500Y-129525000D01*
G75*
G02*
X161025000Y-129287500I0J237500D01*
G01*
X161025000Y-128787500D01*
G75*
G02*
X161262500Y-128550000I237500J0D01*
G01*
X161737500Y-128550000D01*
G75*
G02*
X161975000Y-128787500I0J-237500D01*
G01*
X161975000Y-129287500D01*
G75*
G02*
X161737500Y-129525000I-237500J0D01*
G01*
G37*
G36*
G01*
X161737500Y-131350000D02*
X161262500Y-131350000D01*
G75*
G02*
X161025000Y-131112500I0J237500D01*
G01*
X161025000Y-130612500D01*
G75*
G02*
X161262500Y-130375000I237500J0D01*
G01*
X161737500Y-130375000D01*
G75*
G02*
X161975000Y-130612500I0J-237500D01*
G01*
X161975000Y-131112500D01*
G75*
G02*
X161737500Y-131350000I-237500J0D01*
G01*
G37*
%TD*%
%TO.C,R506*%
G36*
G01*
X133137500Y-129525000D02*
X132662500Y-129525000D01*
G75*
G02*
X132425000Y-129287500I0J237500D01*
G01*
X132425000Y-128787500D01*
G75*
G02*
X132662500Y-128550000I237500J0D01*
G01*
X133137500Y-128550000D01*
G75*
G02*
X133375000Y-128787500I0J-237500D01*
G01*
X133375000Y-129287500D01*
G75*
G02*
X133137500Y-129525000I-237500J0D01*
G01*
G37*
G36*
G01*
X133137500Y-131350000D02*
X132662500Y-131350000D01*
G75*
G02*
X132425000Y-131112500I0J237500D01*
G01*
X132425000Y-130612500D01*
G75*
G02*
X132662500Y-130375000I237500J0D01*
G01*
X133137500Y-130375000D01*
G75*
G02*
X133375000Y-130612500I0J-237500D01*
G01*
X133375000Y-131112500D01*
G75*
G02*
X133137500Y-131350000I-237500J0D01*
G01*
G37*
%TD*%
%TO.C,R506*%
G36*
G01*
X190337500Y-87425000D02*
X189862500Y-87425000D01*
G75*
G02*
X189625000Y-87187500I0J237500D01*
G01*
X189625000Y-86687500D01*
G75*
G02*
X189862500Y-86450000I237500J0D01*
G01*
X190337500Y-86450000D01*
G75*
G02*
X190575000Y-86687500I0J-237500D01*
G01*
X190575000Y-87187500D01*
G75*
G02*
X190337500Y-87425000I-237500J0D01*
G01*
G37*
G36*
G01*
X190337500Y-89250000D02*
X189862500Y-89250000D01*
G75*
G02*
X189625000Y-89012500I0J237500D01*
G01*
X189625000Y-88512500D01*
G75*
G02*
X189862500Y-88275000I237500J0D01*
G01*
X190337500Y-88275000D01*
G75*
G02*
X190575000Y-88512500I0J-237500D01*
G01*
X190575000Y-89012500D01*
G75*
G02*
X190337500Y-89250000I-237500J0D01*
G01*
G37*
%TD*%
%TO.C,R506*%
G36*
G01*
X161737500Y-87425000D02*
X161262500Y-87425000D01*
G75*
G02*
X161025000Y-87187500I0J237500D01*
G01*
X161025000Y-86687500D01*
G75*
G02*
X161262500Y-86450000I237500J0D01*
G01*
X161737500Y-86450000D01*
G75*
G02*
X161975000Y-86687500I0J-237500D01*
G01*
X161975000Y-87187500D01*
G75*
G02*
X161737500Y-87425000I-237500J0D01*
G01*
G37*
G36*
G01*
X161737500Y-89250000D02*
X161262500Y-89250000D01*
G75*
G02*
X161025000Y-89012500I0J237500D01*
G01*
X161025000Y-88512500D01*
G75*
G02*
X161262500Y-88275000I237500J0D01*
G01*
X161737500Y-88275000D01*
G75*
G02*
X161975000Y-88512500I0J-237500D01*
G01*
X161975000Y-89012500D01*
G75*
G02*
X161737500Y-89250000I-237500J0D01*
G01*
G37*
%TD*%
D12*
%TO.C,SW501*%
X191650000Y-133750000D03*
X183850000Y-133750000D03*
%TD*%
%TO.C,SW501*%
X163050000Y-133750000D03*
X155250000Y-133750000D03*
%TD*%
%TO.C,SW501*%
X134450000Y-133750000D03*
X126650000Y-133750000D03*
%TD*%
%TO.C,SW501*%
X191650000Y-91650000D03*
X183850000Y-91650000D03*
%TD*%
%TO.C,SW501*%
X163050000Y-91650000D03*
X155250000Y-91650000D03*
%TD*%
%TO.C,D501*%
G36*
G01*
X168700000Y-99662500D02*
X168700000Y-100137500D01*
G75*
G02*
X168462500Y-100375000I-237500J0D01*
G01*
X167887500Y-100375000D01*
G75*
G02*
X167650000Y-100137500I0J237500D01*
G01*
X167650000Y-99662500D01*
G75*
G02*
X167887500Y-99425000I237500J0D01*
G01*
X168462500Y-99425000D01*
G75*
G02*
X168700000Y-99662500I0J-237500D01*
G01*
G37*
G36*
G01*
X170450000Y-99662500D02*
X170450000Y-100137500D01*
G75*
G02*
X170212500Y-100375000I-237500J0D01*
G01*
X169637500Y-100375000D01*
G75*
G02*
X169400000Y-100137500I0J237500D01*
G01*
X169400000Y-99662500D01*
G75*
G02*
X169637500Y-99425000I237500J0D01*
G01*
X170212500Y-99425000D01*
G75*
G02*
X170450000Y-99662500I0J-237500D01*
G01*
G37*
%TD*%
%TO.C,D501*%
G36*
G01*
X140100000Y-99662500D02*
X140100000Y-100137500D01*
G75*
G02*
X139862500Y-100375000I-237500J0D01*
G01*
X139287500Y-100375000D01*
G75*
G02*
X139050000Y-100137500I0J237500D01*
G01*
X139050000Y-99662500D01*
G75*
G02*
X139287500Y-99425000I237500J0D01*
G01*
X139862500Y-99425000D01*
G75*
G02*
X140100000Y-99662500I0J-237500D01*
G01*
G37*
G36*
G01*
X141850000Y-99662500D02*
X141850000Y-100137500D01*
G75*
G02*
X141612500Y-100375000I-237500J0D01*
G01*
X141037500Y-100375000D01*
G75*
G02*
X140800000Y-100137500I0J237500D01*
G01*
X140800000Y-99662500D01*
G75*
G02*
X141037500Y-99425000I237500J0D01*
G01*
X141612500Y-99425000D01*
G75*
G02*
X141850000Y-99662500I0J-237500D01*
G01*
G37*
%TD*%
%TO.C,D501*%
G36*
G01*
X111500000Y-99662500D02*
X111500000Y-100137500D01*
G75*
G02*
X111262500Y-100375000I-237500J0D01*
G01*
X110687500Y-100375000D01*
G75*
G02*
X110450000Y-100137500I0J237500D01*
G01*
X110450000Y-99662500D01*
G75*
G02*
X110687500Y-99425000I237500J0D01*
G01*
X111262500Y-99425000D01*
G75*
G02*
X111500000Y-99662500I0J-237500D01*
G01*
G37*
G36*
G01*
X113250000Y-99662500D02*
X113250000Y-100137500D01*
G75*
G02*
X113012500Y-100375000I-237500J0D01*
G01*
X112437500Y-100375000D01*
G75*
G02*
X112200000Y-100137500I0J237500D01*
G01*
X112200000Y-99662500D01*
G75*
G02*
X112437500Y-99425000I237500J0D01*
G01*
X113012500Y-99425000D01*
G75*
G02*
X113250000Y-99662500I0J-237500D01*
G01*
G37*
%TD*%
%TO.C,D501*%
G36*
G01*
X168700000Y-57562500D02*
X168700000Y-58037500D01*
G75*
G02*
X168462500Y-58275000I-237500J0D01*
G01*
X167887500Y-58275000D01*
G75*
G02*
X167650000Y-58037500I0J237500D01*
G01*
X167650000Y-57562500D01*
G75*
G02*
X167887500Y-57325000I237500J0D01*
G01*
X168462500Y-57325000D01*
G75*
G02*
X168700000Y-57562500I0J-237500D01*
G01*
G37*
G36*
G01*
X170450000Y-57562500D02*
X170450000Y-58037500D01*
G75*
G02*
X170212500Y-58275000I-237500J0D01*
G01*
X169637500Y-58275000D01*
G75*
G02*
X169400000Y-58037500I0J237500D01*
G01*
X169400000Y-57562500D01*
G75*
G02*
X169637500Y-57325000I237500J0D01*
G01*
X170212500Y-57325000D01*
G75*
G02*
X170450000Y-57562500I0J-237500D01*
G01*
G37*
%TD*%
%TO.C,D501*%
G36*
G01*
X140100000Y-57562500D02*
X140100000Y-58037500D01*
G75*
G02*
X139862500Y-58275000I-237500J0D01*
G01*
X139287500Y-58275000D01*
G75*
G02*
X139050000Y-58037500I0J237500D01*
G01*
X139050000Y-57562500D01*
G75*
G02*
X139287500Y-57325000I237500J0D01*
G01*
X139862500Y-57325000D01*
G75*
G02*
X140100000Y-57562500I0J-237500D01*
G01*
G37*
G36*
G01*
X141850000Y-57562500D02*
X141850000Y-58037500D01*
G75*
G02*
X141612500Y-58275000I-237500J0D01*
G01*
X141037500Y-58275000D01*
G75*
G02*
X140800000Y-58037500I0J237500D01*
G01*
X140800000Y-57562500D01*
G75*
G02*
X141037500Y-57325000I237500J0D01*
G01*
X141612500Y-57325000D01*
G75*
G02*
X141850000Y-57562500I0J-237500D01*
G01*
G37*
%TD*%
D13*
%TO.C,U501*%
X187600000Y-105750000D03*
X187600000Y-107750000D03*
X187600000Y-109750000D03*
X187600000Y-111750000D03*
X187600000Y-113750000D03*
X187600000Y-115750000D03*
X187600000Y-117750000D03*
X187600000Y-119750000D03*
D14*
X185000000Y-121250000D03*
X183000000Y-121250000D03*
X181000000Y-121250000D03*
X179000000Y-121250000D03*
X177000000Y-121250000D03*
X175000000Y-121250000D03*
D13*
X172400000Y-119750000D03*
X172400000Y-117750000D03*
X172400000Y-115750000D03*
X172400000Y-113750000D03*
X172400000Y-111750000D03*
X172400000Y-109750000D03*
X172400000Y-107750000D03*
X172400000Y-105750000D03*
%TD*%
%TO.C,U501*%
X159000000Y-105750000D03*
X159000000Y-107750000D03*
X159000000Y-109750000D03*
X159000000Y-111750000D03*
X159000000Y-113750000D03*
X159000000Y-115750000D03*
X159000000Y-117750000D03*
X159000000Y-119750000D03*
D14*
X156400000Y-121250000D03*
X154400000Y-121250000D03*
X152400000Y-121250000D03*
X150400000Y-121250000D03*
X148400000Y-121250000D03*
X146400000Y-121250000D03*
D13*
X143800000Y-119750000D03*
X143800000Y-117750000D03*
X143800000Y-115750000D03*
X143800000Y-113750000D03*
X143800000Y-111750000D03*
X143800000Y-109750000D03*
X143800000Y-107750000D03*
X143800000Y-105750000D03*
%TD*%
%TO.C,U501*%
X130400000Y-105750000D03*
X130400000Y-107750000D03*
X130400000Y-109750000D03*
X130400000Y-111750000D03*
X130400000Y-113750000D03*
X130400000Y-115750000D03*
X130400000Y-117750000D03*
X130400000Y-119750000D03*
D14*
X127800000Y-121250000D03*
X125800000Y-121250000D03*
X123800000Y-121250000D03*
X121800000Y-121250000D03*
X119800000Y-121250000D03*
X117800000Y-121250000D03*
D13*
X115200000Y-119750000D03*
X115200000Y-117750000D03*
X115200000Y-115750000D03*
X115200000Y-113750000D03*
X115200000Y-111750000D03*
X115200000Y-109750000D03*
X115200000Y-107750000D03*
X115200000Y-105750000D03*
%TD*%
%TO.C,U501*%
X187600000Y-63650000D03*
X187600000Y-65650000D03*
X187600000Y-67650000D03*
X187600000Y-69650000D03*
X187600000Y-71650000D03*
X187600000Y-73650000D03*
X187600000Y-75650000D03*
X187600000Y-77650000D03*
D14*
X185000000Y-79150000D03*
X183000000Y-79150000D03*
X181000000Y-79150000D03*
X179000000Y-79150000D03*
X177000000Y-79150000D03*
X175000000Y-79150000D03*
D13*
X172400000Y-77650000D03*
X172400000Y-75650000D03*
X172400000Y-73650000D03*
X172400000Y-71650000D03*
X172400000Y-69650000D03*
X172400000Y-67650000D03*
X172400000Y-65650000D03*
X172400000Y-63650000D03*
%TD*%
%TO.C,U501*%
X159000000Y-63650000D03*
X159000000Y-65650000D03*
X159000000Y-67650000D03*
X159000000Y-69650000D03*
X159000000Y-71650000D03*
X159000000Y-73650000D03*
X159000000Y-75650000D03*
X159000000Y-77650000D03*
D14*
X156400000Y-79150000D03*
X154400000Y-79150000D03*
X152400000Y-79150000D03*
X150400000Y-79150000D03*
X148400000Y-79150000D03*
X146400000Y-79150000D03*
D13*
X143800000Y-77650000D03*
X143800000Y-75650000D03*
X143800000Y-73650000D03*
X143800000Y-71650000D03*
X143800000Y-69650000D03*
X143800000Y-67650000D03*
X143800000Y-65650000D03*
X143800000Y-63650000D03*
%TD*%
%TO.C,D502*%
G36*
G01*
X191250000Y-100237500D02*
X191250000Y-99762500D01*
G75*
G02*
X191487500Y-99525000I237500J0D01*
G01*
X192062500Y-99525000D01*
G75*
G02*
X192300000Y-99762500I0J-237500D01*
G01*
X192300000Y-100237500D01*
G75*
G02*
X192062500Y-100475000I-237500J0D01*
G01*
X191487500Y-100475000D01*
G75*
G02*
X191250000Y-100237500I0J237500D01*
G01*
G37*
G36*
G01*
X189500000Y-100237500D02*
X189500000Y-99762500D01*
G75*
G02*
X189737500Y-99525000I237500J0D01*
G01*
X190312500Y-99525000D01*
G75*
G02*
X190550000Y-99762500I0J-237500D01*
G01*
X190550000Y-100237500D01*
G75*
G02*
X190312500Y-100475000I-237500J0D01*
G01*
X189737500Y-100475000D01*
G75*
G02*
X189500000Y-100237500I0J237500D01*
G01*
G37*
%TD*%
%TO.C,D502*%
G36*
G01*
X162650000Y-100237500D02*
X162650000Y-99762500D01*
G75*
G02*
X162887500Y-99525000I237500J0D01*
G01*
X163462500Y-99525000D01*
G75*
G02*
X163700000Y-99762500I0J-237500D01*
G01*
X163700000Y-100237500D01*
G75*
G02*
X163462500Y-100475000I-237500J0D01*
G01*
X162887500Y-100475000D01*
G75*
G02*
X162650000Y-100237500I0J237500D01*
G01*
G37*
G36*
G01*
X160900000Y-100237500D02*
X160900000Y-99762500D01*
G75*
G02*
X161137500Y-99525000I237500J0D01*
G01*
X161712500Y-99525000D01*
G75*
G02*
X161950000Y-99762500I0J-237500D01*
G01*
X161950000Y-100237500D01*
G75*
G02*
X161712500Y-100475000I-237500J0D01*
G01*
X161137500Y-100475000D01*
G75*
G02*
X160900000Y-100237500I0J237500D01*
G01*
G37*
%TD*%
%TO.C,D502*%
G36*
G01*
X134050000Y-100237500D02*
X134050000Y-99762500D01*
G75*
G02*
X134287500Y-99525000I237500J0D01*
G01*
X134862500Y-99525000D01*
G75*
G02*
X135100000Y-99762500I0J-237500D01*
G01*
X135100000Y-100237500D01*
G75*
G02*
X134862500Y-100475000I-237500J0D01*
G01*
X134287500Y-100475000D01*
G75*
G02*
X134050000Y-100237500I0J237500D01*
G01*
G37*
G36*
G01*
X132300000Y-100237500D02*
X132300000Y-99762500D01*
G75*
G02*
X132537500Y-99525000I237500J0D01*
G01*
X133112500Y-99525000D01*
G75*
G02*
X133350000Y-99762500I0J-237500D01*
G01*
X133350000Y-100237500D01*
G75*
G02*
X133112500Y-100475000I-237500J0D01*
G01*
X132537500Y-100475000D01*
G75*
G02*
X132300000Y-100237500I0J237500D01*
G01*
G37*
%TD*%
%TO.C,D502*%
G36*
G01*
X191250000Y-58137500D02*
X191250000Y-57662500D01*
G75*
G02*
X191487500Y-57425000I237500J0D01*
G01*
X192062500Y-57425000D01*
G75*
G02*
X192300000Y-57662500I0J-237500D01*
G01*
X192300000Y-58137500D01*
G75*
G02*
X192062500Y-58375000I-237500J0D01*
G01*
X191487500Y-58375000D01*
G75*
G02*
X191250000Y-58137500I0J237500D01*
G01*
G37*
G36*
G01*
X189500000Y-58137500D02*
X189500000Y-57662500D01*
G75*
G02*
X189737500Y-57425000I237500J0D01*
G01*
X190312500Y-57425000D01*
G75*
G02*
X190550000Y-57662500I0J-237500D01*
G01*
X190550000Y-58137500D01*
G75*
G02*
X190312500Y-58375000I-237500J0D01*
G01*
X189737500Y-58375000D01*
G75*
G02*
X189500000Y-58137500I0J237500D01*
G01*
G37*
%TD*%
%TO.C,D502*%
G36*
G01*
X162650000Y-58137500D02*
X162650000Y-57662500D01*
G75*
G02*
X162887500Y-57425000I237500J0D01*
G01*
X163462500Y-57425000D01*
G75*
G02*
X163700000Y-57662500I0J-237500D01*
G01*
X163700000Y-58137500D01*
G75*
G02*
X163462500Y-58375000I-237500J0D01*
G01*
X162887500Y-58375000D01*
G75*
G02*
X162650000Y-58137500I0J237500D01*
G01*
G37*
G36*
G01*
X160900000Y-58137500D02*
X160900000Y-57662500D01*
G75*
G02*
X161137500Y-57425000I237500J0D01*
G01*
X161712500Y-57425000D01*
G75*
G02*
X161950000Y-57662500I0J-237500D01*
G01*
X161950000Y-58137500D01*
G75*
G02*
X161712500Y-58375000I-237500J0D01*
G01*
X161137500Y-58375000D01*
G75*
G02*
X160900000Y-58137500I0J237500D01*
G01*
G37*
%TD*%
D12*
%TO.C,SW502*%
X168100000Y-133700000D03*
X175900000Y-133700000D03*
%TD*%
%TO.C,SW502*%
X139500000Y-133700000D03*
X147300000Y-133700000D03*
%TD*%
%TO.C,SW502*%
X110900000Y-133700000D03*
X118700000Y-133700000D03*
%TD*%
%TO.C,SW502*%
X168100000Y-91600000D03*
X175900000Y-91600000D03*
%TD*%
%TO.C,SW502*%
X139500000Y-91600000D03*
X147300000Y-91600000D03*
%TD*%
%TO.C,R504*%
G36*
G01*
X168599999Y-103050000D02*
X169500001Y-103050000D01*
G75*
G02*
X169750000Y-103299999I0J-249999D01*
G01*
X169750000Y-104000001D01*
G75*
G02*
X169500001Y-104250000I-249999J0D01*
G01*
X168599999Y-104250000D01*
G75*
G02*
X168350000Y-104000001I0J249999D01*
G01*
X168350000Y-103299999D01*
G75*
G02*
X168599999Y-103050000I249999J0D01*
G01*
G37*
G36*
G01*
X168599999Y-101050000D02*
X169500001Y-101050000D01*
G75*
G02*
X169750000Y-101299999I0J-249999D01*
G01*
X169750000Y-102000001D01*
G75*
G02*
X169500001Y-102250000I-249999J0D01*
G01*
X168599999Y-102250000D01*
G75*
G02*
X168350000Y-102000001I0J249999D01*
G01*
X168350000Y-101299999D01*
G75*
G02*
X168599999Y-101050000I249999J0D01*
G01*
G37*
%TD*%
%TO.C,R504*%
G36*
G01*
X139999999Y-103050000D02*
X140900001Y-103050000D01*
G75*
G02*
X141150000Y-103299999I0J-249999D01*
G01*
X141150000Y-104000001D01*
G75*
G02*
X140900001Y-104250000I-249999J0D01*
G01*
X139999999Y-104250000D01*
G75*
G02*
X139750000Y-104000001I0J249999D01*
G01*
X139750000Y-103299999D01*
G75*
G02*
X139999999Y-103050000I249999J0D01*
G01*
G37*
G36*
G01*
X139999999Y-101050000D02*
X140900001Y-101050000D01*
G75*
G02*
X141150000Y-101299999I0J-249999D01*
G01*
X141150000Y-102000001D01*
G75*
G02*
X140900001Y-102250000I-249999J0D01*
G01*
X139999999Y-102250000D01*
G75*
G02*
X139750000Y-102000001I0J249999D01*
G01*
X139750000Y-101299999D01*
G75*
G02*
X139999999Y-101050000I249999J0D01*
G01*
G37*
%TD*%
%TO.C,R504*%
G36*
G01*
X111399999Y-103050000D02*
X112300001Y-103050000D01*
G75*
G02*
X112550000Y-103299999I0J-249999D01*
G01*
X112550000Y-104000001D01*
G75*
G02*
X112300001Y-104250000I-249999J0D01*
G01*
X111399999Y-104250000D01*
G75*
G02*
X111150000Y-104000001I0J249999D01*
G01*
X111150000Y-103299999D01*
G75*
G02*
X111399999Y-103050000I249999J0D01*
G01*
G37*
G36*
G01*
X111399999Y-101050000D02*
X112300001Y-101050000D01*
G75*
G02*
X112550000Y-101299999I0J-249999D01*
G01*
X112550000Y-102000001D01*
G75*
G02*
X112300001Y-102250000I-249999J0D01*
G01*
X111399999Y-102250000D01*
G75*
G02*
X111150000Y-102000001I0J249999D01*
G01*
X111150000Y-101299999D01*
G75*
G02*
X111399999Y-101050000I249999J0D01*
G01*
G37*
%TD*%
%TO.C,R504*%
G36*
G01*
X168599999Y-60950000D02*
X169500001Y-60950000D01*
G75*
G02*
X169750000Y-61199999I0J-249999D01*
G01*
X169750000Y-61900001D01*
G75*
G02*
X169500001Y-62150000I-249999J0D01*
G01*
X168599999Y-62150000D01*
G75*
G02*
X168350000Y-61900001I0J249999D01*
G01*
X168350000Y-61199999D01*
G75*
G02*
X168599999Y-60950000I249999J0D01*
G01*
G37*
G36*
G01*
X168599999Y-58950000D02*
X169500001Y-58950000D01*
G75*
G02*
X169750000Y-59199999I0J-249999D01*
G01*
X169750000Y-59900001D01*
G75*
G02*
X169500001Y-60150000I-249999J0D01*
G01*
X168599999Y-60150000D01*
G75*
G02*
X168350000Y-59900001I0J249999D01*
G01*
X168350000Y-59199999D01*
G75*
G02*
X168599999Y-58950000I249999J0D01*
G01*
G37*
%TD*%
%TO.C,R504*%
G36*
G01*
X139999999Y-60950000D02*
X140900001Y-60950000D01*
G75*
G02*
X141150000Y-61199999I0J-249999D01*
G01*
X141150000Y-61900001D01*
G75*
G02*
X140900001Y-62150000I-249999J0D01*
G01*
X139999999Y-62150000D01*
G75*
G02*
X139750000Y-61900001I0J249999D01*
G01*
X139750000Y-61199999D01*
G75*
G02*
X139999999Y-60950000I249999J0D01*
G01*
G37*
G36*
G01*
X139999999Y-58950000D02*
X140900001Y-58950000D01*
G75*
G02*
X141150000Y-59199999I0J-249999D01*
G01*
X141150000Y-59900001D01*
G75*
G02*
X140900001Y-60150000I-249999J0D01*
G01*
X139999999Y-60150000D01*
G75*
G02*
X139750000Y-59900001I0J249999D01*
G01*
X139750000Y-59199999D01*
G75*
G02*
X139999999Y-58950000I249999J0D01*
G01*
G37*
%TD*%
%TO.C,R503*%
G36*
G01*
X171787500Y-129525000D02*
X171312500Y-129525000D01*
G75*
G02*
X171075000Y-129287500I0J237500D01*
G01*
X171075000Y-128787500D01*
G75*
G02*
X171312500Y-128550000I237500J0D01*
G01*
X171787500Y-128550000D01*
G75*
G02*
X172025000Y-128787500I0J-237500D01*
G01*
X172025000Y-129287500D01*
G75*
G02*
X171787500Y-129525000I-237500J0D01*
G01*
G37*
G36*
G01*
X171787500Y-131350000D02*
X171312500Y-131350000D01*
G75*
G02*
X171075000Y-131112500I0J237500D01*
G01*
X171075000Y-130612500D01*
G75*
G02*
X171312500Y-130375000I237500J0D01*
G01*
X171787500Y-130375000D01*
G75*
G02*
X172025000Y-130612500I0J-237500D01*
G01*
X172025000Y-131112500D01*
G75*
G02*
X171787500Y-131350000I-237500J0D01*
G01*
G37*
%TD*%
%TO.C,R503*%
G36*
G01*
X143187500Y-129525000D02*
X142712500Y-129525000D01*
G75*
G02*
X142475000Y-129287500I0J237500D01*
G01*
X142475000Y-128787500D01*
G75*
G02*
X142712500Y-128550000I237500J0D01*
G01*
X143187500Y-128550000D01*
G75*
G02*
X143425000Y-128787500I0J-237500D01*
G01*
X143425000Y-129287500D01*
G75*
G02*
X143187500Y-129525000I-237500J0D01*
G01*
G37*
G36*
G01*
X143187500Y-131350000D02*
X142712500Y-131350000D01*
G75*
G02*
X142475000Y-131112500I0J237500D01*
G01*
X142475000Y-130612500D01*
G75*
G02*
X142712500Y-130375000I237500J0D01*
G01*
X143187500Y-130375000D01*
G75*
G02*
X143425000Y-130612500I0J-237500D01*
G01*
X143425000Y-131112500D01*
G75*
G02*
X143187500Y-131350000I-237500J0D01*
G01*
G37*
%TD*%
%TO.C,R503*%
G36*
G01*
X114587500Y-129525000D02*
X114112500Y-129525000D01*
G75*
G02*
X113875000Y-129287500I0J237500D01*
G01*
X113875000Y-128787500D01*
G75*
G02*
X114112500Y-128550000I237500J0D01*
G01*
X114587500Y-128550000D01*
G75*
G02*
X114825000Y-128787500I0J-237500D01*
G01*
X114825000Y-129287500D01*
G75*
G02*
X114587500Y-129525000I-237500J0D01*
G01*
G37*
G36*
G01*
X114587500Y-131350000D02*
X114112500Y-131350000D01*
G75*
G02*
X113875000Y-131112500I0J237500D01*
G01*
X113875000Y-130612500D01*
G75*
G02*
X114112500Y-130375000I237500J0D01*
G01*
X114587500Y-130375000D01*
G75*
G02*
X114825000Y-130612500I0J-237500D01*
G01*
X114825000Y-131112500D01*
G75*
G02*
X114587500Y-131350000I-237500J0D01*
G01*
G37*
%TD*%
%TO.C,R503*%
G36*
G01*
X171787500Y-87425000D02*
X171312500Y-87425000D01*
G75*
G02*
X171075000Y-87187500I0J237500D01*
G01*
X171075000Y-86687500D01*
G75*
G02*
X171312500Y-86450000I237500J0D01*
G01*
X171787500Y-86450000D01*
G75*
G02*
X172025000Y-86687500I0J-237500D01*
G01*
X172025000Y-87187500D01*
G75*
G02*
X171787500Y-87425000I-237500J0D01*
G01*
G37*
G36*
G01*
X171787500Y-89250000D02*
X171312500Y-89250000D01*
G75*
G02*
X171075000Y-89012500I0J237500D01*
G01*
X171075000Y-88512500D01*
G75*
G02*
X171312500Y-88275000I237500J0D01*
G01*
X171787500Y-88275000D01*
G75*
G02*
X172025000Y-88512500I0J-237500D01*
G01*
X172025000Y-89012500D01*
G75*
G02*
X171787500Y-89250000I-237500J0D01*
G01*
G37*
%TD*%
%TO.C,R503*%
G36*
G01*
X143187500Y-87425000D02*
X142712500Y-87425000D01*
G75*
G02*
X142475000Y-87187500I0J237500D01*
G01*
X142475000Y-86687500D01*
G75*
G02*
X142712500Y-86450000I237500J0D01*
G01*
X143187500Y-86450000D01*
G75*
G02*
X143425000Y-86687500I0J-237500D01*
G01*
X143425000Y-87187500D01*
G75*
G02*
X143187500Y-87425000I-237500J0D01*
G01*
G37*
G36*
G01*
X143187500Y-89250000D02*
X142712500Y-89250000D01*
G75*
G02*
X142475000Y-89012500I0J237500D01*
G01*
X142475000Y-88512500D01*
G75*
G02*
X142712500Y-88275000I237500J0D01*
G01*
X143187500Y-88275000D01*
G75*
G02*
X143425000Y-88512500I0J-237500D01*
G01*
X143425000Y-89012500D01*
G75*
G02*
X143187500Y-89250000I-237500J0D01*
G01*
G37*
%TD*%
D10*
%TO.C,J501*%
X129150000Y-82700000D03*
D11*
X126610000Y-82700000D03*
X124070000Y-82700000D03*
X121530000Y-82700000D03*
X118990000Y-82700000D03*
X116450000Y-82700000D03*
%TD*%
%TO.C,C501*%
G36*
G01*
X112512500Y-86450000D02*
X112987500Y-86450000D01*
G75*
G02*
X113225000Y-86687500I0J-237500D01*
G01*
X113225000Y-87287500D01*
G75*
G02*
X112987500Y-87525000I-237500J0D01*
G01*
X112512500Y-87525000D01*
G75*
G02*
X112275000Y-87287500I0J237500D01*
G01*
X112275000Y-86687500D01*
G75*
G02*
X112512500Y-86450000I237500J0D01*
G01*
G37*
G36*
G01*
X112512500Y-88175000D02*
X112987500Y-88175000D01*
G75*
G02*
X113225000Y-88412500I0J-237500D01*
G01*
X113225000Y-89012500D01*
G75*
G02*
X112987500Y-89250000I-237500J0D01*
G01*
X112512500Y-89250000D01*
G75*
G02*
X112275000Y-89012500I0J237500D01*
G01*
X112275000Y-88412500D01*
G75*
G02*
X112512500Y-88175000I237500J0D01*
G01*
G37*
%TD*%
D12*
%TO.C,SW501*%
X126650000Y-91650000D03*
X134450000Y-91650000D03*
%TD*%
%TO.C,C502*%
G36*
G01*
X122149998Y-84825000D02*
X123450002Y-84825000D01*
G75*
G02*
X123700000Y-85074998I0J-249998D01*
G01*
X123700000Y-85900002D01*
G75*
G02*
X123450002Y-86150000I-249998J0D01*
G01*
X122149998Y-86150000D01*
G75*
G02*
X121900000Y-85900002I0J249998D01*
G01*
X121900000Y-85074998D01*
G75*
G02*
X122149998Y-84825000I249998J0D01*
G01*
G37*
G36*
G01*
X122149998Y-87950000D02*
X123450002Y-87950000D01*
G75*
G02*
X123700000Y-88199998I0J-249998D01*
G01*
X123700000Y-89025002D01*
G75*
G02*
X123450002Y-89275000I-249998J0D01*
G01*
X122149998Y-89275000D01*
G75*
G02*
X121900000Y-89025002I0J249998D01*
G01*
X121900000Y-88199998D01*
G75*
G02*
X122149998Y-87950000I249998J0D01*
G01*
G37*
%TD*%
%TO.C,D502*%
G36*
G01*
X132300000Y-58137500D02*
X132300000Y-57662500D01*
G75*
G02*
X132537500Y-57425000I237500J0D01*
G01*
X133112500Y-57425000D01*
G75*
G02*
X133350000Y-57662500I0J-237500D01*
G01*
X133350000Y-58137500D01*
G75*
G02*
X133112500Y-58375000I-237500J0D01*
G01*
X132537500Y-58375000D01*
G75*
G02*
X132300000Y-58137500I0J237500D01*
G01*
G37*
G36*
G01*
X134050000Y-58137500D02*
X134050000Y-57662500D01*
G75*
G02*
X134287500Y-57425000I237500J0D01*
G01*
X134862500Y-57425000D01*
G75*
G02*
X135100000Y-57662500I0J-237500D01*
G01*
X135100000Y-58137500D01*
G75*
G02*
X134862500Y-58375000I-237500J0D01*
G01*
X134287500Y-58375000D01*
G75*
G02*
X134050000Y-58137500I0J237500D01*
G01*
G37*
%TD*%
%TO.C,D501*%
G36*
G01*
X113250000Y-57562500D02*
X113250000Y-58037500D01*
G75*
G02*
X113012500Y-58275000I-237500J0D01*
G01*
X112437500Y-58275000D01*
G75*
G02*
X112200000Y-58037500I0J237500D01*
G01*
X112200000Y-57562500D01*
G75*
G02*
X112437500Y-57325000I237500J0D01*
G01*
X113012500Y-57325000D01*
G75*
G02*
X113250000Y-57562500I0J-237500D01*
G01*
G37*
G36*
G01*
X111500000Y-57562500D02*
X111500000Y-58037500D01*
G75*
G02*
X111262500Y-58275000I-237500J0D01*
G01*
X110687500Y-58275000D01*
G75*
G02*
X110450000Y-58037500I0J237500D01*
G01*
X110450000Y-57562500D01*
G75*
G02*
X110687500Y-57325000I237500J0D01*
G01*
X111262500Y-57325000D01*
G75*
G02*
X111500000Y-57562500I0J-237500D01*
G01*
G37*
%TD*%
%TO.C,C104*%
G36*
G01*
X127049998Y-84825000D02*
X128350002Y-84825000D01*
G75*
G02*
X128600000Y-85074998I0J-249998D01*
G01*
X128600000Y-85900002D01*
G75*
G02*
X128350002Y-86150000I-249998J0D01*
G01*
X127049998Y-86150000D01*
G75*
G02*
X126800000Y-85900002I0J249998D01*
G01*
X126800000Y-85074998D01*
G75*
G02*
X127049998Y-84825000I249998J0D01*
G01*
G37*
G36*
G01*
X127049998Y-87950000D02*
X128350002Y-87950000D01*
G75*
G02*
X128600000Y-88199998I0J-249998D01*
G01*
X128600000Y-89025002D01*
G75*
G02*
X128350002Y-89275000I-249998J0D01*
G01*
X127049998Y-89275000D01*
G75*
G02*
X126800000Y-89025002I0J249998D01*
G01*
X126800000Y-88199998D01*
G75*
G02*
X127049998Y-87950000I249998J0D01*
G01*
G37*
%TD*%
D11*
%TO.C,J101*%
X111200000Y-84670000D03*
X111200000Y-82130000D03*
X111200000Y-79590000D03*
X111200000Y-77050000D03*
X111200000Y-74510000D03*
X111200000Y-71970000D03*
X111200000Y-69430000D03*
X111200000Y-66890000D03*
D10*
X111200000Y-64350000D03*
%TD*%
%TO.C,R501*%
G36*
G01*
X129462500Y-86450000D02*
X129937500Y-86450000D01*
G75*
G02*
X130175000Y-86687500I0J-237500D01*
G01*
X130175000Y-87187500D01*
G75*
G02*
X129937500Y-87425000I-237500J0D01*
G01*
X129462500Y-87425000D01*
G75*
G02*
X129225000Y-87187500I0J237500D01*
G01*
X129225000Y-86687500D01*
G75*
G02*
X129462500Y-86450000I237500J0D01*
G01*
G37*
G36*
G01*
X129462500Y-88275000D02*
X129937500Y-88275000D01*
G75*
G02*
X130175000Y-88512500I0J-237500D01*
G01*
X130175000Y-89012500D01*
G75*
G02*
X129937500Y-89250000I-237500J0D01*
G01*
X129462500Y-89250000D01*
G75*
G02*
X129225000Y-89012500I0J237500D01*
G01*
X129225000Y-88512500D01*
G75*
G02*
X129462500Y-88275000I237500J0D01*
G01*
G37*
%TD*%
%TO.C,C101*%
G36*
G01*
X119699998Y-84825000D02*
X121000002Y-84825000D01*
G75*
G02*
X121250000Y-85074998I0J-249998D01*
G01*
X121250000Y-85900002D01*
G75*
G02*
X121000002Y-86150000I-249998J0D01*
G01*
X119699998Y-86150000D01*
G75*
G02*
X119450000Y-85900002I0J249998D01*
G01*
X119450000Y-85074998D01*
G75*
G02*
X119699998Y-84825000I249998J0D01*
G01*
G37*
G36*
G01*
X119699998Y-87950000D02*
X121000002Y-87950000D01*
G75*
G02*
X121250000Y-88199998I0J-249998D01*
G01*
X121250000Y-89025002D01*
G75*
G02*
X121000002Y-89275000I-249998J0D01*
G01*
X119699998Y-89275000D01*
G75*
G02*
X119450000Y-89025002I0J249998D01*
G01*
X119450000Y-88199998D01*
G75*
G02*
X119699998Y-87950000I249998J0D01*
G01*
G37*
%TD*%
%TO.C,R504*%
G36*
G01*
X111399999Y-58950000D02*
X112300001Y-58950000D01*
G75*
G02*
X112550000Y-59199999I0J-249999D01*
G01*
X112550000Y-59900001D01*
G75*
G02*
X112300001Y-60150000I-249999J0D01*
G01*
X111399999Y-60150000D01*
G75*
G02*
X111150000Y-59900001I0J249999D01*
G01*
X111150000Y-59199999D01*
G75*
G02*
X111399999Y-58950000I249999J0D01*
G01*
G37*
G36*
G01*
X111399999Y-60950000D02*
X112300001Y-60950000D01*
G75*
G02*
X112550000Y-61199999I0J-249999D01*
G01*
X112550000Y-61900001D01*
G75*
G02*
X112300001Y-62150000I-249999J0D01*
G01*
X111399999Y-62150000D01*
G75*
G02*
X111150000Y-61900001I0J249999D01*
G01*
X111150000Y-61199999D01*
G75*
G02*
X111399999Y-60950000I249999J0D01*
G01*
G37*
%TD*%
%TO.C,R502*%
G36*
G01*
X115662500Y-86450000D02*
X116137500Y-86450000D01*
G75*
G02*
X116375000Y-86687500I0J-237500D01*
G01*
X116375000Y-87187500D01*
G75*
G02*
X116137500Y-87425000I-237500J0D01*
G01*
X115662500Y-87425000D01*
G75*
G02*
X115425000Y-87187500I0J237500D01*
G01*
X115425000Y-86687500D01*
G75*
G02*
X115662500Y-86450000I237500J0D01*
G01*
G37*
G36*
G01*
X115662500Y-88275000D02*
X116137500Y-88275000D01*
G75*
G02*
X116375000Y-88512500I0J-237500D01*
G01*
X116375000Y-89012500D01*
G75*
G02*
X116137500Y-89250000I-237500J0D01*
G01*
X115662500Y-89250000D01*
G75*
G02*
X115425000Y-89012500I0J237500D01*
G01*
X115425000Y-88512500D01*
G75*
G02*
X115662500Y-88275000I237500J0D01*
G01*
G37*
%TD*%
%TO.C,J102*%
X134200000Y-64350000D03*
D11*
X134200000Y-66890000D03*
X134200000Y-69430000D03*
X134200000Y-71970000D03*
X134200000Y-74510000D03*
X134200000Y-77050000D03*
X134200000Y-79590000D03*
X134200000Y-82130000D03*
X134200000Y-84670000D03*
%TD*%
%TO.C,R503*%
G36*
G01*
X114587500Y-89250000D02*
X114112500Y-89250000D01*
G75*
G02*
X113875000Y-89012500I0J237500D01*
G01*
X113875000Y-88512500D01*
G75*
G02*
X114112500Y-88275000I237500J0D01*
G01*
X114587500Y-88275000D01*
G75*
G02*
X114825000Y-88512500I0J-237500D01*
G01*
X114825000Y-89012500D01*
G75*
G02*
X114587500Y-89250000I-237500J0D01*
G01*
G37*
G36*
G01*
X114587500Y-87425000D02*
X114112500Y-87425000D01*
G75*
G02*
X113875000Y-87187500I0J237500D01*
G01*
X113875000Y-86687500D01*
G75*
G02*
X114112500Y-86450000I237500J0D01*
G01*
X114587500Y-86450000D01*
G75*
G02*
X114825000Y-86687500I0J-237500D01*
G01*
X114825000Y-87187500D01*
G75*
G02*
X114587500Y-87425000I-237500J0D01*
G01*
G37*
%TD*%
%TO.C,C103*%
G36*
G01*
X124599998Y-84825000D02*
X125900002Y-84825000D01*
G75*
G02*
X126150000Y-85074998I0J-249998D01*
G01*
X126150000Y-85900002D01*
G75*
G02*
X125900002Y-86150000I-249998J0D01*
G01*
X124599998Y-86150000D01*
G75*
G02*
X124350000Y-85900002I0J249998D01*
G01*
X124350000Y-85074998D01*
G75*
G02*
X124599998Y-84825000I249998J0D01*
G01*
G37*
G36*
G01*
X124599998Y-87950000D02*
X125900002Y-87950000D01*
G75*
G02*
X126150000Y-88199998I0J-249998D01*
G01*
X126150000Y-89025002D01*
G75*
G02*
X125900002Y-89275000I-249998J0D01*
G01*
X124599998Y-89275000D01*
G75*
G02*
X124350000Y-89025002I0J249998D01*
G01*
X124350000Y-88199998D01*
G75*
G02*
X124599998Y-87950000I249998J0D01*
G01*
G37*
%TD*%
%TO.C,C102*%
G36*
G01*
X117249998Y-84825000D02*
X118550002Y-84825000D01*
G75*
G02*
X118800000Y-85074998I0J-249998D01*
G01*
X118800000Y-85900002D01*
G75*
G02*
X118550002Y-86150000I-249998J0D01*
G01*
X117249998Y-86150000D01*
G75*
G02*
X117000000Y-85900002I0J249998D01*
G01*
X117000000Y-85074998D01*
G75*
G02*
X117249998Y-84825000I249998J0D01*
G01*
G37*
G36*
G01*
X117249998Y-87950000D02*
X118550002Y-87950000D01*
G75*
G02*
X118800000Y-88199998I0J-249998D01*
G01*
X118800000Y-89025002D01*
G75*
G02*
X118550002Y-89275000I-249998J0D01*
G01*
X117249998Y-89275000D01*
G75*
G02*
X117000000Y-89025002I0J249998D01*
G01*
X117000000Y-88199998D01*
G75*
G02*
X117249998Y-87950000I249998J0D01*
G01*
G37*
%TD*%
D13*
%TO.C,U501*%
X115200000Y-63650000D03*
X115200000Y-65650000D03*
X115200000Y-67650000D03*
X115200000Y-69650000D03*
X115200000Y-71650000D03*
X115200000Y-73650000D03*
X115200000Y-75650000D03*
X115200000Y-77650000D03*
D14*
X117800000Y-79150000D03*
X119800000Y-79150000D03*
X121800000Y-79150000D03*
X123800000Y-79150000D03*
X125800000Y-79150000D03*
X127800000Y-79150000D03*
D13*
X130400000Y-77650000D03*
X130400000Y-75650000D03*
X130400000Y-73650000D03*
X130400000Y-71650000D03*
X130400000Y-69650000D03*
X130400000Y-67650000D03*
X130400000Y-65650000D03*
X130400000Y-63650000D03*
%TD*%
%TO.C,R507*%
G36*
G01*
X133499999Y-59050000D02*
X134400001Y-59050000D01*
G75*
G02*
X134650000Y-59299999I0J-249999D01*
G01*
X134650000Y-60000001D01*
G75*
G02*
X134400001Y-60250000I-249999J0D01*
G01*
X133499999Y-60250000D01*
G75*
G02*
X133250000Y-60000001I0J249999D01*
G01*
X133250000Y-59299999D01*
G75*
G02*
X133499999Y-59050000I249999J0D01*
G01*
G37*
G36*
G01*
X133499999Y-61050000D02*
X134400001Y-61050000D01*
G75*
G02*
X134650000Y-61299999I0J-249999D01*
G01*
X134650000Y-62000001D01*
G75*
G02*
X134400001Y-62250000I-249999J0D01*
G01*
X133499999Y-62250000D01*
G75*
G02*
X133250000Y-62000001I0J249999D01*
G01*
X133250000Y-61299999D01*
G75*
G02*
X133499999Y-61050000I249999J0D01*
G01*
G37*
%TD*%
D12*
%TO.C,SW502*%
X118700000Y-91600000D03*
X110900000Y-91600000D03*
%TD*%
%TO.C,R506*%
G36*
G01*
X133137500Y-89250000D02*
X132662500Y-89250000D01*
G75*
G02*
X132425000Y-89012500I0J237500D01*
G01*
X132425000Y-88512500D01*
G75*
G02*
X132662500Y-88275000I237500J0D01*
G01*
X133137500Y-88275000D01*
G75*
G02*
X133375000Y-88512500I0J-237500D01*
G01*
X133375000Y-89012500D01*
G75*
G02*
X133137500Y-89250000I-237500J0D01*
G01*
G37*
G36*
G01*
X133137500Y-87425000D02*
X132662500Y-87425000D01*
G75*
G02*
X132425000Y-87187500I0J237500D01*
G01*
X132425000Y-86687500D01*
G75*
G02*
X132662500Y-86450000I237500J0D01*
G01*
X133137500Y-86450000D01*
G75*
G02*
X133375000Y-86687500I0J-237500D01*
G01*
X133375000Y-87187500D01*
G75*
G02*
X133137500Y-87425000I-237500J0D01*
G01*
G37*
%TD*%
%TO.C,R505*%
G36*
G01*
X131537500Y-89250000D02*
X131062500Y-89250000D01*
G75*
G02*
X130825000Y-89012500I0J237500D01*
G01*
X130825000Y-88512500D01*
G75*
G02*
X131062500Y-88275000I237500J0D01*
G01*
X131537500Y-88275000D01*
G75*
G02*
X131775000Y-88512500I0J-237500D01*
G01*
X131775000Y-89012500D01*
G75*
G02*
X131537500Y-89250000I-237500J0D01*
G01*
G37*
G36*
G01*
X131537500Y-87425000D02*
X131062500Y-87425000D01*
G75*
G02*
X130825000Y-87187500I0J237500D01*
G01*
X130825000Y-86687500D01*
G75*
G02*
X131062500Y-86450000I237500J0D01*
G01*
X131537500Y-86450000D01*
G75*
G02*
X131775000Y-86687500I0J-237500D01*
G01*
X131775000Y-87187500D01*
G75*
G02*
X131537500Y-87425000I-237500J0D01*
G01*
G37*
%TD*%
D15*
%TO.C,REF\u002A\u002A*%
X195400000Y-115500000D03*
%TD*%
%TO.C,REF\u002A\u002A*%
X166800000Y-115500000D03*
%TD*%
%TO.C,REF\u002A\u002A*%
X138200000Y-115500000D03*
%TD*%
%TO.C,REF\u002A\u002A*%
X109600000Y-115500000D03*
%TD*%
%TO.C,REF\u002A\u002A*%
X195400000Y-73400000D03*
%TD*%
%TO.C,REF\u002A\u002A*%
X166800000Y-73400000D03*
%TD*%
%TO.C,REF\u002A\u002A*%
X138200000Y-73400000D03*
%TD*%
%TO.C,REF\u002A\u002A*%
X192900000Y-115600000D03*
%TD*%
%TO.C,REF\u002A\u002A*%
X164300000Y-115600000D03*
%TD*%
%TO.C,REF\u002A\u002A*%
X135700000Y-115600000D03*
%TD*%
%TO.C,REF\u002A\u002A*%
X107100000Y-115600000D03*
%TD*%
%TO.C,REF\u002A\u002A*%
X192900000Y-73500000D03*
%TD*%
%TO.C,REF\u002A\u002A*%
X164300000Y-73500000D03*
%TD*%
%TO.C,REF\u002A\u002A*%
X135700000Y-73500000D03*
%TD*%
%TO.C,REF\u002A\u002A*%
X192900000Y-114900000D03*
%TD*%
%TO.C,REF\u002A\u002A*%
X164300000Y-114900000D03*
%TD*%
%TO.C,REF\u002A\u002A*%
X135700000Y-114900000D03*
%TD*%
%TO.C,REF\u002A\u002A*%
X107100000Y-114900000D03*
%TD*%
%TO.C,REF\u002A\u002A*%
X192900000Y-72800000D03*
%TD*%
%TO.C,REF\u002A\u002A*%
X164300000Y-72800000D03*
%TD*%
%TO.C,REF\u002A\u002A*%
X135700000Y-72800000D03*
%TD*%
%TO.C,REF\u002A\u002A*%
X192900000Y-114200000D03*
%TD*%
%TO.C,REF\u002A\u002A*%
X164300000Y-114200000D03*
%TD*%
%TO.C,REF\u002A\u002A*%
X135700000Y-114200000D03*
%TD*%
%TO.C,REF\u002A\u002A*%
X107100000Y-114200000D03*
%TD*%
%TO.C,REF\u002A\u002A*%
X192900000Y-72100000D03*
%TD*%
%TO.C,REF\u002A\u002A*%
X164300000Y-72100000D03*
%TD*%
%TO.C,REF\u002A\u002A*%
X135700000Y-72100000D03*
%TD*%
%TO.C,REF\u002A\u002A*%
X195400000Y-114100000D03*
%TD*%
%TO.C,REF\u002A\u002A*%
X166800000Y-114100000D03*
%TD*%
%TO.C,REF\u002A\u002A*%
X138200000Y-114100000D03*
%TD*%
%TO.C,REF\u002A\u002A*%
X109600000Y-114100000D03*
%TD*%
%TO.C,REF\u002A\u002A*%
X195400000Y-72000000D03*
%TD*%
%TO.C,REF\u002A\u002A*%
X166800000Y-72000000D03*
%TD*%
%TO.C,REF\u002A\u002A*%
X138200000Y-72000000D03*
%TD*%
%TO.C,REF\u002A\u002A*%
X195400000Y-114800000D03*
%TD*%
%TO.C,REF\u002A\u002A*%
X166800000Y-114800000D03*
%TD*%
%TO.C,REF\u002A\u002A*%
X138200000Y-114800000D03*
%TD*%
%TO.C,REF\u002A\u002A*%
X109600000Y-114800000D03*
%TD*%
%TO.C,REF\u002A\u002A*%
X195400000Y-72700000D03*
%TD*%
%TO.C,REF\u002A\u002A*%
X166800000Y-72700000D03*
%TD*%
%TO.C,REF\u002A\u002A*%
X138200000Y-72700000D03*
%TD*%
%TO.C,REF\u002A\u002A*%
X109600000Y-72700000D03*
%TD*%
%TO.C,REF\u002A\u002A*%
X109600000Y-72000000D03*
%TD*%
%TO.C,REF\u002A\u002A*%
X107100000Y-72800000D03*
%TD*%
%TO.C,REF\u002A\u002A*%
X107100000Y-72100000D03*
%TD*%
%TO.C,REF\u002A\u002A*%
X107100000Y-73500000D03*
%TD*%
%TO.C,REF\u002A\u002A*%
X109600000Y-73400000D03*
%TD*%
%TO.C,REF\u002A\u002A*%
X178600000Y-138500000D03*
%TD*%
%TO.C,REF\u002A\u002A*%
X150300000Y-138500000D03*
%TD*%
%TO.C,REF\u002A\u002A*%
X122000000Y-138500000D03*
%TD*%
%TO.C,REF\u002A\u002A*%
X178600000Y-96400000D03*
%TD*%
%TO.C,REF\u002A\u002A*%
X150300000Y-96400000D03*
%TD*%
%TO.C,REF\u002A\u002A*%
X122000000Y-96400000D03*
%TD*%
%TO.C,REF\u002A\u002A*%
X178600000Y-54300000D03*
%TD*%
%TO.C,REF\u002A\u002A*%
X150300000Y-54300000D03*
%TD*%
%TO.C,REF\u002A\u002A*%
X179300000Y-138500000D03*
%TD*%
%TO.C,REF\u002A\u002A*%
X151000000Y-138500000D03*
%TD*%
%TO.C,REF\u002A\u002A*%
X122700000Y-138500000D03*
%TD*%
%TO.C,REF\u002A\u002A*%
X179300000Y-96400000D03*
%TD*%
%TO.C,REF\u002A\u002A*%
X151000000Y-96400000D03*
%TD*%
%TO.C,REF\u002A\u002A*%
X122700000Y-96400000D03*
%TD*%
%TO.C,REF\u002A\u002A*%
X179300000Y-54300000D03*
%TD*%
%TO.C,REF\u002A\u002A*%
X151000000Y-54300000D03*
%TD*%
%TO.C,REF\u002A\u002A*%
X178500000Y-136000000D03*
%TD*%
%TO.C,REF\u002A\u002A*%
X150200000Y-136000000D03*
%TD*%
%TO.C,REF\u002A\u002A*%
X121900000Y-136000000D03*
%TD*%
%TO.C,REF\u002A\u002A*%
X178500000Y-93900000D03*
%TD*%
%TO.C,REF\u002A\u002A*%
X150200000Y-93900000D03*
%TD*%
%TO.C,REF\u002A\u002A*%
X121900000Y-93900000D03*
%TD*%
%TO.C,REF\u002A\u002A*%
X178500000Y-51800000D03*
%TD*%
%TO.C,REF\u002A\u002A*%
X150200000Y-51800000D03*
%TD*%
%TO.C,REF\u002A\u002A*%
X179200000Y-136000000D03*
%TD*%
%TO.C,REF\u002A\u002A*%
X150900000Y-136000000D03*
%TD*%
%TO.C,REF\u002A\u002A*%
X122600000Y-136000000D03*
%TD*%
%TO.C,REF\u002A\u002A*%
X179200000Y-93900000D03*
%TD*%
%TO.C,REF\u002A\u002A*%
X150900000Y-93900000D03*
%TD*%
%TO.C,REF\u002A\u002A*%
X122600000Y-93900000D03*
%TD*%
%TO.C,REF\u002A\u002A*%
X179200000Y-51800000D03*
%TD*%
%TO.C,REF\u002A\u002A*%
X150900000Y-51800000D03*
%TD*%
%TO.C,REF\u002A\u002A*%
X177800000Y-136000000D03*
%TD*%
%TO.C,REF\u002A\u002A*%
X149500000Y-136000000D03*
%TD*%
%TO.C,REF\u002A\u002A*%
X121200000Y-136000000D03*
%TD*%
%TO.C,REF\u002A\u002A*%
X177800000Y-93900000D03*
%TD*%
%TO.C,REF\u002A\u002A*%
X149500000Y-93900000D03*
%TD*%
%TO.C,REF\u002A\u002A*%
X121200000Y-93900000D03*
%TD*%
%TO.C,REF\u002A\u002A*%
X177800000Y-51800000D03*
%TD*%
%TO.C,REF\u002A\u002A*%
X149500000Y-51800000D03*
%TD*%
%TO.C,REF\u002A\u002A*%
X177900000Y-138500000D03*
%TD*%
%TO.C,REF\u002A\u002A*%
X149600000Y-138500000D03*
%TD*%
%TO.C,REF\u002A\u002A*%
X121300000Y-138500000D03*
%TD*%
%TO.C,REF\u002A\u002A*%
X177900000Y-96400000D03*
%TD*%
%TO.C,REF\u002A\u002A*%
X149600000Y-96400000D03*
%TD*%
%TO.C,REF\u002A\u002A*%
X121300000Y-96400000D03*
%TD*%
%TO.C,REF\u002A\u002A*%
X177900000Y-54300000D03*
%TD*%
%TO.C,REF\u002A\u002A*%
X149600000Y-54300000D03*
%TD*%
%TO.C,REF\u002A\u002A*%
X122000000Y-54300000D03*
%TD*%
%TO.C,REF\u002A\u002A*%
X122700000Y-54300000D03*
%TD*%
%TO.C,REF\u002A\u002A*%
X121300000Y-54300000D03*
%TD*%
%TO.C,REF\u002A\u002A*%
X122600000Y-51800000D03*
%TD*%
%TO.C,REF\u002A\u002A*%
X121900000Y-51800000D03*
%TD*%
%TO.C,REF\u002A\u002A*%
X121200000Y-51800000D03*
%TD*%
M02*
