M48
; DRILL file {KiCad 5.1.9-73d0e3b20d~88~ubuntu18.04.1} date Sun Nov 28 02:45:41 2021
; FORMAT={-:-/ absolute / inch / decimal}
; #@! TF.CreationDate,2021-11-28T02:45:41+02:00
; #@! TF.GenerationSoftware,Kicad,Pcbnew,5.1.9-73d0e3b20d~88~ubuntu18.04.1
FMAT,2
INCH
T1C0.0157
T2C0.0394
T3C0.0197
%
G90
G05
T1
X4.3602Y-2.1772
X4.3602Y-3.8346
X4.4173Y-3.5531
X4.4173Y-5.2106
X4.4429Y-2.1752
X4.4429Y-3.8327
X4.4769Y-3.3027
X4.4769Y-4.9601
X4.4921Y-3.374
X4.4921Y-5.0315
X4.5108Y-3.1496
X4.5108Y-4.8071
X4.6142Y-2.7776
X4.6142Y-2.8917
X4.6142Y-4.435
X4.6142Y-4.5492
X4.6181Y-2.5118
X4.6181Y-2.6417
X4.6181Y-4.1693
X4.6181Y-4.2992
X4.6201Y-3.6594
X4.6201Y-5.3169
X4.628Y-3.0512
X4.628Y-4.7087
X4.6732Y-3.0512
X4.6732Y-4.7087
X4.6969Y-2.9567
X4.6969Y-4.6142
X4.7185Y-3.0512
X4.7185Y-4.7087
X4.7618Y-3.0512
X4.7618Y-4.7087
X4.7638Y-3.5709
X4.7638Y-5.2283
X4.8957Y-3.5728
X4.8957Y-5.2303
X4.939Y-3.0453
X4.939Y-4.7028
X4.9429Y-2.9291
X4.9429Y-4.5866
X4.9862Y-3.0453
X4.9862Y-4.7028
X5.0276Y-3.0433
X5.0276Y-4.7008
X5.0295Y-2.7776
X5.0295Y-2.9646
X5.0295Y-3.0039
X5.0295Y-4.435
X5.0295Y-4.622
X5.0295Y-4.6614
X5.0335Y-2.8917
X5.0335Y-4.5492
X5.0394Y-3.6614
X5.0394Y-5.3189
X5.0492Y-2.5098
X5.0492Y-4.1673
X5.0613Y-2.6404
X5.0613Y-4.2978
X5.0886Y-3.1102
X5.0886Y-4.7677
X5.122Y-3.372
X5.122Y-5.0295
X5.1535Y-3.1161
X5.1535Y-4.7736
X5.1713Y-3.374
X5.1713Y-5.0315
X5.2205Y-3.372
X5.2205Y-5.0295
X5.2264Y-2.1713
X5.2264Y-3.8287
X5.2303Y-2.4803
X5.2303Y-4.1378
X5.2421Y-3.5531
X5.2421Y-5.2106
X5.2933Y-3.4193
X5.2933Y-3.5531
X5.2933Y-5.0768
X5.2933Y-5.2106
X5.3012Y-2.1732
X5.3012Y-3.8307
X5.4862Y-2.1772
X5.4862Y-3.8346
X5.5433Y-3.5531
X5.5433Y-5.2106
X5.5689Y-2.1752
X5.5689Y-3.8327
X5.6028Y-3.3027
X5.6028Y-4.9601
X5.6181Y-3.374
X5.6181Y-5.0315
X5.6368Y-3.1496
X5.6368Y-4.8071
X5.7402Y-2.7776
X5.7402Y-2.8917
X5.7402Y-4.435
X5.7402Y-4.5492
X5.7441Y-2.5118
X5.7441Y-2.6417
X5.7441Y-4.1693
X5.7441Y-4.2992
X5.7461Y-3.6594
X5.7461Y-5.3169
X5.7539Y-3.0512
X5.7539Y-4.7087
X5.7992Y-3.0512
X5.7992Y-4.7087
X5.8228Y-2.9567
X5.8228Y-4.6142
X5.8445Y-3.0512
X5.8445Y-4.7087
X5.8878Y-3.0512
X5.8878Y-4.7087
X5.8898Y-3.5709
X5.8898Y-5.2283
X6.0217Y-3.5728
X6.0217Y-5.2303
X6.065Y-3.0453
X6.065Y-4.7028
X6.0689Y-2.9291
X6.0689Y-4.5866
X6.1122Y-3.0453
X6.1122Y-4.7028
X6.1535Y-3.0433
X6.1535Y-4.7008
X6.1555Y-2.7776
X6.1555Y-2.9646
X6.1555Y-3.0039
X6.1555Y-4.435
X6.1555Y-4.622
X6.1555Y-4.6614
X6.1594Y-2.8917
X6.1594Y-4.5492
X6.1654Y-3.6614
X6.1654Y-5.3189
X6.1752Y-2.5098
X6.1752Y-4.1673
X6.1872Y-2.6404
X6.1872Y-4.2978
X6.2146Y-3.1102
X6.2146Y-4.7677
X6.248Y-3.372
X6.248Y-5.0295
X6.2795Y-3.1161
X6.2795Y-4.7736
X6.2972Y-3.374
X6.2972Y-5.0315
X6.3465Y-3.372
X6.3465Y-5.0295
X6.3524Y-2.1713
X6.3524Y-3.8287
X6.3563Y-2.4803
X6.3563Y-4.1378
X6.3681Y-3.5531
X6.3681Y-5.2106
X6.4193Y-3.4193
X6.4193Y-3.5531
X6.4193Y-5.0768
X6.4193Y-5.2106
X6.4272Y-2.1732
X6.4272Y-3.8307
X6.6122Y-2.1772
X6.6122Y-3.8346
X6.6693Y-3.5531
X6.6693Y-5.2106
X6.6949Y-2.1752
X6.6949Y-3.8327
X6.7288Y-3.3027
X6.7288Y-4.9601
X6.7441Y-3.374
X6.7441Y-5.0315
X6.7628Y-3.1496
X6.7628Y-4.8071
X6.8661Y-2.7776
X6.8661Y-2.8917
X6.8661Y-4.435
X6.8661Y-4.5492
X6.8701Y-2.5118
X6.8701Y-2.6417
X6.8701Y-4.1693
X6.8701Y-4.2992
X6.872Y-3.6594
X6.872Y-5.3169
X6.8799Y-3.0512
X6.8799Y-4.7087
X6.9252Y-3.0512
X6.9252Y-4.7087
X6.9488Y-2.9567
X6.9488Y-4.6142
X6.9705Y-3.0512
X6.9705Y-4.7087
X7.0138Y-3.0512
X7.0138Y-4.7087
X7.0157Y-3.5709
X7.0157Y-5.2283
X7.1476Y-3.5728
X7.1476Y-5.2303
X7.1909Y-3.0453
X7.1909Y-4.7028
X7.1949Y-2.9291
X7.1949Y-4.5866
X7.2382Y-3.0453
X7.2382Y-4.7028
X7.2795Y-3.0433
X7.2795Y-4.7008
X7.2815Y-2.7776
X7.2815Y-2.9646
X7.2815Y-3.0039
X7.2815Y-4.435
X7.2815Y-4.622
X7.2815Y-4.6614
X7.2854Y-2.8917
X7.2854Y-4.5492
X7.2913Y-3.6614
X7.2913Y-5.3189
X7.3012Y-2.5098
X7.3012Y-4.1673
X7.3132Y-2.6404
X7.3132Y-4.2978
X7.3406Y-3.1102
X7.3406Y-4.7677
X7.374Y-3.372
X7.374Y-5.0295
X7.4055Y-3.1161
X7.4055Y-4.7736
X7.4232Y-3.374
X7.4232Y-5.0315
X7.4724Y-3.372
X7.4724Y-5.0295
X7.4783Y-2.1713
X7.4783Y-3.8287
X7.4823Y-2.4803
X7.4823Y-4.1378
X7.4941Y-3.5531
X7.4941Y-5.2106
X7.5453Y-3.4193
X7.5453Y-3.5531
X7.5453Y-5.0768
X7.5453Y-5.2106
X7.5531Y-2.1732
X7.5531Y-3.8307
T2
X4.378Y-2.5335
X4.378Y-2.6335
X4.378Y-2.7335
X4.378Y-2.8335
X4.378Y-2.9335
X4.378Y-3.0335
X4.378Y-3.1335
X4.378Y-3.2335
X4.378Y-3.3335
X4.378Y-4.1909
X4.378Y-4.2909
X4.378Y-4.3909
X4.378Y-4.4909
X4.378Y-4.5909
X4.378Y-4.6909
X4.378Y-4.7909
X4.378Y-4.8909
X4.378Y-4.9909
X4.5846Y-3.2559
X4.5846Y-4.9134
X4.6846Y-3.2559
X4.6846Y-4.9134
X4.7846Y-3.2559
X4.7846Y-4.9134
X4.8846Y-3.2559
X4.8846Y-4.9134
X4.9846Y-3.2559
X4.9846Y-4.9134
X5.0846Y-3.2559
X5.0846Y-4.9134
X5.2835Y-2.5335
X5.2835Y-2.6335
X5.2835Y-2.7335
X5.2835Y-2.8335
X5.2835Y-2.9335
X5.2835Y-3.0335
X5.2835Y-3.1335
X5.2835Y-3.2335
X5.2835Y-3.3335
X5.2835Y-4.1909
X5.2835Y-4.2909
X5.2835Y-4.3909
X5.2835Y-4.4909
X5.2835Y-4.5909
X5.2835Y-4.6909
X5.2835Y-4.7909
X5.2835Y-4.8909
X5.2835Y-4.9909
X5.5039Y-2.5335
X5.5039Y-2.6335
X5.5039Y-2.7335
X5.5039Y-2.8335
X5.5039Y-2.9335
X5.5039Y-3.0335
X5.5039Y-3.1335
X5.5039Y-3.2335
X5.5039Y-3.3335
X5.5039Y-4.1909
X5.5039Y-4.2909
X5.5039Y-4.3909
X5.5039Y-4.4909
X5.5039Y-4.5909
X5.5039Y-4.6909
X5.5039Y-4.7909
X5.5039Y-4.8909
X5.5039Y-4.9909
X5.7106Y-3.2559
X5.7106Y-4.9134
X5.8106Y-3.2559
X5.8106Y-4.9134
X5.9106Y-3.2559
X5.9106Y-4.9134
X6.0106Y-3.2559
X6.0106Y-4.9134
X6.1106Y-3.2559
X6.1106Y-4.9134
X6.2106Y-3.2559
X6.2106Y-4.9134
X6.4094Y-2.5335
X6.4094Y-2.6335
X6.4094Y-2.7335
X6.4094Y-2.8335
X6.4094Y-2.9335
X6.4094Y-3.0335
X6.4094Y-3.1335
X6.4094Y-3.2335
X6.4094Y-3.3335
X6.4094Y-4.1909
X6.4094Y-4.2909
X6.4094Y-4.3909
X6.4094Y-4.4909
X6.4094Y-4.5909
X6.4094Y-4.6909
X6.4094Y-4.7909
X6.4094Y-4.8909
X6.4094Y-4.9909
X6.6299Y-2.5335
X6.6299Y-2.6335
X6.6299Y-2.7335
X6.6299Y-2.8335
X6.6299Y-2.9335
X6.6299Y-3.0335
X6.6299Y-3.1335
X6.6299Y-3.2335
X6.6299Y-3.3335
X6.6299Y-4.1909
X6.6299Y-4.2909
X6.6299Y-4.3909
X6.6299Y-4.4909
X6.6299Y-4.5909
X6.6299Y-4.6909
X6.6299Y-4.7909
X6.6299Y-4.8909
X6.6299Y-4.9909
X6.8366Y-3.2559
X6.8366Y-4.9134
X6.9366Y-3.2559
X6.9366Y-4.9134
X7.0366Y-3.2559
X7.0366Y-4.9134
X7.1366Y-3.2559
X7.1366Y-4.9134
X7.2366Y-3.2559
X7.2366Y-4.9134
X7.3366Y-3.2559
X7.3366Y-4.9134
X7.5354Y-2.5335
X7.5354Y-2.6335
X7.5354Y-2.7335
X7.5354Y-2.8335
X7.5354Y-2.9335
X7.5354Y-3.0335
X7.5354Y-3.1335
X7.5354Y-3.2335
X7.5354Y-3.3335
X7.5354Y-4.1909
X7.5354Y-4.2909
X7.5354Y-4.3909
X7.5354Y-4.4909
X7.5354Y-4.5909
X7.5354Y-4.6909
X7.5354Y-4.7909
X7.5354Y-4.8909
X7.5354Y-4.9909
T3
X4.2165Y-2.8386
X4.2165Y-2.8661
X4.2165Y-2.8937
X4.2165Y-4.4961
X4.2165Y-4.5236
X4.2165Y-4.5512
X4.315Y-2.8346
X4.315Y-2.8622
X4.315Y-2.8898
X4.315Y-4.4921
X4.315Y-4.5197
X4.315Y-4.5472
X4.7717Y-2.0394
X4.7717Y-3.6969
X4.7717Y-5.3543
X4.7756Y-2.1378
X4.7756Y-3.7953
X4.7756Y-5.4528
X4.7992Y-2.0394
X4.7992Y-3.6969
X4.7992Y-5.3543
X4.8031Y-2.1378
X4.8031Y-3.7953
X4.8031Y-5.4528
X4.8268Y-2.0394
X4.8268Y-3.6969
X4.8268Y-5.3543
X4.8307Y-2.1378
X4.8307Y-3.7953
X4.8307Y-5.4528
X5.3425Y-2.8386
X5.3425Y-2.8661
X5.3425Y-2.8937
X5.3425Y-4.4961
X5.3425Y-4.5236
X5.3425Y-4.5512
X5.4409Y-2.8346
X5.4409Y-2.8622
X5.4409Y-2.8898
X5.4409Y-4.4921
X5.4409Y-4.5197
X5.4409Y-4.5472
X5.8858Y-2.0394
X5.8858Y-3.6969
X5.8858Y-5.3543
X5.8898Y-2.1378
X5.8898Y-3.7953
X5.8898Y-5.4528
X5.9134Y-2.0394
X5.9134Y-3.6969
X5.9134Y-5.3543
X5.9173Y-2.1378
X5.9173Y-3.7953
X5.9173Y-5.4528
X5.9409Y-2.0394
X5.9409Y-3.6969
X5.9409Y-5.3543
X5.9449Y-2.1378
X5.9449Y-3.7953
X5.9449Y-5.4528
X6.4685Y-2.8386
X6.4685Y-2.8661
X6.4685Y-2.8937
X6.4685Y-4.4961
X6.4685Y-4.5236
X6.4685Y-4.5512
X6.5669Y-2.8346
X6.5669Y-2.8622
X6.5669Y-2.8898
X6.5669Y-4.4921
X6.5669Y-4.5197
X6.5669Y-4.5472
X7.0Y-2.0394
X7.0Y-3.6969
X7.0Y-5.3543
X7.0039Y-2.1378
X7.0039Y-3.7953
X7.0039Y-5.4528
X7.0276Y-2.0394
X7.0276Y-3.6969
X7.0276Y-5.3543
X7.0315Y-2.1378
X7.0315Y-3.7953
X7.0315Y-5.4528
X7.0551Y-2.0394
X7.0551Y-3.6969
X7.0551Y-5.3543
X7.0591Y-2.1378
X7.0591Y-3.7953
X7.0591Y-5.4528
X7.5945Y-2.8386
X7.5945Y-2.8661
X7.5945Y-2.8937
X7.5945Y-4.4961
X7.5945Y-4.5236
X7.5945Y-4.5512
X7.6929Y-2.8346
X7.6929Y-2.8622
X7.6929Y-2.8898
X7.6929Y-4.4921
X7.6929Y-4.5197
X7.6929Y-4.5472
T0
M30
