%TF.GenerationSoftware,KiCad,Pcbnew,5.1.9-73d0e3b20d~88~ubuntu18.04.1*%
%TF.CreationDate,2021-11-28T02:45:39+02:00*%
%TF.ProjectId,ESP8266-Breakout-panel,45535038-3236-4362-9d42-7265616b6f75,rev?*%
%TF.SameCoordinates,Original*%
%TF.FileFunction,Soldermask,Bot*%
%TF.FilePolarity,Negative*%
%FSLAX46Y46*%
G04 Gerber Fmt 4.6, Leading zero omitted, Abs format (unit mm)*
G04 Created by KiCad (PCBNEW 5.1.9-73d0e3b20d~88~ubuntu18.04.1) date 2021-11-28 02:45:39*
%MOMM*%
%LPD*%
G01*
G04 APERTURE LIST*
%ADD10C,3.000000*%
%ADD11R,1.500000X2.000000*%
%ADD12R,3.800000X2.000000*%
%ADD13R,1.700000X1.700000*%
%ADD14O,1.700000X1.700000*%
%ADD15C,0.100000*%
%ADD16C,0.500000*%
G04 APERTURE END LIST*
D10*
%TO.C,TP102*%
X187800000Y-133750000D03*
%TD*%
%TO.C,TP102*%
X159200000Y-133750000D03*
%TD*%
%TO.C,TP102*%
X130600000Y-133750000D03*
%TD*%
%TO.C,TP102*%
X187800000Y-91650000D03*
%TD*%
%TO.C,TP102*%
X159200000Y-91650000D03*
%TD*%
D11*
%TO.C,U101*%
X182750000Y-114200000D03*
X178150000Y-114200000D03*
X180450000Y-114200000D03*
D12*
X180450000Y-107900000D03*
%TD*%
D11*
%TO.C,U101*%
X154150000Y-114200000D03*
X149550000Y-114200000D03*
X151850000Y-114200000D03*
D12*
X151850000Y-107900000D03*
%TD*%
D11*
%TO.C,U101*%
X125550000Y-114200000D03*
X120950000Y-114200000D03*
X123250000Y-114200000D03*
D12*
X123250000Y-107900000D03*
%TD*%
D11*
%TO.C,U101*%
X182750000Y-72100000D03*
X178150000Y-72100000D03*
X180450000Y-72100000D03*
D12*
X180450000Y-65800000D03*
%TD*%
D11*
%TO.C,U101*%
X154150000Y-72100000D03*
X149550000Y-72100000D03*
X151850000Y-72100000D03*
D12*
X151850000Y-65800000D03*
%TD*%
D13*
%TO.C,J101*%
X168400000Y-106450000D03*
D14*
X168400000Y-108990000D03*
X168400000Y-111530000D03*
X168400000Y-114070000D03*
X168400000Y-116610000D03*
X168400000Y-119150000D03*
X168400000Y-121690000D03*
X168400000Y-124230000D03*
X168400000Y-126770000D03*
%TD*%
D13*
%TO.C,J101*%
X139800000Y-106450000D03*
D14*
X139800000Y-108990000D03*
X139800000Y-111530000D03*
X139800000Y-114070000D03*
X139800000Y-116610000D03*
X139800000Y-119150000D03*
X139800000Y-121690000D03*
X139800000Y-124230000D03*
X139800000Y-126770000D03*
%TD*%
D13*
%TO.C,J101*%
X111200000Y-106450000D03*
D14*
X111200000Y-108990000D03*
X111200000Y-111530000D03*
X111200000Y-114070000D03*
X111200000Y-116610000D03*
X111200000Y-119150000D03*
X111200000Y-121690000D03*
X111200000Y-124230000D03*
X111200000Y-126770000D03*
%TD*%
D13*
%TO.C,J101*%
X168400000Y-64350000D03*
D14*
X168400000Y-66890000D03*
X168400000Y-69430000D03*
X168400000Y-71970000D03*
X168400000Y-74510000D03*
X168400000Y-77050000D03*
X168400000Y-79590000D03*
X168400000Y-82130000D03*
X168400000Y-84670000D03*
%TD*%
D13*
%TO.C,J101*%
X139800000Y-64350000D03*
D14*
X139800000Y-66890000D03*
X139800000Y-69430000D03*
X139800000Y-71970000D03*
X139800000Y-74510000D03*
X139800000Y-77050000D03*
X139800000Y-79590000D03*
X139800000Y-82130000D03*
X139800000Y-84670000D03*
%TD*%
D15*
%TO.C,JP501*%
G36*
X181200000Y-118050000D02*
G01*
X181200000Y-118550000D01*
X181199398Y-118550000D01*
X181199398Y-118574534D01*
X181194588Y-118623365D01*
X181185016Y-118671490D01*
X181170772Y-118718445D01*
X181151995Y-118763778D01*
X181128864Y-118807051D01*
X181101604Y-118847850D01*
X181070476Y-118885779D01*
X181035779Y-118920476D01*
X180997850Y-118951604D01*
X180957051Y-118978864D01*
X180913778Y-119001995D01*
X180868445Y-119020772D01*
X180821490Y-119035016D01*
X180773365Y-119044588D01*
X180724534Y-119049398D01*
X180700000Y-119049398D01*
X180700000Y-119050000D01*
X180200000Y-119050000D01*
X180200000Y-119049398D01*
X180175466Y-119049398D01*
X180126635Y-119044588D01*
X180078510Y-119035016D01*
X180031555Y-119020772D01*
X179986222Y-119001995D01*
X179942949Y-118978864D01*
X179902150Y-118951604D01*
X179864221Y-118920476D01*
X179829524Y-118885779D01*
X179798396Y-118847850D01*
X179771136Y-118807051D01*
X179748005Y-118763778D01*
X179729228Y-118718445D01*
X179714984Y-118671490D01*
X179705412Y-118623365D01*
X179700602Y-118574534D01*
X179700602Y-118550000D01*
X179700000Y-118550000D01*
X179700000Y-118050000D01*
X181200000Y-118050000D01*
G37*
G36*
X179700602Y-117250000D02*
G01*
X179700602Y-117225466D01*
X179705412Y-117176635D01*
X179714984Y-117128510D01*
X179729228Y-117081555D01*
X179748005Y-117036222D01*
X179771136Y-116992949D01*
X179798396Y-116952150D01*
X179829524Y-116914221D01*
X179864221Y-116879524D01*
X179902150Y-116848396D01*
X179942949Y-116821136D01*
X179986222Y-116798005D01*
X180031555Y-116779228D01*
X180078510Y-116764984D01*
X180126635Y-116755412D01*
X180175466Y-116750602D01*
X180200000Y-116750602D01*
X180200000Y-116750000D01*
X180700000Y-116750000D01*
X180700000Y-116750602D01*
X180724534Y-116750602D01*
X180773365Y-116755412D01*
X180821490Y-116764984D01*
X180868445Y-116779228D01*
X180913778Y-116798005D01*
X180957051Y-116821136D01*
X180997850Y-116848396D01*
X181035779Y-116879524D01*
X181070476Y-116914221D01*
X181101604Y-116952150D01*
X181128864Y-116992949D01*
X181151995Y-117036222D01*
X181170772Y-117081555D01*
X181185016Y-117128510D01*
X181194588Y-117176635D01*
X181199398Y-117225466D01*
X181199398Y-117250000D01*
X181200000Y-117250000D01*
X181200000Y-117750000D01*
X179700000Y-117750000D01*
X179700000Y-117250000D01*
X179700602Y-117250000D01*
G37*
%TD*%
%TO.C,JP501*%
G36*
X152600000Y-118050000D02*
G01*
X152600000Y-118550000D01*
X152599398Y-118550000D01*
X152599398Y-118574534D01*
X152594588Y-118623365D01*
X152585016Y-118671490D01*
X152570772Y-118718445D01*
X152551995Y-118763778D01*
X152528864Y-118807051D01*
X152501604Y-118847850D01*
X152470476Y-118885779D01*
X152435779Y-118920476D01*
X152397850Y-118951604D01*
X152357051Y-118978864D01*
X152313778Y-119001995D01*
X152268445Y-119020772D01*
X152221490Y-119035016D01*
X152173365Y-119044588D01*
X152124534Y-119049398D01*
X152100000Y-119049398D01*
X152100000Y-119050000D01*
X151600000Y-119050000D01*
X151600000Y-119049398D01*
X151575466Y-119049398D01*
X151526635Y-119044588D01*
X151478510Y-119035016D01*
X151431555Y-119020772D01*
X151386222Y-119001995D01*
X151342949Y-118978864D01*
X151302150Y-118951604D01*
X151264221Y-118920476D01*
X151229524Y-118885779D01*
X151198396Y-118847850D01*
X151171136Y-118807051D01*
X151148005Y-118763778D01*
X151129228Y-118718445D01*
X151114984Y-118671490D01*
X151105412Y-118623365D01*
X151100602Y-118574534D01*
X151100602Y-118550000D01*
X151100000Y-118550000D01*
X151100000Y-118050000D01*
X152600000Y-118050000D01*
G37*
G36*
X151100602Y-117250000D02*
G01*
X151100602Y-117225466D01*
X151105412Y-117176635D01*
X151114984Y-117128510D01*
X151129228Y-117081555D01*
X151148005Y-117036222D01*
X151171136Y-116992949D01*
X151198396Y-116952150D01*
X151229524Y-116914221D01*
X151264221Y-116879524D01*
X151302150Y-116848396D01*
X151342949Y-116821136D01*
X151386222Y-116798005D01*
X151431555Y-116779228D01*
X151478510Y-116764984D01*
X151526635Y-116755412D01*
X151575466Y-116750602D01*
X151600000Y-116750602D01*
X151600000Y-116750000D01*
X152100000Y-116750000D01*
X152100000Y-116750602D01*
X152124534Y-116750602D01*
X152173365Y-116755412D01*
X152221490Y-116764984D01*
X152268445Y-116779228D01*
X152313778Y-116798005D01*
X152357051Y-116821136D01*
X152397850Y-116848396D01*
X152435779Y-116879524D01*
X152470476Y-116914221D01*
X152501604Y-116952150D01*
X152528864Y-116992949D01*
X152551995Y-117036222D01*
X152570772Y-117081555D01*
X152585016Y-117128510D01*
X152594588Y-117176635D01*
X152599398Y-117225466D01*
X152599398Y-117250000D01*
X152600000Y-117250000D01*
X152600000Y-117750000D01*
X151100000Y-117750000D01*
X151100000Y-117250000D01*
X151100602Y-117250000D01*
G37*
%TD*%
%TO.C,JP501*%
G36*
X124000000Y-118050000D02*
G01*
X124000000Y-118550000D01*
X123999398Y-118550000D01*
X123999398Y-118574534D01*
X123994588Y-118623365D01*
X123985016Y-118671490D01*
X123970772Y-118718445D01*
X123951995Y-118763778D01*
X123928864Y-118807051D01*
X123901604Y-118847850D01*
X123870476Y-118885779D01*
X123835779Y-118920476D01*
X123797850Y-118951604D01*
X123757051Y-118978864D01*
X123713778Y-119001995D01*
X123668445Y-119020772D01*
X123621490Y-119035016D01*
X123573365Y-119044588D01*
X123524534Y-119049398D01*
X123500000Y-119049398D01*
X123500000Y-119050000D01*
X123000000Y-119050000D01*
X123000000Y-119049398D01*
X122975466Y-119049398D01*
X122926635Y-119044588D01*
X122878510Y-119035016D01*
X122831555Y-119020772D01*
X122786222Y-119001995D01*
X122742949Y-118978864D01*
X122702150Y-118951604D01*
X122664221Y-118920476D01*
X122629524Y-118885779D01*
X122598396Y-118847850D01*
X122571136Y-118807051D01*
X122548005Y-118763778D01*
X122529228Y-118718445D01*
X122514984Y-118671490D01*
X122505412Y-118623365D01*
X122500602Y-118574534D01*
X122500602Y-118550000D01*
X122500000Y-118550000D01*
X122500000Y-118050000D01*
X124000000Y-118050000D01*
G37*
G36*
X122500602Y-117250000D02*
G01*
X122500602Y-117225466D01*
X122505412Y-117176635D01*
X122514984Y-117128510D01*
X122529228Y-117081555D01*
X122548005Y-117036222D01*
X122571136Y-116992949D01*
X122598396Y-116952150D01*
X122629524Y-116914221D01*
X122664221Y-116879524D01*
X122702150Y-116848396D01*
X122742949Y-116821136D01*
X122786222Y-116798005D01*
X122831555Y-116779228D01*
X122878510Y-116764984D01*
X122926635Y-116755412D01*
X122975466Y-116750602D01*
X123000000Y-116750602D01*
X123000000Y-116750000D01*
X123500000Y-116750000D01*
X123500000Y-116750602D01*
X123524534Y-116750602D01*
X123573365Y-116755412D01*
X123621490Y-116764984D01*
X123668445Y-116779228D01*
X123713778Y-116798005D01*
X123757051Y-116821136D01*
X123797850Y-116848396D01*
X123835779Y-116879524D01*
X123870476Y-116914221D01*
X123901604Y-116952150D01*
X123928864Y-116992949D01*
X123951995Y-117036222D01*
X123970772Y-117081555D01*
X123985016Y-117128510D01*
X123994588Y-117176635D01*
X123999398Y-117225466D01*
X123999398Y-117250000D01*
X124000000Y-117250000D01*
X124000000Y-117750000D01*
X122500000Y-117750000D01*
X122500000Y-117250000D01*
X122500602Y-117250000D01*
G37*
%TD*%
%TO.C,JP501*%
G36*
X181200000Y-75950000D02*
G01*
X181200000Y-76450000D01*
X181199398Y-76450000D01*
X181199398Y-76474534D01*
X181194588Y-76523365D01*
X181185016Y-76571490D01*
X181170772Y-76618445D01*
X181151995Y-76663778D01*
X181128864Y-76707051D01*
X181101604Y-76747850D01*
X181070476Y-76785779D01*
X181035779Y-76820476D01*
X180997850Y-76851604D01*
X180957051Y-76878864D01*
X180913778Y-76901995D01*
X180868445Y-76920772D01*
X180821490Y-76935016D01*
X180773365Y-76944588D01*
X180724534Y-76949398D01*
X180700000Y-76949398D01*
X180700000Y-76950000D01*
X180200000Y-76950000D01*
X180200000Y-76949398D01*
X180175466Y-76949398D01*
X180126635Y-76944588D01*
X180078510Y-76935016D01*
X180031555Y-76920772D01*
X179986222Y-76901995D01*
X179942949Y-76878864D01*
X179902150Y-76851604D01*
X179864221Y-76820476D01*
X179829524Y-76785779D01*
X179798396Y-76747850D01*
X179771136Y-76707051D01*
X179748005Y-76663778D01*
X179729228Y-76618445D01*
X179714984Y-76571490D01*
X179705412Y-76523365D01*
X179700602Y-76474534D01*
X179700602Y-76450000D01*
X179700000Y-76450000D01*
X179700000Y-75950000D01*
X181200000Y-75950000D01*
G37*
G36*
X179700602Y-75150000D02*
G01*
X179700602Y-75125466D01*
X179705412Y-75076635D01*
X179714984Y-75028510D01*
X179729228Y-74981555D01*
X179748005Y-74936222D01*
X179771136Y-74892949D01*
X179798396Y-74852150D01*
X179829524Y-74814221D01*
X179864221Y-74779524D01*
X179902150Y-74748396D01*
X179942949Y-74721136D01*
X179986222Y-74698005D01*
X180031555Y-74679228D01*
X180078510Y-74664984D01*
X180126635Y-74655412D01*
X180175466Y-74650602D01*
X180200000Y-74650602D01*
X180200000Y-74650000D01*
X180700000Y-74650000D01*
X180700000Y-74650602D01*
X180724534Y-74650602D01*
X180773365Y-74655412D01*
X180821490Y-74664984D01*
X180868445Y-74679228D01*
X180913778Y-74698005D01*
X180957051Y-74721136D01*
X180997850Y-74748396D01*
X181035779Y-74779524D01*
X181070476Y-74814221D01*
X181101604Y-74852150D01*
X181128864Y-74892949D01*
X181151995Y-74936222D01*
X181170772Y-74981555D01*
X181185016Y-75028510D01*
X181194588Y-75076635D01*
X181199398Y-75125466D01*
X181199398Y-75150000D01*
X181200000Y-75150000D01*
X181200000Y-75650000D01*
X179700000Y-75650000D01*
X179700000Y-75150000D01*
X179700602Y-75150000D01*
G37*
%TD*%
%TO.C,JP501*%
G36*
X152600000Y-75950000D02*
G01*
X152600000Y-76450000D01*
X152599398Y-76450000D01*
X152599398Y-76474534D01*
X152594588Y-76523365D01*
X152585016Y-76571490D01*
X152570772Y-76618445D01*
X152551995Y-76663778D01*
X152528864Y-76707051D01*
X152501604Y-76747850D01*
X152470476Y-76785779D01*
X152435779Y-76820476D01*
X152397850Y-76851604D01*
X152357051Y-76878864D01*
X152313778Y-76901995D01*
X152268445Y-76920772D01*
X152221490Y-76935016D01*
X152173365Y-76944588D01*
X152124534Y-76949398D01*
X152100000Y-76949398D01*
X152100000Y-76950000D01*
X151600000Y-76950000D01*
X151600000Y-76949398D01*
X151575466Y-76949398D01*
X151526635Y-76944588D01*
X151478510Y-76935016D01*
X151431555Y-76920772D01*
X151386222Y-76901995D01*
X151342949Y-76878864D01*
X151302150Y-76851604D01*
X151264221Y-76820476D01*
X151229524Y-76785779D01*
X151198396Y-76747850D01*
X151171136Y-76707051D01*
X151148005Y-76663778D01*
X151129228Y-76618445D01*
X151114984Y-76571490D01*
X151105412Y-76523365D01*
X151100602Y-76474534D01*
X151100602Y-76450000D01*
X151100000Y-76450000D01*
X151100000Y-75950000D01*
X152600000Y-75950000D01*
G37*
G36*
X151100602Y-75150000D02*
G01*
X151100602Y-75125466D01*
X151105412Y-75076635D01*
X151114984Y-75028510D01*
X151129228Y-74981555D01*
X151148005Y-74936222D01*
X151171136Y-74892949D01*
X151198396Y-74852150D01*
X151229524Y-74814221D01*
X151264221Y-74779524D01*
X151302150Y-74748396D01*
X151342949Y-74721136D01*
X151386222Y-74698005D01*
X151431555Y-74679228D01*
X151478510Y-74664984D01*
X151526635Y-74655412D01*
X151575466Y-74650602D01*
X151600000Y-74650602D01*
X151600000Y-74650000D01*
X152100000Y-74650000D01*
X152100000Y-74650602D01*
X152124534Y-74650602D01*
X152173365Y-74655412D01*
X152221490Y-74664984D01*
X152268445Y-74679228D01*
X152313778Y-74698005D01*
X152357051Y-74721136D01*
X152397850Y-74748396D01*
X152435779Y-74779524D01*
X152470476Y-74814221D01*
X152501604Y-74852150D01*
X152528864Y-74892949D01*
X152551995Y-74936222D01*
X152570772Y-74981555D01*
X152585016Y-75028510D01*
X152594588Y-75076635D01*
X152599398Y-75125466D01*
X152599398Y-75150000D01*
X152600000Y-75150000D01*
X152600000Y-75650000D01*
X151100000Y-75650000D01*
X151100000Y-75150000D01*
X151100602Y-75150000D01*
G37*
%TD*%
D10*
%TO.C,TP101*%
X171900000Y-133700000D03*
%TD*%
%TO.C,TP101*%
X143300000Y-133700000D03*
%TD*%
%TO.C,TP101*%
X114700000Y-133700000D03*
%TD*%
%TO.C,TP101*%
X171900000Y-91600000D03*
%TD*%
%TO.C,TP101*%
X143300000Y-91600000D03*
%TD*%
D14*
%TO.C,J102*%
X191400000Y-126770000D03*
X191400000Y-124230000D03*
X191400000Y-121690000D03*
X191400000Y-119150000D03*
X191400000Y-116610000D03*
X191400000Y-114070000D03*
X191400000Y-111530000D03*
X191400000Y-108990000D03*
D13*
X191400000Y-106450000D03*
%TD*%
D14*
%TO.C,J102*%
X162800000Y-126770000D03*
X162800000Y-124230000D03*
X162800000Y-121690000D03*
X162800000Y-119150000D03*
X162800000Y-116610000D03*
X162800000Y-114070000D03*
X162800000Y-111530000D03*
X162800000Y-108990000D03*
D13*
X162800000Y-106450000D03*
%TD*%
D14*
%TO.C,J102*%
X134200000Y-126770000D03*
X134200000Y-124230000D03*
X134200000Y-121690000D03*
X134200000Y-119150000D03*
X134200000Y-116610000D03*
X134200000Y-114070000D03*
X134200000Y-111530000D03*
X134200000Y-108990000D03*
D13*
X134200000Y-106450000D03*
%TD*%
D14*
%TO.C,J102*%
X191400000Y-84670000D03*
X191400000Y-82130000D03*
X191400000Y-79590000D03*
X191400000Y-77050000D03*
X191400000Y-74510000D03*
X191400000Y-71970000D03*
X191400000Y-69430000D03*
X191400000Y-66890000D03*
D13*
X191400000Y-64350000D03*
%TD*%
D14*
%TO.C,J102*%
X162800000Y-84670000D03*
X162800000Y-82130000D03*
X162800000Y-79590000D03*
X162800000Y-77050000D03*
X162800000Y-74510000D03*
X162800000Y-71970000D03*
X162800000Y-69430000D03*
X162800000Y-66890000D03*
D13*
X162800000Y-64350000D03*
%TD*%
D14*
%TO.C,J501*%
X173650000Y-124800000D03*
X176190000Y-124800000D03*
X178730000Y-124800000D03*
X181270000Y-124800000D03*
X183810000Y-124800000D03*
D13*
X186350000Y-124800000D03*
%TD*%
D14*
%TO.C,J501*%
X145050000Y-124800000D03*
X147590000Y-124800000D03*
X150130000Y-124800000D03*
X152670000Y-124800000D03*
X155210000Y-124800000D03*
D13*
X157750000Y-124800000D03*
%TD*%
D14*
%TO.C,J501*%
X116450000Y-124800000D03*
X118990000Y-124800000D03*
X121530000Y-124800000D03*
X124070000Y-124800000D03*
X126610000Y-124800000D03*
D13*
X129150000Y-124800000D03*
%TD*%
D14*
%TO.C,J501*%
X173650000Y-82700000D03*
X176190000Y-82700000D03*
X178730000Y-82700000D03*
X181270000Y-82700000D03*
X183810000Y-82700000D03*
D13*
X186350000Y-82700000D03*
%TD*%
D14*
%TO.C,J501*%
X145050000Y-82700000D03*
X147590000Y-82700000D03*
X150130000Y-82700000D03*
X152670000Y-82700000D03*
X155210000Y-82700000D03*
D13*
X157750000Y-82700000D03*
%TD*%
%TO.C,J501*%
X129150000Y-82700000D03*
D14*
X126610000Y-82700000D03*
X124070000Y-82700000D03*
X121530000Y-82700000D03*
X118990000Y-82700000D03*
X116450000Y-82700000D03*
%TD*%
D10*
%TO.C,TP102*%
X130600000Y-91650000D03*
%TD*%
D14*
%TO.C,J101*%
X111200000Y-84670000D03*
X111200000Y-82130000D03*
X111200000Y-79590000D03*
X111200000Y-77050000D03*
X111200000Y-74510000D03*
X111200000Y-71970000D03*
X111200000Y-69430000D03*
X111200000Y-66890000D03*
D13*
X111200000Y-64350000D03*
%TD*%
D10*
%TO.C,TP101*%
X114700000Y-91600000D03*
%TD*%
D13*
%TO.C,J102*%
X134200000Y-64350000D03*
D14*
X134200000Y-66890000D03*
X134200000Y-69430000D03*
X134200000Y-71970000D03*
X134200000Y-74510000D03*
X134200000Y-77050000D03*
X134200000Y-79590000D03*
X134200000Y-82130000D03*
X134200000Y-84670000D03*
%TD*%
D15*
%TO.C,JP501*%
G36*
X122500602Y-75150000D02*
G01*
X122500602Y-75125466D01*
X122505412Y-75076635D01*
X122514984Y-75028510D01*
X122529228Y-74981555D01*
X122548005Y-74936222D01*
X122571136Y-74892949D01*
X122598396Y-74852150D01*
X122629524Y-74814221D01*
X122664221Y-74779524D01*
X122702150Y-74748396D01*
X122742949Y-74721136D01*
X122786222Y-74698005D01*
X122831555Y-74679228D01*
X122878510Y-74664984D01*
X122926635Y-74655412D01*
X122975466Y-74650602D01*
X123000000Y-74650602D01*
X123000000Y-74650000D01*
X123500000Y-74650000D01*
X123500000Y-74650602D01*
X123524534Y-74650602D01*
X123573365Y-74655412D01*
X123621490Y-74664984D01*
X123668445Y-74679228D01*
X123713778Y-74698005D01*
X123757051Y-74721136D01*
X123797850Y-74748396D01*
X123835779Y-74779524D01*
X123870476Y-74814221D01*
X123901604Y-74852150D01*
X123928864Y-74892949D01*
X123951995Y-74936222D01*
X123970772Y-74981555D01*
X123985016Y-75028510D01*
X123994588Y-75076635D01*
X123999398Y-75125466D01*
X123999398Y-75150000D01*
X124000000Y-75150000D01*
X124000000Y-75650000D01*
X122500000Y-75650000D01*
X122500000Y-75150000D01*
X122500602Y-75150000D01*
G37*
G36*
X124000000Y-75950000D02*
G01*
X124000000Y-76450000D01*
X123999398Y-76450000D01*
X123999398Y-76474534D01*
X123994588Y-76523365D01*
X123985016Y-76571490D01*
X123970772Y-76618445D01*
X123951995Y-76663778D01*
X123928864Y-76707051D01*
X123901604Y-76747850D01*
X123870476Y-76785779D01*
X123835779Y-76820476D01*
X123797850Y-76851604D01*
X123757051Y-76878864D01*
X123713778Y-76901995D01*
X123668445Y-76920772D01*
X123621490Y-76935016D01*
X123573365Y-76944588D01*
X123524534Y-76949398D01*
X123500000Y-76949398D01*
X123500000Y-76950000D01*
X123000000Y-76950000D01*
X123000000Y-76949398D01*
X122975466Y-76949398D01*
X122926635Y-76944588D01*
X122878510Y-76935016D01*
X122831555Y-76920772D01*
X122786222Y-76901995D01*
X122742949Y-76878864D01*
X122702150Y-76851604D01*
X122664221Y-76820476D01*
X122629524Y-76785779D01*
X122598396Y-76747850D01*
X122571136Y-76707051D01*
X122548005Y-76663778D01*
X122529228Y-76618445D01*
X122514984Y-76571490D01*
X122505412Y-76523365D01*
X122500602Y-76474534D01*
X122500602Y-76450000D01*
X122500000Y-76450000D01*
X122500000Y-75950000D01*
X124000000Y-75950000D01*
G37*
%TD*%
D12*
%TO.C,U101*%
X123250000Y-65800000D03*
D11*
X123250000Y-72100000D03*
X120950000Y-72100000D03*
X125550000Y-72100000D03*
%TD*%
D16*
%TO.C,REF\u002A\u002A*%
X195400000Y-115500000D03*
%TD*%
%TO.C,REF\u002A\u002A*%
X166800000Y-115500000D03*
%TD*%
%TO.C,REF\u002A\u002A*%
X138200000Y-115500000D03*
%TD*%
%TO.C,REF\u002A\u002A*%
X109600000Y-115500000D03*
%TD*%
%TO.C,REF\u002A\u002A*%
X195400000Y-73400000D03*
%TD*%
%TO.C,REF\u002A\u002A*%
X166800000Y-73400000D03*
%TD*%
%TO.C,REF\u002A\u002A*%
X138200000Y-73400000D03*
%TD*%
%TO.C,REF\u002A\u002A*%
X192900000Y-115600000D03*
%TD*%
%TO.C,REF\u002A\u002A*%
X164300000Y-115600000D03*
%TD*%
%TO.C,REF\u002A\u002A*%
X135700000Y-115600000D03*
%TD*%
%TO.C,REF\u002A\u002A*%
X107100000Y-115600000D03*
%TD*%
%TO.C,REF\u002A\u002A*%
X192900000Y-73500000D03*
%TD*%
%TO.C,REF\u002A\u002A*%
X164300000Y-73500000D03*
%TD*%
%TO.C,REF\u002A\u002A*%
X135700000Y-73500000D03*
%TD*%
%TO.C,REF\u002A\u002A*%
X192900000Y-114900000D03*
%TD*%
%TO.C,REF\u002A\u002A*%
X164300000Y-114900000D03*
%TD*%
%TO.C,REF\u002A\u002A*%
X135700000Y-114900000D03*
%TD*%
%TO.C,REF\u002A\u002A*%
X107100000Y-114900000D03*
%TD*%
%TO.C,REF\u002A\u002A*%
X192900000Y-72800000D03*
%TD*%
%TO.C,REF\u002A\u002A*%
X164300000Y-72800000D03*
%TD*%
%TO.C,REF\u002A\u002A*%
X135700000Y-72800000D03*
%TD*%
%TO.C,REF\u002A\u002A*%
X192900000Y-114200000D03*
%TD*%
%TO.C,REF\u002A\u002A*%
X164300000Y-114200000D03*
%TD*%
%TO.C,REF\u002A\u002A*%
X135700000Y-114200000D03*
%TD*%
%TO.C,REF\u002A\u002A*%
X107100000Y-114200000D03*
%TD*%
%TO.C,REF\u002A\u002A*%
X192900000Y-72100000D03*
%TD*%
%TO.C,REF\u002A\u002A*%
X164300000Y-72100000D03*
%TD*%
%TO.C,REF\u002A\u002A*%
X135700000Y-72100000D03*
%TD*%
%TO.C,REF\u002A\u002A*%
X195400000Y-114100000D03*
%TD*%
%TO.C,REF\u002A\u002A*%
X166800000Y-114100000D03*
%TD*%
%TO.C,REF\u002A\u002A*%
X138200000Y-114100000D03*
%TD*%
%TO.C,REF\u002A\u002A*%
X109600000Y-114100000D03*
%TD*%
%TO.C,REF\u002A\u002A*%
X195400000Y-72000000D03*
%TD*%
%TO.C,REF\u002A\u002A*%
X166800000Y-72000000D03*
%TD*%
%TO.C,REF\u002A\u002A*%
X138200000Y-72000000D03*
%TD*%
%TO.C,REF\u002A\u002A*%
X195400000Y-114800000D03*
%TD*%
%TO.C,REF\u002A\u002A*%
X166800000Y-114800000D03*
%TD*%
%TO.C,REF\u002A\u002A*%
X138200000Y-114800000D03*
%TD*%
%TO.C,REF\u002A\u002A*%
X109600000Y-114800000D03*
%TD*%
%TO.C,REF\u002A\u002A*%
X195400000Y-72700000D03*
%TD*%
%TO.C,REF\u002A\u002A*%
X166800000Y-72700000D03*
%TD*%
%TO.C,REF\u002A\u002A*%
X138200000Y-72700000D03*
%TD*%
%TO.C,REF\u002A\u002A*%
X109600000Y-72700000D03*
%TD*%
%TO.C,REF\u002A\u002A*%
X109600000Y-72000000D03*
%TD*%
%TO.C,REF\u002A\u002A*%
X107100000Y-72800000D03*
%TD*%
%TO.C,REF\u002A\u002A*%
X107100000Y-72100000D03*
%TD*%
%TO.C,REF\u002A\u002A*%
X107100000Y-73500000D03*
%TD*%
%TO.C,REF\u002A\u002A*%
X109600000Y-73400000D03*
%TD*%
%TO.C,REF\u002A\u002A*%
X178600000Y-138500000D03*
%TD*%
%TO.C,REF\u002A\u002A*%
X150300000Y-138500000D03*
%TD*%
%TO.C,REF\u002A\u002A*%
X122000000Y-138500000D03*
%TD*%
%TO.C,REF\u002A\u002A*%
X178600000Y-96400000D03*
%TD*%
%TO.C,REF\u002A\u002A*%
X150300000Y-96400000D03*
%TD*%
%TO.C,REF\u002A\u002A*%
X122000000Y-96400000D03*
%TD*%
%TO.C,REF\u002A\u002A*%
X178600000Y-54300000D03*
%TD*%
%TO.C,REF\u002A\u002A*%
X150300000Y-54300000D03*
%TD*%
%TO.C,REF\u002A\u002A*%
X179300000Y-138500000D03*
%TD*%
%TO.C,REF\u002A\u002A*%
X151000000Y-138500000D03*
%TD*%
%TO.C,REF\u002A\u002A*%
X122700000Y-138500000D03*
%TD*%
%TO.C,REF\u002A\u002A*%
X179300000Y-96400000D03*
%TD*%
%TO.C,REF\u002A\u002A*%
X151000000Y-96400000D03*
%TD*%
%TO.C,REF\u002A\u002A*%
X122700000Y-96400000D03*
%TD*%
%TO.C,REF\u002A\u002A*%
X179300000Y-54300000D03*
%TD*%
%TO.C,REF\u002A\u002A*%
X151000000Y-54300000D03*
%TD*%
%TO.C,REF\u002A\u002A*%
X178500000Y-136000000D03*
%TD*%
%TO.C,REF\u002A\u002A*%
X150200000Y-136000000D03*
%TD*%
%TO.C,REF\u002A\u002A*%
X121900000Y-136000000D03*
%TD*%
%TO.C,REF\u002A\u002A*%
X178500000Y-93900000D03*
%TD*%
%TO.C,REF\u002A\u002A*%
X150200000Y-93900000D03*
%TD*%
%TO.C,REF\u002A\u002A*%
X121900000Y-93900000D03*
%TD*%
%TO.C,REF\u002A\u002A*%
X178500000Y-51800000D03*
%TD*%
%TO.C,REF\u002A\u002A*%
X150200000Y-51800000D03*
%TD*%
%TO.C,REF\u002A\u002A*%
X179200000Y-136000000D03*
%TD*%
%TO.C,REF\u002A\u002A*%
X150900000Y-136000000D03*
%TD*%
%TO.C,REF\u002A\u002A*%
X122600000Y-136000000D03*
%TD*%
%TO.C,REF\u002A\u002A*%
X179200000Y-93900000D03*
%TD*%
%TO.C,REF\u002A\u002A*%
X150900000Y-93900000D03*
%TD*%
%TO.C,REF\u002A\u002A*%
X122600000Y-93900000D03*
%TD*%
%TO.C,REF\u002A\u002A*%
X179200000Y-51800000D03*
%TD*%
%TO.C,REF\u002A\u002A*%
X150900000Y-51800000D03*
%TD*%
%TO.C,REF\u002A\u002A*%
X177800000Y-136000000D03*
%TD*%
%TO.C,REF\u002A\u002A*%
X149500000Y-136000000D03*
%TD*%
%TO.C,REF\u002A\u002A*%
X121200000Y-136000000D03*
%TD*%
%TO.C,REF\u002A\u002A*%
X177800000Y-93900000D03*
%TD*%
%TO.C,REF\u002A\u002A*%
X149500000Y-93900000D03*
%TD*%
%TO.C,REF\u002A\u002A*%
X121200000Y-93900000D03*
%TD*%
%TO.C,REF\u002A\u002A*%
X177800000Y-51800000D03*
%TD*%
%TO.C,REF\u002A\u002A*%
X149500000Y-51800000D03*
%TD*%
%TO.C,REF\u002A\u002A*%
X177900000Y-138500000D03*
%TD*%
%TO.C,REF\u002A\u002A*%
X149600000Y-138500000D03*
%TD*%
%TO.C,REF\u002A\u002A*%
X121300000Y-138500000D03*
%TD*%
%TO.C,REF\u002A\u002A*%
X177900000Y-96400000D03*
%TD*%
%TO.C,REF\u002A\u002A*%
X149600000Y-96400000D03*
%TD*%
%TO.C,REF\u002A\u002A*%
X121300000Y-96400000D03*
%TD*%
%TO.C,REF\u002A\u002A*%
X177900000Y-54300000D03*
%TD*%
%TO.C,REF\u002A\u002A*%
X149600000Y-54300000D03*
%TD*%
%TO.C,REF\u002A\u002A*%
X122000000Y-54300000D03*
%TD*%
%TO.C,REF\u002A\u002A*%
X122700000Y-54300000D03*
%TD*%
%TO.C,REF\u002A\u002A*%
X121300000Y-54300000D03*
%TD*%
%TO.C,REF\u002A\u002A*%
X122600000Y-51800000D03*
%TD*%
%TO.C,REF\u002A\u002A*%
X121900000Y-51800000D03*
%TD*%
%TO.C,REF\u002A\u002A*%
X121200000Y-51800000D03*
%TD*%
M02*
